<svg width="20" height="20" viewBox="0 0 20 20" fill="none" xmlns="http://www.w3.org/2000/svg">
<path d="M7.81207 11.248H3.43622C2.60012 11.248 2.18207 12.2559 2.77203 12.8496L4.05743 14.0605L0.181676 17.9395C-0.0605587 18.1816 -0.0605587 18.5801 0.181676 18.8223L1.17406 19.8145C1.41629 20.0566 1.81481 20.0566 2.05704 19.8145L5.93671 15.9355L7.15179 17.2246C7.74175 17.8145 8.74975 17.3965 8.74975 16.5605V12.1855C8.74975 11.666 8.33171 11.248 7.81207 11.248ZM12.1879 8.74805H16.5638C17.3999 8.74805 17.8179 7.73633 17.228 7.14648L15.9387 5.93555L19.8183 2.05664C20.0606 1.81445 20.0606 1.41602 19.8183 1.17383L18.8259 0.181641C18.5837 -0.0605469 18.1852 -0.0605469 17.943 0.181641L14.0633 4.06055L12.8482 2.77148C12.2583 2.18164 11.2502 2.59961 11.2502 3.43555V7.81055C11.2502 8.33008 11.6683 8.74805 12.1879 8.74805ZM15.9387 14.0605L17.228 12.8457C17.8179 12.2559 17.3999 11.248 16.5638 11.248H12.1879C11.6683 11.248 11.2502 11.666 11.2502 12.1855V16.5605C11.2502 17.3965 12.2622 17.8145 12.8521 17.2246L14.0633 15.9395L17.943 19.8184C18.1852 20.0605 18.5837 20.0605 18.8259 19.8184L19.8183 18.8262C20.0606 18.584 20.0606 18.1855 19.8183 17.9434L15.9387 14.0605ZM7.14788 2.77539L5.93671 4.06055L2.05704 0.181641C1.81481 -0.0605469 1.41629 -0.0605469 1.17406 0.181641L0.181676 1.17383C-0.0605587 1.41602 -0.0605587 1.81445 0.181676 2.05664L4.06134 5.93555L2.77203 7.15039C2.18207 7.74023 2.60012 8.74805 3.43622 8.74805H7.81207C8.33171 8.74805 8.74975 8.33008 8.74975 7.81055V3.43555C8.74975 2.60352 7.73784 2.18555 7.14788 2.77539Z" fill="#00877A"/>
</svg>
