<svg width="16" height="18" viewBox="0 0 16 18" fill="none" xmlns="http://www.w3.org/2000/svg">
<path d="M16 2.57143V4.17857C16 5.59487 12.4167 6.75 8 6.75C3.58332 6.75 0 5.59487 0 4.17857V2.57143C0 1.15513 3.58332 0 8 0C12.4167 0 16 1.15513 16 2.57143ZM16 6.1875V9.80357C16 11.2199 12.4167 12.375 8 12.375C3.58332 12.375 0 11.2199 0 9.80357V6.1875C1.71875 7.35268 4.86457 7.89511 8 7.89511C11.1354 7.89511 14.2812 7.35268 16 6.1875ZM16 11.8125V15.4286C16 16.8449 12.4167 18 8 18C3.58332 18 0 16.8449 0 15.4286V11.8125C1.71875 12.9777 4.86457 13.5201 8 13.5201C11.1354 13.5201 14.2812 12.9777 16 11.8125Z" fill="#00877A"/>
</svg>
