<svg width="32" height="55" viewBox="0 0 32 55" fill="none" xmlns="http://www.w3.org/2000/svg">
<path d="M12.4357 54.5097V48.1099C9.49342 47.5145 6.95359 46.3735 4.81625 44.6867C2.67891 42.9999 1.1106 40.6186 0.111328 37.5427L6.27353 35.3102C7.10626 37.6915 8.34148 39.5023 9.97918 40.7426C11.6169 41.9829 13.7681 42.603 16.4328 42.603C18.709 42.603 20.6381 42.1441 22.2203 41.2263C23.8025 40.3085 24.5936 38.8822 24.5936 36.9474C24.5936 35.211 23.9829 33.8343 22.7616 32.8172C21.5402 31.8002 18.709 30.6468 14.2677 29.3569C9.49342 28.0174 6.21802 26.4174 4.44152 24.557C2.66503 22.6966 1.77679 20.4269 1.77679 17.7479C1.77679 14.5231 2.94261 12.0178 5.27426 10.2318C7.6059 8.44577 9.99306 7.42875 12.4357 7.18069V0.929688H19.0976V7.18069C21.8733 7.57758 24.1634 8.48298 25.9676 9.8969C27.7718 11.3108 29.0903 13.0348 29.9231 15.0689L23.7609 17.4502C23.0947 15.8626 22.1509 14.672 20.9296 13.8782C19.7082 13.0844 18.0428 12.6875 15.9332 12.6875C13.4905 12.6875 11.6308 13.1712 10.3539 14.1386C9.07706 15.1061 8.43863 16.3091 8.43863 17.7479C8.43863 19.385 9.27136 20.6749 10.9368 21.6175C12.6023 22.5601 15.4891 23.5524 19.5972 24.5942C23.4278 25.5864 26.3284 27.1616 28.2992 29.3197C30.27 31.4777 31.2554 33.9707 31.2554 36.7985C31.2554 40.3209 30.0896 42.9999 27.758 44.8355C25.4263 46.6711 22.5395 47.8122 19.0976 48.2587V54.5097H12.4357Z" fill="#1C1B1F"/>
</svg>
