<?xml version="1.0" encoding="utf-8"?>
<!-- Generator: Adobe Illustrator 26.1.0, SVG Export Plug-In . SVG Version: 6.00 Build 0)  -->
<svg version="1.1" id="Capa_1" xmlns="http://www.w3.org/2000/svg" xmlns:xlink="http://www.w3.org/1999/xlink" x="0px" y="0px"
	 viewBox="0 0 43 56" style="enable-background:new 0 0 43 56;" xml:space="preserve">
<style type="text/css">
	.st0{fill:#1C1B1F;}
</style>
<path class="st0" d="M3.3,51.7v-5.1l1.2-0.6c0.8-0.4,1.7-1.1,2.7-1.9c1-0.8,1.9-1.9,2.7-3.2c0.8-1.3,1.2-2.8,1.2-4.5
	c0-0.5,0-0.9-0.1-1.3c-0.1-0.4-0.2-0.8-0.3-1.2H3.3v-5.1h4.5c-1.1-1.4-2.1-2.9-3.1-4.4c-1-1.6-1.5-3.5-1.5-5.8c0-3.9,1.6-7.3,4.8-10
	c3.2-2.7,7.2-4.1,11.8-4.1c3.6,0,6.8,0.8,9.5,2.5c2.8,1.7,4.8,3.8,6,6.5l-5.6,2c-0.8-1.7-2-3.1-3.8-4.2C24.3,10,22.3,9.4,20,9.4
	c-2.9,0-5.4,0.9-7.5,2.6c-2.1,1.7-3.1,3.9-3.1,6.3c0,2,0.6,3.8,1.8,5.1c1.2,1.4,2.4,3.1,3.7,5.1h12.6v5.1H17
	c0.1,0.4,0.2,0.8,0.2,1.2s0,0.9,0,1.3c0,2.1-0.4,4.1-1.3,5.8c-0.9,1.7-2,3.2-3.2,4.5h14.8c2,0,3.6-0.4,4.6-1.3
	c1.1-0.9,1.8-2,2.2-3.5l5.3,2.2c-0.6,2.3-2,4.2-4.3,5.6c-2.3,1.4-4.9,2.1-7.8,2.1H3.3z"/>
</svg>
