<svg width="25" height="25" viewBox="0 0 25 25" fill="none" xmlns="http://www.w3.org/2000/svg">
<path d="M24.231 9.88867L18.8599 9.13477L20.9019 4.04004C21.2276 3.22754 20.3355 2.46875 19.6035 2.93506L15.0117 5.85938L13.3472 0.625977C13.2149 0.208496 12.8575 0 12.5 0C12.1426 0 11.7852 0.208496 11.6529 0.625977L9.98831 5.85986L5.39651 2.93555C4.66458 2.46924 3.77298 3.22803 4.09817 4.04053L6.14017 9.13525L0.769072 9.88867C-0.0873736 10.0088 -0.289522 11.1714 0.474638 11.5815L5.26761 14.1528L1.63089 18.2319C1.09768 18.8301 1.5469 19.7422 2.27981 19.7422C2.34378 19.7422 2.41018 19.7354 2.47854 19.7202L7.77981 18.5654L7.57913 24.061C7.55813 24.6299 8.01224 24.9995 8.47806 24.9995C8.72952 24.9995 8.98538 24.8916 9.17142 24.6489L12.5005 20.3081L15.8296 24.6489C16.0157 24.8916 16.271 24.9995 16.523 24.9995C16.9888 24.9995 17.4429 24.6299 17.4219 24.061L17.2212 18.5654L22.5225 19.7202C23.3701 19.9038 23.9488 18.8804 23.3697 18.2314L19.7329 14.1523L24.5259 11.5811C25.2896 11.1714 25.0874 10.0088 24.231 9.88867ZM16.5288 15.2188L13.9951 14.667L14.0913 17.2935L12.5 15.2188L10.9087 17.2935L11.0044 14.667L8.47073 15.2188L10.209 13.269L7.918 12.04L10.4849 11.6797L9.50882 9.24463L11.7036 10.6421L12.5 8.14062L13.2954 10.6421L15.4903 9.24463L14.5142 11.6797L17.0811 12.04L14.7901 13.269L16.5288 15.2188Z" fill="#00877A"/>
</svg>
