<?xml version="1.0" encoding="utf-8"?>
<!-- Generator: Adobe Illustrator 26.1.0, SVG Export Plug-In . SVG Version: 6.00 Build 0)  -->
<svg version="1.1" id="Capa_1" xmlns="http://www.w3.org/2000/svg" xmlns:xlink="http://www.w3.org/1999/xlink" x="0px" y="0px"
	 viewBox="0 0 24 24" style="enable-background:new 0 0 24 24;" xml:space="preserve">
<style type="text/css">
	.st0{fill:#1F3047;}
</style>
<g>
	<path class="st0" d="M21,24h-2v-5c0-0.8-0.3-1.5-0.9-2.1C17.6,16.3,16.8,16,16,16H8c-0.8,0-1.5,0.3-2.1,0.9C5.3,17.4,5,18.2,5,19v5
		H3v-5c0-1.3,0.5-2.6,1.5-3.5C5.4,14.5,6.6,14,8,14H16c1.3,0,2.6,0.5,3.5,1.5c0.9,0.9,1.5,2.2,1.5,3.5V24z"/>
	<path class="st0" d="M12,12c-1.2,0-2.3-0.4-3.3-1c-1-0.7-1.8-1.6-2.2-2.7C6,7.2,5.9,6,6.1,4.8c0.2-1.2,0.8-2.2,1.6-3.1
		c0.8-0.8,1.9-1.4,3.1-1.6C12-0.1,13.2,0,14.3,0.5c1.1,0.5,2,1.2,2.7,2.2c0.7,1,1,2.1,1,3.3c0,1.6-0.6,3.1-1.8,4.2
		C15.1,11.4,13.6,12,12,12L12,12z M12,2c-0.8,0-1.6,0.2-2.2,0.7C9.1,3.1,8.6,3.7,8.3,4.5C8,5.2,7.9,6,8.1,6.8c0.2,0.8,0.5,1.5,1.1,2
		s1.3,0.9,2,1.1c0.8,0.2,1.6,0.1,2.3-0.2c0.7-0.3,1.4-0.8,1.8-1.5C15.8,7.6,16,6.8,16,6c0-1.1-0.4-2.1-1.2-2.8C14.1,2.4,13.1,2,12,2
		z"/>
</g>
</svg>
