<svg width="20" height="18" viewBox="0 0 20 18" fill="none" xmlns="http://www.w3.org/2000/svg">
<path d="M19.8532 14.0092L10.3548 17.9394C10.2428 17.9794 10.1221 18 10.0002 18C9.87834 18 9.75771 17.9794 9.64568 17.9394L0.146826 14.0092C-0.0465251 13.9288 -0.0465251 13.797 0.146826 13.7163L2.4216 12.7769C2.5338 12.7369 2.65458 12.7163 2.77664 12.7163C2.8987 12.7163 3.01949 12.7369 3.13168 12.7769L9.64568 15.4689C9.75764 15.509 9.8783 15.5297 10.0002 15.5297C10.1222 15.5297 10.2428 15.509 10.3548 15.4689L16.8688 12.7769C16.9809 12.7369 17.1016 12.7163 17.2236 12.7163C17.3456 12.7163 17.4663 12.7369 17.5784 12.7769L19.8532 13.7183C20.0489 13.797 20.0489 13.9288 19.8532 14.0092ZM19.8532 8.52359L17.5784 7.5822C17.4663 7.54224 17.3456 7.52162 17.2236 7.52162C17.1016 7.52162 16.9809 7.54224 16.8688 7.5822L10.3548 10.2774C10.2427 10.3172 10.1221 10.3377 10.0002 10.3377C9.87837 10.3377 9.75776 10.3172 9.64568 10.2774L3.13168 7.5822C3.01949 7.54225 2.8987 7.52164 2.77664 7.52164C2.65458 7.52164 2.5338 7.54225 2.4216 7.5822L0.146826 8.52359C-0.0465251 8.60395 -0.0465251 8.73613 0.146826 8.81729L9.64568 12.7468C9.75771 12.7867 9.87834 12.8073 10.0002 12.8073C10.1221 12.8073 10.2428 12.7867 10.3548 12.7468L19.8532 8.81729C20.0489 8.73613 20.0489 8.60435 19.8532 8.52359ZM0.146826 3.95448L9.6452 7.5822C9.87311 7.65654 10.1264 7.65654 10.3543 7.5822L19.8532 3.95448C20.0465 3.87975 20.0465 3.75801 19.8532 3.68368L10.3543 0.0563568C10.1266 -0.0187856 9.87293 -0.0187856 9.6452 0.0563568L0.146826 3.68368C-0.048942 3.75801 -0.048942 3.87975 0.146826 3.95448Z" fill="#00877A"/>
</svg>
