<svg width="300" height="300" viewBox="0 0 300 300" fill="none" xmlns="http://www.w3.org/2000/svg">
<path d="M0.5 12C0.5 5.64873 5.64873 0.5 12 0.5H288C294.351 0.5 299.5 5.64873 299.5 12V288C299.5 294.351 294.351 299.5 288 299.5H12C5.64873 299.5 0.5 294.351 0.5 288V12Z" fill="url(#paint0_linear_2080_816)" stroke="#D4D4D4"/>
<rect x="15" y="18" width="75" height="77" rx="5" fill="white"/>
<rect x="15" y="112" width="136" height="77" rx="5" fill="#FEFCF5"/>
<rect x="17" y="206" width="266" height="77" rx="3" fill="url(#paint1_linear_2080_816)"/>
<rect x="14.5" y="203.5" width="271" height="82" rx="4.5" stroke="url(#paint2_linear_2080_816)"/>
<path d="M59.5 169H55V142.55H46.5V139.15C51.35 139.15 54.75 138.4 55.8 133.3H59.5V169ZM78.3844 165.8C84.2344 165.8 86.5844 157.85 86.5844 151.15C86.5844 144.5 84.2344 136.9 78.3844 136.9C72.5344 136.9 70.1844 144.5 70.1844 151.15C70.1844 157.85 72.5344 165.8 78.3844 165.8ZM65.6844 151.15C65.6844 142.05 68.9844 133.1 78.3844 133.1C87.7844 133.1 91.0844 142.05 91.0844 151.15C91.0844 160.25 87.7844 169.6 78.3844 169.6C68.9844 169.6 65.6844 160.3 65.6844 151.15ZM93.1695 169L102.62 155.75L93.6695 143.15H97.9195L104.77 153L111.62 143.15H115.87L106.92 155.7L116.37 169H112.12L104.77 158.45L97.4195 169H93.1695Z" fill="#636584" fill-opacity="0.67"/>
<path d="M113.05 237.7C113.05 230.1 117.6 226.05 125.05 226.05C131.75 226.05 136.3 230.05 136.3 236.45C136.3 242.65 133.35 244.9 129.2 248.1C125 251.35 120.3 253.85 118.85 257.95H136.65V262H112.55C113 254.15 118 250.2 123.05 246.8C128.75 243.05 131.5 241 131.5 236.7C131.5 233.15 129.15 230.1 124.8 230.1C120.05 230.1 117.9 233.55 117.85 237.7H113.05ZM152.712 258.55C158.462 258.55 160.762 250.85 160.762 244.15C160.762 237.5 158.462 230.1 152.712 230.1C146.962 230.1 144.662 237.5 144.662 244.15C144.662 250.85 146.962 258.55 152.712 258.55ZM139.862 244.15C139.862 235.05 143.162 226.1 152.712 226.1C162.262 226.1 165.562 235.05 165.562 244.15C165.562 253.25 162.262 262.6 152.712 262.6C143.162 262.6 139.862 253.3 139.862 244.15ZM167.64 262L177.09 248.75L168.14 236.15H172.39L179.24 246L186.09 236.15H190.34L181.39 248.7L190.84 262H186.59L179.24 251.45L171.89 262H167.64Z" fill="white"/>
<path d="M50.2 42.1H35.65L34.05 52.7C35.75 51.05 38.5 50.15 41.4 50.15C48.55 50.15 53.3 54.65 53.3 62.4C53.3 69.05 48.4 74.6 40.8 74.6C34.6 74.6 29.05 70.75 28.6 64.45H33.1C33.6 67.95 36.75 70.8 40.8 70.8C44.9 70.8 48.8 67.9 48.8 62.4C48.8 57.45 46.3 54.05 40.6 54.05C37.4 54.05 35.15 55.9 34 58L29.35 57.45L32.1 38.3H50.2V42.1ZM55.1969 74L64.6469 60.75L55.6969 48.15H59.9469L66.7969 58L73.6469 48.15H77.8969L68.9469 60.7L78.3969 74H74.1469L66.7969 63.45L59.4469 74H55.1969Z" fill="#C4C0D0"/>
<defs>
<linearGradient id="paint0_linear_2080_816" x1="150" y1="0" x2="150" y2="300" gradientUnits="userSpaceOnUse">
<stop stop-color="#12002C"/>
<stop offset="1"/>
</linearGradient>
<linearGradient id="paint1_linear_2080_816" x1="17" y1="244.5" x2="283" y2="244.5" gradientUnits="userSpaceOnUse">
<stop stop-color="#00877A"/>
<stop offset="1" stop-color="#D9583B"/>
</linearGradient>
<linearGradient id="paint2_linear_2080_816" x1="14" y1="244.5" x2="286" y2="244.5" gradientUnits="userSpaceOnUse">
<stop stop-color="#FF8159"/>
<stop offset="1" stop-color="#2BDCBC"/>
</linearGradient>
</defs>
</svg>
