<svg width="300" height="300" viewBox="0 0 300 300" fill="none" xmlns="http://www.w3.org/2000/svg">
<rect x="0.5" y="0.5" width="299" height="299" rx="11.5" fill="url(#paint0_linear_2080_768)" stroke="#D4D4D4"/>
<rect x="18" y="16" width="121" height="268" rx="5" fill="#FAF9F6"/>
<rect x="159" y="280" width="121" height="4" rx="2" fill="url(#paint1_linear_2080_768)"/>
<rect x="159" y="187" width="121" height="97" rx="5" fill="url(#paint2_linear_2080_768)" fill-opacity="0.2"/>
<path d="M87.5736 118.3H72.3736L70.5736 130.6C72.2736 128.5 75.1736 127.15 78.7736 127.15C85.9236 127.15 90.4736 131.6 90.4736 139.4C90.4736 146.05 85.7736 151.6 78.1736 151.6C71.9736 151.6 66.6236 147.75 66.1736 141.45H69.6736C70.1236 145.65 73.7236 148.6 78.1736 148.6C82.6736 148.6 86.9736 145.5 86.9736 139.4C86.9736 133.8 83.9736 130.2 78.2736 130.2C74.2236 130.2 71.7236 132.7 70.5236 134.85L66.9236 134.45L69.6736 115.3H87.5736V118.3ZM62.5835 165.4C64.4235 165.4 65.6635 166.62 66.0235 167.64H66.0435V161.72H68.1235V176H66.0235V174.08H66.0035C65.6235 175.06 64.4235 176.24 62.5835 176.24C59.7035 176.24 57.8235 174.04 57.8235 170.8C57.8235 167.56 59.7035 165.4 62.5835 165.4ZM59.8635 170.8C59.8635 172.94 60.9235 174.54 63.0035 174.54C65.1435 174.54 66.1435 172.76 66.1435 170.8C66.1435 168.88 65.1235 167.1 63.0035 167.1C60.9835 167.1 59.8635 168.68 59.8635 170.8ZM70.211 168.8C70.451 167.22 71.771 165.38 74.471 165.38C78.091 165.38 78.731 167.64 78.731 169.56V173.76C78.731 174.54 78.791 175.44 78.891 176H76.751C76.711 175.56 76.711 175.14 76.711 174.64V174.2H76.691C76.391 175.02 75.531 176.26 73.331 176.26C70.931 176.26 69.711 174.74 69.711 173.18C69.711 170.28 73.311 170.12 74.831 169.86C76.171 169.64 76.691 169.32 76.691 168.46C76.691 167.6 75.891 167.04 74.511 167.04C73.331 167.04 72.451 167.72 72.211 168.8H70.211ZM71.751 173.14C71.751 174.04 72.551 174.64 73.791 174.64C75.271 174.64 76.731 173.7 76.731 171.2V169.94C76.511 170.56 76.011 171.14 74.031 171.48C72.571 171.76 71.751 172.18 71.751 173.14ZM81.536 165.66C82.576 168.46 83.576 171.12 84.596 173.9H84.636C85.496 171.26 86.456 168.44 87.376 165.66H89.556C87.516 171.22 87.036 172.32 84.936 178.02C84.476 179.26 83.696 180 82.296 180H80.716V178.32H81.856C82.776 178.32 82.976 177.84 83.256 177.12L83.596 176.26C82.116 172.54 80.736 169.14 79.356 165.66H81.536ZM96.009 168.76C95.889 167.52 94.869 167.04 93.869 167.04C92.929 167.04 92.049 167.58 92.049 168.38C92.049 169.14 92.769 169.58 93.729 169.82C94.209 169.94 94.649 170.04 95.109 170.16C96.729 170.58 98.169 171.36 98.169 173.04C98.169 175.16 96.009 176.26 94.009 176.26C92.089 176.26 89.929 175.38 89.729 172.86H91.769C91.989 174.08 92.749 174.6 94.049 174.6C95.049 174.6 96.129 174.24 96.129 173.16C96.129 172.3 95.309 172.02 94.389 171.78C93.909 171.66 93.409 171.54 92.929 171.4C91.329 171 90.029 170.06 90.029 168.46C90.029 166.54 91.949 165.4 93.929 165.4C96.049 165.4 97.789 166.52 98.009 168.76H96.009Z" fill="#636584" fill-opacity="0.67"/>
<path d="M192.431 124.45C192.631 119.05 196.281 115.1 202.831 115.1C209.081 115.1 212.731 118.7 212.731 123.6C212.731 128 210.781 130.2 207.831 131.75C211.781 132.95 214.581 135.65 214.581 141.05C214.581 147.2 210.181 151.55 202.731 151.55C195.431 151.55 191.481 147.75 190.831 141.3V140.8H194.481V141.4C194.981 146.45 198.181 148.65 202.781 148.65C207.731 148.65 211.081 145.55 211.081 140.95C211.081 135.25 206.481 133.55 201.881 133.55H200.781V130.3C201.531 130.3 202.181 130.25 202.831 130.2C206.631 129.9 209.231 127.85 209.231 123.9C209.231 120.3 206.831 118.1 202.731 118.1C198.581 118.1 196.331 120.5 195.981 123.75L195.881 124.45H192.431ZM219.381 145.15H223.381V151H219.381V145.15ZM237.807 151H234.307V124.1H226.157V121.45C232.057 121.45 234.107 121 234.957 115.3H237.807V151ZM184.889 168.76C184.769 167.52 183.749 167.04 182.749 167.04C181.809 167.04 180.929 167.58 180.929 168.38C180.929 169.14 181.649 169.58 182.609 169.82C183.089 169.94 183.529 170.04 183.989 170.16C185.609 170.58 187.049 171.36 187.049 173.04C187.049 175.16 184.889 176.26 182.889 176.26C180.969 176.26 178.809 175.38 178.609 172.86H180.649C180.869 174.08 181.629 174.6 182.929 174.6C183.929 174.6 185.009 174.24 185.009 173.16C185.009 172.3 184.189 172.02 183.269 171.78C182.789 171.66 182.289 171.54 181.809 171.4C180.209 171 178.909 170.06 178.909 168.46C178.909 166.54 180.829 165.4 182.809 165.4C184.929 165.4 186.669 166.52 186.889 168.76H184.889ZM197.815 172.94C197.235 175.08 195.475 176.26 193.095 176.26C190.015 176.26 187.955 174.04 187.955 170.78C187.955 167.66 190.115 165.4 193.075 165.4C196.655 165.4 197.955 168.22 197.975 171.02V171.4H189.935C190.095 173.38 191.335 174.58 193.075 174.58C194.355 174.58 195.435 174.08 195.795 172.94H197.815ZM189.955 169.86H195.935C195.775 168.22 194.855 167.04 193.075 167.04C191.315 167.04 190.195 168.18 189.955 169.86ZM208.943 172.74C208.403 174.98 206.763 176.26 204.263 176.26C201.103 176.26 198.903 174.04 198.903 170.84C198.903 167.62 201.103 165.4 204.263 165.4C206.863 165.4 208.443 166.86 208.863 168.86H206.863C206.483 167.88 205.743 167.06 204.223 167.06C202.223 167.06 200.943 168.72 200.943 170.84C200.943 172.94 202.223 174.58 204.223 174.58C205.603 174.58 206.503 173.94 206.923 172.74H208.943ZM215.169 176.26C212.069 176.26 209.909 173.98 209.909 170.84C209.909 167.7 212.069 165.4 215.169 165.4C218.269 165.4 220.409 167.7 220.409 170.84C220.409 173.98 218.269 176.26 215.169 176.26ZM211.949 170.84C211.949 172.88 213.229 174.56 215.169 174.56C217.089 174.56 218.389 172.88 218.389 170.84C218.389 168.78 217.089 167.1 215.169 167.1C213.229 167.1 211.949 168.78 211.949 170.84ZM221.887 176V165.66H223.927V167.54C224.467 166.36 225.427 165.4 227.027 165.4C229.727 165.4 230.747 167.18 230.747 169.42V176H228.707V169.76C228.707 168.04 228.047 167.16 226.627 167.16C225.147 167.16 223.947 168.42 223.947 171.06V176H221.887ZM236.916 165.4C238.756 165.4 239.996 166.62 240.356 167.64H240.376V161.72H242.456V176H240.356V174.08H240.336C239.956 175.06 238.756 176.24 236.916 176.24C234.036 176.24 232.156 174.04 232.156 170.8C232.156 167.56 234.036 165.4 236.916 165.4ZM234.196 170.8C234.196 172.94 235.256 174.54 237.336 174.54C239.476 174.54 240.476 172.76 240.476 170.8C240.476 168.88 239.456 167.1 237.336 167.1C235.316 167.1 234.196 168.68 234.196 170.8ZM250.223 168.76C250.103 167.52 249.083 167.04 248.083 167.04C247.143 167.04 246.263 167.58 246.263 168.38C246.263 169.14 246.983 169.58 247.943 169.82C248.423 169.94 248.863 170.04 249.323 170.16C250.943 170.58 252.383 171.36 252.383 173.04C252.383 175.16 250.223 176.26 248.223 176.26C246.303 176.26 244.143 175.38 243.943 172.86H245.983C246.203 174.08 246.963 174.6 248.263 174.6C249.263 174.6 250.343 174.24 250.343 173.16C250.343 172.3 249.523 172.02 248.603 171.78C248.123 171.66 247.623 171.54 247.143 171.4C245.543 171 244.243 170.06 244.243 168.46C244.243 166.54 246.163 165.4 248.143 165.4C250.263 165.4 252.003 166.52 252.223 168.76H250.223Z" fill="white"/>
<defs>
<linearGradient id="paint0_linear_2080_768" x1="150" y1="0" x2="150" y2="300" gradientUnits="userSpaceOnUse">
<stop stop-color="#12002C"/>
<stop offset="1" stop-color="#222222"/>
</linearGradient>
<linearGradient id="paint1_linear_2080_768" x1="159" y1="282" x2="280" y2="282" gradientUnits="userSpaceOnUse">
<stop stop-color="#00F8DF"/>
<stop offset="1" stop-color="#FF8159"/>
</linearGradient>
<linearGradient id="paint2_linear_2080_768" x1="159" y1="235.5" x2="280" y2="235.5" gradientUnits="userSpaceOnUse">
<stop stop-color="#00F8DF"/>
<stop offset="1" stop-color="#FF8159"/>
</linearGradient>
</defs>
</svg>
