<svg width="300" height="300" viewBox="0 0 300 300" fill="none" xmlns="http://www.w3.org/2000/svg">
<rect x="0.5" y="0.5" width="299" height="299" rx="11.5" fill="url(#paint0_linear_2080_776)" stroke="#D4D4D4"/>
<path d="M53 60C53 57.2386 55.2386 55 58 55H299V135H58C55.2386 135 53 132.761 53 130V60Z" fill="#00877A"/>
<path d="M1 173H242C244.761 173 247 175.239 247 178V248C247 250.761 244.761 253 242 253H1V173Z" fill="#D9583B"/>
<path d="M214 193.5C214 194.328 214.672 195 215.5 195H230.5C231.328 195 232 194.328 232 193.5V188H214V193.5ZM220 191.375C220 191.169 220.169 191 220.375 191H224.625C224.831 191 225 191.169 225 191.375V192.625C225 192.831 224.831 193 224.625 193H220.375C220.169 193 220 192.831 220 192.625V191.375ZM216 191.375C216 191.169 216.169 191 216.375 191H218.625C218.831 191 219 191.169 219 191.375V192.625C219 192.831 218.831 193 218.625 193H216.375C216.169 193 216 192.831 216 192.625V191.375ZM232 182.5V184H214V182.5C214 181.672 214.672 181 215.5 181H230.5C231.328 181 232 181.672 232 182.5Z" fill="white"/>
<path d="M53 85L299 85" stroke="black" stroke-width="0.5"/>
<path d="M103 55V85" stroke="black" stroke-width="0.5"/>
<path d="M1 203L247 203" stroke="black" stroke-width="0.5"/>
<path d="M195 173V203" stroke="black" stroke-width="0.5"/>
<path d="M128.112 67.004H129.932L132.634 75.138H132.676L135.392 67.004H137.212L133.656 76.986L131.64 77L128.112 67.004ZM139.511 68.6H137.817V67.004H139.511V68.6ZM137.803 77V69.762H139.427V77H137.803ZM142.564 69.762V71.106C142.942 70.098 143.698 69.706 144.734 69.692V71.232C144.65 71.232 144.23 71.232 144.006 71.302C143.292 71.442 142.592 71.82 142.592 73.696V77H140.968V69.762H142.564ZM147.857 74.508C147.857 75.292 148.081 75.712 148.781 75.712H149.257V77.014L148.473 77.028C146.807 77.042 146.261 76.048 146.261 74.704V71.022H145.127V69.762H146.261V68.11L147.857 67.396V69.762H149.271V71.022H147.857V74.508ZM150.237 74.284V69.762H151.847V73.948C151.847 75.068 152.211 75.796 153.233 75.796C154.227 75.796 154.983 74.928 154.983 73.122V69.762H156.607V77H155.011V75.726C154.619 76.552 153.961 77.196 152.841 77.196C150.951 77.196 150.237 75.95 150.237 74.284ZM158.01 71.974C158.192 70.826 159.158 69.552 161.048 69.552C163.442 69.552 164.1 70.994 164.1 72.548V75.334C164.1 75.88 164.128 76.58 164.212 77H162.56C162.532 76.72 162.518 76.44 162.518 76.146V75.81H162.504C162.266 76.398 161.65 77.182 160.208 77.182C158.57 77.182 157.66 76.174 157.66 75.026C157.66 73.024 160.11 72.856 161.16 72.688C162.084 72.548 162.504 72.366 162.504 71.75C162.504 71.176 161.958 70.812 161.076 70.812C160.292 70.812 159.718 71.26 159.55 71.974H158.01ZM159.27 74.97C159.27 75.544 159.76 75.964 160.614 75.964C161.58 75.964 162.532 75.362 162.532 73.64V72.884C162.378 73.29 162 73.64 160.768 73.878C159.774 74.06 159.27 74.368 159.27 74.97ZM165.483 67.004H167.107V77H165.483V67.004ZM172.523 77H170.759L174.427 67.004H176.541L180.195 77H178.417L177.451 74.284H173.489L172.523 77ZM173.965 72.926H176.975L175.491 68.544H175.449L173.965 72.926ZM187.495 74.648C187.145 76.286 185.899 77.196 184.163 77.196C181.979 77.196 180.355 75.684 180.355 73.388C180.355 71.064 181.979 69.566 184.163 69.566C185.955 69.566 187.159 70.574 187.439 72.058H185.899C185.633 71.358 185.087 70.854 184.135 70.854C182.805 70.854 181.951 71.974 181.951 73.388C181.951 74.802 182.805 75.894 184.135 75.894C185.017 75.894 185.675 75.488 185.941 74.648H187.495ZM195.268 74.648C194.918 76.286 193.672 77.196 191.936 77.196C189.752 77.196 188.128 75.684 188.128 73.388C188.128 71.064 189.752 69.566 191.936 69.566C193.728 69.566 194.932 70.574 195.212 72.058H193.672C193.406 71.358 192.86 70.854 191.908 70.854C190.578 70.854 189.724 71.974 189.724 73.388C189.724 74.802 190.578 75.894 191.908 75.894C192.79 75.894 193.448 75.488 193.714 74.648H195.268ZM199.639 77.196C197.497 77.196 195.901 75.656 195.901 73.388C195.901 71.12 197.497 69.566 199.639 69.566C201.767 69.566 203.363 71.12 203.363 73.388C203.363 75.656 201.767 77.196 199.639 77.196ZM197.483 73.388C197.483 74.76 198.337 75.88 199.639 75.88C200.927 75.88 201.781 74.76 201.781 73.388C201.781 72.002 200.927 70.882 199.639 70.882C198.337 70.882 197.483 72.002 197.483 73.388ZM204.311 74.284V69.762H205.921V73.948C205.921 75.068 206.285 75.796 207.307 75.796C208.301 75.796 209.057 74.928 209.057 73.122V69.762H210.681V77H209.085V75.726C208.693 76.552 208.035 77.196 206.915 77.196C205.025 77.196 204.311 75.95 204.311 74.284ZM212.126 77V69.762H213.722V71.036C214.1 70.21 214.772 69.566 215.892 69.566C217.768 69.566 218.496 70.812 218.496 72.478V77H216.886V72.814C216.886 71.694 216.508 70.966 215.5 70.966C214.492 70.966 213.75 71.834 213.75 73.64V77H212.126ZM221.845 74.508C221.845 75.292 222.069 75.712 222.769 75.712H223.245V77.014L222.461 77.028C220.795 77.042 220.249 76.048 220.249 74.704V71.022H219.115V69.762H220.249V68.11L221.845 67.396V69.762H223.259V71.022H221.845V74.508Z" fill="white"/>
<path d="M70.036 195V185.004H76.336V186.432H71.73V189.232H75.958V190.646H71.73V195H70.036ZM78.9523 186.6H77.2582V185.004H78.9523V186.6ZM77.2442 195V187.762H78.8682V195H77.2442ZM80.2582 189.974C80.4402 188.826 81.4062 187.552 83.2962 187.552C85.6902 187.552 86.3482 188.994 86.3482 190.548V193.334C86.3482 193.88 86.3762 194.58 86.4602 195H84.8082C84.7802 194.72 84.7662 194.44 84.7662 194.146V193.81H84.7522C84.5142 194.398 83.8982 195.182 82.4562 195.182C80.8182 195.182 79.9082 194.174 79.9082 193.026C79.9082 191.024 82.3582 190.856 83.4082 190.688C84.3322 190.548 84.7522 190.366 84.7522 189.75C84.7522 189.176 84.2062 188.812 83.3242 188.812C82.5402 188.812 81.9662 189.26 81.7982 189.974H80.2582ZM81.5182 192.97C81.5182 193.544 82.0082 193.964 82.8622 193.964C83.8282 193.964 84.7802 193.362 84.7802 191.64V190.884C84.6262 191.29 84.2482 191.64 83.0162 191.878C82.0222 192.06 81.5182 192.368 81.5182 192.97ZM89.6771 192.508C89.6771 193.292 89.9011 193.712 90.6011 193.712H91.0771V195.014L90.2931 195.028C88.6271 195.042 88.0811 194.048 88.0811 192.704V189.022H86.9471V187.762H88.0811V186.11L89.6771 185.396V187.762H91.0911V189.022H89.6771V192.508ZM96.0834 195H94.3194L97.9874 185.004H100.101L103.755 195H101.977L101.011 192.284H97.0494L96.0834 195ZM97.5254 190.926H100.535L99.0514 186.544H99.0094L97.5254 190.926ZM111.056 192.648C110.706 194.286 109.46 195.196 107.724 195.196C105.54 195.196 103.916 193.684 103.916 191.388C103.916 189.064 105.54 187.566 107.724 187.566C109.516 187.566 110.72 188.574 111 190.058H109.46C109.194 189.358 108.648 188.854 107.696 188.854C106.366 188.854 105.512 189.974 105.512 191.388C105.512 192.802 106.366 193.894 107.696 193.894C108.578 193.894 109.236 193.488 109.502 192.648H111.056ZM118.829 192.648C118.479 194.286 117.233 195.196 115.497 195.196C113.313 195.196 111.689 193.684 111.689 191.388C111.689 189.064 113.313 187.566 115.497 187.566C117.289 187.566 118.493 188.574 118.773 190.058H117.233C116.967 189.358 116.421 188.854 115.469 188.854C114.139 188.854 113.285 189.974 113.285 191.388C113.285 192.802 114.139 193.894 115.469 193.894C116.351 193.894 117.009 193.488 117.275 192.648H118.829ZM123.199 195.196C121.057 195.196 119.461 193.656 119.461 191.388C119.461 189.12 121.057 187.566 123.199 187.566C125.327 187.566 126.923 189.12 126.923 191.388C126.923 193.656 125.327 195.196 123.199 195.196ZM121.043 191.388C121.043 192.76 121.897 193.88 123.199 193.88C124.487 193.88 125.341 192.76 125.341 191.388C125.341 190.002 124.487 188.882 123.199 188.882C121.897 188.882 121.043 190.002 121.043 191.388ZM127.872 192.284V187.762H129.482V191.948C129.482 193.068 129.846 193.796 130.868 193.796C131.862 193.796 132.618 192.928 132.618 191.122V187.762H134.242V195H132.646V193.726C132.254 194.552 131.596 195.196 130.476 195.196C128.586 195.196 127.872 193.95 127.872 192.284ZM135.687 195V187.762H137.283V189.036C137.661 188.21 138.333 187.566 139.453 187.566C141.329 187.566 142.057 188.812 142.057 190.478V195H140.447V190.814C140.447 189.694 140.069 188.966 139.061 188.966C138.053 188.966 137.311 189.834 137.311 191.64V195H135.687ZM145.406 192.508C145.406 193.292 145.63 193.712 146.33 193.712H146.806V195.014L146.022 195.028C144.356 195.042 143.81 194.048 143.81 192.704V189.022H142.676V187.762H143.81V186.11L145.406 185.396V187.762H146.82V189.022H145.406V192.508Z" fill="white"/>
<path d="M81.1 111.46C81.1 112.96 80.25 114.17 78.41 114.17C76.57 114.17 75.72 112.96 75.72 111.46V106.86H76.67V111.46C76.67 112.49 77.21 113.37 78.41 113.37C79.61 113.37 80.15 112.49 80.15 111.46V106.86H81.1V111.46ZM83.0064 111.79C83.0464 112.86 83.7764 113.37 84.8164 113.37C85.6564 113.37 86.3764 112.98 86.3764 112.11C86.3764 111.23 85.6364 111.08 84.7364 110.81C83.5564 110.46 82.3564 110.11 82.3264 108.76C82.2964 107.38 83.4364 106.69 84.7264 106.69C86.1564 106.69 87.0964 107.41 87.2064 108.84H86.2464C86.1164 107.94 85.6664 107.49 84.7264 107.49C83.9364 107.49 83.2764 107.82 83.2764 108.69C83.2764 109.42 83.9764 109.7 84.9164 109.97C86.1064 110.31 87.3264 110.57 87.3264 112.08C87.3264 113.54 86.0964 114.17 84.8164 114.17C83.2564 114.17 82.0764 113.42 82.0564 111.79H83.0064ZM90.4983 106.86C92.8383 106.86 94.1683 108.22 94.1683 110.31C94.1683 112.4 92.8383 114 90.5583 114H88.3483V106.86H90.4983ZM89.2983 113.2H90.5883C92.0383 113.2 93.2183 112.22 93.2183 110.31C93.2183 108.48 92.0383 107.66 90.5483 107.66H89.2983V113.2ZM101.533 111.89C101.253 113.06 100.133 114.13 98.3126 114.13C95.9626 114.13 94.6726 112.44 94.6726 110.43C94.6726 108.42 95.9626 106.73 98.3126 106.73C100.103 106.73 101.083 107.69 101.523 108.96H100.573C100.183 108.06 99.5226 107.53 98.3126 107.53C96.5326 107.53 95.6226 108.88 95.6226 110.43C95.6226 111.98 96.5226 113.33 98.3126 113.33C99.5326 113.33 100.293 112.72 100.583 111.89H101.533Z" fill="white"/>
<path d="M233.63 105.59H234.72V106.73C235.85 106.89 236.63 107.58 236.75 108.91H235.53C235.4 108.09 234.99 107.69 234.15 107.69C233.45 107.69 232.88 107.98 232.88 108.71C232.88 109.36 233.5 109.62 234.42 109.89C235.63 110.25 236.83 110.55 236.83 112.06C236.83 113.34 235.85 114 234.72 114.14V115.29H233.63V114.13C232.38 113.95 231.47 113.17 231.38 111.73H232.61C232.67 112.67 233.32 113.16 234.24 113.16C235.04 113.16 235.62 112.82 235.62 112.07C235.62 111.29 234.96 111.14 234.06 110.86C232.88 110.51 231.69 110.13 231.67 108.72C231.66 107.55 232.56 106.89 233.63 106.73V105.59ZM237.419 112.27V111.21L240.509 106.86H241.649V111.32H242.479V112.27H241.649V114H240.509V112.27H237.419ZM238.479 111.32H240.509V108.47H240.479L238.479 111.32ZM243.518 112.72H244.778L243.978 115.25H242.958L243.518 112.72ZM250.019 107.81H247.139L246.859 109.67C247.189 109.38 247.669 109.21 248.219 109.21C249.649 109.21 250.609 110.13 250.609 111.66C250.609 113.04 249.559 114.14 248.059 114.14C246.549 114.14 245.649 113.23 245.509 112.1L246.649 112.09C246.759 112.67 247.289 113.17 248.049 113.17C248.809 113.17 249.469 112.59 249.469 111.66C249.469 110.79 248.969 110.17 248.029 110.17C247.399 110.17 247.009 110.5 246.779 110.88L245.649 110.78L246.209 106.85L250.019 106.86V107.81ZM253.896 113.18C254.976 113.18 255.406 111.76 255.406 110.43C255.406 109.1 254.976 107.76 253.896 107.76C252.816 107.76 252.386 109.1 252.386 110.43C252.386 111.76 252.816 113.18 253.896 113.18ZM251.246 110.43C251.246 108.59 251.906 106.8 253.896 106.8C255.886 106.8 256.546 108.59 256.546 110.43C256.546 112.27 255.886 114.14 253.896 114.14C251.906 114.14 251.246 112.27 251.246 110.43ZM257.247 109.29C257.247 107.85 258.327 106.78 259.857 106.78C260.627 106.78 261.307 107.06 261.767 107.56C262.317 108.16 262.507 109.11 262.507 110.32C262.507 112.35 261.757 114.14 259.867 114.14C258.427 114.14 257.597 113.34 257.427 112.32H258.567C258.697 112.73 258.997 113.19 259.837 113.19C260.857 113.19 261.237 112.26 261.327 111C261.077 111.31 260.507 111.71 259.697 111.71C258.267 111.71 257.247 110.68 257.247 109.29ZM258.387 109.23C258.387 110.08 259.007 110.75 259.857 110.75C260.727 110.75 261.317 110.01 261.317 109.23C261.317 108.37 260.677 107.74 259.857 107.74C259.027 107.74 258.387 108.39 258.387 109.23ZM263.3 112.72H264.55V114H263.3V112.72ZM265.727 109.17C265.727 107.67 266.727 106.8 268.187 106.8C269.547 106.8 270.517 107.63 270.517 108.89C270.517 110.1 269.957 110.61 269.057 111.3C268.257 111.92 267.427 112.32 267.117 113.02H270.597V114H265.627C265.687 112.42 266.567 111.7 267.697 110.95C268.877 110.16 269.377 109.83 269.377 108.95C269.377 108.3 268.947 107.75 268.157 107.75C267.317 107.75 266.867 108.34 266.867 109.17H265.727ZM271.334 109.29C271.334 107.85 272.414 106.78 273.944 106.78C274.714 106.78 275.394 107.06 275.854 107.56C276.404 108.16 276.594 109.11 276.594 110.32C276.594 112.35 275.844 114.14 273.954 114.14C272.514 114.14 271.684 113.34 271.514 112.32H272.654C272.784 112.73 273.084 113.19 273.924 113.19C274.944 113.19 275.324 112.26 275.414 111C275.164 111.31 274.594 111.71 273.784 111.71C272.354 111.71 271.334 110.68 271.334 109.29ZM272.474 109.23C272.474 110.08 273.094 110.75 273.944 110.75C274.814 110.75 275.404 110.01 275.404 109.23C275.404 108.37 274.764 107.74 273.944 107.74C273.114 107.74 272.474 108.39 272.474 109.23Z" fill="white"/>
<path d="M27.21 224.86V225.66H23.71V227.97H27V228.77H23.71V231.2H27.24V232H22.76V224.86H27.21ZM33.525 229.46C33.525 230.96 32.675 232.17 30.835 232.17C28.995 232.17 28.145 230.96 28.145 229.46V224.86H29.095V229.46C29.095 230.49 29.635 231.37 30.835 231.37C32.035 231.37 32.575 230.49 32.575 229.46V224.86H33.525V229.46ZM34.8014 232V224.86H37.3614C38.9914 224.86 39.7814 225.77 39.7814 226.89C39.7814 227.91 39.0914 228.56 38.2914 228.75C38.9814 228.93 39.1914 229.47 39.4614 230.37C39.6614 231.03 39.8114 231.43 40.0814 231.9V232H39.0714C38.8314 231.51 38.6514 230.85 38.4414 230.29C38.1914 229.62 37.9014 229.08 37.0414 229.08H35.7514V232H34.8014ZM35.7514 228.28H37.3214C38.3314 228.28 38.8214 227.73 38.8214 226.89C38.8214 226.25 38.4714 225.66 37.2614 225.66H35.7514V228.28Z" fill="white"/>
<path d="M180.63 223.59H181.72V224.73C182.85 224.89 183.63 225.58 183.75 226.91H182.53C182.4 226.09 181.99 225.69 181.15 225.69C180.45 225.69 179.88 225.98 179.88 226.71C179.88 227.36 180.5 227.62 181.42 227.89C182.63 228.25 183.83 228.55 183.83 230.06C183.83 231.34 182.85 232 181.72 232.14V233.29H180.63V232.13C179.38 231.95 178.47 231.17 178.38 229.73H179.61C179.67 230.67 180.32 231.16 181.24 231.16C182.04 231.16 182.62 230.82 182.62 230.07C182.62 229.29 181.96 229.14 181.06 228.86C179.88 228.51 178.69 228.13 178.67 226.72C178.66 225.55 179.56 224.89 180.63 224.73V223.59ZM184.419 230.27V229.21L187.509 224.86H188.649V229.32H189.479V230.27H188.649V232H187.509V230.27H184.419ZM185.479 229.32H187.509V226.47H187.479L185.479 229.32ZM190.518 230.72H191.778L190.978 233.25H189.958L190.518 230.72ZM197.019 225.81H194.139L193.859 227.67C194.189 227.38 194.669 227.21 195.219 227.21C196.649 227.21 197.609 228.13 197.609 229.66C197.609 231.04 196.559 232.14 195.059 232.14C193.549 232.14 192.649 231.23 192.509 230.1L193.649 230.09C193.759 230.67 194.289 231.17 195.049 231.17C195.809 231.17 196.469 230.59 196.469 229.66C196.469 228.79 195.969 228.17 195.029 228.17C194.399 228.17 194.009 228.5 193.779 228.88L192.649 228.78L193.209 224.85L197.019 224.86V225.81ZM200.896 231.18C201.976 231.18 202.406 229.76 202.406 228.43C202.406 227.1 201.976 225.76 200.896 225.76C199.816 225.76 199.386 227.1 199.386 228.43C199.386 229.76 199.816 231.18 200.896 231.18ZM198.246 228.43C198.246 226.59 198.906 224.8 200.896 224.8C202.886 224.8 203.546 226.59 203.546 228.43C203.546 230.27 202.886 232.14 200.896 232.14C198.906 232.14 198.246 230.27 198.246 228.43ZM204.247 227.29C204.247 225.85 205.327 224.78 206.857 224.78C207.627 224.78 208.307 225.06 208.767 225.56C209.317 226.16 209.507 227.11 209.507 228.32C209.507 230.35 208.757 232.14 206.867 232.14C205.427 232.14 204.597 231.34 204.427 230.32H205.567C205.697 230.73 205.997 231.19 206.837 231.19C207.857 231.19 208.237 230.26 208.327 229C208.077 229.31 207.507 229.71 206.697 229.71C205.267 229.71 204.247 228.68 204.247 227.29ZM205.387 227.23C205.387 228.08 206.007 228.75 206.857 228.75C207.727 228.75 208.317 228.01 208.317 227.23C208.317 226.37 207.677 225.74 206.857 225.74C206.027 225.74 205.387 226.39 205.387 227.23ZM210.3 230.72H211.55V232H210.3V230.72ZM212.727 227.17C212.727 225.67 213.727 224.8 215.187 224.8C216.547 224.8 217.517 225.63 217.517 226.89C217.517 228.1 216.957 228.61 216.057 229.3C215.257 229.92 214.427 230.32 214.117 231.02H217.597V232H212.627C212.687 230.42 213.567 229.7 214.697 228.95C215.877 228.16 216.377 227.83 216.377 226.95C216.377 226.3 215.947 225.75 215.157 225.75C214.317 225.75 213.867 226.34 213.867 227.17H212.727ZM218.334 227.29C218.334 225.85 219.414 224.78 220.944 224.78C221.714 224.78 222.394 225.06 222.854 225.56C223.404 226.16 223.594 227.11 223.594 228.32C223.594 230.35 222.844 232.14 220.954 232.14C219.514 232.14 218.684 231.34 218.514 230.32H219.654C219.784 230.73 220.084 231.19 220.924 231.19C221.944 231.19 222.324 230.26 222.414 229C222.164 229.31 221.594 229.71 220.784 229.71C219.354 229.71 218.334 228.68 218.334 227.29ZM219.474 227.23C219.474 228.08 220.094 228.75 220.944 228.75C221.814 228.75 222.404 228.01 222.404 227.23C222.404 226.37 221.764 225.74 220.944 225.74C220.114 225.74 219.474 226.39 219.474 227.23Z" fill="white"/>
<path opacity="0.7" d="M299 35.0001L44 35C38.4771 35 34 39.4772 34 45L34 145C34 150.523 38.4771 155 44 155L254.129 155C259.652 155 264.129 159.477 264.129 165L264.129 299" stroke="url(#paint1_linear_2080_776)" stroke-width="2"/>
<path d="M86.8679 74.4526L78.3193 77.9462C78.2185 77.9817 78.1099 78 78.0002 78C77.8905 78 77.7819 77.9817 77.6811 77.9462L69.1321 74.4526C68.9581 74.3812 68.9581 74.264 69.1321 74.1922L71.1794 73.3572C71.2804 73.3217 71.3891 73.3034 71.499 73.3034C71.6088 73.3034 71.7175 73.3217 71.8185 73.3572L77.6811 75.7501C77.7819 75.7858 77.8905 75.8042 78.0002 75.8042C78.11 75.8042 78.2186 75.7858 78.3193 75.7501L84.1819 73.3572C84.2828 73.3217 84.3915 73.3034 84.5012 73.3034C84.611 73.3034 84.7197 73.3217 84.8206 73.3572L86.8679 74.194C87.044 74.264 87.044 74.3812 86.8679 74.4526ZM86.8679 69.5765L84.8206 68.7397C84.7197 68.7042 84.611 68.6859 84.5012 68.6859C84.3915 68.6859 84.2828 68.7042 84.1819 68.7397L78.3193 71.1355C78.2184 71.1708 78.1099 71.189 78.0002 71.189C77.8905 71.189 77.782 71.1708 77.6811 71.1355L71.8185 68.7397C71.7175 68.7042 71.6088 68.6859 71.499 68.6859C71.3891 68.6859 71.2804 68.7042 71.1794 68.7397L69.1321 69.5765C68.9581 69.648 68.9581 69.7655 69.1321 69.8376L77.6811 73.3305C77.7819 73.366 77.8905 73.3843 78.0002 73.3843C78.1099 73.3843 78.2185 73.366 78.3193 73.3305L86.8679 69.8376C87.044 69.7655 87.044 69.6483 86.8679 69.5765ZM69.1321 65.5151L77.6807 68.7397C77.8858 68.8058 78.1138 68.8058 78.3189 68.7397L86.8679 65.5151C87.0419 65.4487 87.0419 65.3405 86.8679 65.2744L78.3189 62.0501C78.1139 61.9833 77.8856 61.9833 77.6807 62.0501L69.1321 65.2744C68.956 65.3405 68.956 65.4487 69.1321 65.5151Z" fill="white"/>
<defs>
<linearGradient id="paint0_linear_2080_776" x1="150" y1="0" x2="150" y2="300" gradientUnits="userSpaceOnUse">
<stop stop-color="#12002C"/>
<stop offset="1"/>
</linearGradient>
<linearGradient id="paint1_linear_2080_776" x1="166.011" y1="3.85393" x2="216.913" y2="178.565" gradientUnits="userSpaceOnUse">
<stop stop-color="#33FFEB"/>
<stop offset="1" stop-color="#FF8159"/>
</linearGradient>
</defs>
</svg>
