<svg width="398" height="503" viewBox="0 0 398 503" fill="none" xmlns="http://www.w3.org/2000/svg">
<g clip-path="url(#clip0_710_2273)">
<path d="M16 98.2C16 69.0773 16 54.5159 21.6677 43.3925C26.6531 33.6081 34.6081 25.6531 44.3925 20.6677C55.5159 15 70.0773 15 99.2 15H298.8C327.923 15 342.484 15 353.608 20.6677C363.392 25.6531 371.347 33.6081 376.332 43.3925C382 54.5159 382 69.0773 382 98.2V458H16V98.2Z" fill="#EDF0F3" fill-opacity="0.38"/>
<path d="M16 98.2C16 69.0773 16 54.5159 21.6677 43.3925C26.6531 33.6081 34.6081 25.6531 44.3925 20.6677C55.5159 15 70.0773 15 99.2 15H298.8C327.923 15 342.484 15 353.608 20.6677C363.392 25.6531 371.347 33.6081 376.332 43.3925C382 54.5159 382 69.0773 382 98.2V458H16V98.2Z" fill="#EDF0F3" fill-opacity="0.45"/>
<path d="M229.404 65V52.148H233.796C235.992 52.148 237.666 53.318 237.666 55.55C237.666 56.972 236.748 57.926 235.47 58.376V58.394C236.982 58.592 238.206 59.654 238.206 61.454C238.206 63.74 236.496 65 233.886 65H229.404ZM230.718 63.884H233.994C235.758 63.884 236.874 62.93 236.874 61.454C236.874 59.888 235.776 58.988 234.048 58.988H230.718V63.884ZM230.718 57.89H233.472C235.272 57.89 236.334 57.08 236.334 55.55C236.334 53.984 235.326 53.264 233.544 53.264H230.718V57.89ZM239.956 58.466C240.19 57.116 241.342 55.532 243.628 55.532C246.652 55.532 247.228 57.368 247.228 58.808V63.092C247.228 63.776 247.3 64.478 247.39 65H246.04C245.986 64.514 245.986 64.118 245.986 63.578V63.164H245.968C245.662 63.938 244.852 65.18 242.746 65.18C240.514 65.18 239.452 63.848 239.452 62.462C239.452 60.266 242.008 59.87 243.754 59.582C245.23 59.348 245.986 59.042 245.986 58.214C245.986 57.152 245.05 56.576 243.646 56.576C242.404 56.576 241.504 57.278 241.216 58.466H239.956ZM240.694 62.462C240.694 63.434 241.54 64.154 242.926 64.154C244.546 64.154 246.022 63.02 246.022 60.698V59.294C245.788 59.888 245.032 60.338 243.178 60.662C241.648 60.914 240.694 61.436 240.694 62.462ZM249.21 52.148H250.47V65H249.21V52.148ZM252.507 58.466C252.741 57.116 253.893 55.532 256.179 55.532C259.203 55.532 259.779 57.368 259.779 58.808V63.092C259.779 63.776 259.851 64.478 259.941 65H258.591C258.537 64.514 258.537 64.118 258.537 63.578V63.164H258.519C258.213 63.938 257.403 65.18 255.297 65.18C253.065 65.18 252.003 63.848 252.003 62.462C252.003 60.266 254.559 59.87 256.305 59.582C257.781 59.348 258.537 59.042 258.537 58.214C258.537 57.152 257.601 56.576 256.197 56.576C254.955 56.576 254.055 57.278 253.767 58.466H252.507ZM253.245 62.462C253.245 63.434 254.091 64.154 255.477 64.154C257.097 64.154 258.573 63.02 258.573 60.698V59.294C258.339 59.888 257.583 60.338 255.729 60.662C254.199 60.914 253.245 61.436 253.245 62.462ZM261.762 65V55.694H263.022V57.458C263.508 56.396 264.354 55.532 265.902 55.532C268.044 55.532 269.268 56.792 269.268 59.078V65H268.008V59.168C268.008 57.26 267.108 56.594 265.776 56.594C264.372 56.594 263.022 57.584 263.022 60.266V65H261.762ZM279.275 62.282C278.771 64.082 277.403 65.162 275.243 65.162C272.363 65.162 270.617 63.038 270.617 60.356C270.617 57.692 272.363 55.532 275.243 55.532C277.457 55.532 278.789 56.72 279.203 58.34H277.925C277.547 57.35 276.701 56.558 275.225 56.558C273.191 56.558 271.877 58.214 271.877 60.356C271.877 62.48 273.191 64.118 275.225 64.118C276.629 64.118 277.565 63.452 277.979 62.282H279.275ZM288.862 62.246C288.322 64.064 286.846 65.162 284.758 65.162C281.968 65.162 280.276 63.074 280.276 60.338C280.276 57.656 282.022 55.532 284.704 55.532C287.746 55.532 288.844 57.854 288.934 60.284C288.952 60.41 288.952 60.572 288.952 60.716H281.482C281.608 62.768 282.886 64.118 284.74 64.118C286.108 64.118 287.206 63.452 287.602 62.246H288.862ZM281.5 59.708H287.692C287.512 57.782 286.576 56.558 284.704 56.558C282.886 56.558 281.68 57.872 281.5 59.708Z" fill="#22203C"/>
<path d="M108.684 268.462L109.026 267.508L110.97 268.21V266.158H111.978V268.228L114.03 267.49L114.39 268.462L112.338 269.182L113.472 270.838L112.662 271.432L111.474 269.722L110.304 271.432L109.458 270.838L110.61 269.146L108.684 268.462ZM115.373 268.462L115.715 267.508L117.659 268.21V266.158H118.667V268.228L120.719 267.49L121.079 268.462L119.027 269.182L120.161 270.838L119.351 271.432L118.163 269.722L116.993 271.432L116.147 270.838L117.299 269.146L115.373 268.462ZM122.062 268.462L122.404 267.508L124.348 268.21V266.158H125.356V268.228L127.408 267.49L127.768 268.462L125.716 269.182L126.85 270.838L126.04 271.432L124.852 269.722L123.682 271.432L122.836 270.838L123.988 269.146L122.062 268.462ZM128.75 268.462L129.092 267.508L131.036 268.21V266.158H132.044V268.228L134.096 267.49L134.456 268.462L132.404 269.182L133.538 270.838L132.728 271.432L131.54 269.722L130.37 271.432L129.524 270.838L130.676 269.146L128.75 268.462ZM135.871 271.234C135.871 268.498 137.455 267.076 140.155 267.076C142.549 267.076 144.151 268.48 144.151 270.802C144.151 273.052 143.071 273.826 141.613 274.96C140.101 276.148 138.337 277.084 137.833 278.632H144.277V280H135.691C135.871 277.192 137.743 275.716 139.489 274.546C141.505 273.196 142.531 272.422 142.531 270.874C142.531 269.56 141.667 268.444 140.065 268.444C138.283 268.444 137.509 269.74 137.491 271.234H135.871ZM153.267 268.516H148.029L147.453 272.332C148.065 271.738 149.055 271.414 150.099 271.414C152.673 271.414 154.383 273.034 154.383 275.824C154.383 278.218 152.619 280.216 149.883 280.216C147.651 280.216 145.653 278.83 145.491 276.562H147.111C147.291 277.822 148.425 278.848 149.883 278.848C151.359 278.848 152.763 277.804 152.763 275.824C152.763 274.042 151.863 272.818 149.811 272.818C148.659 272.818 147.849 273.484 147.435 274.24L145.761 274.042L146.751 267.148H153.267V268.516ZM155.534 273.844C155.534 270.514 156.722 267.04 160.106 267.04C162.698 267.04 163.832 268.444 164.228 270.226H162.608C162.302 269.38 161.942 268.408 160.232 268.408C158.036 268.408 157.352 270.748 157.172 272.926C157.82 272.008 158.954 271.414 160.466 271.414C162.932 271.414 164.66 273.376 164.66 275.842C164.66 278.362 162.644 280.216 160.106 280.216C158.756 280.216 157.532 279.658 156.722 278.758C155.768 277.714 155.534 276.094 155.534 273.844ZM157.298 275.842C157.298 277.48 158.468 278.848 160.106 278.848C161.744 278.848 163.04 277.48 163.04 275.842C163.04 274.204 161.798 272.818 160.106 272.818C158.468 272.818 157.298 274.024 157.298 275.842ZM165.869 271.234C165.869 268.498 167.453 267.076 170.153 267.076C172.547 267.076 174.149 268.48 174.149 270.802C174.149 273.052 173.069 273.826 171.611 274.96C170.099 276.148 168.335 277.084 167.831 278.632H174.275V280H165.689C165.869 277.192 167.741 275.716 169.487 274.546C171.503 273.196 172.529 272.422 172.529 270.874C172.529 269.56 171.665 268.444 170.063 268.444C168.281 268.444 167.507 269.74 167.489 271.234H165.869Z" fill="#22203C"/>
<path d="M109.208 291.758V290.718H116.137V291.758H113.29V300H112.055V291.758H109.208ZM118.68 300.156C116.639 300.156 115.313 298.622 115.313 296.646C115.313 294.67 116.639 293.123 118.68 293.123C120.721 293.123 122.047 294.67 122.047 296.646C122.047 298.622 120.721 300.156 118.68 300.156ZM116.483 296.646C116.483 298.024 117.367 299.168 118.68 299.168C119.993 299.168 120.877 298.024 120.877 296.646C120.877 295.255 119.993 294.111 118.68 294.111C117.367 294.111 116.483 295.255 116.483 296.646ZM125.688 293.123C126.91 293.123 127.755 293.942 128.002 294.644H128.015V290.718H129.185V300H128.015V298.661H128.002C127.755 299.35 126.91 300.156 125.688 300.156C123.79 300.156 122.62 298.7 122.62 296.62C122.62 294.54 123.79 293.123 125.688 293.123ZM123.79 296.62C123.79 298.076 124.505 299.155 125.922 299.155C127.378 299.155 128.054 297.946 128.054 296.62C128.054 295.307 127.378 294.111 125.922 294.111C124.544 294.111 123.79 295.164 123.79 296.62ZM130.57 295.307C130.713 294.332 131.532 293.11 133.287 293.11C135.757 293.11 135.991 294.709 135.991 295.749V298.635C135.991 299.142 136.043 299.675 136.095 300H134.847C134.821 299.675 134.821 299.402 134.821 299.025V298.765H134.808C134.652 299.285 134.093 300.156 132.598 300.156C130.986 300.156 130.245 299.129 130.245 298.167C130.245 296.269 132.637 296.204 133.651 296.022C134.535 295.866 134.821 295.619 134.821 295.06C134.821 294.501 134.288 294.098 133.326 294.098C132.507 294.098 131.896 294.579 131.74 295.307H130.57ZM131.402 298.167C131.402 298.804 131.987 299.207 132.806 299.207C133.833 299.207 134.847 298.544 134.847 296.88L134.834 295.944C134.704 296.386 134.418 296.776 132.962 297.036C131.987 297.205 131.402 297.491 131.402 298.167ZM137.686 293.279L139.818 298.843H139.831L141.742 293.279H142.99L139.948 301.3C139.649 302.106 139.155 302.6 138.245 302.6H137.335V301.612H138.076C138.726 301.612 138.83 301.248 139.025 300.767L139.259 300.182C138.323 297.881 137.374 295.58 136.438 293.279H137.686ZM142.915 298.44H144.215L143.279 301.573H142.239L142.915 298.44ZM147.989 295.307C148.132 294.332 148.951 293.11 150.706 293.11C153.176 293.11 153.41 294.709 153.41 295.749V298.635C153.41 299.142 153.462 299.675 153.514 300H152.266C152.24 299.675 152.24 299.402 152.24 299.025V298.765H152.227C152.071 299.285 151.512 300.156 150.017 300.156C148.405 300.156 147.664 299.129 147.664 298.167C147.664 296.269 150.056 296.204 151.07 296.022C151.954 295.866 152.24 295.619 152.24 295.06C152.24 294.501 151.707 294.098 150.745 294.098C149.926 294.098 149.315 294.579 149.159 295.307H147.989ZM148.821 298.167C148.821 298.804 149.406 299.207 150.225 299.207C151.252 299.207 152.266 298.544 152.266 296.88L152.253 295.944C152.123 296.386 151.837 296.776 150.381 297.036C149.406 297.205 148.821 297.491 148.821 298.167ZM156.205 298.115C156.205 298.713 156.543 299.038 157.063 299.038H157.531V300H156.946C155.646 300 155.061 299.233 155.061 298.193V294.241H154.06V293.279H155.061V291.706L156.205 291.186V293.279H157.492V294.241H156.205V298.115ZM164.594 300H163.424V293.123H161.214V292.239C162.475 292.239 163.359 292.044 163.632 290.718H164.594V300ZM166.436 293.669C166.436 291.693 167.58 290.666 169.53 290.666C171.259 290.666 172.416 291.68 172.416 293.357C172.416 294.982 171.636 295.541 170.583 296.36C169.491 297.218 168.217 297.894 167.853 299.012H172.507V300H166.306C166.436 297.972 167.788 296.906 169.049 296.061C170.505 295.086 171.246 294.527 171.246 293.409C171.246 292.46 170.622 291.654 169.465 291.654C168.178 291.654 167.619 292.59 167.606 293.669H166.436ZM173.539 293.929H174.969V295.489H173.539V293.929ZM173.539 300V298.44H174.969V300H173.539ZM179.369 299.168C180.89 299.168 181.501 297.101 181.501 295.359C181.501 293.63 180.89 291.654 179.369 291.654C177.848 291.654 177.237 293.63 177.237 295.359C177.237 297.101 177.848 299.168 179.369 299.168ZM176.067 295.359C176.067 292.993 176.925 290.666 179.369 290.666C181.813 290.666 182.671 292.993 182.671 295.359C182.671 297.725 181.813 300.156 179.369 300.156C176.925 300.156 176.067 297.738 176.067 295.359ZM183.473 297.66V296.698L187.607 290.718H188.673V296.672H189.7V297.66H188.673V300H187.503V297.66H183.473ZM184.682 296.672H187.503V292.629H187.464L184.682 296.672ZM196.617 295.268C197.969 295.268 198.736 294.605 198.736 293.513C198.736 292.421 198.047 291.758 196.695 291.758H194.94V295.268H196.617ZM193.705 300V290.718H196.825C198.671 290.718 199.971 291.901 199.971 293.513C199.971 295.125 198.593 296.308 196.747 296.308H194.94V300H193.705ZM200.986 300V290.718L203.066 290.731L205.666 298.557H205.679L208.253 290.718H210.333V300H209.098V292.018H209.072L206.381 300H204.951L202.247 292.018H202.221V300H200.986Z" fill="#22203C"/>
<path d="M109.684 332.462L110.026 331.508L111.97 332.21V330.158H112.978V332.228L115.03 331.49L115.39 332.462L113.338 333.182L114.472 334.838L113.662 335.432L112.474 333.722L111.304 335.432L110.458 334.838L111.61 333.146L109.684 332.462ZM116.373 332.462L116.715 331.508L118.659 332.21V330.158H119.667V332.228L121.719 331.49L122.079 332.462L120.027 333.182L121.161 334.838L120.351 335.432L119.163 333.722L117.993 335.432L117.147 334.838L118.299 333.146L116.373 332.462ZM123.062 332.462L123.404 331.508L125.348 332.21V330.158H126.356V332.228L128.408 331.49L128.768 332.462L126.716 333.182L127.85 334.838L127.04 335.432L125.852 333.722L124.682 335.432L123.836 334.838L124.988 333.146L123.062 332.462ZM129.75 332.462L130.092 331.508L132.036 332.21V330.158H133.044V332.228L135.096 331.49L135.456 332.462L133.404 333.182L134.538 334.838L133.728 335.432L132.54 333.722L131.37 335.432L130.524 334.838L131.676 333.146L129.75 332.462ZM144.625 332.66C142.051 335.198 139.963 340.022 139.729 344H138.109C138.415 339.338 140.503 335.252 142.699 332.516H136.363V331.148H144.625V332.66ZM146.066 334.496C146.138 332.462 147.542 331.076 149.9 331.076C152.15 331.076 153.536 332.372 153.536 334.262C153.536 335.648 153.068 336.458 152.042 337.07C153.374 337.61 154.184 338.528 154.184 340.31C154.184 342.614 152.528 344.216 149.846 344.216C147.272 344.216 145.76 342.848 145.49 340.49V340.31H147.2V340.436C147.344 342.038 148.334 342.848 149.882 342.848C151.646 342.848 152.564 341.678 152.564 340.256C152.564 338.51 151.052 337.934 149.468 337.934H149.072V336.368C149.342 336.368 149.576 336.35 149.81 336.332C151.106 336.224 151.916 335.666 151.916 334.46C151.916 333.2 151.142 332.48 149.846 332.48C148.496 332.48 147.848 333.254 147.704 334.244L147.668 334.496H146.066ZM159.876 331.04C162.198 331.04 163.926 332.282 163.926 334.244C163.926 335.72 163.062 336.854 161.946 337.196C163.134 337.538 164.394 338.726 164.394 340.508C164.394 342.848 162.432 344.216 159.894 344.216C157.266 344.216 155.286 342.848 155.304 340.508C155.322 338.726 156.654 337.52 157.824 337.178C156.564 336.764 155.826 335.738 155.826 334.244C155.826 332.282 157.554 331.04 159.876 331.04ZM156.924 340.382C156.924 341.768 157.968 342.866 159.876 342.866C161.766 342.866 162.774 341.768 162.774 340.364C162.774 339.014 161.766 337.916 159.876 337.916C157.968 337.916 156.924 339.014 156.924 340.382ZM157.464 334.532C157.464 335.648 158.382 336.656 159.876 336.656C161.37 336.656 162.288 335.666 162.288 334.532C162.288 333.398 161.37 332.408 159.876 332.408C158.364 332.408 157.464 333.398 157.464 334.532ZM165.657 335.234C165.657 332.498 167.241 331.076 169.941 331.076C172.335 331.076 173.937 332.48 173.937 334.802C173.937 337.052 172.857 337.826 171.399 338.96C169.887 340.148 168.123 341.084 167.619 342.632H174.063V344H165.477C165.657 341.192 167.529 339.716 169.275 338.546C171.291 337.196 172.317 336.422 172.317 334.874C172.317 333.56 171.453 332.444 169.851 332.444C168.069 332.444 167.295 333.74 167.277 335.234H165.657Z" fill="#22203C"/>
<path d="M108.684 396.462L109.026 395.508L110.97 396.21V394.158H111.978V396.228L114.03 395.49L114.39 396.462L112.338 397.182L113.472 398.838L112.662 399.432L111.474 397.722L110.304 399.432L109.458 398.838L110.61 397.146L108.684 396.462ZM115.373 396.462L115.715 395.508L117.659 396.21V394.158H118.667V396.228L120.719 395.49L121.079 396.462L119.027 397.182L120.161 398.838L119.351 399.432L118.163 397.722L116.993 399.432L116.147 398.838L117.299 397.146L115.373 396.462ZM122.062 396.462L122.404 395.508L124.348 396.21V394.158H125.356V396.228L127.408 395.49L127.768 396.462L125.716 397.182L126.85 398.838L126.04 399.432L124.852 397.722L123.682 399.432L122.836 398.838L123.988 397.146L122.062 396.462ZM128.75 396.462L129.092 395.508L131.036 396.21V394.158H132.044V396.228L134.096 395.49L134.456 396.462L132.404 397.182L133.538 398.838L132.728 399.432L131.54 397.722L130.37 399.432L129.524 398.838L130.676 397.146L128.75 396.462ZM143.625 396.66C141.051 399.198 138.963 404.022 138.729 408H137.109C137.415 403.338 139.503 399.252 141.699 396.516H135.363V395.148H143.625V396.66ZM145.066 398.496C145.138 396.462 146.542 395.076 148.9 395.076C151.15 395.076 152.536 396.372 152.536 398.262C152.536 399.648 152.068 400.458 151.042 401.07C152.374 401.61 153.184 402.528 153.184 404.31C153.184 406.614 151.528 408.216 148.846 408.216C146.272 408.216 144.76 406.848 144.49 404.49V404.31H146.2V404.436C146.344 406.038 147.334 406.848 148.882 406.848C150.646 406.848 151.564 405.678 151.564 404.256C151.564 402.51 150.052 401.934 148.468 401.934H148.072V400.368C148.342 400.368 148.576 400.35 148.81 400.332C150.106 400.224 150.916 399.666 150.916 398.46C150.916 397.2 150.142 396.48 148.846 396.48C147.496 396.48 146.848 397.254 146.704 398.244L146.668 398.496H145.066ZM158.876 395.04C161.198 395.04 162.926 396.282 162.926 398.244C162.926 399.72 162.062 400.854 160.946 401.196C162.134 401.538 163.394 402.726 163.394 404.508C163.394 406.848 161.432 408.216 158.894 408.216C156.266 408.216 154.286 406.848 154.304 404.508C154.322 402.726 155.654 401.52 156.824 401.178C155.564 400.764 154.826 399.738 154.826 398.244C154.826 396.282 156.554 395.04 158.876 395.04ZM155.924 404.382C155.924 405.768 156.968 406.866 158.876 406.866C160.766 406.866 161.774 405.768 161.774 404.364C161.774 403.014 160.766 401.916 158.876 401.916C156.968 401.916 155.924 403.014 155.924 404.382ZM156.464 398.532C156.464 399.648 157.382 400.656 158.876 400.656C160.37 400.656 161.288 399.666 161.288 398.532C161.288 397.398 160.37 396.408 158.876 396.408C157.364 396.408 156.464 397.398 156.464 398.532ZM164.657 399.234C164.657 396.498 166.241 395.076 168.941 395.076C171.335 395.076 172.937 396.48 172.937 398.802C172.937 401.052 171.857 401.826 170.399 402.96C168.887 404.148 167.123 405.084 166.619 406.632H173.063V408H164.477C164.657 405.192 166.529 403.716 168.275 402.546C170.291 401.196 171.317 400.422 171.317 398.874C171.317 397.56 170.453 396.444 168.851 396.444C167.069 396.444 166.295 397.74 166.277 399.234H164.657Z" fill="#22203C"/>
<path d="M298.202 296.2H301.354V297.544H298.202V300.776H296.698V297.544H293.546V296.2H296.698V292.968H298.202V296.2ZM309.422 287.56H311.038V289.352C312.862 289.608 314.078 290.728 314.254 292.792H312.51C312.302 291.416 311.614 290.744 310.19 290.744C308.99 290.744 308.014 291.24 308.014 292.52C308.014 293.624 309.07 294.056 310.558 294.488C312.478 295.048 314.414 295.496 314.414 297.912C314.414 299.976 312.846 301.016 311.038 301.224V303.032H309.422V301.208C307.39 300.936 305.918 299.72 305.838 297.416H307.582C307.662 299.032 308.766 299.832 310.334 299.832C311.646 299.832 312.686 299.24 312.686 297.944C312.686 296.616 311.566 296.376 310.126 295.944C308.238 295.368 306.334 294.792 306.286 292.584C306.254 290.68 307.694 289.608 309.422 289.352V287.56ZM322.671 290.952H318.031L317.551 294.136C318.095 293.64 318.911 293.352 319.823 293.352C322.111 293.352 323.647 294.808 323.647 297.272C323.647 299.448 322.015 301.208 319.599 301.208C317.391 301.208 315.791 299.864 315.599 297.96L317.231 297.944C317.407 298.968 318.335 299.832 319.583 299.832C320.847 299.832 322.015 298.888 322.015 297.272C322.015 295.784 321.215 294.744 319.535 294.744C318.527 294.744 317.855 295.304 317.487 295.944L315.839 295.784L316.719 289.576H322.671V290.952ZM324.533 293.24C324.533 290.824 326.037 289.496 328.405 289.496C330.565 289.496 332.053 290.792 332.053 292.824C332.053 294.792 331.125 295.544 329.749 296.6C328.437 297.624 326.997 298.36 326.517 299.608H332.165V301H324.373C324.501 298.488 326.037 297.256 327.717 296.136C329.557 294.904 330.421 294.296 330.421 292.904C330.421 291.8 329.685 290.856 328.341 290.856C326.885 290.856 326.181 291.912 326.165 293.24H324.533ZM337.367 299.832C339.175 299.832 339.895 297.416 339.895 295.288C339.895 293.16 339.175 290.872 337.367 290.872C335.559 290.872 334.839 293.16 334.839 295.288C334.839 297.416 335.559 299.832 337.367 299.832ZM333.207 295.288C333.207 292.36 334.263 289.496 337.367 289.496C340.471 289.496 341.527 292.36 341.527 295.288C341.527 298.216 340.471 301.208 337.367 301.208C334.263 301.208 333.207 298.232 333.207 295.288ZM342.862 299.016H344.734V301H342.862V299.016ZM345.715 297.208C345.715 296.072 346.595 295.232 347.779 295.232C348.387 295.232 348.931 295.456 349.299 295.856C349.723 296.328 349.851 297.08 349.851 298.064C349.851 299.696 349.259 301.104 347.803 301.104C346.691 301.104 346.011 300.472 345.867 299.672H346.683C346.787 300.024 347.067 300.416 347.763 300.416C348.611 300.416 348.939 299.664 349.011 298.576C348.787 298.856 348.315 299.16 347.667 299.16C346.539 299.16 345.715 298.328 345.715 297.208ZM346.531 297.184C346.531 297.888 347.059 298.464 347.771 298.464C348.507 298.464 349.011 297.84 349.011 297.184C349.011 296.456 348.467 295.92 347.771 295.92C347.083 295.92 346.531 296.488 346.531 297.184ZM352.565 300.416C353.469 300.416 353.829 299.208 353.829 298.144C353.829 297.08 353.469 295.936 352.565 295.936C351.661 295.936 351.301 297.08 351.301 298.144C351.301 299.208 351.661 300.416 352.565 300.416ZM350.485 298.144C350.485 296.68 351.013 295.248 352.565 295.248C354.117 295.248 354.645 296.68 354.645 298.144C354.645 299.608 354.117 301.104 352.565 301.104C351.013 301.104 350.485 299.616 350.485 298.144Z" fill="#22203C"/>
<path d="M43.324 224.264V223.148H52.756V224.264H48.706V236H47.374V224.264H43.324ZM53.4903 226.694V228.53C53.9583 227.288 54.8583 226.64 56.3703 226.64V227.81C56.0463 227.81 55.6503 227.882 55.3263 228.026C54.3003 228.368 53.4903 229.16 53.4903 231.374V236H52.2303V226.694H53.4903ZM57.0919 229.466C57.3259 228.116 58.4779 226.532 60.7639 226.532C63.7879 226.532 64.3639 228.368 64.3639 229.808V234.092C64.3639 234.776 64.4359 235.478 64.5259 236H63.1759C63.1219 235.514 63.1219 235.118 63.1219 234.578V234.164H63.1039C62.7979 234.938 61.9879 236.18 59.8819 236.18C57.6499 236.18 56.5879 234.848 56.5879 233.462C56.5879 231.266 59.1439 230.87 60.8899 230.582C62.3659 230.348 63.1219 230.042 63.1219 229.214C63.1219 228.152 62.1859 227.576 60.7819 227.576C59.5399 227.576 58.6399 228.278 58.3519 229.466H57.0919ZM57.8299 233.462C57.8299 234.434 58.6759 235.154 60.0619 235.154C61.6819 235.154 63.1579 234.02 63.1579 231.698V230.294C62.9239 230.888 62.1679 231.338 60.3139 231.662C58.7839 231.914 57.8299 232.436 57.8299 233.462ZM66.3463 236V226.694H67.6063V228.458C68.0923 227.396 68.9383 226.532 70.4863 226.532C72.6283 226.532 73.8523 227.792 73.8523 230.078V236H72.5923V230.168C72.5923 228.26 71.6923 227.594 70.3603 227.594C68.9563 227.594 67.6063 228.584 67.6063 231.266V236H66.3463ZM80.9973 229.484C80.8713 228.08 79.8093 227.594 78.7653 227.594C77.7753 227.594 76.7673 228.08 76.7673 229.07C76.7673 229.952 77.5413 230.384 78.4593 230.618C78.8553 230.726 79.3053 230.834 79.7193 230.96C81.1053 231.32 82.3833 231.932 82.3833 233.426C82.3833 235.352 80.4213 236.144 78.8553 236.144C77.3073 236.144 75.4713 235.424 75.2013 233.228H76.4613C76.6593 234.47 77.5233 235.1 78.8913 235.1C80.0253 235.1 81.1233 234.668 81.1233 233.48C81.1233 232.598 80.3313 232.274 79.3773 232.022C78.8913 231.878 78.5313 231.788 78.0813 231.68C76.7673 231.338 75.5073 230.6 75.5073 229.124C75.5073 227.432 77.2353 226.532 78.8013 226.532C80.5653 226.532 82.0053 227.45 82.2573 229.484H80.9973ZM83.8556 229.466C84.0896 228.116 85.2416 226.532 87.5276 226.532C90.5516 226.532 91.1276 228.368 91.1276 229.808V234.092C91.1276 234.776 91.1996 235.478 91.2896 236H89.9396C89.8856 235.514 89.8856 235.118 89.8856 234.578V234.164H89.8676C89.5616 234.938 88.7516 236.18 86.6456 236.18C84.4136 236.18 83.3516 234.848 83.3516 233.462C83.3516 231.266 85.9076 230.87 87.6536 230.582C89.1296 230.348 89.8856 230.042 89.8856 229.214C89.8856 228.152 88.9496 227.576 87.5456 227.576C86.3036 227.576 85.4036 228.278 85.1156 229.466H83.8556ZM84.5936 233.462C84.5936 234.434 85.4396 235.154 86.8256 235.154C88.4456 235.154 89.9216 234.02 89.9216 231.698V230.294C89.6876 230.888 88.9316 231.338 87.0776 231.662C85.5476 231.914 84.5936 232.436 84.5936 233.462ZM101.192 233.282C100.688 235.082 99.32 236.162 97.16 236.162C94.28 236.162 92.534 234.038 92.534 231.356C92.534 228.692 94.28 226.532 97.16 226.532C99.374 226.532 100.706 227.72 101.12 229.34H99.842C99.464 228.35 98.618 227.558 97.142 227.558C95.108 227.558 93.794 229.214 93.794 231.356C93.794 233.48 95.108 235.118 97.142 235.118C98.546 235.118 99.482 234.452 99.896 233.282H101.192ZM104.284 233.786C104.284 234.542 104.68 234.974 105.4 234.974H106.084V236H105.346C103.726 236 103.042 235.118 103.042 233.804V227.72H101.656V226.694H103.042V224.462L104.284 223.904V226.694H106.066V227.72H104.284V233.786ZM108.857 224.948H107.525V223.148H108.857V224.948ZM107.507 236V226.694H108.767V236H107.507ZM114.87 236.162C112.026 236.162 110.298 233.984 110.298 231.356C110.298 228.728 112.026 226.532 114.87 226.532C117.696 226.532 119.442 228.728 119.442 231.356C119.442 233.984 117.696 236.162 114.87 236.162ZM111.558 231.356C111.558 233.426 112.89 235.1 114.87 235.1C116.85 235.1 118.182 233.426 118.182 231.356C118.182 229.268 116.85 227.594 114.87 227.594C112.89 227.594 111.558 229.268 111.558 231.356ZM120.885 236V226.694H122.145V228.458C122.631 227.396 123.477 226.532 125.025 226.532C127.167 226.532 128.391 227.792 128.391 230.078V236H127.131V230.168C127.131 228.26 126.231 227.594 124.899 227.594C123.495 227.594 122.145 228.584 122.145 231.266V236H120.885ZM135.536 229.484C135.41 228.08 134.348 227.594 133.304 227.594C132.314 227.594 131.306 228.08 131.306 229.07C131.306 229.952 132.08 230.384 132.998 230.618C133.394 230.726 133.844 230.834 134.258 230.96C135.644 231.32 136.922 231.932 136.922 233.426C136.922 235.352 134.96 236.144 133.394 236.144C131.846 236.144 130.01 235.424 129.74 233.228H131C131.198 234.47 132.062 235.1 133.43 235.1C134.564 235.1 135.662 234.668 135.662 233.48C135.662 232.598 134.87 232.274 133.916 232.022C133.43 231.878 133.07 231.788 132.62 231.68C131.306 231.338 130.046 230.6 130.046 229.124C130.046 227.432 131.774 226.532 133.34 226.532C135.104 226.532 136.544 227.45 136.796 229.484H135.536Z" fill="#22203C"/>
<path d="M46.216 124H43.36L49.672 106.864H53.104L59.392 124H56.536L54.808 119.248H47.944L46.216 124ZM48.712 117.04H54.04L51.4 109.36H51.328L48.712 117.04ZM71.8137 120.016C71.2137 122.776 69.1497 124.312 66.1737 124.312C62.4057 124.312 59.6697 121.696 59.6697 117.808C59.6697 113.896 62.4057 111.28 66.1737 111.28C69.2697 111.28 71.2377 113.008 71.7417 115.48H69.1977C68.7657 114.28 67.8297 113.368 66.1257 113.368C63.7737 113.368 62.2857 115.312 62.2857 117.808C62.2857 120.28 63.7737 122.2 66.1257 122.2C67.7097 122.2 68.7897 121.48 69.2697 120.016H71.8137ZM85.0681 120.016C84.4681 122.776 82.4041 124.312 79.4281 124.312C75.6601 124.312 72.9241 121.696 72.9241 117.808C72.9241 113.896 75.6601 111.28 79.4281 111.28C82.5241 111.28 84.4921 113.008 84.9961 115.48H82.4521C82.0201 114.28 81.0841 113.368 79.3801 113.368C77.0281 113.368 75.5401 115.312 75.5401 117.808C75.5401 120.28 77.0281 122.2 79.3801 122.2C80.9641 122.2 82.0441 121.48 82.5241 120.016H85.0681ZM92.5384 124.312C88.8424 124.312 86.1784 121.624 86.1784 117.808C86.1784 113.968 88.8424 111.28 92.5384 111.28C96.2344 111.28 98.8984 113.968 98.8984 117.808C98.8984 121.624 96.2344 124.312 92.5384 124.312ZM88.7704 117.808C88.7704 120.208 90.2824 122.176 92.5384 122.176C94.8184 122.176 96.3064 120.208 96.3064 117.808C96.3064 115.384 94.8184 113.416 92.5384 113.416C90.2824 113.416 88.7704 115.384 88.7704 117.808ZM100.527 119.416V111.592H103.143V118.936C103.143 120.904 103.863 122.056 105.591 122.056C107.319 122.056 108.687 120.568 108.687 117.424V111.592H111.327V124H108.735V121.768C108.063 123.184 106.935 124.312 105.015 124.312C101.775 124.312 100.527 122.176 100.527 119.416ZM113.83 124V111.592H116.422V113.824C117.094 112.408 118.222 111.28 120.142 111.28C123.382 111.28 124.63 113.392 124.63 116.176V124H122.014V116.656C122.014 114.664 121.294 113.536 119.566 113.536C117.838 113.536 116.47 115.024 116.47 118.168V124H113.83ZM130.206 119.92C130.206 121.216 130.662 121.912 131.79 121.912H132.63V124.024H131.334C128.598 124.048 127.638 122.416 127.638 120.208V113.656H125.718V111.592H127.638V108.736L130.206 107.584V111.592H132.63V113.656H130.206V119.92Z" fill="#22203C"/>
<path d="M233.01 75.86H235.77V79.16C239.25 79.61 241.47 81.74 241.77 85.52H238.89C238.5 82.82 237.15 81.47 234.33 81.47C231.96 81.47 229.98 82.46 229.98 85.07C229.98 87.26 232.08 88.1 234.9 88.91C238.47 89.93 242.13 90.71 242.13 95.24C242.13 99.17 239.16 101.09 235.77 101.45V104.78H233.01V101.42C229.14 100.94 226.38 98.69 226.32 94.37H229.17C229.29 97.58 231.48 99.11 234.6 99.11C237.12 99.11 239.28 97.94 239.28 95.33C239.28 92.69 237.06 92.24 234.36 91.43C230.82 90.38 227.22 89.33 227.13 85.28C227.04 81.62 229.71 79.58 233.01 79.16V75.86ZM252.523 101H249.823V85.13H244.723V83.09C247.633 83.09 249.673 82.64 250.303 79.58H252.523V101ZM263.853 99.08C267.363 99.08 268.773 94.31 268.773 90.29C268.773 86.3 267.363 81.74 263.853 81.74C260.343 81.74 258.933 86.3 258.933 90.29C258.933 94.31 260.343 99.08 263.853 99.08ZM256.233 90.29C256.233 84.83 258.213 79.46 263.853 79.46C269.493 79.46 271.473 84.83 271.473 90.29C271.473 95.75 269.493 101.36 263.853 101.36C258.213 101.36 256.233 95.78 256.233 90.29ZM274.464 97.4H277.464L275.304 104.63H272.904L274.464 97.4ZM287.526 79.4C291.396 79.4 294.276 81.47 294.276 84.74C294.276 87.2 292.836 89.09 290.976 89.66C292.956 90.23 295.056 92.21 295.056 95.18C295.056 99.08 291.786 101.36 287.556 101.36C283.176 101.36 279.876 99.08 279.906 95.18C279.936 92.21 282.156 90.2 284.106 89.63C282.006 88.94 280.776 87.23 280.776 84.74C280.776 81.47 283.656 79.4 287.526 79.4ZM282.606 94.97C282.606 97.28 284.346 99.11 287.526 99.11C290.676 99.11 292.356 97.28 292.356 94.94C292.356 92.69 290.676 90.86 287.526 90.86C284.346 90.86 282.606 92.69 282.606 94.97ZM283.506 85.22C283.506 87.08 285.036 88.76 287.526 88.76C290.016 88.76 291.546 87.11 291.546 85.22C291.546 83.33 290.016 81.68 287.526 81.68C285.006 81.68 283.506 83.33 283.506 85.22ZM304.71 99.08C308.22 99.08 309.63 94.31 309.63 90.29C309.63 86.3 308.22 81.74 304.71 81.74C301.2 81.74 299.79 86.3 299.79 90.29C299.79 94.31 301.2 99.08 304.71 99.08ZM297.09 90.29C297.09 84.83 299.07 79.46 304.71 79.46C310.35 79.46 312.33 84.83 312.33 90.29C312.33 95.75 310.35 101.36 304.71 101.36C299.07 101.36 297.09 95.78 297.09 90.29ZM321.981 99.08C325.491 99.08 326.901 94.31 326.901 90.29C326.901 86.3 325.491 81.74 321.981 81.74C318.471 81.74 317.061 86.3 317.061 90.29C317.061 94.31 318.471 99.08 321.981 99.08ZM314.361 90.29C314.361 84.83 316.341 79.46 321.981 79.46C327.621 79.46 329.601 84.83 329.601 90.29C329.601 95.75 327.621 101.36 321.981 101.36C316.341 101.36 314.361 95.78 314.361 90.29ZM332.112 97.4H335.412V101H332.112V97.4ZM341.096 100.04C342.851 100.04 343.556 97.655 343.556 95.645C343.556 93.65 342.851 91.37 341.096 91.37C339.341 91.37 338.636 93.65 338.636 95.645C338.636 97.655 339.341 100.04 341.096 100.04ZM337.286 95.645C337.286 92.915 338.276 90.23 341.096 90.23C343.916 90.23 344.906 92.915 344.906 95.645C344.906 98.375 343.916 101.18 341.096 101.18C338.276 101.18 337.286 98.39 337.286 95.645ZM349.731 100.04C351.486 100.04 352.191 97.655 352.191 95.645C352.191 93.65 351.486 91.37 349.731 91.37C347.976 91.37 347.271 93.65 347.271 95.645C347.271 97.655 347.976 100.04 349.731 100.04ZM345.921 95.645C345.921 92.915 346.911 90.23 349.731 90.23C352.551 90.23 353.541 92.915 353.541 95.645C353.541 98.375 352.551 101.18 349.731 101.18C346.911 101.18 345.921 98.39 345.921 95.645Z" fill="#22203C"/>
<circle cx="68" cy="286" r="25" fill="#E7E8E9"/>
<circle opacity="0.5" cx="68" cy="346" r="25" fill="#D9D9D9"/>
<circle opacity="0.5" cx="68" cy="406" r="25" fill="#D9D9D9"/>
<path d="M298.702 360.2H301.854V361.544H298.702V364.776H297.198V361.544H294.046V360.2H297.198V356.968H298.702V360.2ZM309.922 351.56H311.538V353.352C313.362 353.608 314.578 354.728 314.754 356.792H313.01C312.802 355.416 312.114 354.744 310.69 354.744C309.49 354.744 308.514 355.24 308.514 356.52C308.514 357.624 309.57 358.056 311.058 358.488C312.978 359.048 314.914 359.496 314.914 361.912C314.914 363.976 313.346 365.016 311.538 365.224V367.032H309.922V365.208C307.89 364.936 306.418 363.72 306.338 361.416H308.082C308.162 363.032 309.266 363.832 310.834 363.832C312.146 363.832 313.186 363.24 313.186 361.944C313.186 360.616 312.066 360.376 310.626 359.944C308.738 359.368 306.834 358.792 306.786 356.584C306.754 354.68 308.194 353.608 309.922 353.352V351.56ZM320.566 365H318.934V356.68H316.182V355.528C317.718 355.528 318.822 355.24 319.206 353.576H320.566V365ZM322.196 362.168V360.728L327.22 353.576H328.788V360.808H330.084V362.168H328.788V365H327.156V362.168H322.196ZM323.796 360.808H327.156V356.04H327.108L323.796 360.808ZM335.367 363.832C337.175 363.832 337.895 361.416 337.895 359.288C337.895 357.16 337.175 354.872 335.367 354.872C333.559 354.872 332.839 357.16 332.839 359.288C332.839 361.416 333.559 363.832 335.367 363.832ZM331.207 359.288C331.207 356.36 332.263 353.496 335.367 353.496C338.471 353.496 339.527 356.36 339.527 359.288C339.527 362.216 338.471 365.208 335.367 365.208C332.263 365.208 331.207 362.232 331.207 359.288ZM340.862 363.016H342.734V365H340.862V363.016ZM343.715 361.208C343.715 360.072 344.595 359.232 345.779 359.232C346.387 359.232 346.931 359.456 347.299 359.856C347.723 360.328 347.851 361.08 347.851 362.064C347.851 363.696 347.259 365.104 345.803 365.104C344.691 365.104 344.011 364.472 343.867 363.672H344.683C344.787 364.024 345.067 364.416 345.763 364.416C346.611 364.416 346.939 363.664 347.011 362.576C346.787 362.856 346.315 363.16 345.667 363.16C344.539 363.16 343.715 362.328 343.715 361.208ZM344.531 361.184C344.531 361.888 345.059 362.464 345.771 362.464C346.507 362.464 347.011 361.84 347.011 361.184C347.011 360.456 346.467 359.92 345.771 359.92C345.083 359.92 344.531 360.488 344.531 361.184ZM350.565 364.416C351.469 364.416 351.829 363.208 351.829 362.144C351.829 361.08 351.469 359.936 350.565 359.936C349.661 359.936 349.301 361.08 349.301 362.144C349.301 363.208 349.661 364.416 350.565 364.416ZM348.485 362.144C348.485 360.68 349.013 359.248 350.565 359.248C352.117 359.248 352.645 360.68 352.645 362.144C352.645 363.608 352.117 365.104 350.565 365.104C349.013 365.104 348.485 363.616 348.485 362.144Z" fill="#22203C"/>
<path d="M75.9164 339.857H60.2812C59.9187 339.857 59.625 339.569 59.625 339.214C59.625 338.859 59.9187 338.571 60.2812 338.571H76.0312C76.3938 338.571 76.6875 338.284 76.6875 337.929C76.6875 336.863 75.8061 336 74.7188 336H59.625C58.1751 336 57 337.151 57 338.571V351.429C57 352.849 58.1751 354 59.625 354H75.9164C77.0657 354 78 353.135 78 352.071V341.786C78 340.722 77.0657 339.857 75.9164 339.857ZM74.0625 348.214C73.3378 348.214 72.75 347.639 72.75 346.929C72.75 346.219 73.3378 345.643 74.0625 345.643C74.7872 345.643 75.375 346.219 75.375 346.929C75.375 347.639 74.7872 348.214 74.0625 348.214Z" fill="#22203C"/>
<path d="M75.9164 400.857H60.2812C59.9187 400.857 59.625 400.569 59.625 400.214C59.625 399.859 59.9187 399.571 60.2812 399.571H76.0312C76.3938 399.571 76.6875 399.284 76.6875 398.929C76.6875 397.863 75.8061 397 74.7188 397H59.625C58.1751 397 57 398.151 57 399.571V412.429C57 413.849 58.1751 415 59.625 415H75.9164C77.0657 415 78 414.135 78 413.071V402.786C78 401.722 77.0657 400.857 75.9164 400.857ZM74.0625 409.214C73.3378 409.214 72.75 408.639 72.75 407.929C72.75 407.219 73.3378 406.643 74.0625 406.643C74.7872 406.643 75.375 407.219 75.375 407.929C75.375 408.639 74.7872 409.214 74.0625 409.214Z" fill="#22203C"/>
<path d="M79.2641 277.877C77.7488 277.242 76.2324 277 74.7168 277C69.9055 277 65.0945 279.435 60.2832 279.435C59.0766 279.435 57.8707 279.282 56.6641 278.899C56.5285 278.856 56.3926 278.836 56.2598 278.836C55.5875 278.836 55 279.356 55 280.079V292.471C55 292.965 55.2824 293.432 55.7359 293.622C57.2512 294.258 58.7676 294.5 60.2832 294.5C65.0945 294.5 69.9059 292.064 74.7172 292.064C75.9238 292.064 77.1297 292.218 78.3363 292.6C78.4719 292.643 78.6078 292.664 78.7406 292.664C79.4129 292.664 80.0004 292.143 80.0004 291.421V279.029C80 278.535 79.7176 278.068 79.2641 277.877ZM67.5 289.5C65.7738 289.5 64.375 287.821 64.375 285.75C64.375 283.679 65.7742 282 67.5 282C69.2258 282 70.625 283.679 70.625 285.75C70.625 287.821 69.2254 289.5 67.5 289.5Z" fill="#22203C"/>
<rect x="148.42" y="147" width="101.16" height="38" rx="8" fill="#929394"/>
<path d="M185.672 160.576C189.48 160.576 191.608 162.736 191.608 166.112C191.608 169.52 189.48 172 185.752 172H182.2V160.576H185.672ZM183.928 170.544H185.784C188.088 170.544 189.88 169.04 189.88 166.112C189.88 163.312 188.088 162.032 185.736 162.032H183.928V170.544ZM200.747 169.552C200.283 171.264 198.875 172.208 196.971 172.208C194.507 172.208 192.859 170.432 192.859 167.824C192.859 165.328 194.587 163.52 196.955 163.52C199.819 163.52 200.859 165.776 200.875 168.016V168.32H194.443C194.571 169.904 195.563 170.864 196.955 170.864C197.979 170.864 198.843 170.464 199.131 169.552H200.747ZM194.459 167.088H199.243C199.115 165.776 198.379 164.832 196.955 164.832C195.547 164.832 194.651 165.744 194.459 167.088ZM207.041 163.52C209.345 163.52 210.849 165.248 210.849 167.84C210.849 170.432 209.329 172.192 207.025 172.192C205.569 172.192 204.593 171.248 204.289 170.464H204.273V175.2H202.609V163.728H204.273V165.312H204.289C204.577 164.496 205.553 163.52 207.041 163.52ZM204.177 167.84C204.177 169.408 204.977 170.832 206.689 170.832C208.353 170.832 209.201 169.552 209.201 167.84C209.201 166.144 208.321 164.88 206.689 164.88C204.993 164.88 204.177 166.304 204.177 167.84ZM216.215 172.208C213.735 172.208 212.007 170.384 212.007 167.872C212.007 165.36 213.735 163.52 216.215 163.52C218.695 163.52 220.407 165.36 220.407 167.872C220.407 170.384 218.695 172.208 216.215 172.208ZM213.639 167.872C213.639 169.504 214.663 170.848 216.215 170.848C217.751 170.848 218.791 169.504 218.791 167.872C218.791 166.224 217.751 164.88 216.215 164.88C214.663 164.88 213.639 166.224 213.639 167.872ZM226.582 166.208C226.486 165.216 225.67 164.832 224.87 164.832C224.118 164.832 223.414 165.264 223.414 165.904C223.414 166.512 223.99 166.864 224.758 167.056C225.142 167.152 225.494 167.232 225.862 167.328C227.158 167.664 228.31 168.288 228.31 169.632C228.31 171.328 226.582 172.208 224.982 172.208C223.446 172.208 221.718 171.504 221.558 169.488H223.19C223.366 170.464 223.974 170.88 225.014 170.88C225.814 170.88 226.678 170.592 226.678 169.728C226.678 169.04 226.022 168.816 225.286 168.624C224.902 168.528 224.502 168.432 224.118 168.32C222.838 168 221.798 167.248 221.798 165.968C221.798 164.432 223.334 163.52 224.918 163.52C226.614 163.52 228.006 164.416 228.182 166.208H226.582ZM231.74 162.288H230.012V160.576H231.74V162.288ZM229.98 172V163.728H231.628V172H229.98ZM235.921 169.424C235.921 170.224 236.257 170.672 236.977 170.672H237.537V172.016H236.737C234.977 172.016 234.305 170.992 234.305 169.584V165.04H233.041V163.728H234.305V161.808L235.921 161.088V163.728H237.521V165.04H235.921V169.424Z" fill="white"/>
<rect x="253.84" y="147" width="101.16" height="38" rx="8" fill="#929394"/>
<path d="M284.2 172V160.576H288.392C291 160.576 292.344 162 292.344 163.824C292.344 165.472 291.256 166.512 290.008 166.816C291.096 167.104 291.432 167.984 291.848 169.36C292.168 170.4 292.424 171.12 292.84 171.856V172H291.032C290.648 171.248 290.376 170.208 290.04 169.296C289.64 168.24 289.16 167.424 287.768 167.424H285.928V172H284.2ZM285.928 165.984H288.312C289.832 165.984 290.616 165.168 290.616 163.888C290.616 162.88 290.024 162.016 288.232 162.016H285.928V165.984ZM301.622 169.552C301.158 171.264 299.75 172.208 297.846 172.208C295.382 172.208 293.734 170.432 293.734 167.824C293.734 165.328 295.462 163.52 297.83 163.52C300.694 163.52 301.734 165.776 301.75 168.016V168.32H295.318C295.446 169.904 296.438 170.864 297.83 170.864C298.854 170.864 299.718 170.464 300.006 169.552H301.622ZM295.334 167.088H300.118C299.99 165.776 299.254 164.832 297.83 164.832C296.422 164.832 295.526 165.744 295.334 167.088ZM306.78 163.52C308.252 163.52 309.244 164.496 309.532 165.312H309.548V163.728H311.212V175.2H309.532V170.464H309.516C309.212 171.248 308.252 172.192 306.78 172.192C304.476 172.192 302.972 170.432 302.972 167.84C302.972 165.248 304.476 163.52 306.78 163.52ZM304.604 167.84C304.604 169.552 305.452 170.832 307.116 170.832C308.828 170.832 309.628 169.408 309.628 167.84C309.628 166.304 308.812 164.88 307.116 164.88C305.5 164.88 304.604 166.144 304.604 167.84ZM313.33 168.992V163.728H314.962V168.72C314.962 170.096 315.49 170.8 316.626 170.8C317.81 170.8 318.77 169.792 318.77 167.68V163.728H320.418V172H318.786V170.496C318.354 171.44 317.586 172.208 316.306 172.208C314.146 172.208 313.33 170.784 313.33 168.992ZM329.977 169.552C329.513 171.264 328.105 172.208 326.201 172.208C323.737 172.208 322.089 170.432 322.089 167.824C322.089 165.328 323.817 163.52 326.185 163.52C329.049 163.52 330.089 165.776 330.105 168.016V168.32H323.673C323.801 169.904 324.793 170.864 326.185 170.864C327.209 170.864 328.073 170.464 328.361 169.552H329.977ZM323.689 167.088H328.473C328.345 165.776 327.609 164.832 326.185 164.832C324.777 164.832 323.881 165.744 323.689 167.088ZM336.351 166.208C336.255 165.216 335.439 164.832 334.639 164.832C333.887 164.832 333.183 165.264 333.183 165.904C333.183 166.512 333.759 166.864 334.527 167.056C334.911 167.152 335.263 167.232 335.631 167.328C336.927 167.664 338.079 168.288 338.079 169.632C338.079 171.328 336.351 172.208 334.751 172.208C333.215 172.208 331.487 171.504 331.327 169.488H332.959C333.135 170.464 333.743 170.88 334.783 170.88C335.583 170.88 336.447 170.592 336.447 169.728C336.447 169.04 335.791 168.816 335.055 168.624C334.671 168.528 334.271 168.432 333.887 168.32C332.607 168 331.567 167.248 331.567 165.968C331.567 164.432 333.103 163.52 334.687 163.52C336.383 163.52 337.775 164.416 337.951 166.208H336.351ZM341.764 169.424C341.764 170.224 342.1 170.672 342.82 170.672H343.38V172.016H342.58C340.82 172.016 340.148 170.992 340.148 169.584V165.04H338.884V163.728H340.148V161.808L341.764 161.088V163.728H343.364V165.04H341.764V169.424Z" fill="white"/>
<rect x="43" y="147" width="101.16" height="38" rx="8" fill="#00877A"/>
<path d="M89.0259 163.273C88.9577 162.697 88.6812 162.25 88.1964 161.932C87.7115 161.614 87.1168 161.455 86.4123 161.455C85.8971 161.455 85.4464 161.538 85.06 161.705C84.6774 161.871 84.3782 162.1 84.1623 162.392C83.9502 162.684 83.8441 163.015 83.8441 163.386C83.8441 163.697 83.918 163.964 84.0657 164.188C84.2172 164.407 84.4104 164.591 84.6452 164.739C84.8801 164.883 85.1263 165.002 85.3839 165.097C85.6415 165.187 85.8782 165.261 86.0941 165.318L87.2759 165.636C87.579 165.716 87.9161 165.826 88.2873 165.966C88.6623 166.106 89.0202 166.297 89.3611 166.54C89.7058 166.778 89.9899 167.085 90.2134 167.46C90.4369 167.835 90.5486 168.295 90.5486 168.841C90.5486 169.47 90.3839 170.038 90.0543 170.545C89.7286 171.053 89.2513 171.456 88.6225 171.756C87.9975 172.055 87.238 172.205 86.3441 172.205C85.5108 172.205 84.7892 172.07 84.1793 171.801C83.5733 171.532 83.096 171.157 82.7475 170.676C82.4028 170.195 82.2077 169.636 82.1623 169H83.6168C83.6547 169.439 83.8024 169.803 84.06 170.091C84.3214 170.375 84.6509 170.587 85.0486 170.727C85.4502 170.864 85.882 170.932 86.3441 170.932C86.882 170.932 87.3649 170.845 87.793 170.67C88.221 170.492 88.56 170.246 88.81 169.932C89.06 169.614 89.185 169.242 89.185 168.818C89.185 168.432 89.0771 168.117 88.8611 167.875C88.6452 167.633 88.3611 167.436 88.0089 167.284C87.6566 167.133 87.2759 167 86.8668 166.886L85.435 166.477C84.5259 166.216 83.8062 165.843 83.2759 165.358C82.7456 164.873 82.4805 164.239 82.4805 163.455C82.4805 162.803 82.6566 162.235 83.0089 161.75C83.3649 161.261 83.8422 160.883 84.4407 160.614C85.043 160.341 85.7153 160.205 86.4577 160.205C87.2077 160.205 87.8744 160.339 88.4577 160.608C89.0411 160.873 89.5032 161.237 89.8441 161.699C90.1888 162.161 90.3706 162.686 90.3896 163.273H89.0259ZM96.3427 172.182C95.5018 172.182 94.7764 171.996 94.1665 171.625C93.5605 171.25 93.0927 170.727 92.7631 170.057C92.4374 169.383 92.2745 168.598 92.2745 167.705C92.2745 166.811 92.4374 166.023 92.7631 165.341C93.0927 164.655 93.551 164.121 94.1381 163.739C94.729 163.352 95.4184 163.159 96.2063 163.159C96.6609 163.159 97.1097 163.235 97.5529 163.386C97.9961 163.538 98.3995 163.784 98.7631 164.125C99.1268 164.462 99.4165 164.909 99.6325 165.466C99.8484 166.023 99.9563 166.708 99.9563 167.523V168.091H93.229V166.932H98.5927C98.5927 166.439 98.4942 166 98.2972 165.614C98.104 165.227 97.8275 164.922 97.4677 164.699C97.1116 164.475 96.6912 164.364 96.2063 164.364C95.6722 164.364 95.2101 164.496 94.82 164.761C94.4336 165.023 94.1362 165.364 93.9279 165.784C93.7196 166.205 93.6154 166.655 93.6154 167.136V167.909C93.6154 168.568 93.729 169.127 93.9563 169.585C94.1874 170.04 94.5075 170.386 94.9165 170.625C95.3256 170.86 95.801 170.977 96.3427 170.977C96.695 170.977 97.0131 170.928 97.2972 170.83C97.5851 170.727 97.8332 170.576 98.0415 170.375C98.2499 170.17 98.4109 169.917 98.5245 169.614L99.82 169.977C99.6836 170.417 99.4544 170.803 99.1325 171.136C98.8105 171.466 98.4128 171.723 97.9393 171.909C97.4658 172.091 96.9336 172.182 96.3427 172.182ZM103.337 166.75V172H101.996V163.273H103.292V164.636H103.405C103.61 164.193 103.92 163.837 104.337 163.568C104.754 163.295 105.292 163.159 105.951 163.159C106.542 163.159 107.059 163.28 107.502 163.523C107.945 163.761 108.29 164.125 108.536 164.614C108.782 165.098 108.905 165.712 108.905 166.455V172H107.564V166.545C107.564 165.86 107.386 165.326 107.03 164.943C106.674 164.557 106.185 164.364 105.564 164.364C105.136 164.364 104.754 164.456 104.417 164.642C104.083 164.828 103.82 165.098 103.627 165.455C103.434 165.811 103.337 166.242 103.337 166.75ZM114.651 172.182C113.924 172.182 113.282 171.998 112.725 171.631C112.168 171.259 111.732 170.737 111.418 170.062C111.104 169.384 110.946 168.583 110.946 167.659C110.946 166.742 111.104 165.947 111.418 165.273C111.732 164.598 112.17 164.078 112.73 163.71C113.291 163.343 113.939 163.159 114.674 163.159C115.242 163.159 115.691 163.254 116.02 163.443C116.354 163.629 116.607 163.841 116.782 164.08C116.96 164.314 117.098 164.508 117.196 164.659H117.31V160.364H118.651V172H117.355V170.659H117.196C117.098 170.818 116.958 171.019 116.776 171.261C116.594 171.5 116.335 171.714 115.998 171.903C115.66 172.089 115.212 172.182 114.651 172.182ZM114.833 170.977C115.371 170.977 115.825 170.837 116.196 170.557C116.568 170.273 116.85 169.881 117.043 169.381C117.236 168.877 117.333 168.295 117.333 167.636C117.333 166.985 117.238 166.415 117.049 165.926C116.859 165.434 116.579 165.051 116.208 164.778C115.837 164.502 115.378 164.364 114.833 164.364C114.265 164.364 113.791 164.509 113.412 164.801C113.037 165.089 112.755 165.481 112.566 165.977C112.38 166.47 112.287 167.023 112.287 167.636C112.287 168.258 112.382 168.822 112.571 169.33C112.765 169.833 113.049 170.235 113.424 170.534C113.802 170.83 114.272 170.977 114.833 170.977Z" fill="white"/>
<path d="M61.4697 170.97C61.1768 171.263 61.1768 171.738 61.4697 172.031C61.7626 172.324 62.2375 172.324 62.5304 172.031L61.4697 170.97ZM66.75 166.75L67.2804 167.28L67.2804 167.28L66.75 166.75ZM72.25 162C72.25 161.586 71.9142 161.25 71.5 161.25L64.75 161.25C64.3358 161.25 64 161.586 64 162C64 162.414 64.3358 162.75 64.75 162.75L70.75 162.75L70.7501 168.75C70.7501 169.164 71.0859 169.5 71.5002 169.5C71.9144 169.5 72.2501 169.164 72.2501 168.75L72.25 162ZM62.5304 172.031L67.2804 167.28L66.2197 166.22L61.4697 170.97L62.5304 172.031ZM67.2804 167.28L72.0303 162.53L70.9697 161.47L66.2197 166.22L67.2804 167.28Z" fill="white"/>
<path d="M275.949 162.525C276.239 162.23 276.235 161.755 275.939 161.465C275.644 161.174 275.169 161.179 274.879 161.474L275.949 162.525ZM270.707 166.793L270.172 166.267L270.172 166.267L270.707 166.793ZM265.25 171.592C265.254 172.007 265.593 172.339 266.007 172.336L272.757 172.274C273.171 172.271 273.504 171.932 273.5 171.518C273.496 171.103 273.157 170.771 272.743 170.774L266.743 170.829L266.689 164.829C266.685 164.415 266.346 164.082 265.932 164.086C265.518 164.09 265.185 164.428 265.189 164.843L265.25 171.592ZM274.879 161.474L270.172 166.267L271.242 167.318L275.949 162.525L274.879 161.474ZM270.172 166.267L265.465 171.06L266.535 172.111L271.242 167.318L270.172 166.267Z" fill="white"/>
<path d="M167.898 159.004C167.9 158.589 167.566 158.252 167.152 158.25C166.738 158.248 166.4 158.582 166.398 158.996L167.898 159.004ZM166.552 171.781C166.843 172.075 167.318 172.077 167.612 171.786L172.41 167.038C172.704 166.746 172.707 166.272 172.415 165.977C172.124 165.683 171.649 165.68 171.355 165.972L167.09 170.192L162.87 165.928C162.578 165.633 162.103 165.631 161.809 165.922C161.514 166.214 161.512 166.689 161.803 166.983L166.552 171.781ZM166.398 158.996L166.335 171.249L167.835 171.257L167.898 159.004L166.398 158.996Z" fill="white"/>
<rect x="300" y="261" width="55" height="16" rx="5" fill="#00877A" fill-opacity="0.1"/>
<rect x="300" y="327" width="55" height="16" rx="5" fill="#00877A" fill-opacity="0.1"/>
<rect x="300" y="392" width="55" height="16" rx="5" fill="#00877A" fill-opacity="0.1"/>
<path d="M309.094 265.455V272H308.302V265.455H309.094ZM311.155 269.047V272H310.401V267.091H311.13V267.858H311.194C311.309 267.609 311.484 267.408 311.718 267.257C311.952 267.104 312.255 267.027 312.626 267.027C312.958 267.027 313.249 267.095 313.498 267.232C313.747 267.366 313.941 267.57 314.08 267.845C314.218 268.118 314.288 268.463 314.288 268.881V272H313.533V268.932C313.533 268.546 313.433 268.246 313.233 268.031C313.033 267.813 312.758 267.705 312.408 267.705C312.168 267.705 311.952 267.757 311.763 267.861C311.575 267.966 311.427 268.118 311.318 268.318C311.21 268.518 311.155 268.761 311.155 269.047ZM317.48 272.102C317.02 272.102 316.624 271.994 316.291 271.776C315.959 271.559 315.703 271.26 315.524 270.878C315.345 270.497 315.256 270.061 315.256 269.571C315.256 269.072 315.347 268.632 315.531 268.251C315.716 267.868 315.974 267.568 316.304 267.353C316.636 267.136 317.024 267.027 317.467 267.027C317.813 267.027 318.124 267.091 318.401 267.219C318.678 267.347 318.905 267.526 319.081 267.756C319.258 267.986 319.368 268.254 319.411 268.561H318.656C318.599 268.337 318.471 268.139 318.273 267.967C318.077 267.792 317.813 267.705 317.48 267.705C317.186 267.705 316.928 267.781 316.707 267.935C316.487 268.086 316.316 268.3 316.192 268.577C316.071 268.852 316.01 269.175 316.01 269.545C316.01 269.925 316.07 270.255 316.189 270.536C316.31 270.817 316.481 271.036 316.7 271.191C316.922 271.347 317.182 271.425 317.48 271.425C317.676 271.425 317.854 271.391 318.014 271.322C318.174 271.254 318.309 271.156 318.42 271.028C318.531 270.901 318.609 270.747 318.656 270.568H319.411C319.368 270.858 319.262 271.119 319.094 271.351C318.928 271.581 318.707 271.765 318.433 271.901C318.16 272.035 317.842 272.102 317.48 272.102ZM322.328 272.102C321.884 272.102 321.495 271.997 321.161 271.786C320.829 271.575 320.569 271.28 320.381 270.901C320.196 270.521 320.103 270.078 320.103 269.571C320.103 269.06 320.196 268.613 320.381 268.232C320.569 267.85 320.829 267.554 321.161 267.343C321.495 267.132 321.884 267.027 322.328 267.027C322.771 267.027 323.158 267.132 323.491 267.343C323.825 267.554 324.085 267.85 324.271 268.232C324.458 268.613 324.552 269.06 324.552 269.571C324.552 270.078 324.458 270.521 324.271 270.901C324.085 271.28 323.825 271.575 323.491 271.786C323.158 271.997 322.771 272.102 322.328 272.102ZM322.328 271.425C322.664 271.425 322.941 271.338 323.158 271.166C323.376 270.993 323.537 270.766 323.641 270.485C323.745 270.204 323.798 269.899 323.798 269.571C323.798 269.243 323.745 268.937 323.641 268.654C323.537 268.37 323.376 268.141 323.158 267.967C322.941 267.792 322.664 267.705 322.328 267.705C321.991 267.705 321.714 267.792 321.497 267.967C321.279 268.141 321.118 268.37 321.014 268.654C320.91 268.937 320.857 269.243 320.857 269.571C320.857 269.899 320.91 270.204 321.014 270.485C321.118 270.766 321.279 270.993 321.497 271.166C321.714 271.338 321.991 271.425 322.328 271.425ZM325.523 272V267.091H326.252V267.858H326.316C326.418 267.596 326.583 267.392 326.811 267.248C327.039 267.1 327.313 267.027 327.633 267.027C327.957 267.027 328.226 267.1 328.441 267.248C328.659 267.392 328.828 267.596 328.949 267.858H329.001C329.126 267.604 329.315 267.403 329.566 267.254C329.818 267.103 330.119 267.027 330.471 267.027C330.91 267.027 331.269 267.164 331.548 267.439C331.827 267.712 331.966 268.137 331.966 268.714V272H331.212V268.714C331.212 268.352 331.113 268.093 330.915 267.938C330.717 267.782 330.484 267.705 330.215 267.705C329.87 267.705 329.602 267.809 329.413 268.018C329.223 268.224 329.128 268.487 329.128 268.804V272H328.361V268.638C328.361 268.359 328.271 268.134 328.09 267.963C327.909 267.791 327.675 267.705 327.39 267.705C327.194 267.705 327.011 267.757 326.84 267.861C326.672 267.966 326.535 268.11 326.431 268.296C326.329 268.479 326.278 268.691 326.278 268.932V272H325.523ZM333.166 272V267.091H333.92V272H333.166ZM333.549 266.273C333.402 266.273 333.275 266.223 333.169 266.123C333.064 266.022 333.012 265.902 333.012 265.761C333.012 265.621 333.064 265.5 333.169 265.4C333.275 265.3 333.402 265.25 333.549 265.25C333.696 265.25 333.822 265.3 333.926 265.4C334.033 265.5 334.086 265.621 334.086 265.761C334.086 265.902 334.033 266.022 333.926 266.123C333.822 266.223 333.696 266.273 333.549 266.273ZM335.876 269.047V272H335.121V267.091H335.85V267.858H335.914C336.029 267.609 336.204 267.408 336.438 267.257C336.672 267.104 336.975 267.027 337.346 267.027C337.678 267.027 337.969 267.095 338.218 267.232C338.468 267.366 338.661 267.57 338.8 267.845C338.938 268.118 339.008 268.463 339.008 268.881V272H338.253V268.932C338.253 268.546 338.153 268.246 337.953 268.031C337.753 267.813 337.478 267.705 337.128 267.705C336.888 267.705 336.672 267.757 336.483 267.861C336.295 267.966 336.147 268.118 336.039 268.318C335.93 268.518 335.876 268.761 335.876 269.047ZM342.188 273.943C341.823 273.943 341.51 273.896 341.248 273.803C340.986 273.711 340.767 273.589 340.593 273.438C340.42 273.289 340.283 273.129 340.18 272.959L340.781 272.537C340.849 272.626 340.936 272.729 341.04 272.844C341.145 272.961 341.287 273.062 341.468 273.147C341.652 273.235 341.891 273.278 342.188 273.278C342.584 273.278 342.911 273.183 343.169 272.991C343.426 272.799 343.555 272.499 343.555 272.089V271.092H343.491C343.436 271.182 343.357 271.293 343.255 271.425C343.155 271.555 343.01 271.671 342.82 271.773C342.633 271.873 342.379 271.923 342.06 271.923C341.663 271.923 341.308 271.83 340.992 271.642C340.679 271.455 340.431 271.182 340.248 270.824C340.066 270.466 339.976 270.031 339.976 269.52C339.976 269.017 340.064 268.579 340.241 268.206C340.418 267.831 340.664 267.542 340.979 267.337C341.295 267.13 341.659 267.027 342.072 267.027C342.392 267.027 342.646 267.08 342.833 267.187C343.023 267.291 343.168 267.411 343.268 267.545C343.37 267.677 343.449 267.786 343.504 267.871H343.581V267.091H344.31V272.141C344.31 272.562 344.214 272.906 344.022 273.17C343.832 273.436 343.577 273.631 343.255 273.755C342.935 273.88 342.58 273.943 342.188 273.943ZM342.162 271.246C342.464 271.246 342.72 271.176 342.929 271.038C343.138 270.9 343.297 270.7 343.405 270.44C343.514 270.18 343.568 269.869 343.568 269.507C343.568 269.153 343.515 268.841 343.408 268.571C343.302 268.3 343.144 268.088 342.935 267.935C342.727 267.781 342.469 267.705 342.162 267.705C341.842 267.705 341.576 267.786 341.363 267.947C341.152 268.109 340.993 268.327 340.887 268.599C340.782 268.872 340.73 269.175 340.73 269.507C340.73 269.848 340.783 270.15 340.89 270.412C340.999 270.672 341.158 270.876 341.369 271.025C341.582 271.172 341.847 271.246 342.162 271.246Z" fill="#00877A"/>
<path d="M309.094 331.455V338H308.302V331.455H309.094ZM311.155 335.047V338H310.401V333.091H311.13V333.858H311.194C311.309 333.609 311.484 333.408 311.718 333.257C311.952 333.104 312.255 333.027 312.626 333.027C312.958 333.027 313.249 333.095 313.498 333.232C313.747 333.366 313.941 333.57 314.08 333.845C314.218 334.118 314.288 334.463 314.288 334.881V338H313.533V334.932C313.533 334.546 313.433 334.246 313.233 334.031C313.033 333.813 312.758 333.705 312.408 333.705C312.168 333.705 311.952 333.757 311.763 333.861C311.575 333.966 311.427 334.118 311.318 334.318C311.21 334.518 311.155 334.761 311.155 335.047ZM317.48 338.102C317.02 338.102 316.624 337.994 316.291 337.776C315.959 337.559 315.703 337.26 315.524 336.878C315.345 336.497 315.256 336.061 315.256 335.571C315.256 335.072 315.347 334.632 315.531 334.251C315.716 333.868 315.974 333.568 316.304 333.353C316.636 333.136 317.024 333.027 317.467 333.027C317.813 333.027 318.124 333.091 318.401 333.219C318.678 333.347 318.905 333.526 319.081 333.756C319.258 333.986 319.368 334.254 319.411 334.561H318.656C318.599 334.337 318.471 334.139 318.273 333.967C318.077 333.792 317.813 333.705 317.48 333.705C317.186 333.705 316.928 333.781 316.707 333.935C316.487 334.086 316.316 334.3 316.192 334.577C316.071 334.852 316.01 335.175 316.01 335.545C316.01 335.925 316.07 336.255 316.189 336.536C316.31 336.817 316.481 337.036 316.7 337.191C316.922 337.347 317.182 337.425 317.48 337.425C317.676 337.425 317.854 337.391 318.014 337.322C318.174 337.254 318.309 337.156 318.42 337.028C318.531 336.901 318.609 336.747 318.656 336.568H319.411C319.368 336.858 319.262 337.119 319.094 337.351C318.928 337.581 318.707 337.765 318.433 337.901C318.16 338.035 317.842 338.102 317.48 338.102ZM322.328 338.102C321.884 338.102 321.495 337.997 321.161 337.786C320.829 337.575 320.569 337.28 320.381 336.901C320.196 336.521 320.103 336.078 320.103 335.571C320.103 335.06 320.196 334.613 320.381 334.232C320.569 333.85 320.829 333.554 321.161 333.343C321.495 333.132 321.884 333.027 322.328 333.027C322.771 333.027 323.158 333.132 323.491 333.343C323.825 333.554 324.085 333.85 324.271 334.232C324.458 334.613 324.552 335.06 324.552 335.571C324.552 336.078 324.458 336.521 324.271 336.901C324.085 337.28 323.825 337.575 323.491 337.786C323.158 337.997 322.771 338.102 322.328 338.102ZM322.328 337.425C322.664 337.425 322.941 337.338 323.158 337.166C323.376 336.993 323.537 336.766 323.641 336.485C323.745 336.204 323.798 335.899 323.798 335.571C323.798 335.243 323.745 334.937 323.641 334.654C323.537 334.37 323.376 334.141 323.158 333.967C322.941 333.792 322.664 333.705 322.328 333.705C321.991 333.705 321.714 333.792 321.497 333.967C321.279 334.141 321.118 334.37 321.014 334.654C320.91 334.937 320.857 335.243 320.857 335.571C320.857 335.899 320.91 336.204 321.014 336.485C321.118 336.766 321.279 336.993 321.497 337.166C321.714 337.338 321.991 337.425 322.328 337.425ZM325.523 338V333.091H326.252V333.858H326.316C326.418 333.596 326.583 333.392 326.811 333.248C327.039 333.1 327.313 333.027 327.633 333.027C327.957 333.027 328.226 333.1 328.441 333.248C328.659 333.392 328.828 333.596 328.949 333.858H329.001C329.126 333.604 329.315 333.403 329.566 333.254C329.818 333.103 330.119 333.027 330.471 333.027C330.91 333.027 331.269 333.164 331.548 333.439C331.827 333.712 331.966 334.137 331.966 334.714V338H331.212V334.714C331.212 334.352 331.113 334.093 330.915 333.938C330.717 333.782 330.484 333.705 330.215 333.705C329.87 333.705 329.602 333.809 329.413 334.018C329.223 334.224 329.128 334.487 329.128 334.804V338H328.361V334.638C328.361 334.359 328.271 334.134 328.09 333.963C327.909 333.791 327.675 333.705 327.39 333.705C327.194 333.705 327.011 333.757 326.84 333.861C326.672 333.966 326.535 334.11 326.431 334.296C326.329 334.479 326.278 334.691 326.278 334.932V338H325.523ZM333.166 338V333.091H333.92V338H333.166ZM333.549 332.273C333.402 332.273 333.275 332.223 333.169 332.123C333.064 332.022 333.012 331.902 333.012 331.761C333.012 331.621 333.064 331.5 333.169 331.4C333.275 331.3 333.402 331.25 333.549 331.25C333.696 331.25 333.822 331.3 333.926 331.4C334.033 331.5 334.086 331.621 334.086 331.761C334.086 331.902 334.033 332.022 333.926 332.123C333.822 332.223 333.696 332.273 333.549 332.273ZM335.876 335.047V338H335.121V333.091H335.85V333.858H335.914C336.029 333.609 336.204 333.408 336.438 333.257C336.672 333.104 336.975 333.027 337.346 333.027C337.678 333.027 337.969 333.095 338.218 333.232C338.468 333.366 338.661 333.57 338.8 333.845C338.938 334.118 339.008 334.463 339.008 334.881V338H338.253V334.932C338.253 334.546 338.153 334.246 337.953 334.031C337.753 333.813 337.478 333.705 337.128 333.705C336.888 333.705 336.672 333.757 336.483 333.861C336.295 333.966 336.147 334.118 336.039 334.318C335.93 334.518 335.876 334.761 335.876 335.047ZM342.188 339.943C341.823 339.943 341.51 339.896 341.248 339.803C340.986 339.711 340.767 339.589 340.593 339.438C340.42 339.289 340.283 339.129 340.18 338.959L340.781 338.537C340.849 338.626 340.936 338.729 341.04 338.844C341.145 338.961 341.287 339.062 341.468 339.147C341.652 339.235 341.891 339.278 342.188 339.278C342.584 339.278 342.911 339.183 343.169 338.991C343.426 338.799 343.555 338.499 343.555 338.089V337.092H343.491C343.436 337.182 343.357 337.293 343.255 337.425C343.155 337.555 343.01 337.671 342.82 337.773C342.633 337.873 342.379 337.923 342.06 337.923C341.663 337.923 341.308 337.83 340.992 337.642C340.679 337.455 340.431 337.182 340.248 336.824C340.066 336.466 339.976 336.031 339.976 335.52C339.976 335.017 340.064 334.579 340.241 334.206C340.418 333.831 340.664 333.542 340.979 333.337C341.295 333.13 341.659 333.027 342.072 333.027C342.392 333.027 342.646 333.08 342.833 333.187C343.023 333.291 343.168 333.411 343.268 333.545C343.37 333.677 343.449 333.786 343.504 333.871H343.581V333.091H344.31V338.141C344.31 338.562 344.214 338.906 344.022 339.17C343.832 339.436 343.577 339.631 343.255 339.755C342.935 339.88 342.58 339.943 342.188 339.943ZM342.162 337.246C342.464 337.246 342.72 337.176 342.929 337.038C343.138 336.9 343.297 336.7 343.405 336.44C343.514 336.18 343.568 335.869 343.568 335.507C343.568 335.153 343.515 334.841 343.408 334.571C343.302 334.3 343.144 334.088 342.935 333.935C342.727 333.781 342.469 333.705 342.162 333.705C341.842 333.705 341.576 333.786 341.363 333.947C341.152 334.109 340.993 334.327 340.887 334.599C340.782 334.872 340.73 335.175 340.73 335.507C340.73 335.848 340.783 336.15 340.89 336.412C340.999 336.672 341.158 336.876 341.369 337.025C341.582 337.172 341.847 337.246 342.162 337.246Z" fill="#00877A"/>
<path d="M309.094 396.455V403H308.302V396.455H309.094ZM311.155 400.047V403H310.401V398.091H311.13V398.858H311.194C311.309 398.609 311.484 398.408 311.718 398.257C311.952 398.104 312.255 398.027 312.626 398.027C312.958 398.027 313.249 398.095 313.498 398.232C313.747 398.366 313.941 398.57 314.08 398.845C314.218 399.118 314.288 399.463 314.288 399.881V403H313.533V399.932C313.533 399.546 313.433 399.246 313.233 399.031C313.033 398.813 312.758 398.705 312.408 398.705C312.168 398.705 311.952 398.757 311.763 398.861C311.575 398.966 311.427 399.118 311.318 399.318C311.21 399.518 311.155 399.761 311.155 400.047ZM317.48 403.102C317.02 403.102 316.624 402.994 316.291 402.776C315.959 402.559 315.703 402.26 315.524 401.878C315.345 401.497 315.256 401.061 315.256 400.571C315.256 400.072 315.347 399.632 315.531 399.251C315.716 398.868 315.974 398.568 316.304 398.353C316.636 398.136 317.024 398.027 317.467 398.027C317.813 398.027 318.124 398.091 318.401 398.219C318.678 398.347 318.905 398.526 319.081 398.756C319.258 398.986 319.368 399.254 319.411 399.561H318.656C318.599 399.337 318.471 399.139 318.273 398.967C318.077 398.792 317.813 398.705 317.48 398.705C317.186 398.705 316.928 398.781 316.707 398.935C316.487 399.086 316.316 399.3 316.192 399.577C316.071 399.852 316.01 400.175 316.01 400.545C316.01 400.925 316.07 401.255 316.189 401.536C316.31 401.817 316.481 402.036 316.7 402.191C316.922 402.347 317.182 402.425 317.48 402.425C317.676 402.425 317.854 402.391 318.014 402.322C318.174 402.254 318.309 402.156 318.42 402.028C318.531 401.901 318.609 401.747 318.656 401.568H319.411C319.368 401.858 319.262 402.119 319.094 402.351C318.928 402.581 318.707 402.765 318.433 402.901C318.16 403.035 317.842 403.102 317.48 403.102ZM322.328 403.102C321.884 403.102 321.495 402.997 321.161 402.786C320.829 402.575 320.569 402.28 320.381 401.901C320.196 401.521 320.103 401.078 320.103 400.571C320.103 400.06 320.196 399.613 320.381 399.232C320.569 398.85 320.829 398.554 321.161 398.343C321.495 398.132 321.884 398.027 322.328 398.027C322.771 398.027 323.158 398.132 323.491 398.343C323.825 398.554 324.085 398.85 324.271 399.232C324.458 399.613 324.552 400.06 324.552 400.571C324.552 401.078 324.458 401.521 324.271 401.901C324.085 402.28 323.825 402.575 323.491 402.786C323.158 402.997 322.771 403.102 322.328 403.102ZM322.328 402.425C322.664 402.425 322.941 402.338 323.158 402.166C323.376 401.993 323.537 401.766 323.641 401.485C323.745 401.204 323.798 400.899 323.798 400.571C323.798 400.243 323.745 399.937 323.641 399.654C323.537 399.37 323.376 399.141 323.158 398.967C322.941 398.792 322.664 398.705 322.328 398.705C321.991 398.705 321.714 398.792 321.497 398.967C321.279 399.141 321.118 399.37 321.014 399.654C320.91 399.937 320.857 400.243 320.857 400.571C320.857 400.899 320.91 401.204 321.014 401.485C321.118 401.766 321.279 401.993 321.497 402.166C321.714 402.338 321.991 402.425 322.328 402.425ZM325.523 403V398.091H326.252V398.858H326.316C326.418 398.596 326.583 398.392 326.811 398.248C327.039 398.1 327.313 398.027 327.633 398.027C327.957 398.027 328.226 398.1 328.441 398.248C328.659 398.392 328.828 398.596 328.949 398.858H329.001C329.126 398.604 329.315 398.403 329.566 398.254C329.818 398.103 330.119 398.027 330.471 398.027C330.91 398.027 331.269 398.164 331.548 398.439C331.827 398.712 331.966 399.137 331.966 399.714V403H331.212V399.714C331.212 399.352 331.113 399.093 330.915 398.938C330.717 398.782 330.484 398.705 330.215 398.705C329.87 398.705 329.602 398.809 329.413 399.018C329.223 399.224 329.128 399.487 329.128 399.804V403H328.361V399.638C328.361 399.359 328.271 399.134 328.09 398.963C327.909 398.791 327.675 398.705 327.39 398.705C327.194 398.705 327.011 398.757 326.84 398.861C326.672 398.966 326.535 399.11 326.431 399.296C326.329 399.479 326.278 399.691 326.278 399.932V403H325.523ZM333.166 403V398.091H333.92V403H333.166ZM333.549 397.273C333.402 397.273 333.275 397.223 333.169 397.123C333.064 397.022 333.012 396.902 333.012 396.761C333.012 396.621 333.064 396.5 333.169 396.4C333.275 396.3 333.402 396.25 333.549 396.25C333.696 396.25 333.822 396.3 333.926 396.4C334.033 396.5 334.086 396.621 334.086 396.761C334.086 396.902 334.033 397.022 333.926 397.123C333.822 397.223 333.696 397.273 333.549 397.273ZM335.876 400.047V403H335.121V398.091H335.85V398.858H335.914C336.029 398.609 336.204 398.408 336.438 398.257C336.672 398.104 336.975 398.027 337.346 398.027C337.678 398.027 337.969 398.095 338.218 398.232C338.468 398.366 338.661 398.57 338.8 398.845C338.938 399.118 339.008 399.463 339.008 399.881V403H338.253V399.932C338.253 399.546 338.153 399.246 337.953 399.031C337.753 398.813 337.478 398.705 337.128 398.705C336.888 398.705 336.672 398.757 336.483 398.861C336.295 398.966 336.147 399.118 336.039 399.318C335.93 399.518 335.876 399.761 335.876 400.047ZM342.188 404.943C341.823 404.943 341.51 404.896 341.248 404.803C340.986 404.711 340.767 404.589 340.593 404.438C340.42 404.289 340.283 404.129 340.18 403.959L340.781 403.537C340.849 403.626 340.936 403.729 341.04 403.844C341.145 403.961 341.287 404.062 341.468 404.147C341.652 404.235 341.891 404.278 342.188 404.278C342.584 404.278 342.911 404.183 343.169 403.991C343.426 403.799 343.555 403.499 343.555 403.089V402.092H343.491C343.436 402.182 343.357 402.293 343.255 402.425C343.155 402.555 343.01 402.671 342.82 402.773C342.633 402.873 342.379 402.923 342.06 402.923C341.663 402.923 341.308 402.83 340.992 402.642C340.679 402.455 340.431 402.182 340.248 401.824C340.066 401.466 339.976 401.031 339.976 400.52C339.976 400.017 340.064 399.579 340.241 399.206C340.418 398.831 340.664 398.542 340.979 398.337C341.295 398.13 341.659 398.027 342.072 398.027C342.392 398.027 342.646 398.08 342.833 398.187C343.023 398.291 343.168 398.411 343.268 398.545C343.37 398.677 343.449 398.786 343.504 398.871H343.581V398.091H344.31V403.141C344.31 403.562 344.214 403.906 344.022 404.17C343.832 404.436 343.577 404.631 343.255 404.755C342.935 404.88 342.58 404.943 342.188 404.943ZM342.162 402.246C342.464 402.246 342.72 402.176 342.929 402.038C343.138 401.9 343.297 401.7 343.405 401.44C343.514 401.18 343.568 400.869 343.568 400.507C343.568 400.153 343.515 399.841 343.408 399.571C343.302 399.3 343.144 399.088 342.935 398.935C342.727 398.781 342.469 398.705 342.162 398.705C341.842 398.705 341.576 398.786 341.363 398.947C341.152 399.109 340.993 399.327 340.887 399.599C340.782 399.872 340.73 400.175 340.73 400.507C340.73 400.848 340.783 401.15 340.89 401.412C340.999 401.672 341.158 401.876 341.369 402.025C341.582 402.172 341.847 402.246 342.162 402.246Z" fill="#00877A"/>
<path d="M298.936 424.2H302.088V425.544H298.936V428.776H297.432V425.544H294.28V424.2H297.432V420.968H298.936V424.2ZM310.156 415.56H311.772V417.352C313.596 417.608 314.812 418.728 314.988 420.792H313.244C313.036 419.416 312.348 418.744 310.924 418.744C309.724 418.744 308.748 419.24 308.748 420.52C308.748 421.624 309.804 422.056 311.292 422.488C313.212 423.048 315.148 423.496 315.148 425.912C315.148 427.976 313.58 429.016 311.772 429.224V431.032H310.156V429.208C308.124 428.936 306.652 427.72 306.572 425.416H308.316C308.396 427.032 309.5 427.832 311.068 427.832C312.38 427.832 313.42 427.24 313.42 425.944C313.42 424.616 312.3 424.376 310.86 423.944C308.972 423.368 307.068 422.792 307.02 420.584C306.988 418.68 308.428 417.608 310.156 417.352V415.56ZM316.109 426.168V424.728L321.133 417.576H322.701V424.808H323.997V426.168H322.701V429H321.069V426.168H316.109ZM317.709 424.808H321.069V420.04H321.021L317.709 424.808ZM332.289 418.952H327.649L327.169 422.136C327.713 421.64 328.529 421.352 329.441 421.352C331.729 421.352 333.265 422.808 333.265 425.272C333.265 427.448 331.633 429.208 329.217 429.208C327.009 429.208 325.409 427.864 325.217 425.96L326.849 425.944C327.025 426.968 327.953 427.832 329.201 427.832C330.465 427.832 331.633 426.888 331.633 425.272C331.633 423.784 330.833 422.744 329.153 422.744C328.145 422.744 327.473 423.304 327.105 423.944L325.457 423.784L326.337 417.576H332.289V418.952ZM338.43 427.832C340.238 427.832 340.958 425.416 340.958 423.288C340.958 421.16 340.238 418.872 338.43 418.872C336.622 418.872 335.902 421.16 335.902 423.288C335.902 425.416 336.622 427.832 338.43 427.832ZM334.27 423.288C334.27 420.36 335.326 417.496 338.43 417.496C341.534 417.496 342.59 420.36 342.59 423.288C342.59 426.216 341.534 429.208 338.43 429.208C335.326 429.208 334.27 426.232 334.27 423.288ZM343.924 427.016H345.796V429H343.924V427.016ZM348.858 428.416C349.762 428.416 350.122 427.208 350.122 426.144C350.122 425.08 349.762 423.936 348.858 423.936C347.954 423.936 347.594 425.08 347.594 426.144C347.594 427.208 347.954 428.416 348.858 428.416ZM346.778 426.144C346.778 424.68 347.306 423.248 348.858 423.248C350.41 423.248 350.938 424.68 350.938 426.144C350.938 427.608 350.41 429.104 348.858 429.104C347.306 429.104 346.778 427.616 346.778 426.144ZM353.565 428.416C354.469 428.416 354.829 427.208 354.829 426.144C354.829 425.08 354.469 423.936 353.565 423.936C352.661 423.936 352.301 425.08 352.301 426.144C352.301 427.208 352.661 428.416 353.565 428.416ZM351.485 426.144C351.485 424.68 352.013 423.248 353.565 423.248C355.117 423.248 355.645 424.68 355.645 426.144C355.645 427.608 355.117 429.104 353.565 429.104C352.013 429.104 351.485 427.616 351.485 426.144Z" fill="#22203C"/>
<path d="M109.208 419.758V418.718H116.137V419.758H113.29V428H112.055V419.758H109.208ZM118.68 428.156C116.639 428.156 115.313 426.622 115.313 424.646C115.313 422.67 116.639 421.123 118.68 421.123C120.721 421.123 122.047 422.67 122.047 424.646C122.047 426.622 120.721 428.156 118.68 428.156ZM116.483 424.646C116.483 426.024 117.367 427.168 118.68 427.168C119.993 427.168 120.877 426.024 120.877 424.646C120.877 423.255 119.993 422.111 118.68 422.111C117.367 422.111 116.483 423.255 116.483 424.646ZM125.688 421.123C126.91 421.123 127.755 421.942 128.002 422.644H128.015V418.718H129.185V428H128.015V426.661H128.002C127.755 427.35 126.91 428.156 125.688 428.156C123.79 428.156 122.62 426.7 122.62 424.62C122.62 422.54 123.79 421.123 125.688 421.123ZM123.79 424.62C123.79 426.076 124.505 427.155 125.922 427.155C127.378 427.155 128.054 425.946 128.054 424.62C128.054 423.307 127.378 422.111 125.922 422.111C124.544 422.111 123.79 423.164 123.79 424.62ZM130.57 423.307C130.713 422.332 131.532 421.11 133.287 421.11C135.757 421.11 135.991 422.709 135.991 423.749V426.635C135.991 427.142 136.043 427.675 136.095 428H134.847C134.821 427.675 134.821 427.402 134.821 427.025V426.765H134.808C134.652 427.285 134.093 428.156 132.598 428.156C130.986 428.156 130.245 427.129 130.245 426.167C130.245 424.269 132.637 424.204 133.651 424.022C134.535 423.866 134.821 423.619 134.821 423.06C134.821 422.501 134.288 422.098 133.326 422.098C132.507 422.098 131.896 422.579 131.74 423.307H130.57ZM131.402 426.167C131.402 426.804 131.987 427.207 132.806 427.207C133.833 427.207 134.847 426.544 134.847 424.88L134.834 423.944C134.704 424.386 134.418 424.776 132.962 425.036C131.987 425.205 131.402 425.491 131.402 426.167ZM137.686 421.279L139.818 426.843H139.831L141.742 421.279H142.99L139.948 429.3C139.649 430.106 139.155 430.6 138.245 430.6H137.335V429.612H138.076C138.726 429.612 138.83 429.248 139.025 428.767L139.259 428.182C138.323 425.881 137.374 423.58 136.438 421.279H137.686ZM142.915 426.44H144.215L143.279 429.573H142.239L142.915 426.44ZM147.989 423.307C148.132 422.332 148.951 421.11 150.706 421.11C153.176 421.11 153.41 422.709 153.41 423.749V426.635C153.41 427.142 153.462 427.675 153.514 428H152.266C152.24 427.675 152.24 427.402 152.24 427.025V426.765H152.227C152.071 427.285 151.512 428.156 150.017 428.156C148.405 428.156 147.664 427.129 147.664 426.167C147.664 424.269 150.056 424.204 151.07 424.022C151.954 423.866 152.24 423.619 152.24 423.06C152.24 422.501 151.707 422.098 150.745 422.098C149.926 422.098 149.315 422.579 149.159 423.307H147.989ZM148.821 426.167C148.821 426.804 149.406 427.207 150.225 427.207C151.252 427.207 152.266 426.544 152.266 424.88L152.253 423.944C152.123 424.386 151.837 424.776 150.381 425.036C149.406 425.205 148.821 425.491 148.821 426.167ZM156.205 426.115C156.205 426.713 156.543 427.038 157.063 427.038H157.531V428H156.946C155.646 428 155.061 427.233 155.061 426.193V422.241H154.06V421.279H155.061V419.706L156.205 419.186V421.279H157.492V422.241H156.205V426.115ZM160.876 421.799C160.876 419.979 162.332 418.64 164.165 418.64C165.14 418.64 166.037 419.004 166.622 419.654C167.298 420.408 167.467 421.617 167.467 423.242C167.467 425.907 166.531 428.156 164.243 428.156C162.501 428.156 161.37 427.142 161.123 425.855H162.293C162.475 426.479 162.969 427.168 164.165 427.168C165.595 427.168 166.141 425.92 166.271 424.022C165.868 424.529 165.062 424.997 164.035 424.997C162.215 424.997 160.876 423.632 160.876 421.799ZM162.046 421.799C162.046 422.982 162.943 423.983 164.165 423.983C165.4 423.983 166.284 422.917 166.284 421.799C166.284 420.564 165.348 419.628 164.165 419.628C162.982 419.628 162.046 420.616 162.046 421.799ZM168.695 421.929H170.125V423.489H168.695V421.929ZM168.695 428V426.44H170.125V428H168.695ZM171.145 425.66V424.698L175.279 418.718H176.345V424.672H177.372V425.66H176.345V428H175.175V425.66H171.145ZM172.354 424.672H175.175V420.629H175.136L172.354 424.672ZM184.034 419.706H180.251L179.835 422.462C180.277 422.033 180.992 421.799 181.746 421.799C183.605 421.799 184.84 422.969 184.84 424.984C184.84 426.713 183.566 428.156 181.59 428.156C179.978 428.156 178.535 427.155 178.418 425.517H179.588C179.718 426.427 180.537 427.168 181.59 427.168C182.656 427.168 183.67 426.414 183.67 424.984C183.67 423.697 183.02 422.813 181.538 422.813C180.706 422.813 180.121 423.294 179.822 423.84L178.613 423.697L179.328 418.718H184.034V419.706ZM189.254 428H187.98L191.438 418.718H192.985L196.443 428H195.169L194.155 425.283H190.281L189.254 428ZM190.645 424.269H193.791L192.231 419.823H192.192L190.645 424.269ZM197.399 428V418.718L199.479 418.731L202.079 426.557H202.092L204.666 418.718H206.746V428H205.511V420.018H205.485L202.794 428H201.364L198.66 420.018H198.634V428H197.399Z" fill="#22203C"/>
<path d="M110.208 355.758V354.718H117.137V355.758H114.29V364H113.055V355.758H110.208ZM119.68 364.156C117.639 364.156 116.313 362.622 116.313 360.646C116.313 358.67 117.639 357.123 119.68 357.123C121.721 357.123 123.047 358.67 123.047 360.646C123.047 362.622 121.721 364.156 119.68 364.156ZM117.483 360.646C117.483 362.024 118.367 363.168 119.68 363.168C120.993 363.168 121.877 362.024 121.877 360.646C121.877 359.255 120.993 358.111 119.68 358.111C118.367 358.111 117.483 359.255 117.483 360.646ZM126.688 357.123C127.91 357.123 128.755 357.942 129.002 358.644H129.015V354.718H130.185V364H129.015V362.661H129.002C128.755 363.35 127.91 364.156 126.688 364.156C124.79 364.156 123.62 362.7 123.62 360.62C123.62 358.54 124.79 357.123 126.688 357.123ZM124.79 360.62C124.79 362.076 125.505 363.155 126.922 363.155C128.378 363.155 129.054 361.946 129.054 360.62C129.054 359.307 128.378 358.111 126.922 358.111C125.544 358.111 124.79 359.164 124.79 360.62ZM131.57 359.307C131.713 358.332 132.532 357.11 134.287 357.11C136.757 357.11 136.991 358.709 136.991 359.749V362.635C136.991 363.142 137.043 363.675 137.095 364H135.847C135.821 363.675 135.821 363.402 135.821 363.025V362.765H135.808C135.652 363.285 135.093 364.156 133.598 364.156C131.986 364.156 131.245 363.129 131.245 362.167C131.245 360.269 133.637 360.204 134.651 360.022C135.535 359.866 135.821 359.619 135.821 359.06C135.821 358.501 135.288 358.098 134.326 358.098C133.507 358.098 132.896 358.579 132.74 359.307H131.57ZM132.402 362.167C132.402 362.804 132.987 363.207 133.806 363.207C134.833 363.207 135.847 362.544 135.847 360.88L135.834 359.944C135.704 360.386 135.418 360.776 133.962 361.036C132.987 361.205 132.402 361.491 132.402 362.167ZM138.686 357.279L140.818 362.843H140.831L142.742 357.279H143.99L140.948 365.3C140.649 366.106 140.155 366.6 139.245 366.6H138.335V365.612H139.076C139.726 365.612 139.83 365.248 140.025 364.767L140.259 364.182C139.323 361.881 138.374 359.58 137.438 357.279H138.686ZM143.915 362.44H145.215L144.279 365.573H143.239L143.915 362.44ZM148.989 359.307C149.132 358.332 149.951 357.11 151.706 357.11C154.176 357.11 154.41 358.709 154.41 359.749V362.635C154.41 363.142 154.462 363.675 154.514 364H153.266C153.24 363.675 153.24 363.402 153.24 363.025V362.765H153.227C153.071 363.285 152.512 364.156 151.017 364.156C149.405 364.156 148.664 363.129 148.664 362.167C148.664 360.269 151.056 360.204 152.07 360.022C152.954 359.866 153.24 359.619 153.24 359.06C153.24 358.501 152.707 358.098 151.745 358.098C150.926 358.098 150.315 358.579 150.159 359.307H148.989ZM149.821 362.167C149.821 362.804 150.406 363.207 151.225 363.207C152.252 363.207 153.266 362.544 153.266 360.88L153.253 359.944C153.123 360.386 152.837 360.776 151.381 361.036C150.406 361.205 149.821 361.491 149.821 362.167ZM157.205 362.115C157.205 362.713 157.543 363.038 158.063 363.038H158.531V364H157.946C156.646 364 156.061 363.233 156.061 362.193V358.241H155.06V357.279H156.061V355.706L157.205 355.186V357.279H158.492V358.241H157.205V362.115ZM165.594 364H164.424V357.123H162.214V356.239C163.475 356.239 164.359 356.044 164.632 354.718H165.594V364ZM170.92 364H169.75V357.123H167.54V356.239C168.801 356.239 169.685 356.044 169.958 354.718H170.92V364ZM172.736 357.929H174.166V359.489H172.736V357.929ZM172.736 364V362.44H174.166V364H172.736ZM180.984 355.706H177.201L176.785 358.462C177.227 358.033 177.942 357.799 178.696 357.799C180.555 357.799 181.79 358.969 181.79 360.984C181.79 362.713 180.516 364.156 178.54 364.156C176.928 364.156 175.485 363.155 175.368 361.517H176.538C176.668 362.427 177.487 363.168 178.54 363.168C179.606 363.168 180.62 362.414 180.62 360.984C180.62 359.697 179.97 358.813 178.488 358.813C177.656 358.813 177.071 359.294 176.772 359.84L175.563 359.697L176.278 354.718H180.984V355.706ZM182.525 357.669C182.525 355.693 183.669 354.666 185.619 354.666C187.348 354.666 188.505 355.68 188.505 357.357C188.505 358.982 187.725 359.541 186.672 360.36C185.58 361.218 184.306 361.894 183.942 363.012H188.596V364H182.395C182.525 361.972 183.877 360.906 185.138 360.061C186.594 359.086 187.335 358.527 187.335 357.409C187.335 356.46 186.711 355.654 185.554 355.654C184.267 355.654 183.708 356.59 183.695 357.669H182.525ZM193.168 364H191.894L195.352 354.718H196.899L200.357 364H199.083L198.069 361.283H194.195L193.168 364ZM194.559 360.269H197.705L196.145 355.823H196.106L194.559 360.269ZM201.313 364V354.718L203.393 354.731L205.993 362.557H206.006L208.58 354.718H210.66V364H209.425V356.018H209.399L206.708 364H205.278L202.574 356.018H202.548V364H201.313Z" fill="#22203C"/>
<path d="M160 175H175" stroke="white" stroke-width="1.5" stroke-linecap="round"/>
</g>
<g clip-path="url(#clip1_710_2273)">
<mask id="path-37-inside-1_710_2273" fill="white">
<path d="M0 62C0 27.7583 27.7583 0 62 0H336C370.242 0 398 27.7583 398 62V503H0V62Z"/>
</mask>
<path d="M0 62C0 27.7583 27.7583 0 62 0H336C370.242 0 398 27.7583 398 62V503H0V62Z" fill="url(#paint0_linear_710_2273)"/>
<mask id="path-39-inside-2_710_2273" fill="white">
<path d="M0 62C0 27.7583 27.7583 0 62 0H336C370.242 0 398 27.7583 398 62V510H0V62Z"/>
</mask>
<path d="M-2 62C-2 26.6538 26.6538 -2 62 -2H336C371.346 -2 400 26.6538 400 62H396C396 28.8629 369.137 2 336 2H62C28.8629 2 2 28.8629 2 62H-2ZM398 510H0H398ZM-2 510V62C-2 26.6538 26.6538 -2 62 -2V2C28.8629 2 2 28.8629 2 62V510H-2ZM336 -2C371.346 -2 400 26.6538 400 62V510H396V62C396 28.8629 369.137 2 336 2V-2Z" fill="url(#paint1_linear_710_2273)" mask="url(#path-39-inside-2_710_2273)"/>
</g>
<path d="M-2 62C-2 26.6538 26.6538 -2 62 -2H336C371.346 -2 400 26.6538 400 62H396C396 28.8629 369.137 2 336 2H62C28.8629 2 2 28.8629 2 62H-2ZM398 503H0H398ZM-2 503V62C-2 26.6538 26.6538 -2 62 -2V2C28.8629 2 2 28.8629 2 62V503H-2ZM336 -2C371.346 -2 400 26.6538 400 62V503H396V62C396 28.8629 369.137 2 336 2V-2Z" fill="url(#paint2_linear_710_2273)" mask="url(#path-37-inside-1_710_2273)"/>
<defs>
<linearGradient id="paint0_linear_710_2273" x1="199" y1="333.5" x2="198.909" y2="446.5" gradientUnits="userSpaceOnUse">
<stop stop-color="white" stop-opacity="0"/>
<stop offset="1" stop-color="white"/>
</linearGradient>
<linearGradient id="paint1_linear_710_2273" x1="0" y1="255" x2="398" y2="255" gradientUnits="userSpaceOnUse">
<stop stop-color="#FF8159"/>
<stop offset="1" stop-color="#2BDCBC"/>
</linearGradient>
<linearGradient id="paint2_linear_710_2273" x1="199" y1="0" x2="199" y2="503" gradientUnits="userSpaceOnUse">
<stop stop-color="white" stop-opacity="0"/>
<stop offset="1" stop-color="white"/>
</linearGradient>
<clipPath id="clip0_710_2273">
<path d="M16 98.2C16 69.0773 16 54.5159 21.6677 43.3925C26.6531 33.6081 34.6081 25.6531 44.3925 20.6677C55.5159 15 70.0773 15 99.2 15H298.8C327.923 15 342.484 15 353.608 20.6677C363.392 25.6531 371.347 33.6081 376.332 43.3925C382 54.5159 382 69.0773 382 98.2V458H16V98.2Z" fill="white"/>
</clipPath>
<clipPath id="clip1_710_2273">
<path d="M0 62C0 27.7583 27.7583 0 62 0H336C370.242 0 398 27.7583 398 62V503H0V62Z" fill="white"/>
</clipPath>
</defs>
</svg>
