<svg width="397" height="89" viewBox="0 0 397 89" fill="none" xmlns="http://www.w3.org/2000/svg">
<rect x="97" y="14" width="192" height="64" rx="4" fill="white"/>
<rect x="93.5" y="10.5" width="199" height="71" rx="4.5" stroke="url(#paint0_linear_707_1755)"/>
<path d="M127.912 32V23.432H131.032C132.484 23.432 133.552 24.284 133.552 25.724C133.552 26.624 133.048 27.236 132.196 27.62V27.632C133.18 27.8 133.912 28.46 133.912 29.576C133.912 31.172 132.784 32 130.96 32H127.912ZM129.052 31.04H131.152C132.1 31.04 132.772 30.5 132.772 29.576C132.772 28.664 132.1 28.136 131.152 28.136H129.052V31.04ZM129.052 27.176H130.816C131.812 27.176 132.412 26.684 132.412 25.724C132.412 24.764 131.812 24.392 130.816 24.392H129.052V27.176ZM135.028 27.668C135.16 26.768 135.916 25.64 137.536 25.64C139.816 25.64 140.032 27.116 140.032 28.076V30.74C140.032 31.208 140.08 31.7 140.128 32H138.976C138.952 31.7 138.952 31.448 138.952 31.1V30.86H138.94C138.796 31.34 138.28 32.144 136.9 32.144C135.412 32.144 134.728 31.196 134.728 30.308C134.728 28.556 136.936 28.496 137.872 28.328C138.688 28.184 138.952 27.956 138.952 27.44C138.952 26.924 138.46 26.552 137.572 26.552C136.816 26.552 136.252 26.996 136.108 27.668H135.028ZM135.796 30.308C135.796 30.896 136.336 31.268 137.092 31.268C138.04 31.268 138.976 30.656 138.976 29.12L138.964 28.256C138.844 28.664 138.58 29.024 137.236 29.264C136.336 29.42 135.796 29.684 135.796 30.308ZM141.304 23.432H142.384V32H141.304V23.432ZM143.665 27.668C143.797 26.768 144.553 25.64 146.173 25.64C148.453 25.64 148.669 27.116 148.669 28.076V30.74C148.669 31.208 148.717 31.7 148.765 32H147.613C147.589 31.7 147.589 31.448 147.589 31.1V30.86H147.577C147.433 31.34 146.917 32.144 145.537 32.144C144.049 32.144 143.365 31.196 143.365 30.308C143.365 28.556 145.573 28.496 146.509 28.328C147.325 28.184 147.589 27.956 147.589 27.44C147.589 26.924 147.097 26.552 146.209 26.552C145.453 26.552 144.889 26.996 144.745 27.668H143.665ZM144.433 30.308C144.433 30.896 144.973 31.268 145.729 31.268C146.677 31.268 147.613 30.656 147.613 29.12L147.601 28.256C147.481 28.664 147.217 29.024 145.873 29.264C144.973 29.42 144.433 29.684 144.433 30.308ZM149.941 32V25.796H151.021V26.96C151.345 26.252 151.921 25.652 152.881 25.652C154.513 25.652 155.125 26.72 155.125 27.98V32H154.045V28.088C154.045 26.996 153.577 26.564 152.737 26.564C151.825 26.564 151.021 27.332 151.021 28.952V32H149.941ZM161.913 30.104C161.565 31.4 160.665 32.144 159.165 32.144C157.233 32.144 155.985 30.776 155.985 28.904C155.985 27.032 157.233 25.652 159.165 25.652C160.749 25.652 161.601 26.528 161.865 27.656H160.785C160.557 27.092 160.137 26.54 159.129 26.54C157.869 26.54 157.065 27.572 157.065 28.904C157.065 30.224 157.869 31.244 159.129 31.244C160.029 31.244 160.545 30.836 160.821 30.104H161.913ZM168.338 30.152C167.99 31.472 166.946 32.144 165.566 32.144C163.73 32.144 162.518 30.812 162.518 28.868C162.518 26.996 163.79 25.652 165.542 25.652C167.726 25.652 168.41 27.404 168.434 29V29.192H163.562C163.646 30.488 164.438 31.244 165.542 31.244C166.37 31.244 167.066 30.92 167.282 30.152H168.338ZM163.574 28.328H167.342C167.246 27.248 166.646 26.54 165.542 26.54C164.426 26.54 163.718 27.26 163.574 28.328Z" fill="#7F8082"/>
<path d="M152.079 39.3405H154.839V42.6405C158.319 43.0905 160.539 45.2205 160.839 49.0005H157.959C157.569 46.3005 156.219 44.9505 153.399 44.9505C151.029 44.9505 149.049 45.9405 149.049 48.5505C149.049 50.7405 151.149 51.5805 153.969 52.3905C157.539 53.4105 161.199 54.1905 161.199 58.7205C161.199 62.6505 158.229 64.5705 154.839 64.9305V68.2605H152.079V64.9005C148.209 64.4205 145.449 62.1705 145.389 57.8505H148.239C148.359 61.0605 150.549 62.5905 153.669 62.5905C156.189 62.5905 158.349 61.4205 158.349 58.8105C158.349 56.1705 156.129 55.7205 153.429 54.9105C149.889 53.8605 146.289 52.8105 146.199 48.7605C146.109 45.1005 148.779 43.0605 152.079 42.6405V39.3405ZM171.592 64.4805H168.892V48.6105H163.792V46.5705C166.702 46.5705 168.742 46.1205 169.372 43.0605H171.592V64.4805ZM182.922 62.5605C186.432 62.5605 187.842 57.7905 187.842 53.7705C187.842 49.7805 186.432 45.2205 182.922 45.2205C179.412 45.2205 178.002 49.7805 178.002 53.7705C178.002 57.7905 179.412 62.5605 182.922 62.5605ZM175.302 53.7705C175.302 48.3105 177.282 42.9405 182.922 42.9405C188.562 42.9405 190.542 48.3105 190.542 53.7705C190.542 59.2305 188.562 64.8405 182.922 64.8405C177.282 64.8405 175.302 59.2605 175.302 53.7705ZM193.533 60.8805H196.533L194.373 68.1105H191.973L193.533 60.8805ZM206.595 42.8805C210.465 42.8805 213.345 44.9505 213.345 48.2205C213.345 50.6805 211.905 52.5705 210.045 53.1405C212.025 53.7105 214.125 55.6905 214.125 58.6605C214.125 62.5605 210.855 64.8405 206.625 64.8405C202.245 64.8405 198.945 62.5605 198.975 58.6605C199.005 55.6905 201.225 53.6805 203.175 53.1105C201.075 52.4205 199.845 50.7105 199.845 48.2205C199.845 44.9505 202.725 42.8805 206.595 42.8805ZM201.675 58.4505C201.675 60.7605 203.415 62.5905 206.595 62.5905C209.745 62.5905 211.425 60.7605 211.425 58.4205C211.425 56.1705 209.745 54.3405 206.595 54.3405C203.415 54.3405 201.675 56.1705 201.675 58.4505ZM202.575 48.7005C202.575 50.5605 204.105 52.2405 206.595 52.2405C209.085 52.2405 210.615 50.5905 210.615 48.7005C210.615 46.8105 209.085 45.1605 206.595 45.1605C204.075 45.1605 202.575 46.8105 202.575 48.7005ZM223.778 62.5605C227.288 62.5605 228.698 57.7905 228.698 53.7705C228.698 49.7805 227.288 45.2205 223.778 45.2205C220.268 45.2205 218.858 49.7805 218.858 53.7705C218.858 57.7905 220.268 62.5605 223.778 62.5605ZM216.158 53.7705C216.158 48.3105 218.138 42.9405 223.778 42.9405C229.418 42.9405 231.398 48.3105 231.398 53.7705C231.398 59.2305 229.418 64.8405 223.778 64.8405C218.138 64.8405 216.158 59.2605 216.158 53.7705ZM241.049 62.5605C244.559 62.5605 245.969 57.7905 245.969 53.7705C245.969 49.7805 244.559 45.2205 241.049 45.2205C237.539 45.2205 236.129 49.7805 236.129 53.7705C236.129 57.7905 237.539 62.5605 241.049 62.5605ZM233.429 53.7705C233.429 48.3105 235.409 42.9405 241.049 42.9405C246.689 42.9405 248.669 48.3105 248.669 53.7705C248.669 59.2305 246.689 64.8405 241.049 64.8405C235.409 64.8405 233.429 59.2605 233.429 53.7705Z" fill="#7F8082"/>
<path d="M93.0742 47.3001L53.0535 47.2999C48.8203 47.2998 44.7842 49.0885 41.9408 52.2246L9.06933 88.4805" stroke="url(#paint1_linear_707_1755)"/>
<path d="M293 46.3936L333.955 46.035C337.634 46.0028 341.173 44.6198 343.898 42.1489L388.209 1.98047" stroke="url(#paint2_linear_707_1755)"/>
<defs>
<linearGradient id="paint0_linear_707_1755" x1="193" y1="10" x2="193" y2="82" gradientUnits="userSpaceOnUse">
<stop stop-color="#FFBEA9"/>
<stop offset="1" stop-color="#F44336"/>
</linearGradient>
<linearGradient id="paint1_linear_707_1755" x1="5.20515" y1="78.4552" x2="88.3093" y2="38.4422" gradientUnits="userSpaceOnUse">
<stop stop-color="#F44336" stop-opacity="0"/>
<stop offset="1" stop-color="#FA7F6E"/>
</linearGradient>
<linearGradient id="paint2_linear_707_1755" x1="380.593" y1="14.4715" x2="297.843" y2="55.211" gradientUnits="userSpaceOnUse">
<stop stop-color="#F44336" stop-opacity="0"/>
<stop offset="1" stop-color="#FA7F6E"/>
</linearGradient>
</defs>
</svg>
