<svg width="419" height="401" viewBox="0 0 419 401" fill="none" xmlns="http://www.w3.org/2000/svg">
<rect x="53" y="65" width="261" height="122" rx="5" fill="#465364"/>
<path d="M53 95L314 95" stroke="white" stroke-width="0.5"/>
<path d="M102 65V95" stroke="white" stroke-width="0.5"/>
<path d="M122.036 87V77.004H125.606C127.51 77.004 128.84 77.914 128.84 79.65C128.84 80.756 128.28 81.47 127.202 81.89V81.904C128.308 82.114 129.232 82.8 129.232 84.158C129.232 86.16 127.776 87 125.536 87H122.036ZM123.73 85.6H125.536C126.726 85.6 127.538 85.166 127.538 84.088C127.538 83.066 126.782 82.618 125.676 82.618H123.73V85.6ZM123.73 81.246H125.312C126.502 81.246 127.174 80.812 127.174 79.762C127.174 78.712 126.502 78.404 125.382 78.404H123.73V81.246ZM130.378 84.284V79.762H131.988V83.948C131.988 85.068 132.352 85.796 133.374 85.796C134.368 85.796 135.124 84.928 135.124 83.122V79.762H136.748V87H135.152V85.726C134.76 86.552 134.102 87.196 132.982 87.196C131.092 87.196 130.378 85.95 130.378 84.284ZM142.099 81.932C142.015 81.12 141.371 80.798 140.713 80.798C140.069 80.798 139.523 81.162 139.523 81.666C139.523 82.17 139.957 82.464 140.699 82.646C141.021 82.73 141.343 82.8 141.665 82.898C142.841 83.206 143.765 83.78 143.765 84.928C143.765 86.37 142.337 87.196 140.797 87.196C139.341 87.196 137.899 86.524 137.745 84.788H139.341C139.481 85.586 139.971 85.95 140.811 85.95C141.497 85.95 142.169 85.684 142.169 85.012C142.169 84.424 141.609 84.228 141.007 84.074C140.657 83.99 140.307 83.906 139.971 83.808C138.809 83.5 137.955 82.842 137.955 81.722C137.955 80.406 139.257 79.566 140.741 79.566C142.295 79.566 143.485 80.364 143.653 81.932H142.099ZM146.484 78.6H144.79V77.004H146.484V78.6ZM144.776 87V79.762H146.4V87H144.776ZM147.941 87V79.762H149.537V81.036C149.915 80.21 150.587 79.566 151.707 79.566C153.583 79.566 154.311 80.812 154.311 82.478V87H152.701V82.814C152.701 81.694 152.323 80.966 151.315 80.966C150.307 80.966 149.565 81.834 149.565 83.64V87H147.941ZM162.294 84.858C161.874 86.328 160.628 87.196 158.906 87.196C156.736 87.196 155.266 85.642 155.266 83.36C155.266 81.162 156.806 79.566 158.906 79.566C161.384 79.566 162.392 81.47 162.406 83.528C162.406 83.598 162.406 83.71 162.392 83.836H156.82C156.946 85.11 157.758 85.894 158.906 85.894C159.732 85.894 160.432 85.572 160.684 84.858H162.294ZM156.834 82.688H160.81C160.712 81.652 160.11 80.826 158.906 80.826C157.758 80.826 156.988 81.568 156.834 82.688ZM167.379 81.932C167.295 81.12 166.651 80.798 165.993 80.798C165.349 80.798 164.803 81.162 164.803 81.666C164.803 82.17 165.237 82.464 165.979 82.646C166.301 82.73 166.623 82.8 166.945 82.898C168.121 83.206 169.045 83.78 169.045 84.928C169.045 86.37 167.617 87.196 166.077 87.196C164.621 87.196 163.179 86.524 163.025 84.788H164.621C164.761 85.586 165.251 85.95 166.091 85.95C166.777 85.95 167.449 85.684 167.449 85.012C167.449 84.424 166.889 84.228 166.287 84.074C165.937 83.99 165.587 83.906 165.251 83.808C164.089 83.5 163.235 82.842 163.235 81.722C163.235 80.406 164.537 79.566 166.021 79.566C167.575 79.566 168.765 80.364 168.933 81.932H167.379ZM173.962 81.932C173.878 81.12 173.234 80.798 172.576 80.798C171.932 80.798 171.386 81.162 171.386 81.666C171.386 82.17 171.82 82.464 172.562 82.646C172.884 82.73 173.206 82.8 173.528 82.898C174.704 83.206 175.628 83.78 175.628 84.928C175.628 86.37 174.2 87.196 172.66 87.196C171.204 87.196 169.762 86.524 169.608 84.788H171.204C171.344 85.586 171.834 85.95 172.674 85.95C173.36 85.95 174.032 85.684 174.032 85.012C174.032 84.424 173.472 84.228 172.87 84.074C172.52 83.99 172.17 83.906 171.834 83.808C170.672 83.5 169.818 82.842 169.818 81.722C169.818 80.406 171.12 79.566 172.604 79.566C174.158 79.566 175.348 80.364 175.516 81.932H173.962ZM179.686 87V77.004H183.256C185.16 77.004 186.49 77.914 186.49 79.65C186.49 80.756 185.93 81.47 184.852 81.89V81.904C185.958 82.114 186.882 82.8 186.882 84.158C186.882 86.16 185.426 87 183.186 87H179.686ZM181.38 85.6H183.186C184.376 85.6 185.188 85.166 185.188 84.088C185.188 83.066 184.432 82.618 183.326 82.618H181.38V85.6ZM181.38 81.246H182.962C184.152 81.246 184.824 80.812 184.824 79.762C184.824 78.712 184.152 78.404 183.032 78.404H181.38V81.246ZM188.083 81.974C188.265 80.826 189.231 79.552 191.121 79.552C193.515 79.552 194.173 80.994 194.173 82.548V85.334C194.173 85.88 194.201 86.58 194.285 87H192.633C192.605 86.72 192.591 86.44 192.591 86.146V85.81H192.577C192.339 86.398 191.723 87.182 190.281 87.182C188.643 87.182 187.733 86.174 187.733 85.026C187.733 83.024 190.183 82.856 191.233 82.688C192.157 82.548 192.577 82.366 192.577 81.75C192.577 81.176 192.031 80.812 191.149 80.812C190.365 80.812 189.791 81.26 189.623 81.974H188.083ZM189.343 84.97C189.343 85.544 189.833 85.964 190.687 85.964C191.653 85.964 192.605 85.362 192.605 83.64V82.884C192.451 83.29 192.073 83.64 190.841 83.878C189.847 84.06 189.343 84.368 189.343 84.97ZM195.556 87V79.762H197.152V81.036C197.53 80.21 198.202 79.566 199.322 79.566C201.198 79.566 201.926 80.812 201.926 82.478V87H200.316V82.814C200.316 81.694 199.938 80.966 198.93 80.966C197.922 80.966 197.18 81.834 197.18 83.64V87H195.556ZM204.952 87H203.328V77.004H204.952V82.758L207.808 79.762H209.754L206.73 82.856L209.838 87H207.892L205.638 83.948L204.952 84.606V87ZM214.524 87H212.76L216.428 77.004H218.542L222.196 87H220.418L219.452 84.284H215.49L214.524 87ZM215.966 82.926H218.976L217.492 78.544H217.45L215.966 82.926ZM229.497 84.648C229.147 86.286 227.901 87.196 226.165 87.196C223.981 87.196 222.357 85.684 222.357 83.388C222.357 81.064 223.981 79.566 226.165 79.566C227.957 79.566 229.161 80.574 229.441 82.058H227.901C227.635 81.358 227.089 80.854 226.137 80.854C224.807 80.854 223.953 81.974 223.953 83.388C223.953 84.802 224.807 85.894 226.137 85.894C227.019 85.894 227.677 85.488 227.943 84.648H229.497ZM237.269 84.648C236.919 86.286 235.673 87.196 233.937 87.196C231.753 87.196 230.129 85.684 230.129 83.388C230.129 81.064 231.753 79.566 233.937 79.566C235.729 79.566 236.933 80.574 237.213 82.058H235.673C235.407 81.358 234.861 80.854 233.909 80.854C232.579 80.854 231.725 81.974 231.725 83.388C231.725 84.802 232.579 85.894 233.909 85.894C234.791 85.894 235.449 85.488 235.715 84.648H237.269ZM241.64 87.196C239.498 87.196 237.902 85.656 237.902 83.388C237.902 81.12 239.498 79.566 241.64 79.566C243.768 79.566 245.364 81.12 245.364 83.388C245.364 85.656 243.768 87.196 241.64 87.196ZM239.484 83.388C239.484 84.76 240.338 85.88 241.64 85.88C242.928 85.88 243.782 84.76 243.782 83.388C243.782 82.002 242.928 80.882 241.64 80.882C240.338 80.882 239.484 82.002 239.484 83.388ZM246.313 84.284V79.762H247.923V83.948C247.923 85.068 248.287 85.796 249.309 85.796C250.303 85.796 251.059 84.928 251.059 83.122V79.762H252.683V87H251.087V85.726C250.695 86.552 250.037 87.196 248.917 87.196C247.027 87.196 246.313 85.95 246.313 84.284ZM254.128 87V79.762H255.724V81.036C256.102 80.21 256.774 79.566 257.894 79.566C259.77 79.566 260.498 80.812 260.498 82.478V87H258.888V82.814C258.888 81.694 258.51 80.966 257.502 80.966C256.494 80.966 255.752 81.834 255.752 83.64V87H254.128ZM263.847 84.508C263.847 85.292 264.071 85.712 264.771 85.712H265.247V87.014L264.463 87.028C262.797 87.042 262.251 86.048 262.251 84.704V81.022H261.117V79.762H262.251V78.11L263.847 77.396V79.762H265.261V81.022H263.847V84.508Z" fill="white"/>
<rect x="0.5" y="-0.5" width="268" height="129" rx="4.5" transform="matrix(1 0 0 -1 49 190)" stroke="url(#paint0_linear_2173_657)"/>
<rect x="0.5" y="-0.5" width="269" height="129" rx="4.5" transform="matrix(1 0 0 -1 103 341)" stroke="url(#paint1_linear_2173_657)"/>
<path d="M77.76 167V159.86H80.36C81.57 159.86 82.46 160.57 82.46 161.77C82.46 162.52 82.04 163.03 81.33 163.35V163.36C82.15 163.5 82.76 164.05 82.76 164.98C82.76 166.31 81.82 167 80.3 167H77.76ZM78.71 166.2H80.46C81.25 166.2 81.81 165.75 81.81 164.98C81.81 164.22 81.25 163.78 80.46 163.78H78.71V166.2ZM78.71 162.98H80.18C81.01 162.98 81.51 162.57 81.51 161.77C81.51 160.97 81.01 160.66 80.18 160.66H78.71V162.98ZM83.6898 163.39C83.7998 162.64 84.4298 161.7 85.7798 161.7C87.6798 161.7 87.8598 162.93 87.8598 163.73V165.95C87.8598 166.34 87.8998 166.75 87.9398 167H86.9798C86.9598 166.75 86.9598 166.54 86.9598 166.25V166.05H86.9498C86.8298 166.45 86.3998 167.12 85.2498 167.12C84.0098 167.12 83.4398 166.33 83.4398 165.59C83.4398 164.13 85.2798 164.08 86.0598 163.94C86.7398 163.82 86.9598 163.63 86.9598 163.2C86.9598 162.77 86.5498 162.46 85.8098 162.46C85.1798 162.46 84.7098 162.83 84.5898 163.39H83.6898ZM84.3298 165.59C84.3298 166.08 84.7798 166.39 85.4098 166.39C86.1998 166.39 86.9798 165.88 86.9798 164.6L86.9698 163.88C86.8698 164.22 86.6498 164.52 85.5298 164.72C84.7798 164.85 84.3298 165.07 84.3298 165.59ZM88.9197 159.86H89.8197V167H88.9197V159.86ZM90.8874 163.39C90.9974 162.64 91.6274 161.7 92.9774 161.7C94.8774 161.7 95.0574 162.93 95.0574 163.73V165.95C95.0574 166.34 95.0974 166.75 95.1374 167H94.1774C94.1574 166.75 94.1574 166.54 94.1574 166.25V166.05H94.1474C94.0274 166.45 93.5974 167.12 92.4474 167.12C91.2074 167.12 90.6374 166.33 90.6374 165.59C90.6374 164.13 92.4774 164.08 93.2574 163.94C93.9374 163.82 94.1574 163.63 94.1574 163.2C94.1574 162.77 93.7474 162.46 93.0074 162.46C92.3774 162.46 91.9074 162.83 91.7874 163.39H90.8874ZM91.5274 165.59C91.5274 166.08 91.9774 166.39 92.6074 166.39C93.3974 166.39 94.1774 165.88 94.1774 164.6L94.1674 163.88C94.0674 164.22 93.8474 164.52 92.7274 164.72C91.9774 164.85 91.5274 165.07 91.5274 165.59ZM96.1173 167V161.83H97.0173V162.8C97.2873 162.21 97.7673 161.71 98.5673 161.71C99.9273 161.71 100.437 162.6 100.437 163.65V167H99.5373V163.74C99.5373 162.83 99.1473 162.47 98.4473 162.47C97.6873 162.47 97.0173 163.11 97.0173 164.46V167H96.1173ZM106.094 165.42C105.804 166.5 105.054 167.12 103.804 167.12C102.194 167.12 101.154 165.98 101.154 164.42C101.154 162.86 102.194 161.71 103.804 161.71C105.124 161.71 105.834 162.44 106.054 163.38H105.154C104.964 162.91 104.614 162.45 103.774 162.45C102.724 162.45 102.054 163.31 102.054 164.42C102.054 165.52 102.724 166.37 103.774 166.37C104.524 166.37 104.954 166.03 105.184 165.42H106.094ZM111.449 165.46C111.159 166.56 110.289 167.12 109.139 167.12C107.609 167.12 106.599 166.01 106.599 164.39C106.599 162.83 107.659 161.71 109.119 161.71C110.939 161.71 111.509 163.17 111.529 164.5V164.66H107.469C107.539 165.74 108.199 166.37 109.119 166.37C109.809 166.37 110.389 166.1 110.569 165.46H111.449ZM107.479 163.94H110.619C110.539 163.04 110.039 162.45 109.119 162.45C108.189 162.45 107.599 163.05 107.479 163.94Z" fill="white"/>
<path d="M222.63 158.59H223.72V159.73C224.85 159.89 225.63 160.58 225.75 161.91H224.53C224.4 161.09 223.99 160.69 223.15 160.69C222.45 160.69 221.88 160.98 221.88 161.71C221.88 162.36 222.5 162.62 223.42 162.89C224.63 163.25 225.83 163.55 225.83 165.06C225.83 166.34 224.85 167 223.72 167.14V168.29H222.63V167.13C221.38 166.95 220.47 166.17 220.38 164.73H221.61C221.67 165.67 222.32 166.16 223.24 166.16C224.04 166.16 224.62 165.82 224.62 165.07C224.62 164.29 223.96 164.14 223.06 163.86C221.88 163.51 220.69 163.13 220.67 161.72C220.66 160.55 221.56 159.89 222.63 159.73V158.59ZM229.441 167H228.301V161.89H226.561V161.12C227.501 161.12 228.211 160.92 228.481 159.86H229.441V167ZM230.457 165.27V164.21L233.547 159.86H234.687V164.32H235.517V165.27H234.687V167H233.547V165.27H230.457ZM231.517 164.32H233.547V161.47H233.517L231.517 164.32ZM236.1 162.29C236.1 160.85 237.18 159.78 238.71 159.78C239.48 159.78 240.16 160.06 240.62 160.56C241.17 161.16 241.36 162.11 241.36 163.32C241.36 165.35 240.61 167.14 238.72 167.14C237.28 167.14 236.45 166.34 236.28 165.32H237.42C237.55 165.73 237.85 166.19 238.69 166.19C239.71 166.19 240.09 165.26 240.18 164C239.93 164.31 239.36 164.71 238.55 164.71C237.12 164.71 236.1 163.68 236.1 162.29ZM237.24 162.23C237.24 163.08 237.86 163.75 238.71 163.75C239.58 163.75 240.17 163.01 240.17 162.23C240.17 161.37 239.53 160.74 238.71 160.74C237.88 160.74 237.24 161.39 237.24 162.23ZM242.343 165.72H243.603L242.803 168.25H241.783L242.343 165.72ZM248.843 160.81H245.963L245.683 162.67C246.013 162.38 246.493 162.21 247.043 162.21C248.473 162.21 249.433 163.13 249.433 164.66C249.433 166.04 248.383 167.14 246.883 167.14C245.373 167.14 244.473 166.23 244.333 165.1L245.473 165.09C245.583 165.67 246.113 166.17 246.873 166.17C247.633 166.17 248.293 165.59 248.293 164.66C248.293 163.79 247.793 163.17 246.853 163.17C246.223 163.17 245.833 163.5 245.603 163.88L244.473 163.78L245.033 159.85L248.843 159.86V160.81ZM254.561 160.81H251.681L251.401 162.67C251.731 162.38 252.211 162.21 252.761 162.21C254.191 162.21 255.151 163.13 255.151 164.66C255.151 166.04 254.101 167.14 252.601 167.14C251.091 167.14 250.191 166.23 250.051 165.1L251.191 165.09C251.301 165.67 251.831 166.17 252.591 166.17C253.351 166.17 254.011 165.59 254.011 164.66C254.011 163.79 253.511 163.17 252.571 163.17C251.941 163.17 251.551 163.5 251.321 163.88L250.191 163.78L250.751 159.85L254.561 159.86V160.81ZM255.703 162.17C255.703 160.67 256.703 159.8 258.163 159.8C259.523 159.8 260.493 160.63 260.493 161.89C260.493 163.1 259.933 163.61 259.033 164.3C258.233 164.92 257.403 165.32 257.093 166.02H260.573V167H255.603C255.663 165.42 256.543 164.7 257.673 163.95C258.853 163.16 259.353 162.83 259.353 161.95C259.353 161.3 258.923 160.75 258.133 160.75C257.293 160.75 256.843 161.34 256.843 162.17H255.703ZM261.568 165.72H262.818V167H261.568V165.72ZM266.29 166.18C267.37 166.18 267.8 164.76 267.8 163.43C267.8 162.1 267.37 160.76 266.29 160.76C265.21 160.76 264.78 162.1 264.78 163.43C264.78 164.76 265.21 166.18 266.29 166.18ZM263.64 163.43C263.64 161.59 264.3 159.8 266.29 159.8C268.28 159.8 268.94 161.59 268.94 163.43C268.94 165.27 268.28 167.14 266.29 167.14C264.3 167.14 263.64 165.27 263.64 163.43ZM272.291 166.18C273.371 166.18 273.801 164.76 273.801 163.43C273.801 162.1 273.371 160.76 272.291 160.76C271.211 160.76 270.781 162.1 270.781 163.43C270.781 164.76 271.211 166.18 272.291 166.18ZM269.641 163.43C269.641 161.59 270.301 159.8 272.291 159.8C274.281 159.8 274.941 161.59 274.941 163.43C274.941 165.27 274.281 167.14 272.291 167.14C270.301 167.14 269.641 165.27 269.641 163.43Z" fill="white"/>
<path d="M77.76 142V134.86H80.32C81.95 134.86 82.74 135.77 82.74 136.89C82.74 137.91 82.05 138.56 81.25 138.75C81.94 138.93 82.15 139.47 82.42 140.37C82.62 141.03 82.77 141.43 83.04 141.9V142H82.03C81.79 141.51 81.61 140.85 81.4 140.29C81.15 139.62 80.86 139.08 80 139.08H78.71V142H77.76ZM78.71 138.28H80.28C81.29 138.28 81.78 137.73 81.78 136.89C81.78 136.25 81.43 135.66 80.22 135.66H78.71V138.28ZM85.8916 142.12C84.3216 142.12 83.3016 140.94 83.3016 139.42C83.3016 137.9 84.3216 136.71 85.8916 136.71C87.4616 136.71 88.4816 137.9 88.4816 139.42C88.4816 140.94 87.4616 142.12 85.8916 142.12ZM84.2016 139.42C84.2016 140.48 84.8816 141.36 85.8916 141.36C86.9016 141.36 87.5816 140.48 87.5816 139.42C87.5816 138.35 86.9016 137.47 85.8916 137.47C84.8816 137.47 84.2016 138.35 84.2016 139.42ZM89.202 140.18V136.83H90.102V140.09C90.102 141 90.492 141.36 91.192 141.36C91.952 141.36 92.622 140.72 92.622 139.37V136.83H93.522V142H92.622V141.03C92.352 141.62 91.872 142.12 91.072 142.12C89.712 142.12 89.202 141.23 89.202 140.18ZM95.6886 140.55C95.6886 141.01 95.9486 141.26 96.3486 141.26H96.7086V142H96.2586C95.2586 142 94.8086 141.41 94.8086 140.61V137.57H94.0386V136.83H94.8086V135.62L95.6886 135.22V136.83H96.6786V137.57H95.6886V140.55ZM98.4255 135.86H97.4655V134.86H98.4255V135.86ZM97.4455 142V136.83H98.3455V142H97.4455ZM99.5013 142V136.83H100.401V137.8C100.671 137.21 101.151 136.71 101.951 136.71C103.311 136.71 103.821 137.6 103.821 138.65V142H102.921V138.74C102.921 137.83 102.531 137.47 101.831 137.47C101.071 137.47 100.401 138.11 100.401 139.46V142H99.5013ZM108.688 136.83H109.588V141.6C109.588 143.13 108.468 143.98 107.188 143.98C105.908 143.98 104.908 143.34 104.798 142.22H105.698C105.798 142.96 106.368 143.22 107.188 143.22C108.008 143.22 108.688 142.77 108.688 141.6V140.98H108.678C108.458 141.62 107.948 142.12 106.938 142.12C105.458 142.12 104.538 140.95 104.538 139.4C104.538 137.86 105.458 136.71 106.938 136.71C107.948 136.71 108.488 137.28 108.678 137.79H108.688V136.83ZM105.438 139.4C105.438 140.42 105.948 141.35 107.078 141.35C108.348 141.35 108.718 140.22 108.718 139.4C108.718 138.59 108.188 137.47 107.078 137.47C105.978 137.47 105.438 138.39 105.438 139.4ZM112.82 134.86H113.98L116.76 139.37C117.03 139.8 117.29 140.24 117.56 140.67C117.56 140.18 117.54 139.74 117.54 139.25V134.86H118.49V142H117.3L114.53 137.52C114.26 137.1 114.02 136.67 113.75 136.25C113.75 136.75 113.77 137.22 113.77 137.72V142H112.82V134.86ZM121.899 142.12C120.329 142.12 119.309 140.94 119.309 139.42C119.309 137.9 120.329 136.71 121.899 136.71C123.469 136.71 124.489 137.9 124.489 139.42C124.489 140.94 123.469 142.12 121.899 142.12ZM120.209 139.42C120.209 140.48 120.889 141.36 121.899 141.36C122.909 141.36 123.589 140.48 123.589 139.42C123.589 138.35 122.909 137.47 121.899 137.47C120.889 137.47 120.209 138.35 120.209 139.42ZM124.965 140.8H126.065V142H124.965V140.8Z" fill="white"/>
<path d="M229.42 142H228.28V136.89H226.54V136.12C227.48 136.12 228.19 135.92 228.46 134.86H229.42V142ZM230.784 137.17C230.784 135.67 231.784 134.8 233.244 134.8C234.604 134.8 235.574 135.63 235.574 136.89C235.574 138.1 235.014 138.61 234.114 139.3C233.314 139.92 232.484 140.32 232.174 141.02H235.654V142H230.684C230.744 140.42 231.624 139.7 232.754 138.95C233.934 138.16 234.434 137.83 234.434 136.95C234.434 136.3 234.004 135.75 233.214 135.75C232.374 135.75 231.924 136.34 231.924 137.17H230.784ZM239.284 142H238.144V136.89H236.404V136.12C237.344 136.12 238.054 135.92 238.324 134.86H239.284V142ZM243.168 141.18C244.248 141.18 244.678 139.76 244.678 138.43C244.678 137.1 244.248 135.76 243.168 135.76C242.088 135.76 241.658 137.1 241.658 138.43C241.658 139.76 242.088 141.18 243.168 141.18ZM240.518 138.43C240.518 136.59 241.178 134.8 243.168 134.8C245.158 134.8 245.818 136.59 245.818 138.43C245.818 140.27 245.158 142.14 243.168 142.14C241.178 142.14 240.518 140.27 240.518 138.43ZM249.169 141.18C250.249 141.18 250.679 139.76 250.679 138.43C250.679 137.1 250.249 135.76 249.169 135.76C248.089 135.76 247.659 137.1 247.659 138.43C247.659 139.76 248.089 141.18 249.169 141.18ZM246.519 138.43C246.519 136.59 247.179 134.8 249.169 134.8C251.159 134.8 251.819 136.59 251.819 138.43C251.819 140.27 251.159 142.14 249.169 142.14C247.179 142.14 246.519 140.27 246.519 138.43ZM255.17 141.18C256.25 141.18 256.68 139.76 256.68 138.43C256.68 137.1 256.25 135.76 255.17 135.76C254.09 135.76 253.66 137.1 253.66 138.43C253.66 139.76 254.09 141.18 255.17 141.18ZM252.52 138.43C252.52 136.59 253.18 134.8 255.17 134.8C257.16 134.8 257.82 136.59 257.82 138.43C257.82 140.27 257.16 142.14 255.17 142.14C253.18 142.14 252.52 140.27 252.52 138.43ZM258.693 136.8C258.763 135.61 259.583 134.8 260.953 134.8C262.293 134.8 263.143 135.51 263.143 136.65C263.143 137.44 262.793 137.88 262.263 138.19C263.033 138.49 263.453 139.05 263.453 139.97C263.463 141.13 262.573 142.14 261.003 142.14C259.493 142.14 258.563 141.38 258.423 140.05L258.413 139.94H259.583L259.593 140.02C259.663 140.79 260.213 141.18 260.983 141.18C261.813 141.18 262.333 140.65 262.333 139.9C262.333 139.11 261.683 138.74 260.823 138.74C260.713 138.74 260.543 138.74 260.433 138.75V137.76C260.613 137.76 260.753 137.75 260.923 137.74C261.573 137.7 262.003 137.41 262.003 136.76C262.003 136.12 261.593 135.76 260.933 135.76C260.273 135.76 259.923 136.13 259.843 136.65L259.823 136.8H258.693ZM268.642 135.81H265.762L265.482 137.67C265.812 137.38 266.292 137.21 266.842 137.21C268.272 137.21 269.232 138.13 269.232 139.66C269.232 141.04 268.182 142.14 266.682 142.14C265.172 142.14 264.272 141.23 264.132 140.1L265.272 140.09C265.382 140.67 265.912 141.17 266.672 141.17C267.432 141.17 268.092 140.59 268.092 139.66C268.092 138.79 267.592 138.17 266.652 138.17C266.022 138.17 265.632 138.5 265.402 138.88L264.272 138.78L264.832 134.85L268.642 134.86V135.81ZM272.45 134.77C273.85 134.77 274.74 135.55 274.74 136.6C274.74 137.42 274.29 138.01 273.67 138.22C274.32 138.41 275 139.07 275 140.04C275 141.34 273.98 142.14 272.46 142.14C270.88 142.14 269.85 141.34 269.86 140.04C269.87 139.07 270.58 138.39 271.23 138.21C270.56 137.98 270.14 137.43 270.14 136.6C270.14 135.55 271.04 134.77 272.45 134.77ZM270.99 139.97C270.99 140.65 271.48 141.24 272.45 141.24C273.4 141.24 273.88 140.66 273.88 139.97C273.88 139.3 273.4 138.71 272.45 138.71C271.48 138.71 270.99 139.3 270.99 139.97ZM271.26 136.74C271.26 137.31 271.7 137.81 272.45 137.81C273.2 137.81 273.63 137.32 273.63 136.74C273.63 136.17 273.2 135.68 272.45 135.68C271.69 135.68 271.26 136.17 271.26 136.74Z" fill="white"/>
<path d="M78.16 117H77.18L79.84 109.86H81.03L83.69 117H82.71L81.93 114.91H78.95L78.16 117ZM79.23 114.13H81.65L80.45 110.71H80.42L79.23 114.13ZM88.7788 115.42C88.4888 116.5 87.7388 117.12 86.4888 117.12C84.8788 117.12 83.8388 115.98 83.8388 114.42C83.8388 112.86 84.8788 111.71 86.4888 111.71C87.8088 111.71 88.5188 112.44 88.7388 113.38H87.8388C87.6488 112.91 87.2988 112.45 86.4588 112.45C85.4088 112.45 84.7388 113.31 84.7388 114.42C84.7388 115.52 85.4088 116.37 86.4588 116.37C87.2088 116.37 87.6388 116.03 87.8688 115.42H88.7788ZM94.2233 115.42C93.9333 116.5 93.1833 117.12 91.9333 117.12C90.3233 117.12 89.2833 115.98 89.2833 114.42C89.2833 112.86 90.3233 111.71 91.9333 111.71C93.2533 111.71 93.9633 112.44 94.1833 113.38H93.2833C93.0933 112.91 92.7433 112.45 91.9033 112.45C90.8533 112.45 90.1833 113.31 90.1833 114.42C90.1833 115.52 90.8533 116.37 91.9033 116.37C92.6533 116.37 93.0833 116.03 93.3133 115.42H94.2233ZM97.3178 117.12C95.7478 117.12 94.7278 115.94 94.7278 114.42C94.7278 112.9 95.7478 111.71 97.3178 111.71C98.8878 111.71 99.9078 112.9 99.9078 114.42C99.9078 115.94 98.8878 117.12 97.3178 117.12ZM95.6278 114.42C95.6278 115.48 96.3078 116.36 97.3178 116.36C98.3278 116.36 99.0078 115.48 99.0078 114.42C99.0078 113.35 98.3278 112.47 97.3178 112.47C96.3078 112.47 95.6278 113.35 95.6278 114.42ZM100.628 115.18V111.83H101.528V115.09C101.528 116 101.918 116.36 102.618 116.36C103.378 116.36 104.048 115.72 104.048 114.37V111.83H104.948V117H104.048V116.03C103.778 116.62 103.298 117.12 102.498 117.12C101.138 117.12 100.628 116.23 100.628 115.18ZM106.025 117V111.83H106.925V112.8C107.195 112.21 107.675 111.71 108.475 111.71C109.835 111.71 110.345 112.6 110.345 113.65V117H109.445V113.74C109.445 112.83 109.055 112.47 108.355 112.47C107.595 112.47 106.925 113.11 106.925 114.46V117H106.025ZM112.471 115.55C112.471 116.01 112.731 116.26 113.131 116.26H113.491V117H113.041C112.041 117 111.591 116.41 111.591 115.61V112.57H110.821V111.83H111.591V110.62L112.471 110.22V111.83H113.461V112.57H112.471V115.55ZM116.385 109.86H117.545L120.325 114.37C120.595 114.8 120.855 115.24 121.125 115.67C121.125 115.18 121.105 114.74 121.105 114.25V109.86H122.055V117H120.865L118.095 112.52C117.825 112.1 117.585 111.67 117.315 111.25C117.315 111.75 117.335 112.22 117.335 112.72V117H116.385V109.86ZM125.464 117.12C123.894 117.12 122.874 115.94 122.874 114.42C122.874 112.9 123.894 111.71 125.464 111.71C127.034 111.71 128.054 112.9 128.054 114.42C128.054 115.94 127.034 117.12 125.464 117.12ZM123.774 114.42C123.774 115.48 124.454 116.36 125.464 116.36C126.474 116.36 127.154 115.48 127.154 114.42C127.154 113.35 126.474 112.47 125.464 112.47C124.454 112.47 123.774 113.35 123.774 114.42ZM128.53 115.8H129.63V117H128.53V115.8Z" fill="white"/>
<path d="M233.35 110.63L233.57 110.02L234.61 110.39V109.31H235.26V110.4L236.34 110.01L236.57 110.63L235.49 111.01L236.11 111.89L235.58 112.27L234.93 111.34L234.3 112.27L233.76 111.89L234.38 110.99L233.35 110.63ZM237.056 110.63L237.276 110.02L238.316 110.39V109.31H238.966V110.4L240.046 110.01L240.276 110.63L239.196 111.01L239.816 111.89L239.286 112.27L238.636 111.34L238.006 112.27L237.466 111.89L238.086 110.99L237.056 110.63ZM240.762 110.63L240.982 110.02L242.023 110.39V109.31H242.673V110.4L243.753 110.01L243.983 110.63L242.903 111.01L243.523 111.89L242.993 112.27L242.342 111.34L241.713 112.27L241.172 111.89L241.793 110.99L240.762 110.63ZM244.469 110.63L244.689 110.02L245.729 110.39V109.31H246.379V110.4L247.459 110.01L247.689 110.63L246.609 111.01L247.229 111.89L246.699 112.27L246.049 111.34L245.419 112.27L244.879 111.89L245.499 110.99L244.469 110.63ZM248.175 110.63L248.395 110.02L249.435 110.39V109.31H250.085V110.4L251.165 110.01L251.395 110.63L250.315 111.01L250.935 111.89L250.405 112.27L249.755 111.34L249.125 112.27L248.585 111.89L249.205 110.99L248.175 110.63ZM254.631 116.18C255.711 116.18 256.141 114.76 256.141 113.43C256.141 112.1 255.711 110.76 254.631 110.76C253.551 110.76 253.121 112.1 253.121 113.43C253.121 114.76 253.551 116.18 254.631 116.18ZM251.981 113.43C251.981 111.59 252.641 109.8 254.631 109.8C256.621 109.8 257.281 111.59 257.281 113.43C257.281 115.27 256.621 117.14 254.631 117.14C252.641 117.14 251.981 115.27 251.981 113.43ZM260.632 116.18C261.712 116.18 262.142 114.76 262.142 113.43C262.142 112.1 261.712 110.76 260.632 110.76C259.552 110.76 259.122 112.1 259.122 113.43C259.122 114.76 259.552 116.18 260.632 116.18ZM257.982 113.43C257.982 111.59 258.642 109.8 260.632 109.8C262.622 109.8 263.282 111.59 263.282 113.43C263.282 115.27 262.622 117.14 260.632 117.14C258.642 117.14 257.982 115.27 257.982 113.43ZM263.984 112.29C263.984 110.85 265.064 109.78 266.594 109.78C267.364 109.78 268.044 110.06 268.504 110.56C269.054 111.16 269.244 112.11 269.244 113.32C269.244 115.35 268.494 117.14 266.604 117.14C265.164 117.14 264.334 116.34 264.164 115.32H265.304C265.434 115.73 265.734 116.19 266.574 116.19C267.594 116.19 267.974 115.26 268.064 114C267.814 114.31 267.244 114.71 266.434 114.71C265.004 114.71 263.984 113.68 263.984 112.29ZM265.124 112.23C265.124 113.08 265.744 113.75 266.594 113.75C267.464 113.75 268.054 113.01 268.054 112.23C268.054 111.37 267.414 110.74 266.594 110.74C265.764 110.74 265.124 111.39 265.124 112.23ZM270.127 111.8C270.197 110.61 271.017 109.8 272.387 109.8C273.727 109.8 274.577 110.51 274.577 111.65C274.577 112.44 274.227 112.88 273.697 113.19C274.467 113.49 274.887 114.05 274.887 114.97C274.897 116.13 274.007 117.14 272.437 117.14C270.927 117.14 269.997 116.38 269.857 115.05L269.847 114.94H271.017L271.027 115.02C271.097 115.79 271.647 116.18 272.417 116.18C273.247 116.18 273.767 115.65 273.767 114.9C273.767 114.11 273.117 113.74 272.257 113.74C272.147 113.74 271.977 113.74 271.867 113.75V112.76C272.047 112.76 272.187 112.75 272.357 112.74C273.007 112.7 273.437 112.41 273.437 111.76C273.437 111.12 273.027 110.76 272.367 110.76C271.707 110.76 271.357 111.13 271.277 111.65L271.257 111.8H270.127Z" fill="white"/>
<rect x="108" y="216" width="261" height="122" rx="5" fill="#004E46"/>
<path d="M108 246L369 246" stroke="white" stroke-width="0.5"/>
<path d="M157 216V246" stroke="white" stroke-width="0.5"/>
<path d="M182.112 228.004H183.932L186.634 236.138H186.676L189.392 228.004H191.212L187.656 237.986L185.64 238L182.112 228.004ZM193.511 229.6H191.817V228.004H193.511V229.6ZM191.803 238V230.762H193.427V238H191.803ZM196.564 230.762V232.106C196.942 231.098 197.698 230.706 198.734 230.692V232.232C198.65 232.232 198.23 232.232 198.006 232.302C197.292 232.442 196.592 232.82 196.592 234.696V238H194.968V230.762H196.564ZM201.857 235.508C201.857 236.292 202.081 236.712 202.781 236.712H203.257V238.014L202.473 238.028C200.807 238.042 200.261 237.048 200.261 235.704V232.022H199.127V230.762H200.261V229.11L201.857 228.396V230.762H203.271V232.022H201.857V235.508ZM204.237 235.284V230.762H205.847V234.948C205.847 236.068 206.211 236.796 207.233 236.796C208.227 236.796 208.983 235.928 208.983 234.122V230.762H210.607V238H209.011V236.726C208.619 237.552 207.961 238.196 206.841 238.196C204.951 238.196 204.237 236.95 204.237 235.284ZM212.01 232.974C212.192 231.826 213.158 230.552 215.048 230.552C217.442 230.552 218.1 231.994 218.1 233.548V236.334C218.1 236.88 218.128 237.58 218.212 238H216.56C216.532 237.72 216.518 237.44 216.518 237.146V236.81H216.504C216.266 237.398 215.65 238.182 214.208 238.182C212.57 238.182 211.66 237.174 211.66 236.026C211.66 234.024 214.11 233.856 215.16 233.688C216.084 233.548 216.504 233.366 216.504 232.75C216.504 232.176 215.958 231.812 215.076 231.812C214.292 231.812 213.718 232.26 213.55 232.974H212.01ZM213.27 235.97C213.27 236.544 213.76 236.964 214.614 236.964C215.58 236.964 216.532 236.362 216.532 234.64V233.884C216.378 234.29 216 234.64 214.768 234.878C213.774 235.06 213.27 235.368 213.27 235.97ZM219.483 228.004H221.107V238H219.483V228.004ZM226.523 238H224.759L228.427 228.004H230.541L234.195 238H232.417L231.451 235.284H227.489L226.523 238ZM227.965 233.926H230.975L229.491 229.544H229.449L227.965 233.926ZM241.495 235.648C241.145 237.286 239.899 238.196 238.163 238.196C235.979 238.196 234.355 236.684 234.355 234.388C234.355 232.064 235.979 230.566 238.163 230.566C239.955 230.566 241.159 231.574 241.439 233.058H239.899C239.633 232.358 239.087 231.854 238.135 231.854C236.805 231.854 235.951 232.974 235.951 234.388C235.951 235.802 236.805 236.894 238.135 236.894C239.017 236.894 239.675 236.488 239.941 235.648H241.495ZM249.268 235.648C248.918 237.286 247.672 238.196 245.936 238.196C243.752 238.196 242.128 236.684 242.128 234.388C242.128 232.064 243.752 230.566 245.936 230.566C247.728 230.566 248.932 231.574 249.212 233.058H247.672C247.406 232.358 246.86 231.854 245.908 231.854C244.578 231.854 243.724 232.974 243.724 234.388C243.724 235.802 244.578 236.894 245.908 236.894C246.79 236.894 247.448 236.488 247.714 235.648H249.268ZM253.639 238.196C251.497 238.196 249.901 236.656 249.901 234.388C249.901 232.12 251.497 230.566 253.639 230.566C255.767 230.566 257.363 232.12 257.363 234.388C257.363 236.656 255.767 238.196 253.639 238.196ZM251.483 234.388C251.483 235.76 252.337 236.88 253.639 236.88C254.927 236.88 255.781 235.76 255.781 234.388C255.781 233.002 254.927 231.882 253.639 231.882C252.337 231.882 251.483 233.002 251.483 234.388ZM258.311 235.284V230.762H259.921V234.948C259.921 236.068 260.285 236.796 261.307 236.796C262.301 236.796 263.057 235.928 263.057 234.122V230.762H264.681V238H263.085V236.726C262.693 237.552 262.035 238.196 260.915 238.196C259.025 238.196 258.311 236.95 258.311 235.284ZM266.126 238V230.762H267.722V232.036C268.1 231.21 268.772 230.566 269.892 230.566C271.768 230.566 272.496 231.812 272.496 233.478V238H270.886V233.814C270.886 232.694 270.508 231.966 269.5 231.966C268.492 231.966 267.75 232.834 267.75 234.64V238H266.126ZM275.845 235.508C275.845 236.292 276.069 236.712 276.769 236.712H277.245V238.014L276.461 238.028C274.795 238.042 274.249 237.048 274.249 235.704V232.022H273.115V230.762H274.249V229.11L275.845 228.396V230.762H277.259V232.022H275.845V235.508Z" fill="white"/>
<path d="M132.76 318V310.86H135.36C136.57 310.86 137.46 311.57 137.46 312.77C137.46 313.52 137.04 314.03 136.33 314.35V314.36C137.15 314.5 137.76 315.05 137.76 315.98C137.76 317.31 136.82 318 135.3 318H132.76ZM133.71 317.2H135.46C136.25 317.2 136.81 316.75 136.81 315.98C136.81 315.22 136.25 314.78 135.46 314.78H133.71V317.2ZM133.71 313.98H135.18C136.01 313.98 136.51 313.57 136.51 312.77C136.51 311.97 136.01 311.66 135.18 311.66H133.71V313.98ZM138.69 314.39C138.8 313.64 139.43 312.7 140.78 312.7C142.68 312.7 142.86 313.93 142.86 314.73V316.95C142.86 317.34 142.9 317.75 142.94 318H141.98C141.96 317.75 141.96 317.54 141.96 317.25V317.05H141.95C141.83 317.45 141.4 318.12 140.25 318.12C139.01 318.12 138.44 317.33 138.44 316.59C138.44 315.13 140.28 315.08 141.06 314.94C141.74 314.82 141.96 314.63 141.96 314.2C141.96 313.77 141.55 313.46 140.81 313.46C140.18 313.46 139.71 313.83 139.59 314.39H138.69ZM139.33 316.59C139.33 317.08 139.78 317.39 140.41 317.39C141.2 317.39 141.98 316.88 141.98 315.6L141.97 314.88C141.87 315.22 141.65 315.52 140.53 315.72C139.78 315.85 139.33 316.07 139.33 316.59ZM143.92 310.86H144.82V318H143.92V310.86ZM145.887 314.39C145.997 313.64 146.627 312.7 147.977 312.7C149.877 312.7 150.057 313.93 150.057 314.73V316.95C150.057 317.34 150.097 317.75 150.137 318H149.177C149.157 317.75 149.157 317.54 149.157 317.25V317.05H149.147C149.027 317.45 148.597 318.12 147.447 318.12C146.207 318.12 145.637 317.33 145.637 316.59C145.637 315.13 147.477 315.08 148.257 314.94C148.937 314.82 149.157 314.63 149.157 314.2C149.157 313.77 148.747 313.46 148.007 313.46C147.377 313.46 146.907 313.83 146.787 314.39H145.887ZM146.527 316.59C146.527 317.08 146.977 317.39 147.607 317.39C148.397 317.39 149.177 316.88 149.177 315.6L149.167 314.88C149.067 315.22 148.847 315.52 147.727 315.72C146.977 315.85 146.527 316.07 146.527 316.59ZM151.117 318V312.83H152.017V313.8C152.287 313.21 152.767 312.71 153.567 312.71C154.927 312.71 155.437 313.6 155.437 314.65V318H154.537V314.74C154.537 313.83 154.147 313.47 153.447 313.47C152.687 313.47 152.017 314.11 152.017 315.46V318H151.117ZM161.094 316.42C160.804 317.5 160.054 318.12 158.804 318.12C157.194 318.12 156.154 316.98 156.154 315.42C156.154 313.86 157.194 312.71 158.804 312.71C160.124 312.71 160.834 313.44 161.054 314.38H160.154C159.964 313.91 159.614 313.45 158.774 313.45C157.724 313.45 157.054 314.31 157.054 315.42C157.054 316.52 157.724 317.37 158.774 317.37C159.524 317.37 159.954 317.03 160.184 316.42H161.094ZM166.449 316.46C166.159 317.56 165.289 318.12 164.139 318.12C162.609 318.12 161.599 317.01 161.599 315.39C161.599 313.83 162.659 312.71 164.119 312.71C165.939 312.71 166.509 314.17 166.529 315.5V315.66H162.469C162.539 316.74 163.199 317.37 164.119 317.37C164.809 317.37 165.389 317.1 165.569 316.46H166.449ZM162.479 314.94H165.619C165.539 314.04 165.039 313.45 164.119 313.45C163.189 313.45 162.599 314.05 162.479 314.94Z" fill="white"/>
<path d="M254.29 315.27C254.29 316.89 253.47 318.17 251.51 318.17C249.54 318.17 248.7 316.93 248.7 315.27V310.86H249.91V315.27C249.91 316.31 250.39 317.14 251.51 317.14C252.61 317.14 253.08 316.31 253.08 315.27V310.86H254.29V315.27ZM256.402 315.73C256.462 316.67 257.112 317.16 258.032 317.16C258.832 317.16 259.412 316.82 259.412 316.07C259.412 315.29 258.752 315.14 257.852 314.86C256.672 314.51 255.482 314.13 255.462 312.72C255.452 311.36 256.672 310.69 257.962 310.69C259.392 310.69 260.402 311.37 260.542 312.91H259.322C259.192 312.09 258.782 311.69 257.942 311.69C257.242 311.69 256.672 311.98 256.672 312.71C256.672 313.36 257.292 313.62 258.212 313.89C259.422 314.25 260.622 314.55 260.622 316.06C260.622 317.52 259.352 318.17 258.032 318.17C256.472 318.17 255.272 317.4 255.172 315.73H256.402ZM263.801 310.86C266.221 310.86 267.561 312.2 267.561 314.33C267.561 316.5 266.221 318 263.841 318H261.611V310.86H263.801ZM262.821 316.98H263.851C265.291 316.98 266.341 316.09 266.341 314.33C266.341 312.66 265.291 311.88 263.831 311.88H262.821V316.98ZM274.944 315.81C274.624 317.14 273.444 318.13 271.644 318.13C269.414 318.13 268.024 316.55 268.024 314.43C268.024 312.33 269.424 310.73 271.664 310.73C273.454 310.73 274.504 311.66 274.954 313.05H273.744C273.374 312.19 272.714 311.75 271.664 311.75C270.144 311.75 269.234 312.94 269.234 314.43C269.234 315.92 270.134 317.11 271.664 317.11C272.784 317.11 273.464 316.59 273.754 315.81H274.944ZM279.923 309.59H281.013V310.73C282.143 310.89 282.923 311.58 283.043 312.91H281.823C281.693 312.09 281.283 311.69 280.443 311.69C279.743 311.69 279.173 311.98 279.173 312.71C279.173 313.36 279.793 313.62 280.713 313.89C281.923 314.25 283.123 314.55 283.123 316.06C283.123 317.34 282.143 318 281.013 318.14V319.29H279.923V318.13C278.673 317.95 277.763 317.17 277.673 315.73H278.903C278.963 316.67 279.613 317.16 280.533 317.16C281.333 317.16 281.913 316.82 281.913 316.07C281.913 315.29 281.253 315.14 280.353 314.86C279.173 314.51 277.983 314.13 277.963 312.72C277.953 311.55 278.853 310.89 279.923 310.73V309.59ZM286.734 318H285.594V312.89H283.854V312.12C284.794 312.12 285.504 311.92 285.774 310.86H286.734V318ZM287.75 316.27V315.21L290.84 310.86H291.98V315.32H292.81V316.27H291.98V318H290.84V316.27H287.75ZM288.81 315.32H290.84V312.47H290.81L288.81 315.32ZM293.393 313.29C293.393 311.85 294.473 310.78 296.003 310.78C296.773 310.78 297.453 311.06 297.913 311.56C298.463 312.16 298.653 313.11 298.653 314.32C298.653 316.35 297.903 318.14 296.013 318.14C294.573 318.14 293.743 317.34 293.573 316.32H294.713C294.843 316.73 295.143 317.19 295.983 317.19C297.003 317.19 297.383 316.26 297.473 315C297.223 315.31 296.653 315.71 295.843 315.71C294.413 315.71 293.393 314.68 293.393 313.29ZM294.533 313.23C294.533 314.08 295.153 314.75 296.003 314.75C296.873 314.75 297.463 314.01 297.463 313.23C297.463 312.37 296.823 311.74 296.003 311.74C295.173 311.74 294.533 312.39 294.533 313.23ZM299.636 316.72H300.896L300.096 319.25H299.076L299.636 316.72ZM306.136 311.81H303.256L302.976 313.67C303.306 313.38 303.786 313.21 304.336 313.21C305.766 313.21 306.726 314.13 306.726 315.66C306.726 317.04 305.676 318.14 304.176 318.14C302.666 318.14 301.766 317.23 301.626 316.1L302.766 316.09C302.876 316.67 303.406 317.17 304.166 317.17C304.926 317.17 305.586 316.59 305.586 315.66C305.586 314.79 305.086 314.17 304.146 314.17C303.516 314.17 303.126 314.5 302.896 314.88L301.766 314.78L302.326 310.85L306.136 310.86V311.81ZM311.854 311.81H308.974L308.694 313.67C309.024 313.38 309.504 313.21 310.054 313.21C311.484 313.21 312.444 314.13 312.444 315.66C312.444 317.04 311.394 318.14 309.894 318.14C308.384 318.14 307.484 317.23 307.344 316.1L308.484 316.09C308.594 316.67 309.124 317.17 309.884 317.17C310.644 317.17 311.304 316.59 311.304 315.66C311.304 314.79 310.804 314.17 309.864 314.17C309.234 314.17 308.844 314.5 308.614 314.88L307.484 314.78L308.044 310.85L311.854 310.86V311.81ZM312.996 313.17C312.996 311.67 313.996 310.8 315.456 310.8C316.816 310.8 317.786 311.63 317.786 312.89C317.786 314.1 317.226 314.61 316.326 315.3C315.526 315.92 314.696 316.32 314.386 317.02H317.866V318H312.896C312.956 316.42 313.836 315.7 314.966 314.95C316.146 314.16 316.646 313.83 316.646 312.95C316.646 312.3 316.216 311.75 315.426 311.75C314.586 311.75 314.136 312.34 314.136 313.17H312.996ZM318.861 316.72H320.111V318H318.861V316.72ZM323.583 317.18C324.663 317.18 325.093 315.76 325.093 314.43C325.093 313.1 324.663 311.76 323.583 311.76C322.503 311.76 322.073 313.1 322.073 314.43C322.073 315.76 322.503 317.18 323.583 317.18ZM320.933 314.43C320.933 312.59 321.593 310.8 323.583 310.8C325.573 310.8 326.233 312.59 326.233 314.43C326.233 316.27 325.573 318.14 323.583 318.14C321.593 318.14 320.933 316.27 320.933 314.43ZM329.584 317.18C330.664 317.18 331.094 315.76 331.094 314.43C331.094 313.1 330.664 311.76 329.584 311.76C328.504 311.76 328.074 313.1 328.074 314.43C328.074 315.76 328.504 317.18 329.584 317.18ZM326.934 314.43C326.934 312.59 327.594 310.8 329.584 310.8C331.574 310.8 332.234 312.59 332.234 314.43C332.234 316.27 331.574 318.14 329.584 318.14C327.594 318.14 326.934 316.27 326.934 314.43Z" fill="white"/>
<path d="M132.76 293V285.86H135.32C136.95 285.86 137.74 286.77 137.74 287.89C137.74 288.91 137.05 289.56 136.25 289.75C136.94 289.93 137.15 290.47 137.42 291.37C137.62 292.03 137.77 292.43 138.04 292.9V293H137.03C136.79 292.51 136.61 291.85 136.4 291.29C136.15 290.62 135.86 290.08 135 290.08H133.71V293H132.76ZM133.71 289.28H135.28C136.29 289.28 136.78 288.73 136.78 287.89C136.78 287.25 136.43 286.66 135.22 286.66H133.71V289.28ZM140.892 293.12C139.322 293.12 138.302 291.94 138.302 290.42C138.302 288.9 139.322 287.71 140.892 287.71C142.462 287.71 143.482 288.9 143.482 290.42C143.482 291.94 142.462 293.12 140.892 293.12ZM139.202 290.42C139.202 291.48 139.882 292.36 140.892 292.36C141.902 292.36 142.582 291.48 142.582 290.42C142.582 289.35 141.902 288.47 140.892 288.47C139.882 288.47 139.202 289.35 139.202 290.42ZM144.202 291.18V287.83H145.102V291.09C145.102 292 145.492 292.36 146.192 292.36C146.952 292.36 147.622 291.72 147.622 290.37V287.83H148.522V293H147.622V292.03C147.352 292.62 146.872 293.12 146.072 293.12C144.712 293.12 144.202 292.23 144.202 291.18ZM150.689 291.55C150.689 292.01 150.949 292.26 151.349 292.26H151.709V293H151.259C150.259 293 149.809 292.41 149.809 291.61V288.57H149.039V287.83H149.809V286.62L150.689 286.22V287.83H151.679V288.57H150.689V291.55ZM153.425 286.86H152.465V285.86H153.425V286.86ZM152.445 293V287.83H153.345V293H152.445ZM154.501 293V287.83H155.401V288.8C155.671 288.21 156.151 287.71 156.951 287.71C158.311 287.71 158.821 288.6 158.821 289.65V293H157.921V289.74C157.921 288.83 157.531 288.47 156.831 288.47C156.071 288.47 155.401 289.11 155.401 290.46V293H154.501ZM163.688 287.83H164.588V292.6C164.588 294.13 163.468 294.98 162.188 294.98C160.908 294.98 159.908 294.34 159.798 293.22H160.698C160.798 293.96 161.368 294.22 162.188 294.22C163.008 294.22 163.688 293.77 163.688 292.6V291.98H163.678C163.458 292.62 162.948 293.12 161.938 293.12C160.458 293.12 159.538 291.95 159.538 290.4C159.538 288.86 160.458 287.71 161.938 287.71C162.948 287.71 163.488 288.28 163.678 288.79H163.688V287.83ZM160.438 290.4C160.438 291.42 160.948 292.35 162.078 292.35C163.348 292.35 163.718 291.22 163.718 290.4C163.718 289.59 163.188 288.47 162.078 288.47C160.978 288.47 160.438 289.39 160.438 290.4ZM167.82 285.86H168.98L171.76 290.37C172.03 290.8 172.29 291.24 172.56 291.67C172.56 291.18 172.54 290.74 172.54 290.25V285.86H173.49V293H172.3L169.53 288.52C169.26 288.1 169.02 287.67 168.75 287.25C168.75 287.75 168.77 288.22 168.77 288.72V293H167.82V285.86ZM176.899 293.12C175.329 293.12 174.309 291.94 174.309 290.42C174.309 288.9 175.329 287.71 176.899 287.71C178.469 287.71 179.489 288.9 179.489 290.42C179.489 291.94 178.469 293.12 176.899 293.12ZM175.209 290.42C175.209 291.48 175.889 292.36 176.899 292.36C177.909 292.36 178.589 291.48 178.589 290.42C178.589 289.35 177.909 288.47 176.899 288.47C175.889 288.47 175.209 289.35 175.209 290.42ZM179.965 291.8H181.065V293H179.965V291.8Z" fill="white"/>
<path d="M284.42 293H283.28V287.89H281.54V287.12C282.48 287.12 283.19 286.92 283.46 285.86H284.42V293ZM285.784 288.17C285.784 286.67 286.784 285.8 288.244 285.8C289.604 285.8 290.574 286.63 290.574 287.89C290.574 289.1 290.014 289.61 289.114 290.3C288.314 290.92 287.484 291.32 287.174 292.02H290.654V293H285.684C285.744 291.42 286.624 290.7 287.754 289.95C288.934 289.16 289.434 288.83 289.434 287.95C289.434 287.3 289.004 286.75 288.214 286.75C287.374 286.75 286.924 287.34 286.924 288.17H285.784ZM294.284 293H293.144V287.89H291.404V287.12C292.344 287.12 293.054 286.92 293.324 285.86H294.284V293ZM298.168 292.18C299.248 292.18 299.678 290.76 299.678 289.43C299.678 288.1 299.248 286.76 298.168 286.76C297.088 286.76 296.658 288.1 296.658 289.43C296.658 290.76 297.088 292.18 298.168 292.18ZM295.518 289.43C295.518 287.59 296.178 285.8 298.168 285.8C300.158 285.8 300.818 287.59 300.818 289.43C300.818 291.27 300.158 293.14 298.168 293.14C296.178 293.14 295.518 291.27 295.518 289.43ZM304.169 292.18C305.249 292.18 305.679 290.76 305.679 289.43C305.679 288.1 305.249 286.76 304.169 286.76C303.089 286.76 302.659 288.1 302.659 289.43C302.659 290.76 303.089 292.18 304.169 292.18ZM301.519 289.43C301.519 287.59 302.179 285.8 304.169 285.8C306.159 285.8 306.819 287.59 306.819 289.43C306.819 291.27 306.159 293.14 304.169 293.14C302.179 293.14 301.519 291.27 301.519 289.43ZM310.17 292.18C311.25 292.18 311.68 290.76 311.68 289.43C311.68 288.1 311.25 286.76 310.17 286.76C309.09 286.76 308.66 288.1 308.66 289.43C308.66 290.76 309.09 292.18 310.17 292.18ZM307.52 289.43C307.52 287.59 308.18 285.8 310.17 285.8C312.16 285.8 312.82 287.59 312.82 289.43C312.82 291.27 312.16 293.14 310.17 293.14C308.18 293.14 307.52 291.27 307.52 289.43ZM313.693 287.8C313.763 286.61 314.583 285.8 315.953 285.8C317.293 285.8 318.143 286.51 318.143 287.65C318.143 288.44 317.793 288.88 317.263 289.19C318.033 289.49 318.453 290.05 318.453 290.97C318.463 292.13 317.573 293.14 316.003 293.14C314.493 293.14 313.563 292.38 313.423 291.05L313.413 290.94H314.583L314.593 291.02C314.663 291.79 315.213 292.18 315.983 292.18C316.813 292.18 317.333 291.65 317.333 290.9C317.333 290.11 316.683 289.74 315.823 289.74C315.713 289.74 315.543 289.74 315.433 289.75V288.76C315.613 288.76 315.753 288.75 315.923 288.74C316.573 288.7 317.003 288.41 317.003 287.76C317.003 287.12 316.593 286.76 315.933 286.76C315.273 286.76 314.923 287.13 314.843 287.65L314.823 287.8H313.693ZM323.642 286.81H320.762L320.482 288.67C320.812 288.38 321.292 288.21 321.842 288.21C323.272 288.21 324.232 289.13 324.232 290.66C324.232 292.04 323.182 293.14 321.682 293.14C320.172 293.14 319.272 292.23 319.132 291.1L320.272 291.09C320.382 291.67 320.912 292.17 321.672 292.17C322.432 292.17 323.092 291.59 323.092 290.66C323.092 289.79 322.592 289.17 321.652 289.17C321.022 289.17 320.632 289.5 320.402 289.88L319.272 289.78L319.832 285.85L323.642 285.86V286.81ZM327.45 285.77C328.85 285.77 329.74 286.55 329.74 287.6C329.74 288.42 329.29 289.01 328.67 289.22C329.32 289.41 330 290.07 330 291.04C330 292.34 328.98 293.14 327.46 293.14C325.88 293.14 324.85 292.34 324.86 291.04C324.87 290.07 325.58 289.39 326.23 289.21C325.56 288.98 325.14 288.43 325.14 287.6C325.14 286.55 326.04 285.77 327.45 285.77ZM325.99 290.97C325.99 291.65 326.48 292.24 327.45 292.24C328.4 292.24 328.88 291.66 328.88 290.97C328.88 290.3 328.4 289.71 327.45 289.71C326.48 289.71 325.99 290.3 325.99 290.97ZM326.26 287.74C326.26 288.31 326.7 288.81 327.45 288.81C328.2 288.81 328.63 288.32 328.63 287.74C328.63 287.17 328.2 286.68 327.45 286.68C326.69 286.68 326.26 287.17 326.26 287.74Z" fill="white"/>
<path d="M284.42 293H283.28V287.89H281.54V287.12C282.48 287.12 283.19 286.92 283.46 285.86H284.42V293ZM285.784 288.17C285.784 286.67 286.784 285.8 288.244 285.8C289.604 285.8 290.574 286.63 290.574 287.89C290.574 289.1 290.014 289.61 289.114 290.3C288.314 290.92 287.484 291.32 287.174 292.02H290.654V293H285.684C285.744 291.42 286.624 290.7 287.754 289.95C288.934 289.16 289.434 288.83 289.434 287.95C289.434 287.3 289.004 286.75 288.214 286.75C287.374 286.75 286.924 287.34 286.924 288.17H285.784ZM294.284 293H293.144V287.89H291.404V287.12C292.344 287.12 293.054 286.92 293.324 285.86H294.284V293ZM298.168 292.18C299.248 292.18 299.678 290.76 299.678 289.43C299.678 288.1 299.248 286.76 298.168 286.76C297.088 286.76 296.658 288.1 296.658 289.43C296.658 290.76 297.088 292.18 298.168 292.18ZM295.518 289.43C295.518 287.59 296.178 285.8 298.168 285.8C300.158 285.8 300.818 287.59 300.818 289.43C300.818 291.27 300.158 293.14 298.168 293.14C296.178 293.14 295.518 291.27 295.518 289.43ZM304.169 292.18C305.249 292.18 305.679 290.76 305.679 289.43C305.679 288.1 305.249 286.76 304.169 286.76C303.089 286.76 302.659 288.1 302.659 289.43C302.659 290.76 303.089 292.18 304.169 292.18ZM301.519 289.43C301.519 287.59 302.179 285.8 304.169 285.8C306.159 285.8 306.819 287.59 306.819 289.43C306.819 291.27 306.159 293.14 304.169 293.14C302.179 293.14 301.519 291.27 301.519 289.43ZM310.17 292.18C311.25 292.18 311.68 290.76 311.68 289.43C311.68 288.1 311.25 286.76 310.17 286.76C309.09 286.76 308.66 288.1 308.66 289.43C308.66 290.76 309.09 292.18 310.17 292.18ZM307.52 289.43C307.52 287.59 308.18 285.8 310.17 285.8C312.16 285.8 312.82 287.59 312.82 289.43C312.82 291.27 312.16 293.14 310.17 293.14C308.18 293.14 307.52 291.27 307.52 289.43ZM313.693 287.8C313.763 286.61 314.583 285.8 315.953 285.8C317.293 285.8 318.143 286.51 318.143 287.65C318.143 288.44 317.793 288.88 317.263 289.19C318.033 289.49 318.453 290.05 318.453 290.97C318.463 292.13 317.573 293.14 316.003 293.14C314.493 293.14 313.563 292.38 313.423 291.05L313.413 290.94H314.583L314.593 291.02C314.663 291.79 315.213 292.18 315.983 292.18C316.813 292.18 317.333 291.65 317.333 290.9C317.333 290.11 316.683 289.74 315.823 289.74C315.713 289.74 315.543 289.74 315.433 289.75V288.76C315.613 288.76 315.753 288.75 315.923 288.74C316.573 288.7 317.003 288.41 317.003 287.76C317.003 287.12 316.593 286.76 315.933 286.76C315.273 286.76 314.923 287.13 314.843 287.65L314.823 287.8H313.693ZM323.642 286.81H320.762L320.482 288.67C320.812 288.38 321.292 288.21 321.842 288.21C323.272 288.21 324.232 289.13 324.232 290.66C324.232 292.04 323.182 293.14 321.682 293.14C320.172 293.14 319.272 292.23 319.132 291.1L320.272 291.09C320.382 291.67 320.912 292.17 321.672 292.17C322.432 292.17 323.092 291.59 323.092 290.66C323.092 289.79 322.592 289.17 321.652 289.17C321.022 289.17 320.632 289.5 320.402 289.88L319.272 289.78L319.832 285.85L323.642 285.86V286.81ZM327.45 285.77C328.85 285.77 329.74 286.55 329.74 287.6C329.74 288.42 329.29 289.01 328.67 289.22C329.32 289.41 330 290.07 330 291.04C330 292.34 328.98 293.14 327.46 293.14C325.88 293.14 324.85 292.34 324.86 291.04C324.87 290.07 325.58 289.39 326.23 289.21C325.56 288.98 325.14 288.43 325.14 287.6C325.14 286.55 326.04 285.77 327.45 285.77ZM325.99 290.97C325.99 291.65 326.48 292.24 327.45 292.24C328.4 292.24 328.88 291.66 328.88 290.97C328.88 290.3 328.4 289.71 327.45 289.71C326.48 289.71 325.99 290.3 325.99 290.97ZM326.26 287.74C326.26 288.31 326.7 288.81 327.45 288.81C328.2 288.81 328.63 288.32 328.63 287.74C328.63 287.17 328.2 286.68 327.45 286.68C326.69 286.68 326.26 287.17 326.26 287.74Z" fill="white"/>
<path d="M133.16 268H132.18L134.84 260.86H136.03L138.69 268H137.71L136.93 265.91H133.95L133.16 268ZM134.23 265.13H136.65L135.45 261.71H135.42L134.23 265.13ZM141.199 262.71C142.139 262.71 142.789 263.34 142.979 263.88H142.989V260.86H143.889V268H142.989V266.97H142.979C142.789 267.5 142.139 268.12 141.199 268.12C139.739 268.12 138.839 267 138.839 265.4C138.839 263.8 139.739 262.71 141.199 262.71ZM139.739 265.4C139.739 266.52 140.289 267.35 141.379 267.35C142.499 267.35 143.019 266.42 143.019 265.4C143.019 264.39 142.499 263.47 141.379 263.47C140.319 263.47 139.739 264.28 139.739 265.4ZM147.005 262.71C147.945 262.71 148.595 263.34 148.785 263.88H148.795V260.86H149.695V268H148.795V266.97H148.785C148.595 267.5 147.945 268.12 147.005 268.12C145.545 268.12 144.645 267 144.645 265.4C144.645 263.8 145.545 262.71 147.005 262.71ZM145.545 265.4C145.545 266.52 146.095 267.35 147.185 267.35C148.305 267.35 148.825 266.42 148.825 265.4C148.825 264.39 148.305 263.47 147.185 263.47C146.125 263.47 145.545 264.28 145.545 265.4ZM151.67 262.83V263.87C151.93 263.11 152.43 262.81 153.21 262.81V263.67C153.17 263.67 153.01 263.68 152.88 263.7C152.28 263.79 151.67 264.06 151.67 265.56V268H150.77V262.83H151.67ZM158.362 266.46C158.072 267.56 157.202 268.12 156.052 268.12C154.522 268.12 153.512 267.01 153.512 265.39C153.512 263.83 154.572 262.71 156.032 262.71C157.852 262.71 158.422 264.17 158.442 265.5V265.66H154.382C154.452 266.74 155.112 267.37 156.032 267.37C156.722 267.37 157.302 267.1 157.482 266.46H158.362ZM154.392 264.94H157.532C157.452 264.04 156.952 263.45 156.032 263.45C155.102 263.45 154.512 264.05 154.392 264.94ZM162.088 264.39C162.028 263.72 161.468 263.47 160.948 263.47C160.458 263.47 159.968 263.75 159.968 264.19C159.968 264.59 160.368 264.82 160.818 264.93L161.498 265.1C162.278 265.29 163.068 265.66 163.068 266.52C163.068 267.62 161.918 268.12 161.018 268.12C160.148 268.12 159.008 267.72 158.918 266.44H159.818C159.938 267.1 160.348 267.36 161.048 267.36C161.558 267.36 162.168 267.18 162.168 266.58C162.168 266.14 161.738 265.99 161.248 265.87L160.528 265.69C159.758 265.5 159.068 265.03 159.068 264.23C159.068 263.26 160.068 262.71 160.978 262.71C161.988 262.71 162.878 263.25 162.978 264.39H162.088ZM166.673 264.39C166.613 263.72 166.053 263.47 165.533 263.47C165.043 263.47 164.553 263.75 164.553 264.19C164.553 264.59 164.953 264.82 165.403 264.93L166.083 265.1C166.863 265.29 167.653 265.66 167.653 266.52C167.653 267.62 166.503 268.12 165.603 268.12C164.733 268.12 163.593 267.72 163.503 266.44H164.403C164.523 267.1 164.933 267.36 165.633 267.36C166.143 267.36 166.753 267.18 166.753 266.58C166.753 266.14 166.323 265.99 165.833 265.87L165.113 265.69C164.343 265.5 163.653 265.03 163.653 264.23C163.653 263.26 164.653 262.71 165.563 262.71C166.573 262.71 167.463 263.25 167.563 264.39H166.673ZM171.258 264.39C171.198 263.72 170.638 263.47 170.118 263.47C169.628 263.47 169.138 263.75 169.138 264.19C169.138 264.59 169.538 264.82 169.988 264.93L170.668 265.1C171.448 265.29 172.238 265.66 172.238 266.52C172.238 267.62 171.088 268.12 170.188 268.12C169.318 268.12 168.178 267.72 168.088 266.44H168.988C169.108 267.1 169.518 267.36 170.218 267.36C170.728 267.36 171.338 267.18 171.338 266.58C171.338 266.14 170.908 265.99 170.418 265.87L169.698 265.69C168.928 265.5 168.238 265.03 168.238 264.23C168.238 263.26 169.238 262.71 170.148 262.71C171.158 262.71 172.048 263.25 172.148 264.39H171.258Z" fill="white"/>
<path d="M291.1 267.18C292.18 267.18 292.61 265.76 292.61 264.43C292.61 263.1 292.18 261.76 291.1 261.76C290.02 261.76 289.59 263.1 289.59 264.43C289.59 265.76 290.02 267.18 291.1 267.18ZM288.45 264.43C288.45 262.59 289.11 260.8 291.1 260.8C293.09 260.8 293.75 262.59 293.75 264.43C293.75 266.27 293.09 268.14 291.1 268.14C289.11 268.14 288.45 266.27 288.45 264.43ZM294.141 268L295.981 265.36L294.211 262.83H295.521L296.641 264.46L297.751 262.83H299.061L297.301 265.35L299.131 268H297.821L296.641 266.25L295.451 268H294.141ZM299.317 261.63L299.537 261.02L300.577 261.39V260.31H301.227V261.4L302.307 261.01L302.537 261.63L301.457 262.01L302.077 262.89L301.547 263.27L300.897 262.34L300.267 263.27L299.727 262.89L300.347 261.99L299.317 261.63ZM303.023 261.63L303.243 261.02L304.283 261.39V260.31H304.933V261.4L306.013 261.01L306.243 261.63L305.163 262.01L305.783 262.89L305.253 263.27L304.603 262.34L303.973 263.27L303.433 262.89L304.053 261.99L303.023 261.63ZM306.73 261.63L306.95 261.02L307.99 261.39V260.31H308.64V261.4L309.72 261.01L309.95 261.63L308.87 262.01L309.49 262.89L308.96 263.27L308.31 262.34L307.68 263.27L307.14 262.89L307.76 261.99L306.73 261.63ZM310.436 261.63L310.656 261.02L311.696 261.39V260.31H312.346V261.4L313.426 261.01L313.656 261.63L312.576 262.01L313.196 262.89L312.666 263.27L312.016 262.34L311.386 263.27L310.846 262.89L311.466 261.99L310.436 261.63ZM314.142 261.63L314.362 261.02L315.402 261.39V260.31H316.052V261.4L317.132 261.01L317.362 261.63L316.282 262.01L316.902 262.89L316.372 263.27L315.722 262.34L315.092 263.27L314.552 262.89L315.172 261.99L314.142 261.63ZM317.848 261.63L318.068 261.02L319.108 261.39V260.31H319.758V261.4L320.838 261.01L321.068 261.63L319.988 262.01L320.608 262.89L320.078 263.27L319.428 262.34L318.798 263.27L318.258 262.89L318.878 261.99L317.848 261.63Z" fill="white"/>
<path d="M1 0V119C1 123.418 4.58172 127 9 127H48" stroke="url(#paint2_linear_2173_657)"/>
<path d="M418 401L418 285C418 280.582 414.418 277 410 277H373" stroke="url(#paint3_linear_2173_657)"/>
<line x1="202.5" y1="212" x2="202.5" y2="191" stroke="white"/>
<path d="M141.853 236.009L132.355 239.939C132.243 239.979 132.122 240 132 240C131.878 240 131.758 239.979 131.646 239.939L122.147 236.009C121.953 235.929 121.953 235.797 122.147 235.716L124.422 234.777C124.534 234.737 124.655 234.716 124.777 234.716C124.899 234.716 125.019 234.737 125.132 234.777L131.646 237.469C131.758 237.509 131.878 237.53 132 237.53C132.122 237.53 132.243 237.509 132.355 237.469L138.869 234.777C138.981 234.737 139.102 234.716 139.224 234.716C139.346 234.716 139.466 234.737 139.578 234.777L141.853 235.718C142.049 235.797 142.049 235.929 141.853 236.009ZM141.853 230.524L139.578 229.582C139.466 229.542 139.346 229.522 139.224 229.522C139.102 229.522 138.981 229.542 138.869 229.582L132.355 232.277C132.243 232.317 132.122 232.338 132 232.338C131.878 232.338 131.758 232.317 131.646 232.277L125.132 229.582C125.019 229.542 124.899 229.522 124.777 229.522C124.655 229.522 124.534 229.542 124.422 229.582L122.147 230.524C121.953 230.604 121.953 230.736 122.147 230.817L131.646 234.747C131.758 234.787 131.878 234.807 132 234.807C132.122 234.807 132.243 234.787 132.355 234.747L141.853 230.817C142.049 230.736 142.049 230.604 141.853 230.524ZM122.147 225.954L131.645 229.582C131.873 229.657 132.126 229.657 132.354 229.582L141.853 225.954C142.047 225.88 142.047 225.758 141.853 225.684L132.354 222.056C132.127 221.981 131.873 221.981 131.645 222.056L122.147 225.684C121.951 225.758 121.951 225.88 122.147 225.954Z" fill="white"/>
<path d="M67 86.3929C67 87.2801 67.7465 88 68.6667 88H85.3333C86.2535 88 87 87.2801 87 86.3929V80.5H67V86.3929ZM73.6667 84.1161C73.6667 83.8951 73.8542 83.7143 74.0833 83.7143H78.8056C79.0347 83.7143 79.2222 83.8951 79.2222 84.1161V85.4554C79.2222 85.6763 79.0347 85.8571 78.8056 85.8571H74.0833C73.8542 85.8571 73.6667 85.6763 73.6667 85.4554V84.1161ZM69.2222 84.1161C69.2222 83.8951 69.4097 83.7143 69.6389 83.7143H72.1389C72.3681 83.7143 72.5556 83.8951 72.5556 84.1161V85.4554C72.5556 85.6763 72.3681 85.8571 72.1389 85.8571H69.6389C69.4097 85.8571 69.2222 85.6763 69.2222 85.4554V84.1161ZM87 74.6071V76.2143H67V74.6071C67 73.7199 67.7465 73 68.6667 73H85.3333C86.2535 73 87 73.7199 87 74.6071Z" fill="white"/>
<defs>
<linearGradient id="paint0_linear_2173_657" x1="134.5" y1="0" x2="134.5" y2="130" gradientUnits="userSpaceOnUse">
<stop stop-color="white"/>
<stop offset="1" stop-color="#02D0BC"/>
</linearGradient>
<linearGradient id="paint1_linear_2173_657" x1="135" y1="0" x2="135" y2="130" gradientUnits="userSpaceOnUse">
<stop stop-color="#FF8159"/>
<stop offset="1" stop-color="white"/>
</linearGradient>
<linearGradient id="paint2_linear_2173_657" x1="24.5" y1="0" x2="24.5" y2="127" gradientUnits="userSpaceOnUse">
<stop stop-color="white" stop-opacity="0"/>
<stop offset="1" stop-color="#2BDCBC"/>
</linearGradient>
<linearGradient id="paint3_linear_2173_657" x1="395.5" y1="401" x2="395.5" y2="277" gradientUnits="userSpaceOnUse">
<stop stop-color="white" stop-opacity="0"/>
<stop offset="1" stop-color="#FF8159"/>
</linearGradient>
</defs>
</svg>
