<svg width="296" height="256" viewBox="0 0 296 256" fill="none" xmlns="http://www.w3.org/2000/svg">
<path d="M151 224.952V246.952C151 251.37 154.582 254.952 159 254.952H296" stroke="url(#paint0_linear_710_2193)"/>
<path d="M151 29.9521V8.95215C151 4.53387 147.418 0.952149 143 0.952149L5.24521e-06 0.952149" stroke="url(#paint1_linear_710_2193)"/>
<rect x="42" y="33.9521" width="217" height="74" rx="4" fill="white"/>
<rect x="42" y="146.952" width="217" height="74" rx="4" fill="white"/>
<path d="M42 38.9521C42 36.1907 44.2386 33.9521 47 33.9521H254C256.761 33.9521 259 36.1907 259 38.9521V62.9521H42V38.9521Z" fill="#EDF0F3"/>
<path d="M42 151.952C42 149.191 44.2386 146.952 47 146.952H254C256.761 146.952 259 149.191 259 151.952V175.952H42V151.952Z" fill="#EDF0F3"/>
<path d="M53.1551 43.9561H54.6111L57.5511 52.5941H57.6071L60.5751 43.9561H62.0311L58.4191 53.9381L56.7391 53.9521L53.1551 43.9561ZM68.1215 51.7961C67.7155 53.3361 66.4975 54.1201 64.8875 54.1201C62.7455 54.1201 61.3315 52.5661 61.3315 50.2981C61.3315 48.1141 62.8155 46.5461 64.8595 46.5461C67.4075 46.5461 68.2055 48.5901 68.2335 50.4521V50.6761H62.5495C62.6475 52.1881 63.5715 53.0701 64.8595 53.0701C65.8255 53.0701 66.6375 52.6921 66.8895 51.7961H68.1215ZM62.5635 49.6681H66.9595C66.8475 48.4081 66.1475 47.5821 64.8595 47.5821C63.5575 47.5821 62.7315 48.4221 62.5635 49.6681ZM70.6072 46.7141V48.1701C70.9712 47.1061 71.6712 46.6861 72.7632 46.6861V47.8901C72.7072 47.8901 72.4832 47.9041 72.3012 47.9321C71.4612 48.0581 70.6072 48.4361 70.6072 50.5361V53.9521H69.3472V46.7141H70.6072ZM74.9236 45.3561H73.5796V43.9561H74.9236V45.3561ZM73.5516 53.9521V46.7141H74.8116V53.9521H73.5516ZM76.7154 45.9021C76.7154 44.8941 77.2614 43.9561 78.5494 43.9561H79.3334V45.0201H78.8714C78.3254 45.0201 77.9474 45.2021 77.9474 45.9581V46.7141H79.1654V47.7501H77.9474V53.9521H76.7154V47.7501H75.7214V46.7141H76.7154V45.9021ZM80.4814 53.9521V46.7141H81.7414V53.9521H80.4814ZM80.5094 45.3561V43.9561H81.8534V45.3561H80.5094ZM89.8365 51.7401C89.4305 53.2521 88.3805 54.1201 86.6305 54.1201C84.3765 54.1201 82.9205 52.5241 82.9205 50.3401C82.9205 48.1561 84.3765 46.5461 86.6305 46.5461C88.4785 46.5461 89.4725 47.5681 89.7805 48.8841H88.5205C88.2545 48.2261 87.7645 47.5821 86.5885 47.5821C85.1185 47.5821 84.1805 48.7861 84.1805 50.3401C84.1805 51.8801 85.1185 53.0701 86.5885 53.0701C87.6385 53.0701 88.2405 52.5941 88.5625 51.7401H89.8365ZM90.9769 48.8981C91.1309 47.8481 92.0129 46.5321 93.9029 46.5321C96.5629 46.5321 96.8149 48.2541 96.8149 49.3741V52.4821C96.8149 53.0281 96.8709 53.6021 96.9269 53.9521H95.5829C95.5549 53.6021 95.5549 53.3081 95.5549 52.9021V52.6221H95.5409C95.3729 53.1821 94.7709 54.1201 93.1609 54.1201C91.4249 54.1201 90.6269 53.0141 90.6269 51.9781C90.6269 49.9341 93.2029 49.8641 94.2949 49.6681C95.2469 49.5001 95.5549 49.2341 95.5549 48.6321C95.5549 48.0301 94.9809 47.5961 93.9449 47.5961C93.0629 47.5961 92.4049 48.1141 92.2369 48.8981H90.9769ZM91.8729 51.9781C91.8729 52.6641 92.5029 53.0981 93.3849 53.0981C94.4909 53.0981 95.5829 52.3841 95.5829 50.5921L95.5689 49.5841C95.4289 50.0601 95.1209 50.4801 93.5529 50.7601C92.5029 50.9421 91.8729 51.2501 91.8729 51.9781ZM99.8248 51.9221C99.8248 52.5661 100.189 52.9161 100.749 52.9161H101.253V53.9521H100.623C99.2228 53.9521 98.5928 53.1261 98.5928 52.0061V47.7501H97.5148V46.7141H98.5928V45.0201L99.8248 44.4601V46.7141H101.211V47.7501H99.8248V51.9221ZM103.656 45.3561H102.312V43.9561H103.656V45.3561ZM102.284 53.9521V46.7141H103.544V53.9521H102.284ZM108.341 54.1201C106.143 54.1201 104.715 52.4681 104.715 50.3401C104.715 48.2121 106.143 46.5461 108.341 46.5461C110.539 46.5461 111.967 48.2121 111.967 50.3401C111.967 52.4681 110.539 54.1201 108.341 54.1201ZM105.975 50.3401C105.975 51.8241 106.927 53.0561 108.341 53.0561C109.755 53.0561 110.707 51.8241 110.707 50.3401C110.707 48.8421 109.755 47.6101 108.341 47.6101C106.927 47.6101 105.975 48.8421 105.975 50.3401ZM113.031 53.9521V46.7141H114.291V48.0721C114.669 47.2461 115.341 46.5461 116.461 46.5461C118.365 46.5461 119.079 47.7921 119.079 49.2621V53.9521H117.819V49.3881C117.819 48.1141 117.273 47.6101 116.293 47.6101C115.229 47.6101 114.291 48.5061 114.291 50.3961V53.9521H113.031ZM124.431 50.8581C124.487 52.3561 125.509 53.0701 126.965 53.0701C128.141 53.0701 129.149 52.5241 129.149 51.3061C129.149 50.0741 128.113 49.8641 126.853 49.4861C125.201 48.9961 123.521 48.5061 123.479 46.6161C123.437 44.6841 125.033 43.7181 126.839 43.7181C128.841 43.7181 130.157 44.7261 130.311 46.7281H128.967C128.785 45.4681 128.155 44.8381 126.839 44.8381C125.733 44.8381 124.809 45.3001 124.809 46.5181C124.809 47.5401 125.789 47.9321 127.105 48.3101C128.771 48.7861 130.479 49.1501 130.479 51.2641C130.479 53.3081 128.757 54.1901 126.965 54.1901C124.781 54.1901 123.129 53.1401 123.101 50.8581H124.431ZM133.268 51.9221C133.268 52.5661 133.632 52.9161 134.192 52.9161H134.696V53.9521H134.066C132.666 53.9521 132.036 53.1261 132.036 52.0061V47.7501H130.958V46.7141H132.036V45.0201L133.268 44.4601V46.7141H134.654V47.7501H133.268V51.9221ZM135.713 48.8981C135.867 47.8481 136.749 46.5321 138.639 46.5321C141.299 46.5321 141.551 48.2541 141.551 49.3741V52.4821C141.551 53.0281 141.607 53.6021 141.663 53.9521H140.319C140.291 53.6021 140.291 53.3081 140.291 52.9021V52.6221H140.277C140.109 53.1821 139.507 54.1201 137.897 54.1201C136.161 54.1201 135.363 53.0141 135.363 51.9781C135.363 49.9341 137.939 49.8641 139.031 49.6681C139.983 49.5001 140.291 49.2341 140.291 48.6321C140.291 48.0301 139.717 47.5961 138.681 47.5961C137.799 47.5961 137.141 48.1141 136.973 48.8981H135.713ZM136.609 51.9781C136.609 52.6641 137.239 53.0981 138.121 53.0981C139.227 53.0981 140.319 52.3841 140.319 50.5921L140.305 49.5841C140.165 50.0601 139.857 50.4801 138.289 50.7601C137.239 50.9421 136.609 51.2501 136.609 51.9781ZM144.561 51.9221C144.561 52.5661 144.925 52.9161 145.485 52.9161H145.989V53.9521H145.359C143.959 53.9521 143.329 53.1261 143.329 52.0061V47.7501H142.251V46.7141H143.329V45.0201L144.561 44.4601V46.7141H145.947V47.7501H144.561V51.9221ZM146.965 51.4041V46.7141H148.225V51.2781C148.225 52.5521 148.771 53.0561 149.751 53.0561C150.815 53.0561 151.753 52.1601 151.753 50.2701V46.7141H153.013V53.9521H151.753V52.5941C151.375 53.4201 150.703 54.1201 149.583 54.1201C147.679 54.1201 146.965 52.8741 146.965 51.4041ZM158.51 48.8981C158.426 47.9601 157.642 47.6101 156.914 47.6101C156.228 47.6101 155.542 48.0021 155.542 48.6181C155.542 49.1781 156.102 49.5001 156.732 49.6541L157.684 49.8921C158.776 50.1581 159.882 50.6761 159.882 51.8801C159.882 53.4201 158.272 54.1201 157.012 54.1201C155.794 54.1201 154.198 53.5601 154.072 51.7681H155.332C155.5 52.6921 156.074 53.0561 157.054 53.0561C157.768 53.0561 158.622 52.8041 158.622 51.9641C158.622 51.3481 158.02 51.1381 157.334 50.9701L156.326 50.7181C155.248 50.4521 154.282 49.7941 154.282 48.6741C154.282 47.3161 155.682 46.5461 156.956 46.5461C158.37 46.5461 159.616 47.3021 159.756 48.8981H158.51Z" fill="#2F384B"/>
<path d="M231 48.9521C231 48.3999 231.448 47.9521 232 47.9521H249C249.552 47.9521 250 48.3999 250 48.9521V48.9521C250 49.5044 249.552 49.9521 249 49.9521H232C231.448 49.9521 231 49.5044 231 48.9521V48.9521Z" fill="#D4D4D4"/>
<path d="M231 160.952C231 160.4 231.448 159.952 232 159.952H248.913C249.465 159.952 249.913 160.4 249.913 160.952V160.952C249.913 161.504 249.465 161.952 248.913 161.952H232C231.448 161.952 231 161.504 231 160.952V160.952Z" fill="#D4D4D4"/>
<path d="M88.7083 89.9521H86.9803V78.5281H88.7083V84.0961L93.7643 78.5281H95.9243L91.4443 83.3121L96.0363 89.9521H93.9883L90.3403 84.5121L88.7083 86.2241V89.9521ZM97.5124 78.5281L100.328 83.7281H100.36C101.288 82.0161 102.168 80.3841 103.144 78.5281H105.112L101.176 85.3281V89.9521H99.4484V85.3281L95.5284 78.5281H97.5124ZM106.231 89.9521V78.5281H110.343C112.407 78.5281 113.879 79.6161 113.879 81.5681C113.879 82.8001 113.223 83.6161 112.039 84.1121V84.1281C113.335 84.3521 114.343 85.1841 114.343 86.7201C114.343 88.9281 112.759 89.9521 110.263 89.9521H106.231ZM107.959 88.5121H110.391C111.703 88.5121 112.615 87.9041 112.615 86.6721C112.615 85.4881 111.735 84.8801 110.471 84.8801H107.959V88.5121ZM107.959 83.4561H110.039C111.383 83.4561 112.167 82.8641 112.167 81.6321C112.167 80.3841 111.383 79.9681 110.071 79.9681H107.959V83.4561ZM122.943 84.0801C124.495 84.0801 125.439 83.3281 125.439 82.0161C125.439 80.7041 124.575 79.9681 123.023 79.9681H120.975V84.0801H122.943ZM119.247 89.9521V78.5281H123.183C125.567 78.5281 127.167 80.0161 127.167 82.0161C127.167 84.0321 125.423 85.5361 123.103 85.5361H120.975V89.9521H119.247ZM127.875 84.1921C128.067 82.9281 129.123 81.4561 131.283 81.4561C134.179 81.4561 134.691 83.2641 134.691 84.8001V88.1601C134.691 88.7841 134.739 89.5041 134.819 89.9521H133.107C133.075 89.6001 133.075 89.2641 133.075 88.8641V88.5121H133.059C132.819 89.1681 132.131 90.1601 130.371 90.1601C128.451 90.1601 127.475 88.9441 127.475 87.6961C127.475 85.3761 130.355 85.2481 131.571 85.0401C132.643 84.8641 133.059 84.6081 133.059 83.9201C133.059 83.2321 132.419 82.7841 131.315 82.7841C130.371 82.7841 129.667 83.3281 129.475 84.1921H127.875ZM129.107 87.6641C129.107 88.3841 129.747 88.8641 130.739 88.8641C131.923 88.8641 133.091 88.1121 133.091 86.1121V85.1041C132.915 85.6001 132.515 86.0641 130.931 86.3361C129.763 86.5601 129.107 86.8961 129.107 87.6641ZM140.833 84.1601C140.737 83.1681 139.921 82.7841 139.121 82.7841C138.369 82.7841 137.665 83.2161 137.665 83.8561C137.665 84.4641 138.241 84.8161 139.009 85.0081C139.393 85.1041 139.745 85.1841 140.113 85.2801C141.409 85.6161 142.561 86.2401 142.561 87.5841C142.561 89.2801 140.833 90.1601 139.233 90.1601C137.697 90.1601 135.969 89.4561 135.809 87.4401H137.441C137.617 88.4161 138.225 88.8321 139.265 88.8321C140.065 88.8321 140.929 88.5441 140.929 87.6801C140.929 86.9921 140.273 86.7681 139.537 86.5761C139.153 86.4801 138.753 86.3841 138.369 86.2721C137.089 85.9521 136.049 85.2001 136.049 83.9201C136.049 82.3841 137.585 81.4721 139.169 81.4721C140.865 81.4721 142.257 82.3681 142.433 84.1601H140.833ZM148.263 84.1601C148.167 83.1681 147.351 82.7841 146.551 82.7841C145.799 82.7841 145.095 83.2161 145.095 83.8561C145.095 84.4641 145.671 84.8161 146.439 85.0081C146.823 85.1041 147.175 85.1841 147.543 85.2801C148.839 85.6161 149.991 86.2401 149.991 87.5841C149.991 89.2801 148.263 90.1601 146.663 90.1601C145.127 90.1601 143.399 89.4561 143.239 87.4401H144.871C145.047 88.4161 145.655 88.8321 146.695 88.8321C147.495 88.8321 148.359 88.5441 148.359 87.6801C148.359 86.9921 147.703 86.7681 146.967 86.5761C146.583 86.4801 146.183 86.3841 145.799 86.2721C144.519 85.9521 143.479 85.2001 143.479 83.9201C143.479 82.3841 145.015 81.4721 146.599 81.4721C148.295 81.4721 149.687 82.3681 149.863 84.1601H148.263ZM158.604 87.5041C158.14 89.2161 156.732 90.1601 154.828 90.1601C152.364 90.1601 150.716 88.3841 150.716 85.7761C150.716 83.2801 152.444 81.4721 154.812 81.4721C157.676 81.4721 158.716 83.7281 158.732 85.9681V86.2721H152.3C152.428 87.8561 153.42 88.8161 154.812 88.8161C155.836 88.8161 156.7 88.4161 156.988 87.5041H158.604ZM152.316 85.0401H157.1C156.972 83.7281 156.236 82.7841 154.812 82.7841C153.404 82.7841 152.508 83.6961 152.316 85.0401ZM163.282 81.4721C164.754 81.4721 165.746 82.4481 166.034 83.2641H166.05V78.5281H167.714V89.9521H166.034V88.4161H166.018C165.714 89.2001 164.754 90.1441 163.282 90.1441C160.978 90.1441 159.474 88.3841 159.474 85.7921C159.474 83.2001 160.978 81.4721 163.282 81.4721ZM161.106 85.7921C161.106 87.5041 161.954 88.7841 163.618 88.7841C165.33 88.7841 166.13 87.3601 166.13 85.7921C166.13 84.2561 165.314 82.8321 163.618 82.8321C162.002 82.8321 161.106 84.0961 161.106 85.7921Z" fill="#22203C"/>
<path d="M87.2 203.952V192.528H91.312C93.376 192.528 94.848 193.616 94.848 195.568C94.848 196.8 94.192 197.616 93.008 198.112V198.128C94.304 198.352 95.312 199.184 95.312 200.72C95.312 202.928 93.728 203.952 91.232 203.952H87.2ZM88.928 202.512H91.36C92.672 202.512 93.584 201.904 93.584 200.672C93.584 199.488 92.704 198.88 91.44 198.88H88.928V202.512ZM88.928 197.456H91.008C92.352 197.456 93.136 196.864 93.136 195.632C93.136 194.384 92.352 193.968 91.04 193.968H88.928V197.456ZM96.7498 198.192C96.9418 196.928 97.9978 195.456 100.158 195.456C103.054 195.456 103.566 197.264 103.566 198.8V202.16C103.566 202.784 103.614 203.504 103.694 203.952H101.982C101.95 203.6 101.95 203.264 101.95 202.864V202.512H101.934C101.694 203.168 101.006 204.16 99.2458 204.16C97.3258 204.16 96.3498 202.944 96.3498 201.696C96.3498 199.376 99.2298 199.248 100.446 199.04C101.518 198.864 101.934 198.608 101.934 197.92C101.934 197.232 101.294 196.784 100.19 196.784C99.2458 196.784 98.5418 197.328 98.3498 198.192H96.7498ZM97.9818 201.664C97.9818 202.384 98.6218 202.864 99.6138 202.864C100.798 202.864 101.966 202.112 101.966 200.112V199.104C101.79 199.6 101.39 200.064 99.8058 200.336C98.6378 200.56 97.9818 200.896 97.9818 201.664ZM105.196 192.528H106.844V203.952H105.196V192.528ZM108.5 198.192C108.692 196.928 109.748 195.456 111.908 195.456C114.804 195.456 115.316 197.264 115.316 198.8V202.16C115.316 202.784 115.364 203.504 115.444 203.952H113.732C113.7 203.6 113.7 203.264 113.7 202.864V202.512H113.684C113.444 203.168 112.756 204.16 110.996 204.16C109.076 204.16 108.1 202.944 108.1 201.696C108.1 199.376 110.98 199.248 112.196 199.04C113.268 198.864 113.684 198.608 113.684 197.92C113.684 197.232 113.044 196.784 111.94 196.784C110.996 196.784 110.292 197.328 110.1 198.192H108.5ZM109.732 201.664C109.732 202.384 110.372 202.864 111.364 202.864C112.548 202.864 113.716 202.112 113.716 200.112V199.104C113.54 199.6 113.14 200.064 111.556 200.336C110.388 200.56 109.732 200.896 109.732 201.664ZM116.947 203.952V195.68H118.579V197.184C119.011 196.24 119.779 195.472 121.059 195.472C123.219 195.472 124.035 196.896 124.035 198.688V203.952H122.403V198.96C122.403 197.584 121.875 196.88 120.739 196.88C119.555 196.88 118.595 197.888 118.595 200V203.952H116.947ZM133.194 201.344C132.762 203.136 131.45 204.16 129.45 204.16C126.922 204.16 125.162 202.384 125.162 199.824C125.162 197.248 126.922 195.472 129.45 195.472C131.53 195.472 132.794 196.64 133.13 198.24H131.53C131.226 197.456 130.634 196.8 129.418 196.8C127.818 196.8 126.794 198.128 126.794 199.824C126.794 201.504 127.818 202.816 129.418 202.816C130.522 202.816 131.242 202.304 131.578 201.344H133.194ZM141.855 201.504C141.391 203.216 139.983 204.16 138.079 204.16C135.615 204.16 133.967 202.384 133.967 199.776C133.967 197.28 135.695 195.472 138.063 195.472C140.927 195.472 141.967 197.728 141.983 199.968V200.272H135.551C135.679 201.856 136.671 202.816 138.063 202.816C139.087 202.816 139.951 202.416 140.239 201.504H141.855ZM135.567 199.04H140.351C140.223 197.728 139.487 196.784 138.063 196.784C136.655 196.784 135.759 197.696 135.567 199.04Z" fill="#22203C"/>
<path d="M55.064 168.952V158.956H58.704C60.398 158.956 61.644 159.95 61.644 161.63C61.644 162.68 61.056 163.394 60.062 163.842V163.856C61.21 164.052 62.064 164.822 62.064 166.124C62.064 167.986 60.748 168.952 58.62 168.952H55.064ZM56.394 167.832H58.844C59.95 167.832 60.734 167.202 60.734 166.124C60.734 165.06 59.95 164.444 58.844 164.444H56.394V167.832ZM56.394 163.324H58.452C59.614 163.324 60.314 162.75 60.314 161.63C60.314 160.51 59.614 160.076 58.452 160.076H56.394V163.324ZM63.3237 166.404V161.714H64.5837V166.278C64.5837 167.552 65.1297 168.056 66.1097 168.056C67.1737 168.056 68.1117 167.16 68.1117 165.27V161.714H69.3717V168.952H68.1117V167.594C67.7337 168.42 67.0617 169.12 65.9417 169.12C64.0377 169.12 63.3237 167.874 63.3237 166.404ZM74.869 163.898C74.785 162.96 74.001 162.61 73.273 162.61C72.587 162.61 71.901 163.002 71.901 163.618C71.901 164.178 72.461 164.5 73.091 164.654L74.043 164.892C75.135 165.158 76.241 165.676 76.241 166.88C76.241 168.42 74.631 169.12 73.371 169.12C72.153 169.12 70.557 168.56 70.431 166.768H71.691C71.859 167.692 72.433 168.056 73.413 168.056C74.127 168.056 74.981 167.804 74.981 166.964C74.981 166.348 74.379 166.138 73.693 165.97L72.685 165.718C71.607 165.452 70.641 164.794 70.641 163.674C70.641 162.316 72.041 161.546 73.315 161.546C74.729 161.546 75.975 162.302 76.115 163.898H74.869ZM78.6702 160.356H77.3262V158.956H78.6702V160.356ZM77.2982 168.952V161.714H78.5582V168.952H77.2982ZM80.1764 168.952V161.714H81.4364V163.072C81.8144 162.246 82.4864 161.546 83.6064 161.546C85.5104 161.546 86.2244 162.792 86.2244 164.262V168.952H84.9644V164.388C84.9644 163.114 84.4184 162.61 83.4384 162.61C82.3744 162.61 81.4364 163.506 81.4364 165.396V168.952H80.1764ZM94.0177 166.796C93.6117 168.336 92.3937 169.12 90.7837 169.12C88.6417 169.12 87.2277 167.566 87.2277 165.298C87.2277 163.114 88.7117 161.546 90.7557 161.546C93.3037 161.546 94.1017 163.59 94.1297 165.452V165.676H88.4457C88.5437 167.188 89.4677 168.07 90.7557 168.07C91.7217 168.07 92.5337 167.692 92.7857 166.796H94.0177ZM88.4597 164.668H92.8557C92.7437 163.408 92.0437 162.582 90.7557 162.582C89.4537 162.582 88.6277 163.422 88.4597 164.668ZM99.2333 163.898C99.1493 162.96 98.3653 162.61 97.6373 162.61C96.9513 162.61 96.2653 163.002 96.2653 163.618C96.2653 164.178 96.8253 164.5 97.4553 164.654L98.4073 164.892C99.4993 165.158 100.605 165.676 100.605 166.88C100.605 168.42 98.9953 169.12 97.7353 169.12C96.5173 169.12 94.9213 168.56 94.7953 166.768H96.0553C96.2233 167.692 96.7973 168.056 97.7773 168.056C98.4913 168.056 99.3453 167.804 99.3453 166.964C99.3453 166.348 98.7433 166.138 98.0573 165.97L97.0493 165.718C95.9713 165.452 95.0053 164.794 95.0053 163.674C95.0053 162.316 96.4053 161.546 97.6793 161.546C99.0933 161.546 100.339 162.302 100.479 163.898H99.2333ZM105.653 163.898C105.569 162.96 104.785 162.61 104.057 162.61C103.371 162.61 102.685 163.002 102.685 163.618C102.685 164.178 103.245 164.5 103.875 164.654L104.827 164.892C105.919 165.158 107.025 165.676 107.025 166.88C107.025 168.42 105.415 169.12 104.155 169.12C102.937 169.12 101.341 168.56 101.215 166.768H102.475C102.643 167.692 103.217 168.056 104.197 168.056C104.911 168.056 105.765 167.804 105.765 166.964C105.765 166.348 105.163 166.138 104.477 165.97L103.469 165.718C102.391 165.452 101.425 164.794 101.425 163.674C101.425 162.316 102.825 161.546 104.099 161.546C105.513 161.546 106.759 162.302 106.899 163.898H105.653ZM111.661 168.952H110.289L114.013 158.956H115.679L119.403 168.952H118.031L116.939 166.026H112.767L111.661 168.952ZM113.159 164.934H116.547L114.867 160.146H114.825L113.159 164.934ZM126.527 166.74C126.121 168.252 125.071 169.12 123.321 169.12C121.067 169.12 119.611 167.524 119.611 165.34C119.611 163.156 121.067 161.546 123.321 161.546C125.169 161.546 126.163 162.568 126.471 163.884H125.211C124.945 163.226 124.455 162.582 123.279 162.582C121.809 162.582 120.871 163.786 120.871 165.34C120.871 166.88 121.809 168.07 123.279 168.07C124.329 168.07 124.931 167.594 125.253 166.74H126.527ZM134.149 166.74C133.743 168.252 132.693 169.12 130.943 169.12C128.689 169.12 127.233 167.524 127.233 165.34C127.233 163.156 128.689 161.546 130.943 161.546C132.791 161.546 133.785 162.568 134.093 163.884H132.833C132.567 163.226 132.077 162.582 130.901 162.582C129.431 162.582 128.493 163.786 128.493 165.34C128.493 166.88 129.431 168.07 130.901 168.07C131.951 168.07 132.553 167.594 132.875 166.74H134.149ZM138.482 169.12C136.284 169.12 134.856 167.468 134.856 165.34C134.856 163.212 136.284 161.546 138.482 161.546C140.68 161.546 142.108 163.212 142.108 165.34C142.108 167.468 140.68 169.12 138.482 169.12ZM136.116 165.34C136.116 166.824 137.068 168.056 138.482 168.056C139.896 168.056 140.848 166.824 140.848 165.34C140.848 163.842 139.896 162.61 138.482 162.61C137.068 162.61 136.116 163.842 136.116 165.34ZM143.116 166.404V161.714H144.376V166.278C144.376 167.552 144.922 168.056 145.902 168.056C146.966 168.056 147.904 167.16 147.904 165.27V161.714H149.164V168.952H147.904V167.594C147.526 168.42 146.854 169.12 145.734 169.12C143.83 169.12 143.116 167.874 143.116 166.404ZM150.671 168.952V161.714H151.931V163.072C152.309 162.246 152.981 161.546 154.101 161.546C156.005 161.546 156.719 162.792 156.719 164.262V168.952H155.459V164.388C155.459 163.114 154.913 162.61 153.933 162.61C152.869 162.61 151.931 163.506 151.931 165.396V168.952H150.671ZM159.697 166.922C159.697 167.566 160.061 167.916 160.621 167.916H161.125V168.952H160.495C159.095 168.952 158.465 168.126 158.465 167.006V162.75H157.387V161.714H158.465V160.02L159.697 159.46V161.714H161.083V162.75H159.697V166.922ZM174.247 165.998C173.855 167.636 172.287 169.134 169.739 169.134C166.449 169.134 164.643 166.768 164.643 163.954C164.643 161.14 166.449 158.774 169.739 158.774C172.245 158.774 173.617 160.118 174.233 161.896H172.903C172.357 160.636 171.433 159.894 169.739 159.894C167.247 159.894 165.973 161.784 165.973 163.954C165.973 166.124 167.233 168.014 169.739 168.014C171.447 168.014 172.511 167.16 172.917 165.998H174.247ZM176.829 161.714V163.17C177.193 162.106 177.893 161.686 178.985 161.686V162.89C178.929 162.89 178.705 162.904 178.523 162.932C177.683 163.058 176.829 163.436 176.829 165.536V168.952H175.569V161.714H176.829ZM186.197 166.796C185.791 168.336 184.573 169.12 182.963 169.12C180.821 169.12 179.407 167.566 179.407 165.298C179.407 163.114 180.891 161.546 182.935 161.546C185.483 161.546 186.281 163.59 186.309 165.452V165.676H180.625C180.723 167.188 181.647 168.07 182.935 168.07C183.901 168.07 184.713 167.692 184.965 166.796H186.197ZM180.639 164.668H185.035C184.923 163.408 184.223 162.582 182.935 162.582C181.633 162.582 180.807 163.422 180.639 164.668ZM187.409 163.898C187.563 162.848 188.445 161.532 190.335 161.532C192.995 161.532 193.247 163.254 193.247 164.374V167.482C193.247 168.028 193.303 168.602 193.359 168.952H192.015C191.987 168.602 191.987 168.308 191.987 167.902V167.622H191.973C191.805 168.182 191.203 169.12 189.593 169.12C187.857 169.12 187.059 168.014 187.059 166.978C187.059 164.934 189.635 164.864 190.727 164.668C191.679 164.5 191.987 164.234 191.987 163.632C191.987 163.03 191.413 162.596 190.377 162.596C189.495 162.596 188.837 163.114 188.669 163.898H187.409ZM188.305 166.978C188.305 167.664 188.935 168.098 189.817 168.098C190.923 168.098 192.015 167.384 192.015 165.592L192.001 164.584C191.861 165.06 191.553 165.48 189.985 165.76C188.935 165.942 188.305 166.25 188.305 166.978ZM196.257 166.922C196.257 167.566 196.621 167.916 197.181 167.916H197.685V168.952H197.055C195.655 168.952 195.025 168.126 195.025 167.006V162.75H193.947V161.714H195.025V160.02L196.257 159.46V161.714H197.643V162.75H196.257V166.922ZM205.031 166.796C204.625 168.336 203.407 169.12 201.797 169.12C199.655 169.12 198.241 167.566 198.241 165.298C198.241 163.114 199.725 161.546 201.769 161.546C204.317 161.546 205.115 163.59 205.143 165.452V165.676H199.459C199.557 167.188 200.481 168.07 201.769 168.07C202.735 168.07 203.547 167.692 203.799 166.796H205.031ZM199.473 164.668H203.869C203.757 163.408 203.057 162.582 201.769 162.582C200.467 162.582 199.641 163.422 199.473 164.668ZM209.113 161.546C210.429 161.546 211.339 162.428 211.605 163.184H211.619V158.956H212.879V168.952H211.619V167.51H211.605C211.339 168.252 210.429 169.12 209.113 169.12C207.069 169.12 205.809 167.552 205.809 165.312C205.809 163.072 207.069 161.546 209.113 161.546ZM207.069 165.312C207.069 166.88 207.839 168.042 209.365 168.042C210.933 168.042 211.661 166.74 211.661 165.312C211.661 163.898 210.933 162.61 209.365 162.61C207.881 162.61 207.069 163.744 207.069 165.312Z" fill="#2F384B"/>
<path d="M68.8619 83.9521C68.8619 87.2659 66.188 89.9521 62.8895 89.9521C59.591 89.9521 56.917 87.2659 56.917 83.9521C56.917 80.6384 59.591 77.9521 62.8895 77.9521C66.188 77.9521 68.8619 80.6384 68.8619 83.9521ZM62.1986 87.1291L66.6298 82.6775C66.7803 82.5263 66.7803 82.2812 66.6298 82.1301L66.0849 81.5826C65.9344 81.4314 65.6905 81.4314 65.54 81.5826L61.9262 85.2131L60.239 83.5181C60.0885 83.3669 59.8445 83.3669 59.694 83.5181L59.1491 84.0655C58.9986 84.2167 58.9986 84.4618 59.1491 84.6129L61.6537 87.1291C61.8042 87.2803 62.0481 87.2803 62.1986 87.1291Z" fill="#00877A"/>
<path d="M176.155 190.512H177.771V192.304C179.595 192.56 180.811 193.68 180.987 195.744H179.243C179.035 194.368 178.347 193.696 176.923 193.696C175.723 193.696 174.747 194.192 174.747 195.472C174.747 196.576 175.803 197.008 177.291 197.44C179.211 198 181.147 198.448 181.147 200.864C181.147 202.928 179.579 203.968 177.771 204.176V205.984H176.155V204.16C174.123 203.888 172.651 202.672 172.571 200.368H174.315C174.395 201.984 175.499 202.784 177.067 202.784C178.379 202.784 179.419 202.192 179.419 200.896C179.419 199.568 178.299 199.328 176.859 198.896C174.971 198.32 173.067 197.744 173.019 195.536C172.987 193.632 174.427 192.56 176.155 192.304V190.512ZM186.799 203.952H185.167V195.632H182.415V194.48C183.951 194.48 185.055 194.192 185.439 192.528H186.799V203.952ZM192.92 202.784C194.728 202.784 195.448 200.368 195.448 198.24C195.448 196.112 194.728 193.824 192.92 193.824C191.112 193.824 190.392 196.112 190.392 198.24C190.392 200.368 191.112 202.784 192.92 202.784ZM188.76 198.24C188.76 195.312 189.816 192.448 192.92 192.448C196.024 192.448 197.08 195.312 197.08 198.24C197.08 201.168 196.024 204.16 192.92 204.16C189.816 204.16 188.76 201.184 188.76 198.24ZM198.046 201.12V199.68L203.07 192.528H204.638V199.76H205.934V201.12H204.638V203.952H203.006V201.12H198.046ZM199.646 199.76H203.006V194.992H202.958L199.646 199.76ZM207.601 201.968H209.425L208.209 205.92H206.737L207.601 201.968ZM217.671 193.904H213.031L212.551 197.088C213.095 196.592 213.911 196.304 214.823 196.304C217.111 196.304 218.647 197.76 218.647 200.224C218.647 202.4 217.015 204.16 214.599 204.16C212.391 204.16 210.791 202.816 210.599 200.912L212.231 200.896C212.407 201.92 213.335 202.784 214.583 202.784C215.847 202.784 217.015 201.84 217.015 200.224C217.015 198.736 216.215 197.696 214.535 197.696C213.527 197.696 212.855 198.256 212.487 198.896L210.839 198.736L211.719 192.528H217.671V193.904ZM219.533 196.192C219.533 193.776 221.037 192.448 223.405 192.448C225.565 192.448 227.053 193.744 227.053 195.776C227.053 197.744 226.125 198.496 224.749 199.552C223.437 200.576 221.997 201.312 221.517 202.56H227.165V203.952H219.373C219.501 201.44 221.037 200.208 222.717 199.088C224.557 197.856 225.421 197.248 225.421 195.856C225.421 194.752 224.685 193.808 223.341 193.808C221.885 193.808 221.181 194.864 221.165 196.192H219.533ZM232.367 202.784C234.175 202.784 234.895 200.368 234.895 198.24C234.895 196.112 234.175 193.824 232.367 193.824C230.559 193.824 229.839 196.112 229.839 198.24C229.839 200.368 230.559 202.784 232.367 202.784ZM228.207 198.24C228.207 195.312 229.263 192.448 232.367 192.448C235.471 192.448 236.527 195.312 236.527 198.24C236.527 201.168 235.471 204.16 232.367 204.16C229.263 204.16 228.207 201.184 228.207 198.24ZM237.862 201.968H239.734V203.952H237.862V201.968ZM240.715 200.16C240.715 199.024 241.595 198.184 242.779 198.184C243.387 198.184 243.931 198.408 244.299 198.808C244.723 199.28 244.851 200.032 244.851 201.016C244.851 202.648 244.259 204.056 242.803 204.056C241.691 204.056 241.011 203.424 240.867 202.624H241.683C241.787 202.976 242.067 203.368 242.763 203.368C243.611 203.368 243.939 202.616 244.011 201.528C243.787 201.808 243.315 202.112 242.667 202.112C241.539 202.112 240.715 201.28 240.715 200.16ZM241.531 200.136C241.531 200.84 242.059 201.416 242.771 201.416C243.507 201.416 244.011 200.792 244.011 200.136C244.011 199.408 243.467 198.872 242.771 198.872C242.083 198.872 241.531 199.44 241.531 200.136ZM247.565 203.368C248.469 203.368 248.829 202.16 248.829 201.096C248.829 200.032 248.469 198.888 247.565 198.888C246.661 198.888 246.301 200.032 246.301 201.096C246.301 202.16 246.661 203.368 247.565 203.368ZM245.485 201.096C245.485 199.632 246.013 198.2 247.565 198.2C249.117 198.2 249.645 199.632 249.645 201.096C249.645 202.56 249.117 204.056 247.565 204.056C246.013 204.056 245.485 202.568 245.485 201.096Z" fill="#22203C"/>
<path d="M56.3437 200.524H63.3706C63.4158 200.524 63.4605 200.515 63.5022 200.497C63.5439 200.48 63.5818 200.455 63.6137 200.423C63.6456 200.391 63.6709 200.353 63.6882 200.311C63.7055 200.27 63.7143 200.225 63.7143 200.18V199.153C63.7143 199.108 63.7055 199.063 63.6882 199.021C63.6709 198.98 63.6456 198.942 63.6137 198.91C63.5818 198.878 63.5439 198.853 63.5022 198.835C63.4605 198.818 63.4158 198.809 63.3706 198.809H56.3437C56.2985 198.809 56.2538 198.818 56.2121 198.835C56.1704 198.853 56.1325 198.878 56.1006 198.91C56.0687 198.942 56.0433 198.98 56.0261 199.021C56.0088 199.063 56 199.108 56 199.153V200.18C56 200.225 56.0088 200.27 56.0261 200.311C56.0433 200.353 56.0687 200.391 56.1006 200.423C56.1325 200.455 56.1704 200.48 56.2121 200.497C56.2538 200.515 56.2985 200.524 56.3437 200.524ZM56.3437 193.666H63.3706C63.4158 193.666 63.4605 193.658 63.5022 193.64C63.5439 193.623 63.5818 193.598 63.6137 193.566C63.6456 193.534 63.6709 193.496 63.6882 193.454C63.7055 193.413 63.7143 193.368 63.7143 193.323V192.296C63.7143 192.251 63.7055 192.206 63.6882 192.164C63.6709 192.123 63.6456 192.085 63.6137 192.053C63.5818 192.021 63.5439 191.995 63.5022 191.978C63.4605 191.961 63.4158 191.952 63.3706 191.952H56.3437C56.2985 191.952 56.2538 191.961 56.2121 191.978C56.1704 191.995 56.1325 192.021 56.1006 192.053C56.0687 192.085 56.0433 192.123 56.0261 192.164C56.0088 192.206 56 192.251 56 192.296V193.323C56 193.368 56.0088 193.413 56.0261 193.454C56.0433 193.496 56.0687 193.534 56.1006 193.566C56.1325 193.598 56.1704 193.623 56.2121 193.64C56.2538 193.658 56.2985 193.666 56.3437 193.666ZM67.5714 195.381H56.4286C56.3149 195.381 56.2059 195.426 56.1255 195.506C56.0452 195.587 56 195.696 56 195.809V196.666C56 196.78 56.0452 196.889 56.1255 196.969C56.2059 197.05 56.3149 197.095 56.4286 197.095H67.5714C67.6851 197.095 67.7941 197.05 67.8745 196.969C67.9548 196.889 68 196.78 68 196.666V195.809C68 195.696 67.9548 195.587 67.8745 195.506C67.7941 195.426 67.6851 195.381 67.5714 195.381ZM67.5714 202.238H56.4286C56.3149 202.238 56.2059 202.283 56.1255 202.363C56.0452 202.444 56 202.553 56 202.666V203.524C56 203.637 56.0452 203.746 56.1255 203.827C56.2059 203.907 56.3149 203.952 56.4286 203.952H67.5714C67.6851 203.952 67.7941 203.907 67.8745 203.827C67.9548 203.746 68 203.637 68 203.524V202.666C68 202.553 67.9548 202.444 67.8745 202.363C67.7941 202.283 67.6851 202.238 67.5714 202.238Z" fill="#00877A"/>
<rect x="0.5" y="-0.5" width="224" height="81" rx="4.5" transform="matrix(1 0 0 -1 38 110.952)" stroke="url(#paint2_linear_710_2193)"/>
<rect x="0.5" y="-0.5" width="224" height="81" rx="4.5" transform="matrix(1 0 0 -1 38 223.952)" stroke="url(#paint3_linear_710_2193)"/>
<defs>
<linearGradient id="paint0_linear_710_2193" x1="159.419" y1="243.452" x2="299.307" y2="249.142" gradientUnits="userSpaceOnUse">
<stop stop-color="white"/>
<stop offset="1" stop-color="#D9583B" stop-opacity="0"/>
</linearGradient>
<linearGradient id="paint1_linear_710_2193" x1="148.626" y1="22.4521" x2="25.9136" y2="1.96474" gradientUnits="userSpaceOnUse">
<stop stop-color="#00877A"/>
<stop offset="1" stop-color="white" stop-opacity="0"/>
</linearGradient>
<linearGradient id="paint2_linear_710_2193" x1="112.5" y1="0" x2="112.5" y2="82" gradientUnits="userSpaceOnUse">
<stop stop-color="white"/>
<stop offset="1" stop-color="#00877A"/>
</linearGradient>
<linearGradient id="paint3_linear_710_2193" x1="112.5" y1="0" x2="112.5" y2="82" gradientUnits="userSpaceOnUse">
<stop stop-color="white"/>
<stop offset="1" stop-color="#D9583B"/>
</linearGradient>
</defs>
</svg>
