<svg width="218" height="298" viewBox="0 0 218 298" fill="none" xmlns="http://www.w3.org/2000/svg">
<path d="M0 163.952C0 161.191 2.23858 158.952 5 158.952H213C215.761 158.952 218 161.191 218 163.952V190.952C218 193.714 215.761 195.952 213 195.952H5.00001C2.23858 195.952 0 193.714 0 190.952V163.952Z" fill="#00877A"/>
<path d="M0 210.952C0 208.191 2.23858 205.952 5 205.952H213C215.761 205.952 218 208.191 218 210.952V237.952C218 240.714 215.761 242.952 213 242.952H5.00001C2.23858 242.952 0 240.714 0 237.952V210.952Z" fill="#00877A"/>
<path d="M0 257.952C0 255.191 2.23858 252.952 5 252.952H213C215.761 252.952 218 255.191 218 257.952V297.952H0V257.952Z" fill="url(#paint0_linear_710_2149)"/>
<path d="M0 0.952148H218V139.952C218 142.714 215.761 144.952 213 144.952H5.00001C2.23858 144.952 0 142.714 0 139.952V0.952148Z" fill="url(#paint1_linear_710_2149)"/>
<path d="M21.856 130.952H20.288L24.544 119.528H26.448L30.704 130.952H29.136L27.888 127.608H23.12L21.856 130.952ZM23.568 126.36H27.44L25.52 120.888H25.472L23.568 126.36ZM38.846 128.424C38.382 130.152 37.182 131.144 35.182 131.144C32.606 131.144 30.942 129.32 30.942 126.824C30.942 124.328 32.606 122.488 35.182 122.488C37.294 122.488 38.43 123.656 38.782 125.16H37.342C37.038 124.408 36.478 123.672 35.134 123.672C33.454 123.672 32.382 125.048 32.382 126.824C32.382 128.584 33.454 129.944 35.134 129.944C36.334 129.944 37.022 129.4 37.39 128.424H38.846ZM47.5573 128.424C47.0933 130.152 45.8933 131.144 43.8933 131.144C41.3173 131.144 39.6533 129.32 39.6533 126.824C39.6533 124.328 41.3173 122.488 43.8933 122.488C46.0053 122.488 47.1413 123.656 47.4933 125.16H46.0533C45.7493 124.408 45.1893 123.672 43.8453 123.672C42.1653 123.672 41.0933 125.048 41.0933 126.824C41.0933 128.584 42.1653 129.944 43.8453 129.944C45.0453 129.944 45.7333 129.4 46.1013 128.424H47.5573ZM52.5085 131.144C49.9965 131.144 48.3645 129.256 48.3645 126.824C48.3645 124.392 49.9965 122.488 52.5085 122.488C55.0205 122.488 56.6525 124.392 56.6525 126.824C56.6525 129.256 55.0205 131.144 52.5085 131.144ZM49.8045 126.824C49.8045 128.52 50.8925 129.928 52.5085 129.928C54.1245 129.928 55.2125 128.52 55.2125 126.824C55.2125 125.112 54.1245 123.704 52.5085 123.704C50.8925 123.704 49.8045 125.112 49.8045 126.824ZM57.805 128.04V122.68H59.245V127.896C59.245 129.352 59.869 129.928 60.989 129.928C62.205 129.928 63.277 128.904 63.277 126.744V122.68H64.717V130.952H63.277V129.4C62.845 130.344 62.077 131.144 60.797 131.144C58.621 131.144 57.805 129.72 57.805 128.04ZM66.4396 130.952V122.68H67.8796V124.232C68.3116 123.288 69.0796 122.488 70.3596 122.488C72.5356 122.488 73.3516 123.912 73.3516 125.592V130.952H71.9116V125.736C71.9116 124.28 71.2876 123.704 70.1676 123.704C68.9516 123.704 67.8796 124.728 67.8796 126.888V130.952H66.4396ZM76.7543 128.632C76.7543 129.368 77.1703 129.768 77.8103 129.768H78.3863V130.952H77.6663C76.0663 130.952 75.3463 130.008 75.3463 128.728V123.864H74.1143V122.68H75.3463V120.744L76.7543 120.104V122.68H78.3383V123.864H76.7543V128.632ZM83.0154 130.952V119.528H90.0554V120.808H84.5354V124.504H89.5914V125.784H84.5354V130.952H83.0154ZM91.2675 128.04V122.68H92.7075V127.896C92.7075 129.352 93.3315 129.928 94.4515 129.928C95.6675 129.928 96.7395 128.904 96.7395 126.744V122.68H98.1795V130.952H96.7395V129.4C96.3075 130.344 95.5395 131.144 94.2595 131.144C92.0835 131.144 91.2675 129.72 91.2675 128.04ZM99.9021 130.952V122.68H101.342V124.232C101.774 123.288 102.542 122.488 103.822 122.488C105.998 122.488 106.814 123.912 106.814 125.592V130.952H105.374V125.736C105.374 124.28 104.75 123.704 103.63 123.704C102.414 123.704 101.342 124.728 101.342 126.888V130.952H99.9021ZM111.737 122.488C113.241 122.488 114.281 123.496 114.585 124.36H114.601V119.528H116.041V130.952H114.601V129.304H114.585C114.281 130.152 113.241 131.144 111.737 131.144C109.401 131.144 107.961 129.352 107.961 126.792C107.961 124.232 109.401 122.488 111.737 122.488ZM109.401 126.792C109.401 128.584 110.281 129.912 112.025 129.912C113.817 129.912 114.649 128.424 114.649 126.792C114.649 125.176 113.817 123.704 112.025 123.704C110.329 123.704 109.401 125 109.401 126.792ZM119.33 121.128H117.794V119.528H119.33V121.128ZM117.762 130.952V122.68H119.202V130.952H117.762ZM121.051 130.952V122.68H122.491V124.232C122.923 123.288 123.691 122.488 124.971 122.488C127.147 122.488 127.963 123.912 127.963 125.592V130.952H126.523V125.736C126.523 124.28 125.899 123.704 124.779 123.704C123.563 123.704 122.491 124.728 122.491 126.888V130.952H121.051ZM135.75 122.68H137.19V130.312C137.19 132.76 135.398 134.12 133.35 134.12C131.302 134.12 129.702 133.096 129.526 131.304H130.966C131.126 132.488 132.038 132.904 133.35 132.904C134.662 132.904 135.75 132.184 135.75 130.312V129.32H135.734C135.382 130.344 134.566 131.144 132.95 131.144C130.582 131.144 129.11 129.272 129.11 126.792C129.11 124.328 130.582 122.488 132.95 122.488C134.566 122.488 135.43 123.4 135.734 124.216H135.75V122.68ZM130.55 126.792C130.55 128.424 131.366 129.912 133.174 129.912C135.206 129.912 135.798 128.104 135.798 126.792C135.798 125.496 134.95 123.704 133.174 123.704C131.414 123.704 130.55 125.176 130.55 126.792ZM142.362 119.528H143.882V130.952H142.362V119.528ZM145.803 130.952V122.68H147.243V124.232C147.675 123.288 148.443 122.488 149.723 122.488C151.899 122.488 152.715 123.912 152.715 125.592V130.952H151.275V125.736C151.275 124.28 150.651 123.704 149.531 123.704C148.315 123.704 147.243 124.728 147.243 126.888V130.952H145.803ZM155.941 121.128H154.405V119.528H155.941V121.128ZM154.373 130.952V122.68H155.813V130.952H154.373ZM159.407 128.632C159.407 129.368 159.823 129.768 160.463 129.768H161.039V130.952H160.319C158.719 130.952 157.999 130.008 157.999 128.728V123.864H156.767V122.68H157.999V120.744L159.407 120.104V122.68H160.991V123.864H159.407V128.632ZM163.786 121.128H162.25V119.528H163.786V121.128ZM162.218 130.952V122.68H163.658V130.952H162.218ZM165.319 125.176C165.495 123.976 166.503 122.472 168.663 122.472C171.703 122.472 171.991 124.44 171.991 125.72V129.272C171.991 129.896 172.055 130.552 172.119 130.952H170.583C170.551 130.552 170.551 130.216 170.551 129.752V129.432H170.535C170.343 130.072 169.655 131.144 167.815 131.144C165.831 131.144 164.919 129.88 164.919 128.696C164.919 126.36 167.863 126.28 169.111 126.056C170.199 125.864 170.551 125.56 170.551 124.872C170.551 124.184 169.895 123.688 168.711 123.688C167.703 123.688 166.951 124.28 166.759 125.176H165.319ZM166.343 128.696C166.343 129.48 167.063 129.976 168.071 129.976C169.335 129.976 170.583 129.16 170.583 127.112L170.567 125.96C170.407 126.504 170.055 126.984 168.263 127.304C167.063 127.512 166.343 127.864 166.343 128.696ZM175.431 128.632C175.431 129.368 175.847 129.768 176.487 129.768H177.063V130.952H176.343C174.743 130.952 174.023 130.008 174.023 128.728V123.864H172.791V122.68H174.023V120.744L175.431 120.104V122.68H177.015V123.864H175.431V128.632ZM185.459 128.488C184.995 130.248 183.603 131.144 181.763 131.144C179.315 131.144 177.699 129.368 177.699 126.776C177.699 124.28 179.395 122.488 181.731 122.488C184.643 122.488 185.555 124.824 185.587 126.952V127.208H179.091C179.203 128.936 180.259 129.944 181.731 129.944C182.835 129.944 183.763 129.512 184.051 128.488H185.459ZM179.107 126.056H184.131C184.003 124.616 183.203 123.672 181.731 123.672C180.243 123.672 179.299 124.632 179.107 126.056ZM190.124 122.488C191.628 122.488 192.668 123.496 192.972 124.36H192.988V119.528H194.428V130.952H192.988V129.304H192.972C192.668 130.152 191.628 131.144 190.124 131.144C187.788 131.144 186.348 129.352 186.348 126.792C186.348 124.232 187.788 122.488 190.124 122.488ZM187.788 126.792C187.788 128.584 188.668 129.912 190.412 129.912C192.204 129.912 193.036 128.424 193.036 126.792C193.036 125.176 192.204 123.704 190.412 123.704C188.716 123.704 187.788 125 187.788 126.792Z" fill="#2F384B"/>
<path d="M39.69 38.2921H46.13V45.9921C54.25 47.0421 59.43 52.0121 60.13 60.8321H53.41C52.5 54.5321 49.35 51.3821 42.77 51.3821C37.24 51.3821 32.62 53.6921 32.62 59.7821C32.62 64.8921 37.52 66.8521 44.1 68.7421C52.43 71.1221 60.97 72.9421 60.97 83.5121C60.97 92.6821 54.04 97.1621 46.13 98.0021V105.772H39.69V97.9321C30.66 96.8121 24.22 91.5621 24.08 81.4821H30.73C31.01 88.9721 36.12 92.5421 43.4 92.5421C49.28 92.5421 54.32 89.8121 54.32 83.7221C54.32 77.5621 49.14 76.5121 42.84 74.6221C34.58 72.1721 26.18 69.7221 25.97 60.2721C25.76 51.7321 31.99 46.9721 39.69 45.9921V38.2921ZM68.6831 59.9921C68.9631 52.0821 74.4231 46.6921 83.5931 46.6921C92.3431 46.6921 97.7331 51.7321 97.7331 59.0821C97.7331 64.4721 95.9131 67.6221 91.9231 70.0021C97.1031 72.1021 100.253 75.6721 100.253 82.6021C100.253 91.5621 93.8131 97.7921 83.3831 97.7921C73.3731 97.7921 67.4931 92.4721 66.4431 83.3021V82.6021H73.0931V83.0921C73.6531 89.3221 77.5031 92.4721 83.5231 92.4721C90.3831 92.4721 93.9531 87.9221 93.9531 82.3921C93.9531 75.6021 88.0731 73.3621 81.9131 73.3621H80.3731V67.2721C81.4231 67.2721 82.3331 67.2021 83.2431 67.1321C88.2831 66.7121 91.4331 64.5421 91.4331 59.8521C91.4331 54.9521 88.4231 52.1521 83.3831 52.1521C78.1331 52.1521 75.6131 55.1621 75.0531 59.0121L74.9131 59.9921H68.6831ZM122.39 92.4721C130.58 92.4721 133.87 81.3421 133.87 71.9621C133.87 62.6521 130.58 52.0121 122.39 52.0121C114.2 52.0121 110.91 62.6521 110.91 71.9621C110.91 81.3421 114.2 92.4721 122.39 92.4721ZM104.61 71.9621C104.61 59.2221 109.23 46.6921 122.39 46.6921C135.55 46.6921 140.17 59.2221 140.17 71.9621C140.17 84.7021 135.55 97.7921 122.39 97.7921C109.23 97.7921 104.61 84.7721 104.61 71.9621ZM153.799 96.9521H147.149V46.9721H153.799V72.1721L176.899 46.9721H185.369L165.629 67.9021L185.929 96.9521H177.949L161.289 72.4521L153.799 80.2921V96.9521Z" fill="#2F384B"/>
<path d="M69.1441 217.528H70.6641V228.952H69.1441V217.528ZM72.5852 228.952V220.68H74.0252V222.232C74.4572 221.288 75.2252 220.488 76.5052 220.488C78.6812 220.488 79.4972 221.912 79.4972 223.592V228.952H78.0572V223.736C78.0572 222.28 77.4332 221.704 76.3132 221.704C75.0972 221.704 74.0252 222.728 74.0252 224.888V228.952H72.5852ZM85.7159 223.176C85.6199 222.104 84.7239 221.704 83.8919 221.704C83.1079 221.704 82.3239 222.152 82.3239 222.856C82.3239 223.496 82.9639 223.864 83.6839 224.04L84.7719 224.312C86.0199 224.616 87.2839 225.208 87.2839 226.584C87.2839 228.344 85.4439 229.144 84.0039 229.144C82.6119 229.144 80.7879 228.504 80.6439 226.456H82.0839C82.2759 227.512 82.9319 227.928 84.0519 227.928C84.8679 227.928 85.8439 227.64 85.8439 226.68C85.8439 225.976 85.1559 225.736 84.3719 225.544L83.2199 225.256C81.9879 224.952 80.8839 224.2 80.8839 222.92C80.8839 221.368 82.4839 220.488 83.9399 220.488C85.5559 220.488 86.9799 221.352 87.1399 223.176H85.7159ZM90.2361 226.632C90.2361 227.368 90.6521 227.768 91.2921 227.768H91.8681V228.952H91.1481C89.5481 228.952 88.8281 228.008 88.8281 226.728V221.864H87.5961V220.68H88.8281V218.744L90.2361 218.104V220.68H91.8201V221.864H90.2361V226.632ZM93.0311 223.176C93.2071 221.976 94.2151 220.472 96.3751 220.472C99.4151 220.472 99.7031 222.44 99.7031 223.72V227.272C99.7031 227.896 99.7671 228.552 99.8311 228.952H98.2951C98.2631 228.552 98.2631 228.216 98.2631 227.752V227.432H98.2471C98.0551 228.072 97.3671 229.144 95.5271 229.144C93.5431 229.144 92.6311 227.88 92.6311 226.696C92.6311 224.36 95.5751 224.28 96.8231 224.056C97.9111 223.864 98.2631 223.56 98.2631 222.872C98.2631 222.184 97.6071 221.688 96.4231 221.688C95.4151 221.688 94.6631 222.28 94.4711 223.176H93.0311ZM94.0551 226.696C94.0551 227.48 94.7751 227.976 95.7831 227.976C97.0471 227.976 98.2951 227.16 98.2951 225.112L98.2791 223.96C98.1191 224.504 97.7671 224.984 95.9751 225.304C94.7751 225.512 94.0551 225.864 94.0551 226.696ZM101.399 228.952V220.68H102.839V222.232C103.271 221.288 104.039 220.488 105.319 220.488C107.495 220.488 108.311 221.912 108.311 223.592V228.952H106.871V223.736C106.871 222.28 106.247 221.704 105.127 221.704C103.911 221.704 102.839 222.728 102.839 224.888V228.952H101.399ZM111.714 226.632C111.714 227.368 112.13 227.768 112.77 227.768H113.346V228.952H112.626C111.026 228.952 110.306 228.008 110.306 226.728V221.864H109.074V220.68H110.306V218.744L111.714 218.104V220.68H113.298V221.864H111.714V226.632ZM118.615 228.952H117.047L121.303 217.528H123.207L127.463 228.952H125.895L124.647 225.608H119.879L118.615 228.952ZM120.327 224.36H124.199L122.279 218.888H122.231L120.327 224.36ZM138.617 225.576C138.169 227.448 136.377 229.16 133.465 229.16C129.705 229.16 127.641 226.456 127.641 223.24C127.641 220.024 129.705 217.32 133.465 217.32C136.329 217.32 137.897 218.856 138.601 220.888H137.081C136.457 219.448 135.401 218.6 133.465 218.6C130.617 218.6 129.161 220.76 129.161 223.24C129.161 225.72 130.601 227.88 133.465 227.88C135.417 227.88 136.633 226.904 137.097 225.576H138.617ZM147.343 217.528H148.863V228.952H147.343V223.864H141.839V228.952H140.319V217.528H141.839V222.584H147.343V217.528Z" fill="white"/>
<path d="M93.2034 182.576L99.5554 173.872H93.5554V172.528H101.331V173.904L95.0114 182.608H101.523V183.952H93.2034V182.576ZM109.826 181.488C109.362 183.248 107.97 184.144 106.13 184.144C103.682 184.144 102.066 182.368 102.066 179.776C102.066 177.28 103.762 175.488 106.098 175.488C109.01 175.488 109.922 177.824 109.954 179.952V180.208H103.458C103.57 181.936 104.626 182.944 106.098 182.944C107.202 182.944 108.13 182.512 108.418 181.488H109.826ZM103.474 179.056H108.498C108.37 177.616 107.57 176.672 106.098 176.672C104.61 176.672 103.666 177.632 103.474 179.056ZM111.227 172.528H112.667V183.952H111.227V172.528ZM114.392 172.528H115.832V183.952H114.392V172.528ZM124.804 181.488C124.34 183.248 122.948 184.144 121.108 184.144C118.66 184.144 117.044 182.368 117.044 179.776C117.044 177.28 118.74 175.488 121.076 175.488C123.988 175.488 124.9 177.824 124.932 179.952V180.208H118.436C118.548 181.936 119.604 182.944 121.076 182.944C122.18 182.944 123.108 182.512 123.396 181.488H124.804ZM118.452 179.056H123.476C123.348 177.616 122.548 176.672 121.076 176.672C119.588 176.672 118.644 177.632 118.452 179.056Z" fill="white"/>
<path d="M93.3978 266.528H94.9978L96.9978 275.072L97.2858 276.336H97.3018L97.5898 275.072L99.5258 266.528H101.606L103.478 275.072L103.766 276.352H103.782L104.086 275.072L106.166 266.528H107.766L105.526 275.072L104.774 277.952H102.726L100.582 268.048H100.566L98.9498 275.072L98.2938 277.952H96.2618L95.5418 275.072L93.3978 266.528ZM110.197 268.128H108.661V266.528H110.197V268.128ZM108.629 277.952V269.68H110.069V277.952H108.629ZM113.359 269.68V271.344C113.775 270.128 114.575 269.648 115.823 269.648V271.024C115.759 271.024 115.503 271.04 115.295 271.072C114.335 271.216 113.359 271.648 113.359 274.048V277.952H111.919V269.68H113.359ZM124.065 275.488C123.601 277.248 122.209 278.144 120.369 278.144C117.921 278.144 116.305 276.368 116.305 273.776C116.305 271.28 118.001 269.488 120.337 269.488C123.249 269.488 124.161 271.824 124.193 273.952V274.208H117.697C117.809 275.936 118.865 276.944 120.337 276.944C121.441 276.944 122.369 276.512 122.657 275.488H124.065ZM117.713 273.056H122.737C122.609 271.616 121.809 270.672 120.337 270.672C118.849 270.672 117.905 271.632 117.713 273.056Z" fill="white" fill-opacity="0.5"/>
<defs>
<linearGradient id="paint0_linear_710_2149" x1="109.5" y1="254.42" x2="109.5" y2="290.126" gradientUnits="userSpaceOnUse">
<stop stop-color="#00877A"/>
<stop offset="1" stop-color="#1F1B25" stop-opacity="0"/>
</linearGradient>
<linearGradient id="paint1_linear_710_2149" x1="109" y1="0.952148" x2="109" y2="144.952" gradientUnits="userSpaceOnUse">
<stop stop-color="white" stop-opacity="0"/>
<stop offset="0.145" stop-color="white"/>
<stop offset="1" stop-color="white"/>
</linearGradient>
</defs>
</svg>
