<svg width="372" height="105" viewBox="0 0 372 105" fill="none" xmlns="http://www.w3.org/2000/svg">
<rect x="96" y="4" width="192" height="64" rx="4" fill="white"/>
<path d="M125.6 19.632C126.848 19.632 127.556 19.02 127.556 18.012C127.556 17.004 126.92 16.392 125.672 16.392H124.052V19.632H125.6ZM122.912 24V15.432H125.792C127.496 15.432 128.696 16.524 128.696 18.012C128.696 19.5 127.424 20.592 125.72 20.592H124.052V24H122.912ZM129.243 19.668C129.375 18.768 130.131 17.64 131.751 17.64C134.031 17.64 134.247 19.116 134.247 20.076V22.74C134.247 23.208 134.295 23.7 134.343 24H133.191C133.167 23.7 133.167 23.448 133.167 23.1V22.86H133.155C133.011 23.34 132.495 24.144 131.115 24.144C129.627 24.144 128.943 23.196 128.943 22.308C128.943 20.556 131.151 20.496 132.087 20.328C132.903 20.184 133.167 19.956 133.167 19.44C133.167 18.924 132.675 18.552 131.787 18.552C131.031 18.552 130.467 18.996 130.323 19.668H129.243ZM130.011 22.308C130.011 22.896 130.551 23.268 131.307 23.268C132.255 23.268 133.191 22.656 133.191 21.12L133.179 20.256C133.059 20.664 132.795 21.024 131.451 21.264C130.551 21.42 130.011 21.684 130.011 22.308ZM135.811 17.796L137.779 22.932H137.791L139.555 17.796H140.707L137.899 25.2C137.623 25.944 137.167 26.4 136.327 26.4H135.487V25.488H136.171C136.771 25.488 136.867 25.152 137.047 24.708L137.263 24.168C136.399 22.044 135.523 19.92 134.659 17.796H135.811ZM141.325 24V17.796H142.405V18.852C142.525 18.288 143.137 17.652 143.977 17.652C144.985 17.652 145.561 18.036 145.849 18.888C146.233 18.048 146.797 17.652 147.625 17.652C149.137 17.652 149.725 18.72 149.725 19.98V24H148.645V20.088C148.645 18.996 148.201 18.564 147.481 18.564C146.689 18.564 146.053 19.332 146.053 20.952V24H144.973V20.088C144.973 18.996 144.673 18.564 143.833 18.564C142.729 18.564 142.405 19.656 142.405 20.952V24H141.325ZM156.412 22.152C156.064 23.472 155.02 24.144 153.64 24.144C151.804 24.144 150.592 22.812 150.592 20.868C150.592 18.996 151.864 17.652 153.616 17.652C155.8 17.652 156.484 19.404 156.508 21V21.192H151.636C151.72 22.488 152.512 23.244 153.616 23.244C154.444 23.244 155.14 22.92 155.356 22.152H156.412ZM151.648 20.328H155.416C155.32 19.248 154.72 18.54 153.616 18.54C152.5 18.54 151.792 19.26 151.648 20.328ZM157.463 24V17.796H158.543V18.96C158.867 18.252 159.443 17.652 160.403 17.652C162.035 17.652 162.647 18.72 162.647 19.98V24H161.567V20.088C161.567 18.996 161.099 18.564 160.259 18.564C159.347 18.564 158.543 19.332 158.543 20.952V24H157.463ZM165.199 22.26C165.199 22.812 165.511 23.112 165.991 23.112H166.423V24H165.883C164.683 24 164.143 23.292 164.143 22.332V18.684H163.219V17.796H164.143V16.344L165.199 15.864V17.796H166.387V18.684H165.199V22.26ZM169.894 24V15.432H172.966C174.922 15.432 175.87 16.524 175.87 17.868C175.87 19.092 175.042 19.872 174.082 20.1C174.91 20.316 175.162 20.964 175.486 22.044C175.726 22.836 175.906 23.316 176.23 23.88V24H175.018C174.73 23.412 174.514 22.62 174.262 21.948C173.962 21.144 173.614 20.496 172.582 20.496H171.034V24H169.894ZM171.034 19.536H172.918C174.13 19.536 174.718 18.876 174.718 17.868C174.718 17.1 174.298 16.392 172.846 16.392H171.034V19.536ZM182.364 22.152C182.016 23.472 180.972 24.144 179.592 24.144C177.756 24.144 176.544 22.812 176.544 20.868C176.544 18.996 177.816 17.652 179.568 17.652C181.752 17.652 182.436 19.404 182.46 21V21.192H177.588C177.672 22.488 178.464 23.244 179.568 23.244C180.396 23.244 181.092 22.92 181.308 22.152H182.364ZM177.6 20.328H181.368C181.272 19.248 180.672 18.54 179.568 18.54C178.452 18.54 177.744 19.26 177.6 20.328ZM188.959 22.104C188.611 23.4 187.711 24.144 186.211 24.144C184.279 24.144 183.031 22.776 183.031 20.904C183.031 19.032 184.279 17.652 186.211 17.652C187.795 17.652 188.647 18.528 188.911 19.656H187.831C187.603 19.092 187.183 18.54 186.175 18.54C184.915 18.54 184.111 19.572 184.111 20.904C184.111 22.224 184.915 23.244 186.175 23.244C187.075 23.244 187.591 22.836 187.867 22.104H188.959ZM195.384 22.152C195.036 23.472 193.992 24.144 192.612 24.144C190.776 24.144 189.564 22.812 189.564 20.868C189.564 18.996 190.836 17.652 192.588 17.652C194.772 17.652 195.456 19.404 195.48 21V21.192H190.608C190.692 22.488 191.484 23.244 192.588 23.244C193.416 23.244 194.112 22.92 194.328 22.152H195.384ZM190.62 20.328H194.388C194.292 19.248 193.692 18.54 192.588 18.54C191.472 18.54 190.764 19.26 190.62 20.328ZM197.611 16.632H196.459V15.432H197.611V16.632ZM196.435 24V17.796H197.515V24H196.435ZM199.406 17.796C199.994 19.5 200.57 21.204 201.158 22.908H201.17L202.898 17.796H204.074C203.294 19.86 202.526 21.936 201.746 24H200.558C199.778 21.936 199.01 19.86 198.23 17.796H199.406ZM209.992 22.152C209.644 23.472 208.6 24.144 207.22 24.144C205.384 24.144 204.172 22.812 204.172 20.868C204.172 18.996 205.444 17.652 207.196 17.652C209.38 17.652 210.064 19.404 210.088 21V21.192H205.216C205.3 22.488 206.092 23.244 207.196 23.244C208.024 23.244 208.72 22.92 208.936 22.152H209.992ZM205.228 20.328H208.996C208.9 19.248 208.3 18.54 207.196 18.54C206.08 18.54 205.372 19.26 205.228 20.328ZM213.491 17.652C214.619 17.652 215.399 18.408 215.627 19.056H215.639V15.432H216.719V24H215.639V22.764H215.627C215.399 23.4 214.619 24.144 213.491 24.144C211.739 24.144 210.659 22.8 210.659 20.88C210.659 18.96 211.739 17.652 213.491 17.652ZM211.739 20.88C211.739 22.224 212.399 23.22 213.707 23.22C215.051 23.22 215.675 22.104 215.675 20.88C215.675 19.668 215.051 18.564 213.707 18.564C212.435 18.564 211.739 19.536 211.739 20.88Z" fill="#7F8082"/>
<path d="M138.01 30.86H140.77V34.16C144.25 34.61 146.47 36.74 146.77 40.52H143.89C143.5 37.82 142.15 36.47 139.33 36.47C136.96 36.47 134.98 37.46 134.98 40.07C134.98 42.26 137.08 43.1 139.9 43.91C143.47 44.93 147.13 45.71 147.13 50.24C147.13 54.17 144.16 56.09 140.77 56.45V59.78H138.01V56.42C134.14 55.94 131.38 53.69 131.32 49.37H134.17C134.29 52.58 136.48 54.11 139.6 54.11C142.12 54.11 144.28 52.94 144.28 50.33C144.28 47.69 142.06 47.24 139.36 46.43C135.82 45.38 132.22 44.33 132.13 40.28C132.04 36.62 134.71 34.58 138.01 34.16V30.86ZM157.523 56H154.823V40.13H149.723V38.09C152.633 38.09 154.673 37.64 155.303 34.58H157.523V56ZM162.433 40.16C162.553 36.77 164.893 34.46 168.823 34.46C172.573 34.46 174.883 36.62 174.883 39.77C174.883 42.08 174.103 43.43 172.393 44.45C174.613 45.35 175.963 46.88 175.963 49.85C175.963 53.69 173.203 56.36 168.733 56.36C164.443 56.36 161.923 54.08 161.473 50.15V49.85H164.323V50.06C164.563 52.73 166.213 54.08 168.793 54.08C171.733 54.08 173.263 52.13 173.263 49.76C173.263 46.85 170.743 45.89 168.103 45.89H167.443V43.28C167.893 43.28 168.283 43.25 168.673 43.22C170.833 43.04 172.183 42.11 172.183 40.1C172.183 38 170.893 36.8 168.733 36.8C166.483 36.8 165.403 38.09 165.163 39.74L165.103 40.16H162.433ZM179.23 52.4H182.23L180.07 59.63H177.67L179.23 52.4ZM184.082 50.6V48.38L193.622 34.58H196.082V48.32H198.452V50.6H196.082V56H193.382V50.6H184.082ZM186.872 48.32H193.382V38.99H193.292L186.872 48.32ZM208.245 54.08C211.755 54.08 213.165 49.31 213.165 45.29C213.165 41.3 211.755 36.74 208.245 36.74C204.735 36.74 203.325 41.3 203.325 45.29C203.325 49.31 204.735 54.08 208.245 54.08ZM200.625 45.29C200.625 39.83 202.605 34.46 208.245 34.46C213.885 34.46 215.865 39.83 215.865 45.29C215.865 50.75 213.885 56.36 208.245 56.36C202.605 56.36 200.625 50.78 200.625 45.29ZM225.516 54.08C229.026 54.08 230.436 49.31 230.436 45.29C230.436 41.3 229.026 36.74 225.516 36.74C222.006 36.74 220.596 41.3 220.596 45.29C220.596 49.31 222.006 54.08 225.516 54.08ZM217.896 45.29C217.896 39.83 219.876 34.46 225.516 34.46C231.156 34.46 233.136 39.83 233.136 45.29C233.136 50.75 231.156 56.36 225.516 56.36C219.876 56.36 217.896 50.78 217.896 45.29Z" fill="#7F8082"/>
<path d="M0 37H92" stroke="url(#paint0_linear_710_2120)"/>
<path d="M117 20C117 22.7614 114.761 25 112 25C109.239 25 107 22.7614 107 20C107 17.2386 109.239 15 112 15C114.761 15 117 17.2386 117 20ZM111.422 22.6475L115.131 18.9378C115.257 18.8118 115.257 18.6076 115.131 18.4816L114.675 18.0254C114.549 17.8994 114.345 17.8994 114.219 18.0254L111.194 21.0508L109.781 19.6383C109.655 19.5123 109.451 19.5123 109.325 19.6383L108.869 20.0945C108.743 20.2204 108.743 20.4247 108.869 20.5507L110.965 22.6474C111.091 22.7734 111.296 22.7734 111.422 22.6475Z" fill="#00877A"/>
<path d="M291.611 36.4729L338.217 36.4727C341.478 36.4727 344.412 38.4511 345.634 41.4735L371.111 104.473" stroke="url(#paint1_linear_710_2120)"/>
<rect x="92.5" y="0.5" width="199" height="71" rx="4.5" stroke="url(#paint2_linear_710_2120)"/>
<defs>
<linearGradient id="paint0_linear_710_2120" x1="-3" y1="41.5" x2="89" y2="41.5" gradientUnits="userSpaceOnUse">
<stop stop-color="#2BDCBC" stop-opacity="0"/>
<stop offset="1" stop-color="#45B4A0"/>
</linearGradient>
<linearGradient id="paint1_linear_710_2120" x1="381" y1="84.5" x2="291" y2="36" gradientUnits="userSpaceOnUse">
<stop stop-color="#73F4DD" stop-opacity="0"/>
<stop offset="1" stop-color="#22AB92"/>
</linearGradient>
<linearGradient id="paint2_linear_710_2120" x1="192" y1="0" x2="192" y2="72" gradientUnits="userSpaceOnUse">
<stop stop-color="#73F4DD"/>
<stop offset="1" stop-color="#177665"/>
</linearGradient>
</defs>
</svg>
