<svg width="270" height="230" viewBox="0 0 270 230" fill="none" xmlns="http://www.w3.org/2000/svg">
<rect x="74.0002" y="132.952" width="159" height="64" rx="4" fill="url(#paint0_linear_727_569)"/>
<rect x="0.5" y="-0.5" width="164" height="69" rx="4.5" transform="matrix(1 0 0 -1 71.0002 198.952)" stroke="url(#paint1_linear_727_569)"/>
<path d="M101.224 145.076V143.956H108.686V145.076H105.62V153.952H104.29V145.076H101.224ZM109.548 146.714V148.17C109.912 147.106 110.612 146.686 111.704 146.686V147.89C111.648 147.89 111.424 147.904 111.242 147.932C110.402 148.058 109.548 148.436 109.548 150.536V153.952H108.288V146.714H109.548ZM112.246 148.898C112.4 147.848 113.282 146.532 115.172 146.532C117.832 146.532 118.084 148.254 118.084 149.374V152.482C118.084 153.028 118.14 153.602 118.196 153.952H116.852C116.824 153.602 116.824 153.308 116.824 152.902V152.622H116.81C116.642 153.182 116.04 154.12 114.43 154.12C112.694 154.12 111.896 153.014 111.896 151.978C111.896 149.934 114.472 149.864 115.564 149.668C116.516 149.5 116.824 149.234 116.824 148.632C116.824 148.03 116.25 147.596 115.214 147.596C114.332 147.596 113.674 148.114 113.506 148.898H112.246ZM113.142 151.978C113.142 152.664 113.772 153.098 114.654 153.098C115.76 153.098 116.852 152.384 116.852 150.592L116.838 149.584C116.698 150.06 116.39 150.48 114.822 150.76C113.772 150.942 113.142 151.25 113.142 151.978ZM119.568 153.952V146.714H120.828V148.072C121.206 147.246 121.878 146.546 122.998 146.546C124.902 146.546 125.616 147.792 125.616 149.262V153.952H124.356V149.388C124.356 148.114 123.81 147.61 122.83 147.61C121.766 147.61 120.828 148.506 120.828 150.396V153.952H119.568ZM131.057 148.898C130.973 147.96 130.189 147.61 129.461 147.61C128.775 147.61 128.089 148.002 128.089 148.618C128.089 149.178 128.649 149.5 129.279 149.654L130.231 149.892C131.323 150.158 132.429 150.676 132.429 151.88C132.429 153.42 130.819 154.12 129.559 154.12C128.341 154.12 126.745 153.56 126.619 151.768H127.879C128.047 152.692 128.621 153.056 129.601 153.056C130.315 153.056 131.169 152.804 131.169 151.964C131.169 151.348 130.567 151.138 129.881 150.97L128.873 150.718C127.795 150.452 126.829 149.794 126.829 148.674C126.829 147.316 128.229 146.546 129.503 146.546C130.917 146.546 132.163 147.302 132.303 148.898H131.057ZM133.854 145.902C133.854 144.894 134.4 143.956 135.688 143.956H136.472V145.02H136.01C135.464 145.02 135.086 145.202 135.086 145.958V146.714H136.304V147.75H135.086V153.952H133.854V147.75H132.86V146.714H133.854V145.902ZM143.308 151.796C142.902 153.336 141.684 154.12 140.074 154.12C137.932 154.12 136.518 152.566 136.518 150.298C136.518 148.114 138.002 146.546 140.046 146.546C142.594 146.546 143.392 148.59 143.42 150.452V150.676H137.736C137.834 152.188 138.758 153.07 140.046 153.07C141.012 153.07 141.824 152.692 142.076 151.796H143.308ZM137.75 149.668H142.146C142.034 148.408 141.334 147.582 140.046 147.582C138.744 147.582 137.918 148.422 137.75 149.668ZM145.794 146.714V148.17C146.158 147.106 146.858 146.686 147.95 146.686V147.89C147.894 147.89 147.67 147.904 147.488 147.932C146.648 148.058 145.794 148.436 145.794 150.536V153.952H144.534V146.714H145.794ZM161.021 150.998C160.629 152.636 159.061 154.134 156.513 154.134C153.223 154.134 151.417 151.768 151.417 148.954C151.417 146.14 153.223 143.774 156.513 143.774C159.019 143.774 160.391 145.118 161.007 146.896H159.677C159.131 145.636 158.207 144.894 156.513 144.894C154.021 144.894 152.747 146.784 152.747 148.954C152.747 151.124 154.007 153.014 156.513 153.014C158.221 153.014 159.285 152.16 159.691 150.998H161.021ZM165.52 154.12C163.322 154.12 161.894 152.468 161.894 150.34C161.894 148.212 163.322 146.546 165.52 146.546C167.718 146.546 169.146 148.212 169.146 150.34C169.146 152.468 167.718 154.12 165.52 154.12ZM163.154 150.34C163.154 151.824 164.106 153.056 165.52 153.056C166.934 153.056 167.886 151.824 167.886 150.34C167.886 148.842 166.934 147.61 165.52 147.61C164.106 147.61 163.154 148.842 163.154 150.34ZM170.211 153.952V146.714H171.471V147.946C171.611 147.288 172.325 146.546 173.305 146.546C174.481 146.546 175.153 146.994 175.489 147.988C175.937 147.008 176.595 146.546 177.561 146.546C179.325 146.546 180.011 147.792 180.011 149.262V153.952H178.751V149.388C178.751 148.114 178.233 147.61 177.393 147.61C176.469 147.61 175.727 148.506 175.727 150.396V153.952H174.467V149.388C174.467 148.114 174.117 147.61 173.137 147.61C171.849 147.61 171.471 148.884 171.471 150.396V153.952H170.211ZM185.236 146.546C187.28 146.546 188.54 148.072 188.54 150.312C188.54 152.552 187.28 154.12 185.236 154.12C183.92 154.12 183.01 153.252 182.744 152.51H182.73V156.752H181.47V146.714H182.73V148.184H182.744C183.01 147.428 183.92 146.546 185.236 146.546ZM182.688 150.312C182.688 151.74 183.416 153.042 184.984 153.042C186.51 153.042 187.28 151.88 187.28 150.312C187.28 148.744 186.468 147.61 184.984 147.61C183.416 147.61 182.688 148.898 182.688 150.312ZM189.598 143.956H190.858V153.952H189.598V143.956ZM198.709 151.796C198.303 153.336 197.085 154.12 195.475 154.12C193.333 154.12 191.919 152.566 191.919 150.298C191.919 148.114 193.403 146.546 195.447 146.546C197.995 146.546 198.793 148.59 198.821 150.452V150.676H193.137C193.235 152.188 194.159 153.07 195.447 153.07C196.413 153.07 197.225 152.692 197.477 151.796H198.709ZM193.151 149.668H197.547C197.435 148.408 196.735 147.582 195.447 147.582C194.145 147.582 193.319 148.422 193.151 149.668ZM201.461 151.922C201.461 152.566 201.825 152.916 202.385 152.916H202.889V153.952H202.259C200.859 153.952 200.229 153.126 200.229 152.006V147.75H199.151V146.714H200.229V145.02L201.461 144.46V146.714H202.847V147.75H201.461V151.922ZM210.235 151.796C209.829 153.336 208.611 154.12 207.001 154.12C204.859 154.12 203.445 152.566 203.445 150.298C203.445 148.114 204.929 146.546 206.973 146.546C209.521 146.546 210.319 148.59 210.347 150.452V150.676H204.663C204.761 152.188 205.685 153.07 206.973 153.07C207.939 153.07 208.751 152.692 209.003 151.796H210.235ZM204.677 149.668H209.073C208.961 148.408 208.261 147.582 206.973 147.582C205.671 147.582 204.845 148.422 204.677 149.668Z" fill="white"/>
<path d="M89.1002 179.412C89.1002 180.912 88.2502 182.122 86.4102 182.122C84.5702 182.122 83.7202 180.912 83.7202 179.412V174.812H84.6702V179.412C84.6702 180.442 85.2102 181.322 86.4102 181.322C87.6102 181.322 88.1502 180.442 88.1502 179.412V174.812H89.1002V179.412ZM91.0067 179.742C91.0467 180.812 91.7767 181.322 92.8167 181.322C93.6567 181.322 94.3767 180.932 94.3767 180.062C94.3767 179.182 93.6367 179.032 92.7367 178.762C91.5567 178.412 90.3567 178.062 90.3267 176.712C90.2967 175.332 91.4367 174.642 92.7267 174.642C94.1567 174.642 95.0967 175.362 95.2067 176.792H94.2467C94.1167 175.892 93.6667 175.442 92.7267 175.442C91.9367 175.442 91.2767 175.772 91.2767 176.642C91.2767 177.372 91.9767 177.652 92.9167 177.922C94.1067 178.262 95.3267 178.522 95.3267 180.032C95.3267 181.492 94.0967 182.122 92.8167 182.122C91.2567 182.122 90.0767 181.372 90.0567 179.742H91.0067ZM98.4985 174.812C100.839 174.812 102.169 176.172 102.169 178.262C102.169 180.352 100.839 181.952 98.5585 181.952H96.3485V174.812H98.4985ZM97.2985 181.152H98.5885C100.039 181.152 101.219 180.172 101.219 178.262C101.219 176.432 100.039 175.612 98.5485 175.612H97.2985V181.152ZM109.533 179.842C109.253 181.012 108.133 182.082 106.313 182.082C103.963 182.082 102.673 180.392 102.673 178.382C102.673 176.372 103.963 174.682 106.313 174.682C108.103 174.682 109.083 175.642 109.523 176.912H108.573C108.183 176.012 107.523 175.482 106.313 175.482C104.533 175.482 103.623 176.832 103.623 178.382C103.623 179.932 104.523 181.282 106.313 181.282C107.533 181.282 108.293 180.672 108.583 179.842H109.533Z" fill="white"/>
<path d="M170.63 173.542H171.72V174.682C172.85 174.842 173.63 175.532 173.75 176.862H172.53C172.4 176.042 171.99 175.642 171.15 175.642C170.45 175.642 169.88 175.932 169.88 176.662C169.88 177.312 170.5 177.572 171.42 177.842C172.63 178.202 173.83 178.502 173.83 180.012C173.83 181.292 172.85 181.952 171.72 182.092V183.242H170.63V182.082C169.38 181.902 168.47 181.122 168.38 179.682H169.61C169.67 180.622 170.32 181.112 171.24 181.112C172.04 181.112 172.62 180.772 172.62 180.022C172.62 179.242 171.96 179.092 171.06 178.812C169.88 178.462 168.69 178.082 168.67 176.672C168.66 175.502 169.56 174.842 170.63 174.682V173.542ZM174.419 180.222V179.162L177.509 174.812H178.649V179.272H179.479V180.222H178.649V181.952H177.509V180.222H174.419ZM175.479 179.272H177.509V176.422H177.479L175.479 179.272ZM180.519 180.672H181.779L180.979 183.202H179.959L180.519 180.672ZM187.019 175.762H184.139L183.859 177.622C184.189 177.332 184.669 177.162 185.219 177.162C186.649 177.162 187.609 178.082 187.609 179.612C187.609 180.992 186.559 182.092 185.059 182.092C183.549 182.092 182.649 181.182 182.509 180.052L183.649 180.042C183.759 180.622 184.289 181.122 185.049 181.122C185.809 181.122 186.469 180.542 186.469 179.612C186.469 178.742 185.969 178.122 185.029 178.122C184.399 178.122 184.009 178.452 183.779 178.832L182.649 178.732L183.209 174.802L187.019 174.812V175.762ZM190.896 181.132C191.976 181.132 192.406 179.712 192.406 178.382C192.406 177.052 191.976 175.712 190.896 175.712C189.816 175.712 189.386 177.052 189.386 178.382C189.386 179.712 189.816 181.132 190.896 181.132ZM188.246 178.382C188.246 176.542 188.906 174.752 190.896 174.752C192.886 174.752 193.546 176.542 193.546 178.382C193.546 180.222 192.886 182.092 190.896 182.092C188.906 182.092 188.246 180.222 188.246 178.382ZM194.247 177.242C194.247 175.802 195.327 174.732 196.857 174.732C197.627 174.732 198.307 175.012 198.767 175.512C199.317 176.112 199.507 177.062 199.507 178.272C199.507 180.302 198.757 182.092 196.867 182.092C195.427 182.092 194.597 181.292 194.427 180.272H195.567C195.697 180.682 195.997 181.142 196.837 181.142C197.857 181.142 198.237 180.212 198.327 178.952C198.077 179.262 197.507 179.662 196.697 179.662C195.267 179.662 194.247 178.632 194.247 177.242ZM195.387 177.182C195.387 178.032 196.007 178.702 196.857 178.702C197.727 178.702 198.317 177.962 198.317 177.182C198.317 176.322 197.677 175.692 196.857 175.692C196.027 175.692 195.387 176.342 195.387 177.182ZM200.3 180.672H201.55V181.952H200.3V180.672ZM202.727 177.122C202.727 175.622 203.727 174.752 205.187 174.752C206.547 174.752 207.517 175.582 207.517 176.842C207.517 178.052 206.957 178.562 206.057 179.252C205.257 179.872 204.427 180.272 204.117 180.972H207.597V181.952H202.627C202.687 180.372 203.567 179.652 204.697 178.902C205.877 178.112 206.377 177.782 206.377 176.902C206.377 176.252 205.947 175.702 205.157 175.702C204.317 175.702 203.867 176.292 203.867 177.122H202.727ZM208.335 177.242C208.335 175.802 209.415 174.732 210.945 174.732C211.715 174.732 212.395 175.012 212.855 175.512C213.405 176.112 213.595 177.062 213.595 178.272C213.595 180.302 212.845 182.092 210.955 182.092C209.515 182.092 208.685 181.292 208.515 180.272H209.655C209.785 180.682 210.085 181.142 210.925 181.142C211.945 181.142 212.325 180.212 212.415 178.952C212.165 179.262 211.595 179.662 210.785 179.662C209.355 179.662 208.335 178.632 208.335 177.242ZM209.475 177.182C209.475 178.032 210.095 178.702 210.945 178.702C211.815 178.702 212.405 177.962 212.405 177.182C212.405 176.322 211.765 175.692 210.945 175.692C210.115 175.692 209.475 176.342 209.475 177.182Z" fill="white"/>
<rect x="50.0002" y="32.9521" width="159" height="64" rx="4" fill="url(#paint2_linear_727_569)"/>
<rect x="0.5" y="-0.5" width="164" height="69" rx="4.5" transform="matrix(1 0 0 -1 47.0002 98.9521)" stroke="url(#paint3_linear_727_569)"/>
<path d="M84.2242 44.0761V42.9561H91.6862V44.0761H88.6202V52.9521H87.2902V44.0761H84.2242ZM92.5481 45.7141V47.1701C92.9121 46.1061 93.6121 45.6861 94.7041 45.6861V46.8901C94.6481 46.8901 94.4241 46.9041 94.2421 46.9321C93.4021 47.0581 92.5481 47.4361 92.5481 49.5361V52.9521H91.2881V45.7141H92.5481ZM95.2461 47.8981C95.4001 46.8481 96.2821 45.5321 98.1721 45.5321C100.832 45.5321 101.084 47.2541 101.084 48.3741V51.4821C101.084 52.0281 101.14 52.6021 101.196 52.9521H99.8521C99.8241 52.6021 99.8241 52.3081 99.8241 51.9021V51.6221H99.8101C99.6421 52.1821 99.0401 53.1201 97.4301 53.1201C95.6941 53.1201 94.8961 52.0141 94.8961 50.9781C94.8961 48.9341 97.4721 48.8641 98.5641 48.6681C99.5161 48.5001 99.8241 48.2341 99.8241 47.6321C99.8241 47.0301 99.2501 46.5961 98.2141 46.5961C97.3321 46.5961 96.6741 47.1141 96.5061 47.8981H95.2461ZM96.1421 50.9781C96.1421 51.6641 96.7721 52.0981 97.6541 52.0981C98.7601 52.0981 99.8521 51.3841 99.8521 49.5921L99.8381 48.5841C99.6981 49.0601 99.3901 49.4801 97.8221 49.7601C96.7721 49.9421 96.1421 50.2501 96.1421 50.9781ZM102.568 52.9521V45.7141H103.828V47.0721C104.206 46.2461 104.878 45.5461 105.998 45.5461C107.902 45.5461 108.616 46.7921 108.616 48.2621V52.9521H107.356V48.3881C107.356 47.1141 106.81 46.6101 105.83 46.6101C104.766 46.6101 103.828 47.5061 103.828 49.3961V52.9521H102.568ZM114.057 47.8981C113.973 46.9601 113.189 46.6101 112.461 46.6101C111.775 46.6101 111.089 47.0021 111.089 47.6181C111.089 48.1781 111.649 48.5001 112.279 48.6541L113.231 48.8921C114.323 49.1581 115.429 49.6761 115.429 50.8801C115.429 52.4201 113.819 53.1201 112.559 53.1201C111.341 53.1201 109.745 52.5601 109.619 50.7681H110.879C111.047 51.6921 111.621 52.0561 112.601 52.0561C113.315 52.0561 114.169 51.8041 114.169 50.9641C114.169 50.3481 113.567 50.1381 112.881 49.9701L111.873 49.7181C110.795 49.4521 109.829 48.7941 109.829 47.6741C109.829 46.3161 111.229 45.5461 112.503 45.5461C113.917 45.5461 115.163 46.3021 115.303 47.8981H114.057ZM116.854 44.9021C116.854 43.8941 117.4 42.9561 118.688 42.9561H119.472V44.0201H119.01C118.464 44.0201 118.086 44.2021 118.086 44.9581V45.7141H119.304V46.7501H118.086V52.9521H116.854V46.7501H115.86V45.7141H116.854V44.9021ZM126.308 50.7961C125.902 52.3361 124.684 53.1201 123.074 53.1201C120.932 53.1201 119.518 51.5661 119.518 49.2981C119.518 47.1141 121.002 45.5461 123.046 45.5461C125.594 45.5461 126.392 47.5901 126.42 49.4521V49.6761H120.736C120.834 51.1881 121.758 52.0701 123.046 52.0701C124.012 52.0701 124.824 51.6921 125.076 50.7961H126.308ZM120.75 48.6681H125.146C125.034 47.4081 124.334 46.5821 123.046 46.5821C121.744 46.5821 120.918 47.4221 120.75 48.6681ZM128.794 45.7141V47.1701C129.158 46.1061 129.858 45.6861 130.95 45.6861V46.8901C130.894 46.8901 130.67 46.9041 130.488 46.9321C129.648 47.0581 128.794 47.4361 128.794 49.5361V52.9521H127.534V45.7141H128.794ZM134.949 42.9561H136.279V52.9521H134.949V42.9561ZM137.96 52.9521V45.7141H139.22V47.0721C139.598 46.2461 140.27 45.5461 141.39 45.5461C143.294 45.5461 144.008 46.7921 144.008 48.2621V52.9521H142.748V48.3881C142.748 47.1141 142.202 46.6101 141.222 46.6101C140.158 46.6101 139.22 47.5061 139.22 49.3961V52.9521H137.96ZM146.831 44.3561H145.487V42.9561H146.831V44.3561ZM145.459 52.9521V45.7141H146.719V52.9521H145.459ZM149.863 50.9221C149.863 51.5661 150.227 51.9161 150.787 51.9161H151.291V52.9521H150.661C149.261 52.9521 148.631 52.1261 148.631 51.0061V46.7501H147.553V45.7141H148.631V44.0201L149.863 43.4601V45.7141H151.249V46.7501H149.863V50.9221ZM153.695 44.3561H152.351V42.9561H153.695V44.3561ZM152.323 52.9521V45.7141H153.583V52.9521H152.323ZM155.036 47.8981C155.19 46.8481 156.072 45.5321 157.962 45.5321C160.622 45.5321 160.874 47.2541 160.874 48.3741V51.4821C160.874 52.0281 160.93 52.6021 160.986 52.9521H159.642C159.614 52.6021 159.614 52.3081 159.614 51.9021V51.6221H159.6C159.432 52.1821 158.83 53.1201 157.22 53.1201C155.484 53.1201 154.686 52.0141 154.686 50.9781C154.686 48.9341 157.262 48.8641 158.354 48.6681C159.306 48.5001 159.614 48.2341 159.614 47.6321C159.614 47.0301 159.04 46.5961 158.004 46.5961C157.122 46.5961 156.464 47.1141 156.296 47.8981H155.036ZM155.932 50.9781C155.932 51.6641 156.562 52.0981 157.444 52.0981C158.55 52.0981 159.642 51.3841 159.642 49.5921L159.628 48.5841C159.488 49.0601 159.18 49.4801 157.612 49.7601C156.562 49.9421 155.932 50.2501 155.932 50.9781ZM163.884 50.9221C163.884 51.5661 164.248 51.9161 164.808 51.9161H165.312V52.9521H164.682C163.282 52.9521 162.652 52.1261 162.652 51.0061V46.7501H161.574V45.7141H162.652V44.0201L163.884 43.4601V45.7141H165.27V46.7501H163.884V50.9221ZM172.659 50.7961C172.253 52.3361 171.035 53.1201 169.425 53.1201C167.283 53.1201 165.869 51.5661 165.869 49.2981C165.869 47.1141 167.353 45.5461 169.397 45.5461C171.945 45.5461 172.743 47.5901 172.771 49.4521V49.6761H167.087C167.185 51.1881 168.109 52.0701 169.397 52.0701C170.363 52.0701 171.175 51.6921 171.427 50.7961H172.659ZM167.101 48.6681H171.497C171.385 47.4081 170.685 46.5821 169.397 46.5821C168.095 46.5821 167.269 47.4221 167.101 48.6681ZM176.74 45.5461C178.056 45.5461 178.966 46.4281 179.232 47.1841H179.246V42.9561H180.506V52.9521H179.246V51.5101H179.232C178.966 52.2521 178.056 53.1201 176.74 53.1201C174.696 53.1201 173.436 51.5521 173.436 49.3121C173.436 47.0721 174.696 45.5461 176.74 45.5461ZM174.696 49.3121C174.696 50.8801 175.466 52.0421 176.992 52.0421C178.56 52.0421 179.288 50.7401 179.288 49.3121C179.288 47.8981 178.56 46.6101 176.992 46.6101C175.508 46.6101 174.696 47.7441 174.696 49.3121Z" fill="white"/>
<path d="M70.1002 78.4121C70.1002 79.9121 69.2502 81.1221 67.4102 81.1221C65.5702 81.1221 64.7202 79.9121 64.7202 78.4121V73.8121H65.6702V78.4121C65.6702 79.4421 66.2102 80.3221 67.4102 80.3221C68.6102 80.3221 69.1502 79.4421 69.1502 78.4121V73.8121H70.1002V78.4121ZM72.0067 78.7421C72.0467 79.8121 72.7767 80.3221 73.8167 80.3221C74.6567 80.3221 75.3767 79.9321 75.3767 79.0621C75.3767 78.1821 74.6367 78.0321 73.7367 77.7621C72.5567 77.4121 71.3567 77.0621 71.3267 75.7121C71.2967 74.3321 72.4367 73.6421 73.7267 73.6421C75.1567 73.6421 76.0967 74.3621 76.2067 75.7921H75.2467C75.1167 74.8921 74.6667 74.4421 73.7267 74.4421C72.9367 74.4421 72.2767 74.7721 72.2767 75.6421C72.2767 76.3721 72.9767 76.6521 73.9167 76.9221C75.1067 77.2621 76.3267 77.5221 76.3267 79.0321C76.3267 80.4921 75.0967 81.1221 73.8167 81.1221C72.2567 81.1221 71.0767 80.3721 71.0567 78.7421H72.0067ZM79.4985 73.8121C81.8385 73.8121 83.1685 75.1721 83.1685 77.2621C83.1685 79.3521 81.8385 80.9521 79.5585 80.9521H77.3485V73.8121H79.4985ZM78.2985 80.1521H79.5885C81.0385 80.1521 82.2185 79.1721 82.2185 77.2621C82.2185 75.4321 81.0385 74.6121 79.5485 74.6121H78.2985V80.1521Z" fill="white"/>
<path d="M151.63 72.5421H152.72V73.6821C153.85 73.8421 154.63 74.5321 154.75 75.8621H153.53C153.4 75.0421 152.99 74.6421 152.15 74.6421C151.45 74.6421 150.88 74.9321 150.88 75.6621C150.88 76.3121 151.5 76.5721 152.42 76.8421C153.63 77.2021 154.83 77.5021 154.83 79.0121C154.83 80.2921 153.85 80.9521 152.72 81.0921V82.2421H151.63V81.0821C150.38 80.9021 149.47 80.1221 149.38 78.6821H150.61C150.67 79.6221 151.32 80.1121 152.24 80.1121C153.04 80.1121 153.62 79.7721 153.62 79.0221C153.62 78.2421 152.96 78.0921 152.06 77.8121C150.88 77.4621 149.69 77.0821 149.67 75.6721C149.66 74.5021 150.56 73.8421 151.63 73.6821V72.5421ZM155.419 79.2221V78.1621L158.509 73.8121H159.649V78.2721H160.479V79.2221H159.649V80.9521H158.509V79.2221H155.419ZM156.479 78.2721H158.509V75.4221H158.479L156.479 78.2721ZM161.519 79.6721H162.779L161.979 82.2021H160.959L161.519 79.6721ZM168.019 74.7621H165.139L164.859 76.6221C165.189 76.3321 165.669 76.1621 166.219 76.1621C167.649 76.1621 168.609 77.0821 168.609 78.6121C168.609 79.9921 167.559 81.0921 166.059 81.0921C164.549 81.0921 163.649 80.1821 163.509 79.0521L164.649 79.0421C164.759 79.6221 165.289 80.1221 166.049 80.1221C166.809 80.1221 167.469 79.5421 167.469 78.6121C167.469 77.7421 166.969 77.1221 166.029 77.1221C165.399 77.1221 165.009 77.4521 164.779 77.8321L163.649 77.7321L164.209 73.8021L168.019 73.8121V74.7621ZM171.896 80.1321C172.976 80.1321 173.406 78.7121 173.406 77.3821C173.406 76.0521 172.976 74.7121 171.896 74.7121C170.816 74.7121 170.386 76.0521 170.386 77.3821C170.386 78.7121 170.816 80.1321 171.896 80.1321ZM169.246 77.3821C169.246 75.5421 169.906 73.7521 171.896 73.7521C173.886 73.7521 174.546 75.5421 174.546 77.3821C174.546 79.2221 173.886 81.0921 171.896 81.0921C169.906 81.0921 169.246 79.2221 169.246 77.3821ZM175.247 76.2421C175.247 74.8021 176.327 73.7321 177.857 73.7321C178.627 73.7321 179.307 74.0121 179.767 74.5121C180.317 75.1121 180.507 76.0621 180.507 77.2721C180.507 79.3021 179.757 81.0921 177.867 81.0921C176.427 81.0921 175.597 80.2921 175.427 79.2721H176.567C176.697 79.6821 176.997 80.1421 177.837 80.1421C178.857 80.1421 179.237 79.2121 179.327 77.9521C179.077 78.2621 178.507 78.6621 177.697 78.6621C176.267 78.6621 175.247 77.6321 175.247 76.2421ZM176.387 76.1821C176.387 77.0321 177.007 77.7021 177.857 77.7021C178.727 77.7021 179.317 76.9621 179.317 76.1821C179.317 75.3221 178.677 74.6921 177.857 74.6921C177.027 74.6921 176.387 75.3421 176.387 76.1821ZM181.3 79.6721H182.55V80.9521H181.3V79.6721ZM183.727 76.1221C183.727 74.6221 184.727 73.7521 186.187 73.7521C187.547 73.7521 188.517 74.5821 188.517 75.8421C188.517 77.0521 187.957 77.5621 187.057 78.2521C186.257 78.8721 185.427 79.2721 185.117 79.9721H188.597V80.9521H183.627C183.687 79.3721 184.567 78.6521 185.697 77.9021C186.877 77.1121 187.377 76.7821 187.377 75.9021C187.377 75.2521 186.947 74.7021 186.157 74.7021C185.317 74.7021 184.867 75.2921 184.867 76.1221H183.727ZM189.335 76.2421C189.335 74.8021 190.415 73.7321 191.945 73.7321C192.715 73.7321 193.395 74.0121 193.855 74.5121C194.405 75.1121 194.595 76.0621 194.595 77.2721C194.595 79.3021 193.845 81.0921 191.955 81.0921C190.515 81.0921 189.685 80.2921 189.515 79.2721H190.655C190.785 79.6821 191.085 80.1421 191.925 80.1421C192.945 80.1421 193.325 79.2121 193.415 77.9521C193.165 78.2621 192.595 78.6621 191.785 78.6621C190.355 78.6621 189.335 77.6321 189.335 76.2421ZM190.475 76.1821C190.475 77.0321 191.095 77.7021 191.945 77.7021C192.815 77.7021 193.405 76.9621 193.405 76.1821C193.405 75.3221 192.765 74.6921 191.945 74.6921C191.115 74.6921 190.475 75.3421 190.475 76.1821Z" fill="white"/>
<path d="M71.719 43.1709C71.719 43.844 71.1733 44.3896 70.5002 44.3896C69.8271 44.3896 69.2815 43.844 69.2815 43.1709C69.2815 42.4978 69.8271 41.9521 70.5002 41.9521C71.1733 41.9521 71.719 42.4978 71.719 43.1709ZM70.5002 52.5146C69.8271 52.5146 69.2815 53.0603 69.2815 53.7334C69.2815 54.4065 69.8271 54.9521 70.5002 54.9521C71.1733 54.9521 71.719 54.4065 71.719 53.7334C71.719 53.0603 71.1733 52.5146 70.5002 52.5146ZM75.7815 47.2334C75.1084 47.2334 74.5627 47.779 74.5627 48.4521C74.5627 49.1253 75.1084 49.6709 75.7815 49.6709C76.4546 49.6709 77.0002 49.1253 77.0002 48.4521C77.0002 47.779 76.4546 47.2334 75.7815 47.2334ZM66.4377 48.4521C66.4377 47.779 65.8921 47.2334 65.219 47.2334C64.5459 47.2334 64.0002 47.779 64.0002 48.4521C64.0002 49.1253 64.5459 49.6709 65.219 49.6709C65.8921 49.6709 66.4377 49.1253 66.4377 48.4521ZM66.7658 50.9678C66.0927 50.9678 65.5471 51.5134 65.5471 52.1866C65.5471 52.8597 66.0927 53.4053 66.7658 53.4053C67.4389 53.4053 67.9846 52.8597 67.9846 52.1866C67.9846 51.5135 67.4389 50.9678 66.7658 50.9678ZM74.2346 50.9678C73.5615 50.9678 73.0159 51.5134 73.0159 52.1866C73.0159 52.8597 73.5615 53.4053 74.2346 53.4053C74.9078 53.4053 75.4534 52.8597 75.4534 52.1866C75.4534 51.5135 74.9078 50.9678 74.2346 50.9678ZM66.7658 43.499C66.0927 43.499 65.5471 44.0446 65.5471 44.7177C65.5471 45.3909 66.0927 45.9365 66.7658 45.9365C67.4389 45.9365 67.9846 45.3909 67.9846 44.7177C67.9846 44.0446 67.4389 43.499 66.7658 43.499Z" fill="white"/>
<line x1="138.5" y1="130" x2="138.5" y2="100" stroke="url(#paint4_linear_727_569)"/>
<path d="M50.0002 61.9522L209 61.9522" stroke="white" stroke-width="0.5"/>
<path d="M74.0002 161.952L233 161.952" stroke="white" stroke-width="0.5"/>
<path d="M93.0002 148.952C93.0002 151.714 90.7617 153.952 88.0002 153.952C85.2388 153.952 83.0002 151.714 83.0002 148.952C83.0002 146.191 85.2388 143.952 88.0002 143.952C90.7617 143.952 93.0002 146.191 93.0002 148.952ZM87.4219 151.6L91.1316 147.89C91.2575 147.764 91.2575 147.56 91.1316 147.434L90.6754 146.978C90.5494 146.852 90.3452 146.852 90.2192 146.978L87.1938 150.003L85.7813 148.59C85.6553 148.464 85.4511 148.464 85.3251 148.59L84.8689 149.047C84.7429 149.173 84.7429 149.377 84.8689 149.503L86.9657 151.6C87.0917 151.726 87.2959 151.726 87.4219 151.6Z" fill="white"/>
<path d="M93.0002 148.952C93.0002 151.714 90.7617 153.952 88.0002 153.952C85.2388 153.952 83.0002 151.714 83.0002 148.952C83.0002 146.191 85.2388 143.952 88.0002 143.952C90.7617 143.952 93.0002 146.191 93.0002 148.952ZM87.4219 151.6L91.1316 147.89C91.2575 147.764 91.2575 147.56 91.1316 147.434L90.6754 146.978C90.5494 146.852 90.3452 146.852 90.2192 146.978L87.1938 150.003L85.7813 148.59C85.6553 148.464 85.4511 148.464 85.3251 148.59L84.8689 149.047C84.7429 149.173 84.7429 149.377 84.8689 149.503L86.9657 151.6C87.0917 151.726 87.2959 151.726 87.4219 151.6Z" fill="white"/>
<path d="M270 229L172 229C167.582 229 164 225.418 164 221L164 200" stroke="url(#paint5_linear_727_569)"/>
<path d="M0 1L102 1C106.418 1 110 4.58173 110 9L110 30" stroke="url(#paint6_linear_727_569)"/>
<defs>
<linearGradient id="paint0_linear_727_569" x1="153.5" y1="132.952" x2="153.5" y2="196.952" gradientUnits="userSpaceOnUse">
<stop stop-color="#008679"/>
<stop offset="1" stop-color="#00685E"/>
</linearGradient>
<linearGradient id="paint1_linear_727_569" x1="82.5" y1="0" x2="82.5" y2="70" gradientUnits="userSpaceOnUse">
<stop stop-color="white"/>
<stop offset="1" stop-color="#2BDCBC"/>
</linearGradient>
<linearGradient id="paint2_linear_727_569" x1="129.5" y1="32.9521" x2="129.5" y2="96.9521" gradientUnits="userSpaceOnUse">
<stop stop-color="#FF6543"/>
<stop offset="1" stop-color="#E45045"/>
</linearGradient>
<linearGradient id="paint3_linear_727_569" x1="82.5" y1="0" x2="82.5" y2="70" gradientUnits="userSpaceOnUse">
<stop stop-color="white"/>
<stop offset="1" stop-color="#FF8159"/>
</linearGradient>
<linearGradient id="paint4_linear_727_569" x1="139.5" y1="100" x2="139.5" y2="130" gradientUnits="userSpaceOnUse">
<stop stop-color="white"/>
<stop offset="1" stop-color="#00877A"/>
</linearGradient>
<linearGradient id="paint5_linear_727_569" x1="270" y1="214.5" x2="164" y2="214.5" gradientUnits="userSpaceOnUse">
<stop stop-color="white" stop-opacity="0"/>
<stop offset="1" stop-color="#2BDCBC"/>
</linearGradient>
<linearGradient id="paint6_linear_727_569" x1="-4.74432e-07" y1="15.5" x2="110.758" y2="35.6011" gradientUnits="userSpaceOnUse">
<stop stop-color="#D9583B" stop-opacity="0"/>
<stop offset="1" stop-color="#FFBEA8"/>
</linearGradient>
</defs>
</svg>
