<svg width="342" height="152" viewBox="0 0 342 152" fill="none" xmlns="http://www.w3.org/2000/svg">
<rect x="81" y="4" width="148" height="60" rx="4" fill="url(#paint0_linear_727_591)"/>
<rect x="77.5" y="0.5" width="155" height="67" rx="4.5" stroke="url(#paint1_linear_727_591)"/>
<path d="M233 34H342" stroke="url(#paint2_linear_727_591)"/>
<path d="M81 34L229 34" stroke="white" stroke-width="0.5"/>
<path d="M120 4V34" stroke="white" stroke-width="0.5"/>
<path d="M92.76 53V45.86H95.36C96.57 45.86 97.46 46.57 97.46 47.77C97.46 48.52 97.04 49.03 96.33 49.35V49.36C97.15 49.5 97.76 50.05 97.76 50.98C97.76 52.31 96.82 53 95.3 53H92.76ZM93.71 52.2H95.46C96.25 52.2 96.81 51.75 96.81 50.98C96.81 50.22 96.25 49.78 95.46 49.78H93.71V52.2ZM93.71 48.98H95.18C96.01 48.98 96.51 48.57 96.51 47.77C96.51 46.97 96.01 46.66 95.18 46.66H93.71V48.98ZM98.6898 49.39C98.7998 48.64 99.4298 47.7 100.78 47.7C102.68 47.7 102.86 48.93 102.86 49.73V51.95C102.86 52.34 102.9 52.75 102.94 53H101.98C101.96 52.75 101.96 52.54 101.96 52.25V52.05H101.95C101.83 52.45 101.4 53.12 100.25 53.12C99.0098 53.12 98.4398 52.33 98.4398 51.59C98.4398 50.13 100.28 50.08 101.06 49.94C101.74 49.82 101.96 49.63 101.96 49.2C101.96 48.77 101.55 48.46 100.81 48.46C100.18 48.46 99.7098 48.83 99.5898 49.39H98.6898ZM99.3298 51.59C99.3298 52.08 99.7798 52.39 100.41 52.39C101.2 52.39 101.98 51.88 101.98 50.6L101.97 49.88C101.87 50.22 101.65 50.52 100.53 50.72C99.7798 50.85 99.3298 51.07 99.3298 51.59ZM103.92 45.86H104.82V53H103.92V45.86ZM105.887 49.39C105.997 48.64 106.627 47.7 107.977 47.7C109.877 47.7 110.057 48.93 110.057 49.73V51.95C110.057 52.34 110.097 52.75 110.137 53H109.177C109.157 52.75 109.157 52.54 109.157 52.25V52.05H109.147C109.027 52.45 108.597 53.12 107.447 53.12C106.207 53.12 105.637 52.33 105.637 51.59C105.637 50.13 107.477 50.08 108.257 49.94C108.937 49.82 109.157 49.63 109.157 49.2C109.157 48.77 108.747 48.46 108.007 48.46C107.377 48.46 106.907 48.83 106.787 49.39H105.887ZM106.527 51.59C106.527 52.08 106.977 52.39 107.607 52.39C108.397 52.39 109.177 51.88 109.177 50.6L109.167 49.88C109.067 50.22 108.847 50.52 107.727 50.72C106.977 50.85 106.527 51.07 106.527 51.59ZM111.117 53V47.83H112.017V48.8C112.287 48.21 112.767 47.71 113.567 47.71C114.927 47.71 115.437 48.6 115.437 49.65V53H114.537V49.74C114.537 48.83 114.147 48.47 113.447 48.47C112.687 48.47 112.017 49.11 112.017 50.46V53H111.117ZM121.094 51.42C120.804 52.5 120.054 53.12 118.804 53.12C117.194 53.12 116.154 51.98 116.154 50.42C116.154 48.86 117.194 47.71 118.804 47.71C120.124 47.71 120.834 48.44 121.054 49.38H120.154C119.964 48.91 119.614 48.45 118.774 48.45C117.724 48.45 117.054 49.31 117.054 50.42C117.054 51.52 117.724 52.37 118.774 52.37C119.524 52.37 119.954 52.03 120.184 51.42H121.094ZM126.449 51.46C126.159 52.56 125.289 53.12 124.139 53.12C122.609 53.12 121.599 52.01 121.599 50.39C121.599 48.83 122.659 47.71 124.119 47.71C125.939 47.71 126.509 49.17 126.529 50.5V50.66H122.469C122.539 51.74 123.199 52.37 124.119 52.37C124.809 52.37 125.389 52.1 125.569 51.46H126.449ZM122.479 49.94H125.619C125.539 49.04 125.039 48.45 124.119 48.45C123.189 48.45 122.599 49.05 122.479 49.94Z" fill="white"/>
<path d="M153.63 45.59H154.72V46.73C155.85 46.89 156.63 47.58 156.75 48.91H155.53C155.4 48.09 154.99 47.69 154.15 47.69C153.45 47.69 152.88 47.98 152.88 48.71C152.88 49.36 153.5 49.62 154.42 49.89C155.63 50.25 156.83 50.55 156.83 52.06C156.83 53.34 155.85 54 154.72 54.14V55.29H153.63V54.13C152.38 53.95 151.47 53.17 151.38 51.73H152.61C152.67 52.67 153.32 53.16 154.24 53.16C155.04 53.16 155.62 52.82 155.62 52.07C155.62 51.29 154.96 51.14 154.06 50.86C152.88 50.51 151.69 50.13 151.67 48.72C151.66 47.55 152.56 46.89 153.63 46.73V45.59ZM162.059 47.77C160.629 49.18 159.489 51.79 159.359 54H158.219C158.409 51.37 159.519 49.18 160.699 47.84H157.289V46.86H162.059V47.77ZM161.672 52.27V51.21L164.762 46.86H165.902V51.32H166.732V52.27H165.902V54H164.762V52.27H161.672ZM162.732 51.32H164.762V48.47H164.732L162.732 51.32ZM167.772 52.72H169.032L168.232 55.25H167.212L167.772 52.72ZM172.429 46.77C173.829 46.77 174.719 47.55 174.719 48.6C174.719 49.42 174.269 50.01 173.649 50.22C174.299 50.41 174.979 51.07 174.979 52.04C174.979 53.34 173.959 54.14 172.439 54.14C170.859 54.14 169.829 53.34 169.839 52.04C169.849 51.07 170.559 50.39 171.209 50.21C170.539 49.98 170.119 49.43 170.119 48.6C170.119 47.55 171.019 46.77 172.429 46.77ZM170.969 51.97C170.969 52.65 171.459 53.24 172.429 53.24C173.379 53.24 173.859 52.66 173.859 51.97C173.859 51.3 173.379 50.71 172.429 50.71C171.459 50.71 170.969 51.3 170.969 51.97ZM171.239 48.74C171.239 49.31 171.679 49.81 172.429 49.81C173.179 49.81 173.609 49.32 173.609 48.74C173.609 48.17 173.179 47.68 172.429 47.68C171.669 47.68 171.239 48.17 171.239 48.74ZM175.675 49.29C175.675 47.85 176.755 46.78 178.285 46.78C179.055 46.78 179.735 47.06 180.195 47.56C180.745 48.16 180.935 49.11 180.935 50.32C180.935 52.35 180.185 54.14 178.295 54.14C176.855 54.14 176.025 53.34 175.855 52.32H176.995C177.125 52.73 177.425 53.19 178.265 53.19C179.285 53.19 179.665 52.26 179.755 51C179.505 51.31 178.935 51.71 178.125 51.71C176.695 51.71 175.675 50.68 175.675 49.29ZM176.815 49.23C176.815 50.08 177.435 50.75 178.285 50.75C179.155 50.75 179.745 50.01 179.745 49.23C179.745 48.37 179.105 47.74 178.285 47.74C177.455 47.74 176.815 48.39 176.815 49.23ZM181.679 49.17C181.679 47.67 182.679 46.8 184.139 46.8C185.499 46.8 186.469 47.63 186.469 48.89C186.469 50.1 185.909 50.61 185.009 51.3C184.209 51.92 183.379 52.32 183.069 53.02H186.549V54H181.579C181.639 52.42 182.519 51.7 183.649 50.95C184.829 50.16 185.329 49.83 185.329 48.95C185.329 48.3 184.899 47.75 184.109 47.75C183.269 47.75 182.819 48.34 182.819 49.17H181.679ZM187.543 52.72H188.793V54H187.543V52.72ZM192.266 53.18C193.346 53.18 193.776 51.76 193.776 50.43C193.776 49.1 193.346 47.76 192.266 47.76C191.186 47.76 190.756 49.1 190.756 50.43C190.756 51.76 191.186 53.18 192.266 53.18ZM189.616 50.43C189.616 48.59 190.276 46.8 192.266 46.8C194.256 46.8 194.916 48.59 194.916 50.43C194.916 52.27 194.256 54.14 192.266 54.14C190.276 54.14 189.616 52.27 189.616 50.43ZM198.267 53.18C199.347 53.18 199.777 51.76 199.777 50.43C199.777 49.1 199.347 47.76 198.267 47.76C197.187 47.76 196.757 49.1 196.757 50.43C196.757 51.76 197.187 53.18 198.267 53.18ZM195.617 50.43C195.617 48.59 196.277 46.8 198.267 46.8C200.257 46.8 200.917 48.59 200.917 50.43C200.917 52.27 200.257 54.14 198.267 54.14C196.277 54.14 195.617 52.27 195.617 50.43Z" fill="white"/>
<path d="M146.28 24H145.16L147.8 16.86H149.15L151.79 24H150.66L149.93 21.98H147.02L146.28 24ZM147.33 21.11H149.62L148.48 17.84H148.46L147.33 21.11ZM156.946 22.37C156.676 23.49 155.856 24.13 154.606 24.13C153.026 24.13 151.926 23.02 151.926 21.42C151.926 19.81 153.026 18.7 154.606 18.7C155.906 18.7 156.696 19.43 156.906 20.43H155.906C155.716 19.94 155.346 19.53 154.586 19.53C153.586 19.53 152.946 20.36 152.946 21.42C152.946 22.47 153.586 23.29 154.586 23.29C155.276 23.29 155.726 22.97 155.936 22.37H156.946ZM157.75 24V18.83H158.77V19.7C158.89 19.22 159.39 18.7 160.1 18.7C160.9 18.7 161.38 19.02 161.62 19.71C161.93 19.04 162.38 18.7 163.09 18.7C164.36 18.7 164.9 19.59 164.9 20.71V24H163.88V20.88C163.88 20.02 163.57 19.58 162.95 19.58C162.31 19.58 161.83 20.22 161.83 21.48V24H160.82V20.88C160.82 20.02 160.61 19.58 159.9 19.58C159.02 19.58 158.78 20.48 158.78 21.53V24H157.75ZM170.529 22.47C170.239 23.54 169.359 24.13 168.169 24.13C166.629 24.13 165.599 23.02 165.599 21.39C165.599 19.83 166.679 18.7 168.159 18.7C169.949 18.7 170.599 20.11 170.609 21.51V21.7H166.589C166.669 22.69 167.289 23.29 168.159 23.29C168.799 23.29 169.339 23.04 169.519 22.47H170.529ZM166.599 20.93H169.589C169.509 20.11 169.049 19.52 168.159 19.52C167.279 19.52 166.719 20.09 166.599 20.93ZM180.069 21.85C179.769 23.1 178.619 24.13 176.809 24.13C174.519 24.13 173.179 22.5 173.179 20.43C173.179 18.38 174.529 16.73 176.819 16.73C178.609 16.73 179.629 17.67 180.069 19.01H178.989C178.609 18.13 177.949 17.64 176.819 17.64C175.169 17.64 174.259 18.91 174.259 20.43C174.259 21.95 175.159 23.22 176.819 23.22C177.989 23.22 178.709 22.65 178.999 21.85H180.069ZM183.302 24.13C181.752 24.13 180.672 22.99 180.672 21.42C180.672 19.85 181.752 18.7 183.302 18.7C184.852 18.7 185.922 19.85 185.922 21.42C185.922 22.99 184.852 24.13 183.302 24.13ZM181.692 21.42C181.692 22.44 182.332 23.28 183.302 23.28C184.262 23.28 184.912 22.44 184.912 21.42C184.912 20.39 184.262 19.55 183.302 19.55C182.332 19.55 181.692 20.39 181.692 21.42ZM186.397 22.76H187.567V24H186.397V22.76Z" fill="white"/>
<rect x="112" y="88" width="148" height="60" rx="4" fill="url(#paint3_linear_727_591)"/>
<rect x="108.5" y="84.5" width="155" height="67" rx="4.5" stroke="url(#paint4_linear_727_591)"/>
<path d="M-1.26724e-05 118L108 118" stroke="url(#paint5_linear_727_591)"/>
<path d="M112 118L260 118" stroke="white" stroke-width="0.5"/>
<path d="M151 88V118" stroke="white" stroke-width="0.5"/>
<path d="M123.76 137V129.86H126.36C127.57 129.86 128.46 130.57 128.46 131.77C128.46 132.52 128.04 133.03 127.33 133.35V133.36C128.15 133.5 128.76 134.05 128.76 134.98C128.76 136.31 127.82 137 126.3 137H123.76ZM124.71 136.2H126.46C127.25 136.2 127.81 135.75 127.81 134.98C127.81 134.22 127.25 133.78 126.46 133.78H124.71V136.2ZM124.71 132.98H126.18C127.01 132.98 127.51 132.57 127.51 131.77C127.51 130.97 127.01 130.66 126.18 130.66H124.71V132.98ZM129.69 133.39C129.8 132.64 130.43 131.7 131.78 131.7C133.68 131.7 133.86 132.93 133.86 133.73V135.95C133.86 136.34 133.9 136.75 133.94 137H132.98C132.96 136.75 132.96 136.54 132.96 136.25V136.05H132.95C132.83 136.45 132.4 137.12 131.25 137.12C130.01 137.12 129.44 136.33 129.44 135.59C129.44 134.13 131.28 134.08 132.06 133.94C132.74 133.82 132.96 133.63 132.96 133.2C132.96 132.77 132.55 132.46 131.81 132.46C131.18 132.46 130.71 132.83 130.59 133.39H129.69ZM130.33 135.59C130.33 136.08 130.78 136.39 131.41 136.39C132.2 136.39 132.98 135.88 132.98 134.6L132.97 133.88C132.87 134.22 132.65 134.52 131.53 134.72C130.78 134.85 130.33 135.07 130.33 135.59ZM134.92 129.86H135.82V137H134.92V129.86ZM136.887 133.39C136.997 132.64 137.627 131.7 138.977 131.7C140.877 131.7 141.057 132.93 141.057 133.73V135.95C141.057 136.34 141.097 136.75 141.137 137H140.177C140.157 136.75 140.157 136.54 140.157 136.25V136.05H140.147C140.027 136.45 139.597 137.12 138.447 137.12C137.207 137.12 136.637 136.33 136.637 135.59C136.637 134.13 138.477 134.08 139.257 133.94C139.937 133.82 140.157 133.63 140.157 133.2C140.157 132.77 139.747 132.46 139.007 132.46C138.377 132.46 137.907 132.83 137.787 133.39H136.887ZM137.527 135.59C137.527 136.08 137.977 136.39 138.607 136.39C139.397 136.39 140.177 135.88 140.177 134.6L140.167 133.88C140.067 134.22 139.847 134.52 138.727 134.72C137.977 134.85 137.527 135.07 137.527 135.59ZM142.117 137V131.83H143.017V132.8C143.287 132.21 143.767 131.71 144.567 131.71C145.927 131.71 146.437 132.6 146.437 133.65V137H145.537V133.74C145.537 132.83 145.147 132.47 144.447 132.47C143.687 132.47 143.017 133.11 143.017 134.46V137H142.117ZM152.094 135.42C151.804 136.5 151.054 137.12 149.804 137.12C148.194 137.12 147.154 135.98 147.154 134.42C147.154 132.86 148.194 131.71 149.804 131.71C151.124 131.71 151.834 132.44 152.054 133.38H151.154C150.964 132.91 150.614 132.45 149.774 132.45C148.724 132.45 148.054 133.31 148.054 134.42C148.054 135.52 148.724 136.37 149.774 136.37C150.524 136.37 150.954 136.03 151.184 135.42H152.094ZM157.449 135.46C157.159 136.56 156.289 137.12 155.139 137.12C153.609 137.12 152.599 136.01 152.599 134.39C152.599 132.83 153.659 131.71 155.119 131.71C156.939 131.71 157.509 133.17 157.529 134.5V134.66H153.469C153.539 135.74 154.199 136.37 155.119 136.37C155.809 136.37 156.389 136.1 156.569 135.46H157.449ZM153.479 133.94H156.619C156.539 133.04 156.039 132.45 155.119 132.45C154.189 132.45 153.599 133.05 153.479 133.94Z" fill="white"/>
<path d="M195.63 128.59H196.72V129.73C197.85 129.89 198.63 130.58 198.75 131.91H197.53C197.4 131.09 196.99 130.69 196.15 130.69C195.45 130.69 194.88 130.98 194.88 131.71C194.88 132.36 195.5 132.62 196.42 132.89C197.63 133.25 198.83 133.55 198.83 135.06C198.83 136.34 197.85 137 196.72 137.14V138.29H195.63V137.13C194.38 136.95 193.47 136.17 193.38 134.73H194.61C194.67 135.67 195.32 136.16 196.24 136.16C197.04 136.16 197.62 135.82 197.62 135.07C197.62 134.29 196.96 134.14 196.06 133.86C194.88 133.51 193.69 133.13 193.67 131.72C193.66 130.55 194.56 129.89 195.63 129.73V128.59ZM202.441 137H201.301V131.89H199.561V131.12C200.501 131.12 201.211 130.92 201.481 129.86H202.441V137ZM203.457 135.27V134.21L206.547 129.86H207.687V134.32H208.517V135.27H207.687V137H206.547V135.27H203.457ZM204.517 134.32H206.547V131.47H206.517L204.517 134.32ZM209.557 135.72H210.817L210.017 138.25H208.997L209.557 135.72ZM216.057 130.81H213.177L212.897 132.67C213.227 132.38 213.707 132.21 214.257 132.21C215.687 132.21 216.647 133.13 216.647 134.66C216.647 136.04 215.597 137.14 214.097 137.14C212.587 137.14 211.687 136.23 211.547 135.1L212.687 135.09C212.797 135.67 213.327 136.17 214.087 136.17C214.847 136.17 215.507 135.59 215.507 134.66C215.507 133.79 215.007 133.17 214.067 133.17C213.437 133.17 213.047 133.5 212.817 133.88L211.687 133.78L212.247 129.85L216.057 129.86V130.81ZM221.775 130.81H218.895L218.615 132.67C218.945 132.38 219.425 132.21 219.975 132.21C221.405 132.21 222.365 133.13 222.365 134.66C222.365 136.04 221.315 137.14 219.815 137.14C218.305 137.14 217.405 136.23 217.265 135.1L218.405 135.09C218.515 135.67 219.045 136.17 219.805 136.17C220.565 136.17 221.225 135.59 221.225 134.66C221.225 133.79 220.725 133.17 219.785 133.17C219.155 133.17 218.765 133.5 218.535 133.88L217.405 133.78L217.965 129.85L221.775 129.86V130.81ZM222.917 132.17C222.917 130.67 223.917 129.8 225.377 129.8C226.737 129.8 227.707 130.63 227.707 131.89C227.707 133.1 227.147 133.61 226.247 134.3C225.447 134.92 224.617 135.32 224.307 136.02H227.787V137H222.817C222.877 135.42 223.757 134.7 224.887 133.95C226.067 133.16 226.567 132.83 226.567 131.95C226.567 131.3 226.137 130.75 225.347 130.75C224.507 130.75 224.057 131.34 224.057 132.17H222.917ZM228.782 135.72H230.032V137H228.782V135.72ZM233.504 136.18C234.584 136.18 235.014 134.76 235.014 133.43C235.014 132.1 234.584 130.76 233.504 130.76C232.424 130.76 231.994 132.1 231.994 133.43C231.994 134.76 232.424 136.18 233.504 136.18ZM230.854 133.43C230.854 131.59 231.514 129.8 233.504 129.8C235.494 129.8 236.154 131.59 236.154 133.43C236.154 135.27 235.494 137.14 233.504 137.14C231.514 137.14 230.854 135.27 230.854 133.43ZM239.505 136.18C240.585 136.18 241.015 134.76 241.015 133.43C241.015 132.1 240.585 130.76 239.505 130.76C238.425 130.76 237.995 132.1 237.995 133.43C237.995 134.76 238.425 136.18 239.505 136.18ZM236.855 133.43C236.855 131.59 237.515 129.8 239.505 129.8C241.495 129.8 242.155 131.59 242.155 133.43C242.155 135.27 241.495 137.14 239.505 137.14C237.515 137.14 236.855 135.27 236.855 133.43Z" fill="white"/>
<path d="M158.94 105.18V104.32H162.15L162.06 108H161.31L161.25 106.82C160.9 107.61 160.19 108.17 158.88 108.17C156.59 108.17 155.37 106.39 155.37 104.43C155.37 102.47 156.65 100.69 159 100.69C160.81 100.69 161.78 101.77 162.11 102.99H161.03C160.78 102.19 160.2 101.6 159 101.6C157.31 101.6 156.45 102.96 156.45 104.43C156.45 105.9 157.29 107.26 158.92 107.26C160.07 107.26 161.11 106.67 161.17 105.17L158.94 105.18ZM164.165 102.83V103.83C164.435 103.09 164.955 102.8 165.715 102.8V103.77C165.665 103.77 165.435 103.78 165.285 103.82C164.735 103.91 164.175 104.18 164.175 105.6V108H163.145V102.83H164.165ZM170.914 106.47C170.624 107.54 169.744 108.13 168.554 108.13C167.014 108.13 165.984 107.02 165.984 105.39C165.984 103.83 167.064 102.7 168.544 102.7C170.334 102.7 170.984 104.11 170.994 105.51V105.7H166.974C167.054 106.69 167.674 107.29 168.544 107.29C169.184 107.29 169.724 107.04 169.904 106.47H170.914ZM166.984 104.93H169.974C169.894 104.11 169.434 103.52 168.544 103.52C167.664 103.52 167.104 104.09 166.984 104.93ZM176.388 106.47C176.098 107.54 175.218 108.13 174.028 108.13C172.488 108.13 171.458 107.02 171.458 105.39C171.458 103.83 172.538 102.7 174.018 102.7C175.808 102.7 176.458 104.11 176.468 105.51V105.7H172.448C172.528 106.69 173.148 107.29 174.018 107.29C174.658 107.29 175.198 107.04 175.378 106.47H176.388ZM172.458 104.93H175.448C175.368 104.11 174.908 103.52 174.018 103.52C173.138 103.52 172.578 104.09 172.458 104.93ZM177.252 108V102.83H178.272V103.77C178.542 103.18 179.022 102.7 179.822 102.7C181.172 102.7 181.682 103.59 181.682 104.71V108H180.662V104.88C180.662 104.02 180.332 103.58 179.622 103.58C178.882 103.58 178.282 104.21 178.282 105.53V108H177.252ZM182.706 100.86H183.736V108H182.706V100.86ZM184.771 104.4C184.891 103.61 185.551 102.69 186.901 102.69C188.711 102.69 189.031 103.82 189.031 104.78V106.88C189.031 107.27 189.061 107.72 189.111 108H188.041C188.021 107.78 188.021 107.57 188.021 107.32V107.1H188.011C187.861 107.51 187.431 108.13 186.331 108.13C185.131 108.13 184.521 107.37 184.521 106.59C184.521 105.14 186.321 105.06 187.081 104.93C187.751 104.82 188.011 104.66 188.011 104.23C188.011 103.8 187.611 103.52 186.921 103.52C186.331 103.52 185.891 103.86 185.771 104.4H184.771ZM185.541 106.57C185.541 107.02 185.941 107.32 186.561 107.32C187.301 107.32 188.031 106.85 188.031 105.6V104.97C187.921 105.28 187.671 105.57 186.681 105.74C185.951 105.88 185.541 106.09 185.541 106.57ZM190.05 108V102.83H191.07V103.77C191.34 103.18 191.82 102.7 192.62 102.7C193.97 102.7 194.48 103.59 194.48 104.71V108H193.46V104.88C193.46 104.02 193.13 103.58 192.42 103.58C191.68 103.58 191.08 104.21 191.08 105.53V108H190.05ZM197.565 102.7C198.485 102.7 199.105 103.31 199.285 103.82H199.295V100.86H200.335V108H199.285V107.04H199.275C199.085 107.53 198.485 108.12 197.565 108.12C196.125 108.12 195.185 107.02 195.185 105.4C195.185 103.78 196.125 102.7 197.565 102.7ZM196.205 105.4C196.205 106.47 196.735 107.27 197.775 107.27C198.845 107.27 199.345 106.38 199.345 105.4C199.345 104.44 198.835 103.55 197.775 103.55C196.765 103.55 196.205 104.34 196.205 105.4ZM203.564 108V100.86L205.304 100.87L207.224 106.73H207.234L209.124 100.86H210.864V108H209.804V102.06H209.784L207.814 108H206.624L204.644 102.06H204.624V108H203.564ZM216.595 106.47C216.305 107.54 215.425 108.13 214.235 108.13C212.695 108.13 211.665 107.02 211.665 105.39C211.665 103.83 212.745 102.7 214.225 102.7C216.015 102.7 216.665 104.11 216.675 105.51V105.7H212.655C212.735 106.69 213.355 107.29 214.225 107.29C214.865 107.29 215.405 107.04 215.585 106.47H216.595ZM212.665 104.93H215.655C215.575 104.11 215.115 103.52 214.225 103.52C213.345 103.52 212.785 104.09 212.665 104.93ZM218.718 106.39C218.718 106.89 218.928 107.17 219.378 107.17H219.728V108.01H219.228C218.128 108.01 217.708 107.37 217.708 106.49V103.65H216.918V102.83H217.708V101.63L218.718 101.18V102.83H219.718V103.65H218.718V106.39ZM220.451 104.4C220.571 103.61 221.231 102.69 222.581 102.69C224.391 102.69 224.711 103.82 224.711 104.78V106.88C224.711 107.27 224.741 107.72 224.791 108H223.721C223.701 107.78 223.701 107.57 223.701 107.32V107.1H223.691C223.541 107.51 223.111 108.13 222.011 108.13C220.811 108.13 220.201 107.37 220.201 106.59C220.201 105.14 222.001 105.06 222.761 104.93C223.431 104.82 223.691 104.66 223.691 104.23C223.691 103.8 223.291 103.52 222.601 103.52C222.011 103.52 221.571 103.86 221.451 104.4H220.451ZM221.221 106.57C221.221 107.02 221.621 107.32 222.241 107.32C222.981 107.32 223.711 106.85 223.711 105.6V104.97C223.601 105.28 223.351 105.57 222.361 105.74C221.631 105.88 221.221 106.09 221.221 106.57ZM225.73 100.86H226.76V108H225.73V100.86ZM230.636 104.38C230.576 103.76 230.066 103.52 229.566 103.52C229.096 103.52 228.656 103.79 228.656 104.19C228.656 104.57 229.016 104.79 229.496 104.91C229.736 104.97 229.956 105.02 230.186 105.08C230.996 105.29 231.716 105.68 231.716 106.52C231.716 107.58 230.636 108.13 229.636 108.13C228.676 108.13 227.596 107.69 227.496 106.43H228.516C228.626 107.04 229.006 107.3 229.656 107.3C230.156 107.3 230.696 107.12 230.696 106.58C230.696 106.15 230.286 106.01 229.826 105.89C229.586 105.83 229.336 105.77 229.096 105.7C228.296 105.5 227.646 105.03 227.646 104.23C227.646 103.27 228.606 102.7 229.596 102.7C230.656 102.7 231.526 103.26 231.636 104.38H230.636ZM234.625 100.86H235.705V107.09H239.115V108H234.625V100.86ZM239.855 100.86H240.935V107.09H244.345V108H239.855V100.86ZM251.312 105.85C251.012 107.1 249.862 108.13 248.052 108.13C245.762 108.13 244.422 106.5 244.422 104.43C244.422 102.38 245.772 100.73 248.062 100.73C249.852 100.73 250.872 101.67 251.312 103.01H250.232C249.852 102.13 249.192 101.64 248.062 101.64C246.412 101.64 245.502 102.91 245.502 104.43C245.502 105.95 246.402 107.22 248.062 107.22C249.232 107.22 249.952 106.65 250.242 105.85H251.312Z" fill="white"/>
<path d="M101.011 19.7435L94.8698 25.6917C94.4453 26.1028 93.7589 26.1028 93.3389 25.6917L92.3184 24.7032C91.8939 24.2921 91.8939 23.6273 92.3184 23.2206L96.6716 19.0044L92.3184 14.7882C91.8939 14.3771 91.8939 13.7123 92.3184 13.3055L93.3344 12.3083C93.7589 11.8972 94.4453 11.8972 94.8653 12.3083L101.007 18.2565C101.436 18.6676 101.436 19.3324 101.011 19.7435ZM109.682 18.2565L103.54 12.3083C103.116 11.8972 102.429 11.8972 102.009 12.3083L100.989 13.2968C100.564 13.7079 100.564 14.3727 100.989 14.7794L105.342 18.9956L100.989 23.2118C100.564 23.6229 100.564 24.2877 100.989 24.6945L102.009 25.6829C102.434 26.094 103.12 26.094 103.54 25.6829L109.682 19.7348C110.106 19.3324 110.106 18.6676 109.682 18.2565Z" fill="white"/>
<path d="M139.575 106.44L134.727 104L139.575 101.56C139.978 101.357 140.12 100.891 139.89 100.527L139.226 99.4728C138.997 99.1086 138.486 98.9884 138.093 99.2064L133.364 101.835L133.482 96.7661C133.492 96.3457 133.123 96 132.664 96H131.336C130.877 96 130.508 96.3457 130.518 96.7661L130.636 101.835L125.907 99.2065C125.514 98.9885 125.003 99.1087 124.774 99.4728L124.11 100.527C123.88 100.891 124.022 101.357 124.425 101.56L129.273 104L124.425 106.44C124.022 106.643 123.88 107.109 124.11 107.473L124.774 108.527C125.003 108.891 125.514 109.012 125.907 108.794L130.636 106.165L130.518 111.234C130.508 111.654 130.877 112 131.336 112H132.664C133.123 112 133.492 111.654 133.482 111.234L133.364 106.165L138.093 108.794C138.486 109.012 138.997 108.891 139.226 108.527L139.89 107.473C140.12 107.109 139.978 106.643 139.575 106.44Z" fill="white"/>
<defs>
<linearGradient id="paint0_linear_727_591" x1="155" y1="4" x2="155" y2="64" gradientUnits="userSpaceOnUse">
<stop stop-color="#FF6543"/>
<stop offset="1" stop-color="#E45045"/>
</linearGradient>
<linearGradient id="paint1_linear_727_591" x1="155" y1="0" x2="155" y2="68" gradientUnits="userSpaceOnUse">
<stop stop-color="#FF8159"/>
<stop offset="1" stop-color="#994D35"/>
</linearGradient>
<linearGradient id="paint2_linear_727_591" x1="233" y1="34.5" x2="342" y2="34.5" gradientUnits="userSpaceOnUse">
<stop stop-color="#FF8159"/>
<stop offset="1" stop-color="white" stop-opacity="0"/>
</linearGradient>
<linearGradient id="paint3_linear_727_591" x1="186" y1="88" x2="186" y2="148" gradientUnits="userSpaceOnUse">
<stop stop-color="#8CAA8C"/>
<stop offset="1" stop-color="#638463"/>
</linearGradient>
<linearGradient id="paint4_linear_727_591" x1="186" y1="84" x2="186" y2="152" gradientUnits="userSpaceOnUse">
<stop stop-color="#2BDCBC"/>
<stop offset="1" stop-color="#177665"/>
</linearGradient>
<linearGradient id="paint5_linear_727_591" x1="-2.45568e-10" y1="118.5" x2="108" y2="118.5" gradientUnits="userSpaceOnUse">
<stop stop-color="white" stop-opacity="0"/>
<stop offset="1" stop-color="#2BDCBC"/>
</linearGradient>
</defs>
</svg>
