<svg width="306" height="254" viewBox="0 0 306 254" fill="none" xmlns="http://www.w3.org/2000/svg">
<path d="M159 223V245C159 249.418 162.582 253 167 253H306" stroke="url(#paint0_linear_710_2249)"/>
<path d="M159 30V9C159 4.58172 155.418 1 151 1L0 1" stroke="url(#paint1_linear_710_2249)"/>
<rect x="47" y="32" width="218" height="189" rx="4" fill="white"/>
<rect x="57" y="121" width="197" height="38" rx="4" fill="#F8F8F8"/>
<rect x="57.5" y="121.5" width="196" height="37" rx="3.5" stroke="black" stroke-opacity="0.05"/>
<path d="M200.35 137.63L200.57 137.02L201.61 137.39V136.31H202.26V137.4L203.34 137.01L203.57 137.63L202.49 138.01L203.11 138.89L202.58 139.27L201.93 138.34L201.3 139.27L200.76 138.89L201.38 137.99L200.35 137.63ZM204.056 137.63L204.276 137.02L205.316 137.39V136.31H205.966V137.4L207.046 137.01L207.276 137.63L206.196 138.01L206.816 138.89L206.286 139.27L205.636 138.34L205.006 139.27L204.466 138.89L205.086 137.99L204.056 137.63ZM207.762 137.63L207.982 137.02L209.023 137.39V136.31H209.673V137.4L210.753 137.01L210.983 137.63L209.903 138.01L210.523 138.89L209.993 139.27L209.342 138.34L208.713 139.27L208.172 138.89L208.793 137.99L207.762 137.63ZM211.469 137.63L211.689 137.02L212.729 137.39V136.31H213.379V137.4L214.459 137.01L214.689 137.63L213.609 138.01L214.229 138.89L213.699 139.27L213.049 138.34L212.419 139.27L211.879 138.89L212.499 137.99L211.469 137.63ZM215.175 137.63L215.395 137.02L216.435 137.39V136.31H217.085V137.4L218.165 137.01L218.395 137.63L217.315 138.01L217.935 138.89L217.405 139.27L216.755 138.34L216.125 139.27L215.585 138.89L216.205 137.99L215.175 137.63ZM221.631 143.18C222.711 143.18 223.141 141.76 223.141 140.43C223.141 139.1 222.711 137.76 221.631 137.76C220.551 137.76 220.121 139.1 220.121 140.43C220.121 141.76 220.551 143.18 221.631 143.18ZM218.981 140.43C218.981 138.59 219.641 136.8 221.631 136.8C223.621 136.8 224.281 138.59 224.281 140.43C224.281 142.27 223.621 144.14 221.631 144.14C219.641 144.14 218.981 142.27 218.981 140.43ZM227.632 143.18C228.712 143.18 229.142 141.76 229.142 140.43C229.142 139.1 228.712 137.76 227.632 137.76C226.552 137.76 226.122 139.1 226.122 140.43C226.122 141.76 226.552 143.18 227.632 143.18ZM224.982 140.43C224.982 138.59 225.642 136.8 227.632 136.8C229.622 136.8 230.282 138.59 230.282 140.43C230.282 142.27 229.622 144.14 227.632 144.14C225.642 144.14 224.982 142.27 224.982 140.43ZM230.984 139.29C230.984 137.85 232.064 136.78 233.594 136.78C234.364 136.78 235.044 137.06 235.504 137.56C236.054 138.16 236.244 139.11 236.244 140.32C236.244 142.35 235.494 144.14 233.604 144.14C232.164 144.14 231.334 143.34 231.164 142.32H232.304C232.434 142.73 232.734 143.19 233.574 143.19C234.594 143.19 234.974 142.26 235.064 141C234.814 141.31 234.244 141.71 233.434 141.71C232.004 141.71 230.984 140.68 230.984 139.29ZM232.124 139.23C232.124 140.08 232.744 140.75 233.594 140.75C234.464 140.75 235.054 140.01 235.054 139.23C235.054 138.37 234.414 137.74 233.594 137.74C232.764 137.74 232.124 138.39 232.124 139.23ZM237.127 138.8C237.197 137.61 238.017 136.8 239.387 136.8C240.727 136.8 241.577 137.51 241.577 138.65C241.577 139.44 241.227 139.88 240.697 140.19C241.467 140.49 241.887 141.05 241.887 141.97C241.897 143.13 241.007 144.14 239.437 144.14C237.927 144.14 236.997 143.38 236.857 142.05L236.847 141.94H238.017L238.027 142.02C238.097 142.79 238.647 143.18 239.417 143.18C240.247 143.18 240.767 142.65 240.767 141.9C240.767 141.11 240.117 140.74 239.257 140.74C239.147 140.74 238.977 140.74 238.867 140.75V139.76C239.047 139.76 239.187 139.75 239.357 139.74C240.007 139.7 240.437 139.41 240.437 138.76C240.437 138.12 240.027 137.76 239.367 137.76C238.707 137.76 238.357 138.13 238.277 138.65L238.257 138.8H237.127Z" fill="#7F8082"/>
<rect x="57" y="169" width="197" height="38" rx="4" fill="#F8F8F8"/>
<rect x="57.5" y="169.5" width="196" height="37" rx="3.5" stroke="black" stroke-opacity="0.05"/>
<path d="M202.35 186.63L202.57 186.02L203.61 186.39V185.31H204.26V186.4L205.34 186.01L205.57 186.63L204.49 187.01L205.11 187.89L204.58 188.27L203.93 187.34L203.3 188.27L202.76 187.89L203.38 186.99L202.35 186.63ZM206.056 186.63L206.276 186.02L207.316 186.39V185.31H207.966V186.4L209.046 186.01L209.276 186.63L208.196 187.01L208.816 187.89L208.286 188.27L207.636 187.34L207.006 188.27L206.466 187.89L207.086 186.99L206.056 186.63ZM209.762 186.63L209.982 186.02L211.023 186.39V185.31H211.673V186.4L212.753 186.01L212.983 186.63L211.903 187.01L212.523 187.89L211.993 188.27L211.342 187.34L210.713 188.27L210.172 187.89L210.793 186.99L209.762 186.63ZM213.469 186.63L213.689 186.02L214.729 186.39V185.31H215.379V186.4L216.459 186.01L216.689 186.63L215.609 187.01L216.229 187.89L215.699 188.27L215.049 187.34L214.419 188.27L213.879 187.89L214.499 186.99L213.469 186.63ZM217.175 186.63L217.395 186.02L218.435 186.39V185.31H219.085V186.4L220.165 186.01L220.395 186.63L219.315 187.01L219.935 187.89L219.405 188.27L218.755 187.34L218.125 188.27L217.585 187.89L218.205 186.99L217.175 186.63ZM225.716 186.77C224.286 188.18 223.146 190.79 223.016 193H221.876C222.066 190.37 223.176 188.18 224.356 186.84H220.946V185.86H225.716V186.77ZM225.329 191.27V190.21L228.419 185.86H229.559V190.32H230.389V191.27H229.559V193H228.419V191.27H225.329ZM226.389 190.32H228.419V187.47H228.389L226.389 190.32ZM231.07 189.6C231.07 187.69 231.78 185.78 233.74 185.78C235.24 185.78 235.93 186.58 236.12 187.6H234.98C234.83 187.2 234.64 186.73 233.78 186.73C232.67 186.73 232.33 187.87 232.23 188.96C232.53 188.57 233.11 188.21 233.94 188.21C235.35 188.21 236.33 189.26 236.33 190.62C236.33 192.07 235.25 193.14 233.72 193.14C232.9 193.14 232.2 192.8 231.74 192.25C231.23 191.65 231.07 190.76 231.07 189.6ZM232.3 190.68C232.3 191.52 232.89 192.18 233.72 192.18C234.55 192.18 235.19 191.52 235.19 190.68C235.19 189.84 234.56 189.17 233.72 189.17C232.87 189.17 232.3 189.82 232.3 190.68ZM237.035 188.17C237.035 186.67 238.035 185.8 239.495 185.8C240.855 185.8 241.825 186.63 241.825 187.89C241.825 189.1 241.265 189.61 240.365 190.3C239.565 190.92 238.735 191.32 238.425 192.02H241.905V193H236.935C236.995 191.42 237.875 190.7 239.005 189.95C240.185 189.16 240.685 188.83 240.685 187.95C240.685 187.3 240.255 186.75 239.465 186.75C238.625 186.75 238.175 187.34 238.175 188.17H237.035Z" fill="#7F8082"/>
<path d="M106.856 106H105.288L109.544 94.576H111.448L115.704 106H114.136L112.888 102.656H108.12L106.856 106ZM108.568 101.408H112.44L110.52 95.936H110.472L108.568 101.408ZM126.858 102.624C126.41 104.496 124.618 106.208 121.706 106.208C117.946 106.208 115.882 103.504 115.882 100.288C115.882 97.072 117.946 94.368 121.706 94.368C124.57 94.368 126.138 95.904 126.842 97.936H125.322C124.698 96.496 123.642 95.648 121.706 95.648C118.858 95.648 117.402 97.808 117.402 100.288C117.402 102.768 118.842 104.928 121.706 104.928C123.658 104.928 124.874 103.952 125.338 102.624H126.858ZM135.584 94.576H137.104V106H135.584V100.912H130.08V106H128.56V94.576H130.08V99.632H135.584V94.576ZM142.467 106V94.576H146.563C149.171 94.576 150.435 96.032 150.435 97.824C150.435 99.456 149.331 100.496 148.051 100.8C149.155 101.088 149.491 101.952 149.923 103.392C150.243 104.448 150.483 105.088 150.915 105.84V106H149.299C148.915 105.216 148.627 104.16 148.291 103.264C147.891 102.192 147.427 101.328 146.051 101.328H143.987V106H142.467ZM143.987 100.048H146.499C148.115 100.048 148.899 99.168 148.899 97.824C148.899 96.8 148.339 95.856 146.403 95.856H143.987V100.048ZM159.094 103.536C158.63 105.296 157.238 106.192 155.398 106.192C152.95 106.192 151.334 104.416 151.334 101.824C151.334 99.328 153.03 97.536 155.366 97.536C158.278 97.536 159.19 99.872 159.222 102V102.256H152.726C152.838 103.984 153.894 104.992 155.366 104.992C156.47 104.992 157.398 104.56 157.686 103.536H159.094ZM152.742 101.104H157.766C157.638 99.664 156.838 98.72 155.366 98.72C153.878 98.72 152.934 99.68 152.742 101.104ZM167.887 103.472C167.423 105.2 166.223 106.192 164.223 106.192C161.647 106.192 159.983 104.368 159.983 101.872C159.983 99.376 161.647 97.536 164.223 97.536C166.335 97.536 167.471 98.704 167.823 100.208H166.383C166.079 99.456 165.519 98.72 164.175 98.72C162.495 98.72 161.423 100.096 161.423 101.872C161.423 103.632 162.495 104.992 164.175 104.992C165.375 104.992 166.063 104.448 166.431 103.472H167.887ZM176.454 103.536C175.99 105.296 174.598 106.192 172.758 106.192C170.31 106.192 168.694 104.416 168.694 101.824C168.694 99.328 170.39 97.536 172.726 97.536C175.638 97.536 176.55 99.872 176.582 102V102.256H170.086C170.198 103.984 171.254 104.992 172.726 104.992C173.83 104.992 174.758 104.56 175.046 103.536H176.454ZM170.102 101.104H175.126C174.998 99.664 174.198 98.72 172.726 98.72C171.238 98.72 170.294 99.68 170.102 101.104ZM179.423 96.176H177.887V94.576H179.423V96.176ZM177.855 106V97.728H179.295V106H177.855ZM181.816 97.728C182.6 100 183.368 102.272 184.152 104.544H184.168L186.472 97.728H188.04C187 100.48 185.976 103.248 184.936 106H183.352C182.312 103.248 181.288 100.48 180.248 97.728H181.816ZM195.931 103.536C195.467 105.296 194.075 106.192 192.235 106.192C189.787 106.192 188.171 104.416 188.171 101.824C188.171 99.328 189.867 97.536 192.203 97.536C195.115 97.536 196.027 99.872 196.059 102V102.256H189.563C189.675 103.984 190.731 104.992 192.203 104.992C193.307 104.992 194.235 104.56 194.523 103.536H195.931ZM189.579 101.104H194.603C194.475 99.664 193.675 98.72 192.203 98.72C190.715 98.72 189.771 99.68 189.579 101.104ZM200.596 97.536C202.1 97.536 203.14 98.544 203.444 99.408H203.46V94.576H204.9V106H203.46V104.352H203.444C203.14 105.2 202.1 106.192 200.596 106.192C198.26 106.192 196.82 104.4 196.82 101.84C196.82 99.28 198.26 97.536 200.596 97.536ZM198.26 101.84C198.26 103.632 199.14 104.96 200.884 104.96C202.676 104.96 203.508 103.472 203.508 101.84C203.508 100.224 202.676 98.752 200.884 98.752C199.188 98.752 198.26 100.048 198.26 101.84Z" fill="#2F384B"/>
<path d="M68.68 144H67.168L70.312 135.432H72.124L75.256 144H73.732L72.904 141.672H69.508L68.68 144ZM69.916 140.508H72.496L71.224 136.752H71.188L69.916 140.508ZM81.5134 141.984C81.2134 143.388 80.1454 144.168 78.6574 144.168C76.7854 144.168 75.3934 142.872 75.3934 140.904C75.3934 138.912 76.7854 137.628 78.6574 137.628C80.1934 137.628 81.2254 138.492 81.4654 139.764H80.1454C79.9174 139.164 79.4494 138.732 78.6334 138.732C77.4934 138.732 76.7614 139.692 76.7614 140.904C76.7614 142.116 77.4934 143.052 78.6334 143.052C79.3894 143.052 79.9534 142.704 80.1814 141.984H81.5134ZM88.1758 141.984C87.8758 143.388 86.8078 144.168 85.3198 144.168C83.4478 144.168 82.0558 142.872 82.0558 140.904C82.0558 138.912 83.4478 137.628 85.3198 137.628C86.8558 137.628 87.8878 138.492 88.1278 139.764H86.8078C86.5798 139.164 86.1118 138.732 85.2958 138.732C84.1558 138.732 83.4238 139.692 83.4238 140.904C83.4238 142.116 84.1558 143.052 85.2958 143.052C86.0518 143.052 86.6158 142.704 86.8438 141.984H88.1758ZM91.9221 144.168C90.0861 144.168 88.7181 142.848 88.7181 140.904C88.7181 138.96 90.0861 137.628 91.9221 137.628C93.7461 137.628 95.1141 138.96 95.1141 140.904C95.1141 142.848 93.7461 144.168 91.9221 144.168ZM90.0741 140.904C90.0741 142.08 90.8061 143.04 91.9221 143.04C93.0261 143.04 93.7581 142.08 93.7581 140.904C93.7581 139.716 93.0261 138.756 91.9221 138.756C90.8061 138.756 90.0741 139.716 90.0741 140.904ZM95.9274 141.672V137.796H97.3074V141.384C97.3074 142.344 97.6194 142.968 98.4954 142.968C99.3474 142.968 99.9954 142.224 99.9954 140.676V137.796H101.387V144H100.019V142.908C99.6834 143.616 99.1194 144.168 98.1594 144.168C96.5394 144.168 95.9274 143.1 95.9274 141.672ZM102.626 144V137.796H103.994V138.888C104.318 138.18 104.894 137.628 105.854 137.628C107.462 137.628 108.086 138.696 108.086 140.124V144H106.706V140.412C106.706 139.452 106.382 138.828 105.518 138.828C104.654 138.828 104.018 139.572 104.018 141.12V144H102.626ZM110.956 141.864C110.956 142.536 111.148 142.896 111.748 142.896H112.156V144.012L111.484 144.024C110.056 144.036 109.588 143.184 109.588 142.032V138.876H108.616V137.796H109.588V136.38L110.956 135.768V137.796H112.168V138.876H110.956V141.864ZM115.656 135.432H117.528L120.384 140.4C120.732 141.048 121.044 141.648 121.32 142.116C121.308 141.48 121.296 140.832 121.296 140.1V135.432H122.724V144H120.84L118.116 139.332C117.72 138.564 117.336 137.88 117.06 137.364C117.072 138.012 117.084 138.804 117.084 139.512V144H115.656V135.432ZM124.059 141.672V137.796H125.439V141.384C125.439 142.344 125.751 142.968 126.627 142.968C127.479 142.968 128.127 142.224 128.127 140.676V137.796H129.519V144H128.151V142.908C127.815 143.616 127.251 144.168 126.291 144.168C124.671 144.168 124.059 143.1 124.059 141.672ZM130.758 144V137.796H132.126V138.828C132.294 138.252 132.882 137.628 133.758 137.628C134.658 137.628 135.222 138.012 135.522 138.816C135.882 138.048 136.398 137.628 137.274 137.628C138.822 137.628 139.53 138.696 139.53 140.124V144H138.15V140.412C138.15 139.452 137.838 138.828 137.082 138.828C136.338 138.828 135.822 139.608 135.822 141.012V144H134.466V140.412C134.466 139.452 134.274 138.828 133.41 138.828C132.414 138.828 132.15 139.884 132.15 141.12V144H130.758ZM144.145 137.64C145.837 137.64 147.025 138.924 147.025 140.88C147.025 142.848 145.825 144.156 144.133 144.156C143.053 144.156 142.381 143.472 142.165 142.932H142.153V144H140.725V135.432H142.141V138.912H142.153C142.357 138.336 143.053 137.64 144.145 137.64ZM142.045 140.88C142.045 142.008 142.621 143.04 143.845 143.04C145.021 143.04 145.633 142.104 145.633 140.88C145.633 139.68 144.997 138.756 143.845 138.756C142.645 138.756 142.045 139.788 142.045 140.88ZM153.52 142.164C153.16 143.424 152.092 144.168 150.616 144.168C148.756 144.168 147.496 142.836 147.496 140.88C147.496 138.996 148.816 137.628 150.616 137.628C152.74 137.628 153.604 139.26 153.616 141.024C153.616 141.084 153.616 141.18 153.604 141.288H148.828C148.936 142.38 149.632 143.052 150.616 143.052C151.324 143.052 151.924 142.776 152.14 142.164H153.52ZM148.84 140.304H152.248C152.164 139.416 151.648 138.708 150.616 138.708C149.632 138.708 148.972 139.344 148.84 140.304ZM155.898 137.796V138.948C156.222 138.084 156.87 137.748 157.758 137.736V139.056C157.686 139.056 157.326 139.056 157.134 139.116C156.522 139.236 155.922 139.56 155.922 141.168V144H154.53V137.796H155.898Z" fill="#7F8082"/>
<path d="M67.888 193V184.432H71.104C73.06 184.432 74.128 185.464 74.128 186.868C74.128 188.116 73.324 188.884 72.4 189.124C73.204 189.352 73.48 190 73.78 190.996C74.02 191.764 74.2 192.364 74.512 192.904V193H73.012C72.736 192.46 72.532 191.704 72.268 190.996C71.98 190.204 71.608 189.64 70.564 189.64H69.34V193H67.888ZM69.34 188.44H71.032C72.112 188.44 72.688 187.864 72.688 186.976C72.688 186.22 72.208 185.62 70.984 185.62H69.34V188.44ZM77.9998 193.168C76.1638 193.168 74.7958 191.848 74.7958 189.904C74.7958 187.96 76.1638 186.628 77.9998 186.628C79.8238 186.628 81.1918 187.96 81.1918 189.904C81.1918 191.848 79.8238 193.168 77.9998 193.168ZM76.1518 189.904C76.1518 191.08 76.8838 192.04 77.9998 192.04C79.1038 192.04 79.8358 191.08 79.8358 189.904C79.8358 188.716 79.1038 187.756 77.9998 187.756C76.8838 187.756 76.1518 188.716 76.1518 189.904ZM82.0051 190.672V186.796H83.3851V190.384C83.3851 191.344 83.6971 191.968 84.5731 191.968C85.4251 191.968 86.0731 191.224 86.0731 189.676V186.796H87.4651V193H86.0971V191.908C85.7611 192.616 85.1971 193.168 84.2371 193.168C82.6171 193.168 82.0051 192.1 82.0051 190.672ZM90.4186 190.864C90.4186 191.536 90.6106 191.896 91.2106 191.896H91.6186V193.012L90.9466 193.024C89.5186 193.036 89.0506 192.184 89.0506 191.032V187.876H88.0786V186.796H89.0506V185.38L90.4186 184.768V186.796H91.6306V187.876H90.4186V190.864ZM93.9707 185.8H92.5187V184.432H93.9707V185.8ZM92.5067 193V186.796H93.8987V193H92.5067ZM95.2198 193V186.796H96.5878V187.888C96.9118 187.18 97.4878 186.628 98.4478 186.628C100.056 186.628 100.68 187.696 100.68 189.124V193H99.2998V189.412C99.2998 188.452 98.9758 187.828 98.1118 187.828C97.2478 187.828 96.6118 188.572 96.6118 190.12V193H95.2198ZM106.334 186.796H107.774V192.4C107.774 194.428 106.346 195.328 104.726 195.328C103.07 195.328 101.918 194.464 101.762 193.192H103.13C103.25 193.948 103.85 194.236 104.726 194.236C105.698 194.236 106.334 193.72 106.334 192.556V191.8H106.322C106.058 192.46 105.494 193.012 104.378 193.012C102.674 193.012 101.498 191.74 101.498 189.808C101.498 187.888 102.65 186.64 104.378 186.64C105.47 186.64 106.094 187.216 106.322 187.768H106.334V186.796ZM102.878 189.808C102.878 190.912 103.454 191.884 104.666 191.884C105.974 191.884 106.442 190.732 106.442 189.808C106.442 188.908 105.842 187.756 104.666 187.756C103.49 187.756 102.878 188.728 102.878 189.808ZM111.624 184.432H113.496L116.352 189.4C116.7 190.048 117.012 190.648 117.288 191.116C117.276 190.48 117.264 189.832 117.264 189.1V184.432H118.692V193H116.808L114.084 188.332C113.688 187.564 113.304 186.88 113.028 186.364C113.04 187.012 113.052 187.804 113.052 188.512V193H111.624V184.432ZM120.028 190.672V186.796H121.408V190.384C121.408 191.344 121.72 191.968 122.596 191.968C123.448 191.968 124.096 191.224 124.096 189.676V186.796H125.488V193H124.12V191.908C123.784 192.616 123.22 193.168 122.26 193.168C120.64 193.168 120.028 192.1 120.028 190.672ZM126.727 193V186.796H128.095V187.828C128.263 187.252 128.851 186.628 129.727 186.628C130.627 186.628 131.191 187.012 131.491 187.816C131.851 187.048 132.367 186.628 133.243 186.628C134.791 186.628 135.499 187.696 135.499 189.124V193H134.119V189.412C134.119 188.452 133.807 187.828 133.051 187.828C132.307 187.828 131.791 188.608 131.791 190.012V193H130.435V189.412C130.435 188.452 130.243 187.828 129.379 187.828C128.383 187.828 128.119 188.884 128.119 190.12V193H126.727ZM140.114 186.64C141.806 186.64 142.994 187.924 142.994 189.88C142.994 191.848 141.794 193.156 140.102 193.156C139.022 193.156 138.35 192.472 138.134 191.932H138.122V193H136.694V184.432H138.11V187.912H138.122C138.326 187.336 139.022 186.64 140.114 186.64ZM138.014 189.88C138.014 191.008 138.59 192.04 139.814 192.04C140.99 192.04 141.602 191.104 141.602 189.88C141.602 188.68 140.966 187.756 139.814 187.756C138.614 187.756 138.014 188.788 138.014 189.88ZM149.488 191.164C149.128 192.424 148.06 193.168 146.584 193.168C144.724 193.168 143.464 191.836 143.464 189.88C143.464 187.996 144.784 186.628 146.584 186.628C148.708 186.628 149.572 188.26 149.584 190.024C149.584 190.084 149.584 190.18 149.572 190.288H144.796C144.904 191.38 145.6 192.052 146.584 192.052C147.292 192.052 147.892 191.776 148.108 191.164H149.488ZM144.808 189.304H148.216C148.132 188.416 147.616 187.708 146.584 187.708C145.6 187.708 144.94 188.344 144.808 189.304ZM151.867 186.796V187.948C152.191 187.084 152.839 186.748 153.727 186.736V188.056C153.655 188.056 153.295 188.056 153.103 188.116C152.491 188.236 151.891 188.56 151.891 190.168V193H150.499V186.796H151.867Z" fill="#7F8082"/>
<rect x="0.5" y="-0.5" width="223" height="194" rx="4.5" transform="matrix(1 0 0 -1 44 223)" stroke="url(#paint2_linear_710_2249)"/>
<path d="M170 68C170 74.0751 165.075 79 159 79C152.925 79 148 74.0751 148 68C148 61.9249 152.925 57 159 57C165.075 57 170 61.9249 170 68ZM157.728 73.8244L165.889 65.6631C166.166 65.386 166.166 64.9366 165.889 64.6595L164.885 63.6559C164.608 63.3787 164.159 63.3787 163.882 63.6559L157.226 70.3117L154.118 67.2042C153.841 66.9271 153.392 66.9271 153.115 67.2042L152.111 68.2078C151.834 68.485 151.834 68.9343 152.111 69.2115L156.724 73.8244C157.001 74.1015 157.45 74.1015 157.728 73.8244Z" fill="#00877A"/>
<defs>
<linearGradient id="paint0_linear_710_2249" x1="129.5" y1="205" x2="306" y2="253" gradientUnits="userSpaceOnUse">
<stop stop-color="white"/>
<stop offset="1" stop-color="#00877A" stop-opacity="0"/>
</linearGradient>
<linearGradient id="paint1_linear_710_2249" x1="156.5" y1="22.5" x2="7.97619e-07" y2="0.999999" gradientUnits="userSpaceOnUse">
<stop stop-color="#00877A"/>
<stop offset="1" stop-color="white" stop-opacity="0"/>
</linearGradient>
<linearGradient id="paint2_linear_710_2249" x1="112" y1="0" x2="112" y2="195" gradientUnits="userSpaceOnUse">
<stop stop-color="white"/>
<stop offset="1" stop-color="#00877A"/>
</linearGradient>
</defs>
</svg>
