<svg width="420" height="401" viewBox="0 0 420 401" fill="none" xmlns="http://www.w3.org/2000/svg">
<rect x="53" y="65" width="261" height="122" rx="5" fill="url(#paint0_linear_727_537)"/>
<path d="M53 95L314 95" stroke="#DFDFDF" stroke-width="0.5"/>
<path d="M102 65V95" stroke="#DFDFDF" stroke-width="0.5"/>
<path d="M122.036 87V77.004H125.606C127.51 77.004 128.84 77.914 128.84 79.65C128.84 80.756 128.28 81.47 127.202 81.89V81.904C128.308 82.114 129.232 82.8 129.232 84.158C129.232 86.16 127.776 87 125.536 87H122.036ZM123.73 85.6H125.536C126.726 85.6 127.538 85.166 127.538 84.088C127.538 83.066 126.782 82.618 125.676 82.618H123.73V85.6ZM123.73 81.246H125.312C126.502 81.246 127.174 80.812 127.174 79.762C127.174 78.712 126.502 78.404 125.382 78.404H123.73V81.246ZM130.378 84.284V79.762H131.988V83.948C131.988 85.068 132.352 85.796 133.374 85.796C134.368 85.796 135.124 84.928 135.124 83.122V79.762H136.748V87H135.152V85.726C134.76 86.552 134.102 87.196 132.982 87.196C131.092 87.196 130.378 85.95 130.378 84.284ZM142.099 81.932C142.015 81.12 141.371 80.798 140.713 80.798C140.069 80.798 139.523 81.162 139.523 81.666C139.523 82.17 139.957 82.464 140.699 82.646C141.021 82.73 141.343 82.8 141.665 82.898C142.841 83.206 143.765 83.78 143.765 84.928C143.765 86.37 142.337 87.196 140.797 87.196C139.341 87.196 137.899 86.524 137.745 84.788H139.341C139.481 85.586 139.971 85.95 140.811 85.95C141.497 85.95 142.169 85.684 142.169 85.012C142.169 84.424 141.609 84.228 141.007 84.074C140.657 83.99 140.307 83.906 139.971 83.808C138.809 83.5 137.955 82.842 137.955 81.722C137.955 80.406 139.257 79.566 140.741 79.566C142.295 79.566 143.485 80.364 143.653 81.932H142.099ZM146.484 78.6H144.79V77.004H146.484V78.6ZM144.776 87V79.762H146.4V87H144.776ZM147.941 87V79.762H149.537V81.036C149.915 80.21 150.587 79.566 151.707 79.566C153.583 79.566 154.311 80.812 154.311 82.478V87H152.701V82.814C152.701 81.694 152.323 80.966 151.315 80.966C150.307 80.966 149.565 81.834 149.565 83.64V87H147.941ZM162.294 84.858C161.874 86.328 160.628 87.196 158.906 87.196C156.736 87.196 155.266 85.642 155.266 83.36C155.266 81.162 156.806 79.566 158.906 79.566C161.384 79.566 162.392 81.47 162.406 83.528C162.406 83.598 162.406 83.71 162.392 83.836H156.82C156.946 85.11 157.758 85.894 158.906 85.894C159.732 85.894 160.432 85.572 160.684 84.858H162.294ZM156.834 82.688H160.81C160.712 81.652 160.11 80.826 158.906 80.826C157.758 80.826 156.988 81.568 156.834 82.688ZM167.379 81.932C167.295 81.12 166.651 80.798 165.993 80.798C165.349 80.798 164.803 81.162 164.803 81.666C164.803 82.17 165.237 82.464 165.979 82.646C166.301 82.73 166.623 82.8 166.945 82.898C168.121 83.206 169.045 83.78 169.045 84.928C169.045 86.37 167.617 87.196 166.077 87.196C164.621 87.196 163.179 86.524 163.025 84.788H164.621C164.761 85.586 165.251 85.95 166.091 85.95C166.777 85.95 167.449 85.684 167.449 85.012C167.449 84.424 166.889 84.228 166.287 84.074C165.937 83.99 165.587 83.906 165.251 83.808C164.089 83.5 163.235 82.842 163.235 81.722C163.235 80.406 164.537 79.566 166.021 79.566C167.575 79.566 168.765 80.364 168.933 81.932H167.379ZM173.962 81.932C173.878 81.12 173.234 80.798 172.576 80.798C171.932 80.798 171.386 81.162 171.386 81.666C171.386 82.17 171.82 82.464 172.562 82.646C172.884 82.73 173.206 82.8 173.528 82.898C174.704 83.206 175.628 83.78 175.628 84.928C175.628 86.37 174.2 87.196 172.66 87.196C171.204 87.196 169.762 86.524 169.608 84.788H171.204C171.344 85.586 171.834 85.95 172.674 85.95C173.36 85.95 174.032 85.684 174.032 85.012C174.032 84.424 173.472 84.228 172.87 84.074C172.52 83.99 172.17 83.906 171.834 83.808C170.672 83.5 169.818 82.842 169.818 81.722C169.818 80.406 171.12 79.566 172.604 79.566C174.158 79.566 175.348 80.364 175.516 81.932H173.962ZM179.686 87V77.004H183.256C185.16 77.004 186.49 77.914 186.49 79.65C186.49 80.756 185.93 81.47 184.852 81.89V81.904C185.958 82.114 186.882 82.8 186.882 84.158C186.882 86.16 185.426 87 183.186 87H179.686ZM181.38 85.6H183.186C184.376 85.6 185.188 85.166 185.188 84.088C185.188 83.066 184.432 82.618 183.326 82.618H181.38V85.6ZM181.38 81.246H182.962C184.152 81.246 184.824 80.812 184.824 79.762C184.824 78.712 184.152 78.404 183.032 78.404H181.38V81.246ZM188.083 81.974C188.265 80.826 189.231 79.552 191.121 79.552C193.515 79.552 194.173 80.994 194.173 82.548V85.334C194.173 85.88 194.201 86.58 194.285 87H192.633C192.605 86.72 192.591 86.44 192.591 86.146V85.81H192.577C192.339 86.398 191.723 87.182 190.281 87.182C188.643 87.182 187.733 86.174 187.733 85.026C187.733 83.024 190.183 82.856 191.233 82.688C192.157 82.548 192.577 82.366 192.577 81.75C192.577 81.176 192.031 80.812 191.149 80.812C190.365 80.812 189.791 81.26 189.623 81.974H188.083ZM189.343 84.97C189.343 85.544 189.833 85.964 190.687 85.964C191.653 85.964 192.605 85.362 192.605 83.64V82.884C192.451 83.29 192.073 83.64 190.841 83.878C189.847 84.06 189.343 84.368 189.343 84.97ZM195.556 87V79.762H197.152V81.036C197.53 80.21 198.202 79.566 199.322 79.566C201.198 79.566 201.926 80.812 201.926 82.478V87H200.316V82.814C200.316 81.694 199.938 80.966 198.93 80.966C197.922 80.966 197.18 81.834 197.18 83.64V87H195.556ZM204.952 87H203.328V77.004H204.952V82.758L207.808 79.762H209.754L206.73 82.856L209.838 87H207.892L205.638 83.948L204.952 84.606V87ZM214.524 87H212.76L216.428 77.004H218.542L222.196 87H220.418L219.452 84.284H215.49L214.524 87ZM215.966 82.926H218.976L217.492 78.544H217.45L215.966 82.926ZM229.497 84.648C229.147 86.286 227.901 87.196 226.165 87.196C223.981 87.196 222.357 85.684 222.357 83.388C222.357 81.064 223.981 79.566 226.165 79.566C227.957 79.566 229.161 80.574 229.441 82.058H227.901C227.635 81.358 227.089 80.854 226.137 80.854C224.807 80.854 223.953 81.974 223.953 83.388C223.953 84.802 224.807 85.894 226.137 85.894C227.019 85.894 227.677 85.488 227.943 84.648H229.497ZM237.269 84.648C236.919 86.286 235.673 87.196 233.937 87.196C231.753 87.196 230.129 85.684 230.129 83.388C230.129 81.064 231.753 79.566 233.937 79.566C235.729 79.566 236.933 80.574 237.213 82.058H235.673C235.407 81.358 234.861 80.854 233.909 80.854C232.579 80.854 231.725 81.974 231.725 83.388C231.725 84.802 232.579 85.894 233.909 85.894C234.791 85.894 235.449 85.488 235.715 84.648H237.269ZM241.64 87.196C239.498 87.196 237.902 85.656 237.902 83.388C237.902 81.12 239.498 79.566 241.64 79.566C243.768 79.566 245.364 81.12 245.364 83.388C245.364 85.656 243.768 87.196 241.64 87.196ZM239.484 83.388C239.484 84.76 240.338 85.88 241.64 85.88C242.928 85.88 243.782 84.76 243.782 83.388C243.782 82.002 242.928 80.882 241.64 80.882C240.338 80.882 239.484 82.002 239.484 83.388ZM246.313 84.284V79.762H247.923V83.948C247.923 85.068 248.287 85.796 249.309 85.796C250.303 85.796 251.059 84.928 251.059 83.122V79.762H252.683V87H251.087V85.726C250.695 86.552 250.037 87.196 248.917 87.196C247.027 87.196 246.313 85.95 246.313 84.284ZM254.128 87V79.762H255.724V81.036C256.102 80.21 256.774 79.566 257.894 79.566C259.77 79.566 260.498 80.812 260.498 82.478V87H258.888V82.814C258.888 81.694 258.51 80.966 257.502 80.966C256.494 80.966 255.752 81.834 255.752 83.64V87H254.128ZM263.847 84.508C263.847 85.292 264.071 85.712 264.771 85.712H265.247V87.014L264.463 87.028C262.797 87.042 262.251 86.048 262.251 84.704V81.022H261.117V79.762H262.251V78.11L263.847 77.396V79.762H265.261V81.022H263.847V84.508Z" fill="#DFDFDF"/>
<rect x="0.5" y="-0.5" width="270" height="131" rx="4.5" transform="matrix(1 0 0 -1 48 191)" stroke="url(#paint1_linear_727_537)"/>
<rect x="0.5" y="-0.5" width="270" height="131" rx="4.5" transform="matrix(1 0 0 -1 103 342)" stroke="url(#paint2_linear_727_537)"/>
<path d="M81.76 170V162.86H84.36C85.57 162.86 86.46 163.57 86.46 164.77C86.46 165.52 86.04 166.03 85.33 166.35V166.36C86.15 166.5 86.76 167.05 86.76 167.98C86.76 169.31 85.82 170 84.3 170H81.76ZM82.71 169.2H84.46C85.25 169.2 85.81 168.75 85.81 167.98C85.81 167.22 85.25 166.78 84.46 166.78H82.71V169.2ZM82.71 165.98H84.18C85.01 165.98 85.51 165.57 85.51 164.77C85.51 163.97 85.01 163.66 84.18 163.66H82.71V165.98ZM87.6898 166.39C87.7998 165.64 88.4298 164.7 89.7798 164.7C91.6798 164.7 91.8598 165.93 91.8598 166.73V168.95C91.8598 169.34 91.8998 169.75 91.9398 170H90.9798C90.9598 169.75 90.9598 169.54 90.9598 169.25V169.05H90.9498C90.8298 169.45 90.3998 170.12 89.2498 170.12C88.0098 170.12 87.4398 169.33 87.4398 168.59C87.4398 167.13 89.2798 167.08 90.0598 166.94C90.7398 166.82 90.9598 166.63 90.9598 166.2C90.9598 165.77 90.5498 165.46 89.8098 165.46C89.1798 165.46 88.7098 165.83 88.5898 166.39H87.6898ZM88.3298 168.59C88.3298 169.08 88.7798 169.39 89.4098 169.39C90.1998 169.39 90.9798 168.88 90.9798 167.6L90.9698 166.88C90.8698 167.22 90.6498 167.52 89.5298 167.72C88.7798 167.85 88.3298 168.07 88.3298 168.59ZM92.9197 162.86H93.8197V170H92.9197V162.86ZM94.8874 166.39C94.9974 165.64 95.6274 164.7 96.9774 164.7C98.8774 164.7 99.0574 165.93 99.0574 166.73V168.95C99.0574 169.34 99.0974 169.75 99.1374 170H98.1774C98.1574 169.75 98.1574 169.54 98.1574 169.25V169.05H98.1474C98.0274 169.45 97.5974 170.12 96.4474 170.12C95.2074 170.12 94.6374 169.33 94.6374 168.59C94.6374 167.13 96.4774 167.08 97.2574 166.94C97.9374 166.82 98.1574 166.63 98.1574 166.2C98.1574 165.77 97.7474 165.46 97.0074 165.46C96.3774 165.46 95.9074 165.83 95.7874 166.39H94.8874ZM95.5274 168.59C95.5274 169.08 95.9774 169.39 96.6074 169.39C97.3974 169.39 98.1774 168.88 98.1774 167.6L98.1674 166.88C98.0674 167.22 97.8474 167.52 96.7274 167.72C95.9774 167.85 95.5274 168.07 95.5274 168.59ZM100.117 170V164.83H101.017V165.8C101.287 165.21 101.767 164.71 102.567 164.71C103.927 164.71 104.437 165.6 104.437 166.65V170H103.537V166.74C103.537 165.83 103.147 165.47 102.447 165.47C101.687 165.47 101.017 166.11 101.017 167.46V170H100.117ZM110.094 168.42C109.804 169.5 109.054 170.12 107.804 170.12C106.194 170.12 105.154 168.98 105.154 167.42C105.154 165.86 106.194 164.71 107.804 164.71C109.124 164.71 109.834 165.44 110.054 166.38H109.154C108.964 165.91 108.614 165.45 107.774 165.45C106.724 165.45 106.054 166.31 106.054 167.42C106.054 168.52 106.724 169.37 107.774 169.37C108.524 169.37 108.954 169.03 109.184 168.42H110.094ZM115.449 168.46C115.159 169.56 114.289 170.12 113.139 170.12C111.609 170.12 110.599 169.01 110.599 167.39C110.599 165.83 111.659 164.71 113.119 164.71C114.939 164.71 115.509 166.17 115.529 167.5V167.66H111.469C111.539 168.74 112.199 169.37 113.119 169.37C113.809 169.37 114.389 169.1 114.569 168.46H115.449ZM111.479 166.94H114.619C114.539 166.04 114.039 165.45 113.119 165.45C112.189 165.45 111.599 166.05 111.479 166.94Z" fill="#DFDFDF"/>
<path d="M226.63 161.59H227.72V162.73C228.85 162.89 229.63 163.58 229.75 164.91H228.53C228.4 164.09 227.99 163.69 227.15 163.69C226.45 163.69 225.88 163.98 225.88 164.71C225.88 165.36 226.5 165.62 227.42 165.89C228.63 166.25 229.83 166.55 229.83 168.06C229.83 169.34 228.85 170 227.72 170.14V171.29H226.63V170.13C225.38 169.95 224.47 169.17 224.38 167.73H225.61C225.67 168.67 226.32 169.16 227.24 169.16C228.04 169.16 228.62 168.82 228.62 168.07C228.62 167.29 227.96 167.14 227.06 166.86C225.88 166.51 224.69 166.13 224.67 164.72C224.66 163.55 225.56 162.89 226.63 162.73V161.59ZM233.441 170H232.301V164.89H230.561V164.12C231.501 164.12 232.211 163.92 232.481 162.86H233.441V170ZM234.457 168.27V167.21L237.547 162.86H238.687V167.32H239.517V168.27H238.687V170H237.547V168.27H234.457ZM235.517 167.32H237.547V164.47H237.517L235.517 167.32ZM240.1 165.29C240.1 163.85 241.18 162.78 242.71 162.78C243.48 162.78 244.16 163.06 244.62 163.56C245.17 164.16 245.36 165.11 245.36 166.32C245.36 168.35 244.61 170.14 242.72 170.14C241.28 170.14 240.45 169.34 240.28 168.32H241.42C241.55 168.73 241.85 169.19 242.69 169.19C243.71 169.19 244.09 168.26 244.18 167C243.93 167.31 243.36 167.71 242.55 167.71C241.12 167.71 240.1 166.68 240.1 165.29ZM241.24 165.23C241.24 166.08 241.86 166.75 242.71 166.75C243.58 166.75 244.17 166.01 244.17 165.23C244.17 164.37 243.53 163.74 242.71 163.74C241.88 163.74 241.24 164.39 241.24 165.23ZM246.343 168.72H247.603L246.803 171.25H245.783L246.343 168.72ZM252.843 163.81H249.963L249.683 165.67C250.013 165.38 250.493 165.21 251.043 165.21C252.473 165.21 253.433 166.13 253.433 167.66C253.433 169.04 252.383 170.14 250.883 170.14C249.373 170.14 248.473 169.23 248.333 168.1L249.473 168.09C249.583 168.67 250.113 169.17 250.873 169.17C251.633 169.17 252.293 168.59 252.293 167.66C252.293 166.79 251.793 166.17 250.853 166.17C250.223 166.17 249.833 166.5 249.603 166.88L248.473 166.78L249.033 162.85L252.843 162.86V163.81ZM258.561 163.81H255.681L255.401 165.67C255.731 165.38 256.211 165.21 256.761 165.21C258.191 165.21 259.151 166.13 259.151 167.66C259.151 169.04 258.101 170.14 256.601 170.14C255.091 170.14 254.191 169.23 254.051 168.1L255.191 168.09C255.301 168.67 255.831 169.17 256.591 169.17C257.351 169.17 258.011 168.59 258.011 167.66C258.011 166.79 257.511 166.17 256.571 166.17C255.941 166.17 255.551 166.5 255.321 166.88L254.191 166.78L254.751 162.85L258.561 162.86V163.81ZM259.703 165.17C259.703 163.67 260.703 162.8 262.163 162.8C263.523 162.8 264.493 163.63 264.493 164.89C264.493 166.1 263.933 166.61 263.033 167.3C262.233 167.92 261.403 168.32 261.093 169.02H264.573V170H259.603C259.663 168.42 260.543 167.7 261.673 166.95C262.853 166.16 263.353 165.83 263.353 164.95C263.353 164.3 262.923 163.75 262.133 163.75C261.293 163.75 260.843 164.34 260.843 165.17H259.703ZM265.568 168.72H266.818V170H265.568V168.72ZM270.29 169.18C271.37 169.18 271.8 167.76 271.8 166.43C271.8 165.1 271.37 163.76 270.29 163.76C269.21 163.76 268.78 165.1 268.78 166.43C268.78 167.76 269.21 169.18 270.29 169.18ZM267.64 166.43C267.64 164.59 268.3 162.8 270.29 162.8C272.28 162.8 272.94 164.59 272.94 166.43C272.94 168.27 272.28 170.14 270.29 170.14C268.3 170.14 267.64 168.27 267.64 166.43ZM276.291 169.18C277.371 169.18 277.801 167.76 277.801 166.43C277.801 165.1 277.371 163.76 276.291 163.76C275.211 163.76 274.781 165.1 274.781 166.43C274.781 167.76 275.211 169.18 276.291 169.18ZM273.641 166.43C273.641 164.59 274.301 162.8 276.291 162.8C278.281 162.8 278.941 164.59 278.941 166.43C278.941 168.27 278.281 170.14 276.291 170.14C274.301 170.14 273.641 168.27 273.641 166.43Z" fill="#DFDFDF"/>
<path d="M81.76 145V137.86H84.32C85.95 137.86 86.74 138.77 86.74 139.89C86.74 140.91 86.05 141.56 85.25 141.75C85.94 141.93 86.15 142.47 86.42 143.37C86.62 144.03 86.77 144.43 87.04 144.9V145H86.03C85.79 144.51 85.61 143.85 85.4 143.29C85.15 142.62 84.86 142.08 84 142.08H82.71V145H81.76ZM82.71 141.28H84.28C85.29 141.28 85.78 140.73 85.78 139.89C85.78 139.25 85.43 138.66 84.22 138.66H82.71V141.28ZM89.8916 145.12C88.3216 145.12 87.3016 143.94 87.3016 142.42C87.3016 140.9 88.3216 139.71 89.8916 139.71C91.4616 139.71 92.4816 140.9 92.4816 142.42C92.4816 143.94 91.4616 145.12 89.8916 145.12ZM88.2016 142.42C88.2016 143.48 88.8816 144.36 89.8916 144.36C90.9016 144.36 91.5816 143.48 91.5816 142.42C91.5816 141.35 90.9016 140.47 89.8916 140.47C88.8816 140.47 88.2016 141.35 88.2016 142.42ZM93.202 143.18V139.83H94.102V143.09C94.102 144 94.492 144.36 95.192 144.36C95.952 144.36 96.622 143.72 96.622 142.37V139.83H97.522V145H96.622V144.03C96.352 144.62 95.872 145.12 95.072 145.12C93.712 145.12 93.202 144.23 93.202 143.18ZM99.6886 143.55C99.6886 144.01 99.9486 144.26 100.349 144.26H100.709V145H100.259C99.2586 145 98.8086 144.41 98.8086 143.61V140.57H98.0386V139.83H98.8086V138.62L99.6886 138.22V139.83H100.679V140.57H99.6886V143.55ZM102.425 138.86H101.465V137.86H102.425V138.86ZM101.445 145V139.83H102.345V145H101.445ZM103.501 145V139.83H104.401V140.8C104.671 140.21 105.151 139.71 105.951 139.71C107.311 139.71 107.821 140.6 107.821 141.65V145H106.921V141.74C106.921 140.83 106.531 140.47 105.831 140.47C105.071 140.47 104.401 141.11 104.401 142.46V145H103.501ZM112.688 139.83H113.588V144.6C113.588 146.13 112.468 146.98 111.188 146.98C109.908 146.98 108.908 146.34 108.798 145.22H109.698C109.798 145.96 110.368 146.22 111.188 146.22C112.008 146.22 112.688 145.77 112.688 144.6V143.98H112.678C112.458 144.62 111.948 145.12 110.938 145.12C109.458 145.12 108.538 143.95 108.538 142.4C108.538 140.86 109.458 139.71 110.938 139.71C111.948 139.71 112.488 140.28 112.678 140.79H112.688V139.83ZM109.438 142.4C109.438 143.42 109.948 144.35 111.078 144.35C112.348 144.35 112.718 143.22 112.718 142.4C112.718 141.59 112.188 140.47 111.078 140.47C109.978 140.47 109.438 141.39 109.438 142.4ZM116.82 137.86H117.98L120.76 142.37C121.03 142.8 121.29 143.24 121.56 143.67C121.56 143.18 121.54 142.74 121.54 142.25V137.86H122.49V145H121.3L118.53 140.52C118.26 140.1 118.02 139.67 117.75 139.25C117.75 139.75 117.77 140.22 117.77 140.72V145H116.82V137.86ZM125.899 145.12C124.329 145.12 123.309 143.94 123.309 142.42C123.309 140.9 124.329 139.71 125.899 139.71C127.469 139.71 128.489 140.9 128.489 142.42C128.489 143.94 127.469 145.12 125.899 145.12ZM124.209 142.42C124.209 143.48 124.889 144.36 125.899 144.36C126.909 144.36 127.589 143.48 127.589 142.42C127.589 141.35 126.909 140.47 125.899 140.47C124.889 140.47 124.209 141.35 124.209 142.42ZM128.965 143.8H130.065V145H128.965V143.8Z" fill="#DFDFDF"/>
<path d="M233.42 145H232.28V139.89H230.54V139.12C231.48 139.12 232.19 138.92 232.46 137.86H233.42V145ZM234.784 140.17C234.784 138.67 235.784 137.8 237.244 137.8C238.604 137.8 239.574 138.63 239.574 139.89C239.574 141.1 239.014 141.61 238.114 142.3C237.314 142.92 236.484 143.32 236.174 144.02H239.654V145H234.684C234.744 143.42 235.624 142.7 236.754 141.95C237.934 141.16 238.434 140.83 238.434 139.95C238.434 139.3 238.004 138.75 237.214 138.75C236.374 138.75 235.924 139.34 235.924 140.17H234.784ZM243.284 145H242.144V139.89H240.404V139.12C241.344 139.12 242.054 138.92 242.324 137.86H243.284V145ZM247.168 144.18C248.248 144.18 248.678 142.76 248.678 141.43C248.678 140.1 248.248 138.76 247.168 138.76C246.088 138.76 245.658 140.1 245.658 141.43C245.658 142.76 246.088 144.18 247.168 144.18ZM244.518 141.43C244.518 139.59 245.178 137.8 247.168 137.8C249.158 137.8 249.818 139.59 249.818 141.43C249.818 143.27 249.158 145.14 247.168 145.14C245.178 145.14 244.518 143.27 244.518 141.43ZM253.169 144.18C254.249 144.18 254.679 142.76 254.679 141.43C254.679 140.1 254.249 138.76 253.169 138.76C252.089 138.76 251.659 140.1 251.659 141.43C251.659 142.76 252.089 144.18 253.169 144.18ZM250.519 141.43C250.519 139.59 251.179 137.8 253.169 137.8C255.159 137.8 255.819 139.59 255.819 141.43C255.819 143.27 255.159 145.14 253.169 145.14C251.179 145.14 250.519 143.27 250.519 141.43ZM259.17 144.18C260.25 144.18 260.68 142.76 260.68 141.43C260.68 140.1 260.25 138.76 259.17 138.76C258.09 138.76 257.66 140.1 257.66 141.43C257.66 142.76 258.09 144.18 259.17 144.18ZM256.52 141.43C256.52 139.59 257.18 137.8 259.17 137.8C261.16 137.8 261.82 139.59 261.82 141.43C261.82 143.27 261.16 145.14 259.17 145.14C257.18 145.14 256.52 143.27 256.52 141.43ZM262.693 139.8C262.763 138.61 263.583 137.8 264.953 137.8C266.293 137.8 267.143 138.51 267.143 139.65C267.143 140.44 266.793 140.88 266.263 141.19C267.033 141.49 267.453 142.05 267.453 142.97C267.463 144.13 266.573 145.14 265.003 145.14C263.493 145.14 262.563 144.38 262.423 143.05L262.413 142.94H263.583L263.593 143.02C263.663 143.79 264.213 144.18 264.983 144.18C265.813 144.18 266.333 143.65 266.333 142.9C266.333 142.11 265.683 141.74 264.823 141.74C264.713 141.74 264.543 141.74 264.433 141.75V140.76C264.613 140.76 264.753 140.75 264.923 140.74C265.573 140.7 266.003 140.41 266.003 139.76C266.003 139.12 265.593 138.76 264.933 138.76C264.273 138.76 263.923 139.13 263.843 139.65L263.823 139.8H262.693ZM272.642 138.81H269.762L269.482 140.67C269.812 140.38 270.292 140.21 270.842 140.21C272.272 140.21 273.232 141.13 273.232 142.66C273.232 144.04 272.182 145.14 270.682 145.14C269.172 145.14 268.272 144.23 268.132 143.1L269.272 143.09C269.382 143.67 269.912 144.17 270.672 144.17C271.432 144.17 272.092 143.59 272.092 142.66C272.092 141.79 271.592 141.17 270.652 141.17C270.022 141.17 269.632 141.5 269.402 141.88L268.272 141.78L268.832 137.85L272.642 137.86V138.81ZM276.45 137.77C277.85 137.77 278.74 138.55 278.74 139.6C278.74 140.42 278.29 141.01 277.67 141.22C278.32 141.41 279 142.07 279 143.04C279 144.34 277.98 145.14 276.46 145.14C274.88 145.14 273.85 144.34 273.86 143.04C273.87 142.07 274.58 141.39 275.23 141.21C274.56 140.98 274.14 140.43 274.14 139.6C274.14 138.55 275.04 137.77 276.45 137.77ZM274.99 142.97C274.99 143.65 275.48 144.24 276.45 144.24C277.4 144.24 277.88 143.66 277.88 142.97C277.88 142.3 277.4 141.71 276.45 141.71C275.48 141.71 274.99 142.3 274.99 142.97ZM275.26 139.74C275.26 140.31 275.7 140.81 276.45 140.81C277.2 140.81 277.63 140.32 277.63 139.74C277.63 139.17 277.2 138.68 276.45 138.68C275.69 138.68 275.26 139.17 275.26 139.74Z" fill="#DFDFDF"/>
<path d="M82.16 120H81.18L83.84 112.86H85.03L87.69 120H86.71L85.93 117.91H82.95L82.16 120ZM83.23 117.13H85.65L84.45 113.71H84.42L83.23 117.13ZM92.7788 118.42C92.4888 119.5 91.7388 120.12 90.4888 120.12C88.8788 120.12 87.8388 118.98 87.8388 117.42C87.8388 115.86 88.8788 114.71 90.4888 114.71C91.8088 114.71 92.5188 115.44 92.7388 116.38H91.8388C91.6488 115.91 91.2988 115.45 90.4588 115.45C89.4088 115.45 88.7388 116.31 88.7388 117.42C88.7388 118.52 89.4088 119.37 90.4588 119.37C91.2088 119.37 91.6388 119.03 91.8688 118.42H92.7788ZM98.2233 118.42C97.9333 119.5 97.1833 120.12 95.9333 120.12C94.3233 120.12 93.2833 118.98 93.2833 117.42C93.2833 115.86 94.3233 114.71 95.9333 114.71C97.2533 114.71 97.9633 115.44 98.1833 116.38H97.2833C97.0933 115.91 96.7433 115.45 95.9033 115.45C94.8533 115.45 94.1833 116.31 94.1833 117.42C94.1833 118.52 94.8533 119.37 95.9033 119.37C96.6533 119.37 97.0833 119.03 97.3133 118.42H98.2233ZM101.318 120.12C99.7478 120.12 98.7278 118.94 98.7278 117.42C98.7278 115.9 99.7478 114.71 101.318 114.71C102.888 114.71 103.908 115.9 103.908 117.42C103.908 118.94 102.888 120.12 101.318 120.12ZM99.6278 117.42C99.6278 118.48 100.308 119.36 101.318 119.36C102.328 119.36 103.008 118.48 103.008 117.42C103.008 116.35 102.328 115.47 101.318 115.47C100.308 115.47 99.6278 116.35 99.6278 117.42ZM104.628 118.18V114.83H105.528V118.09C105.528 119 105.918 119.36 106.618 119.36C107.378 119.36 108.048 118.72 108.048 117.37V114.83H108.948V120H108.048V119.03C107.778 119.62 107.298 120.12 106.498 120.12C105.138 120.12 104.628 119.23 104.628 118.18ZM110.025 120V114.83H110.925V115.8C111.195 115.21 111.675 114.71 112.475 114.71C113.835 114.71 114.345 115.6 114.345 116.65V120H113.445V116.74C113.445 115.83 113.055 115.47 112.355 115.47C111.595 115.47 110.925 116.11 110.925 117.46V120H110.025ZM116.471 118.55C116.471 119.01 116.731 119.26 117.131 119.26H117.491V120H117.041C116.041 120 115.591 119.41 115.591 118.61V115.57H114.821V114.83H115.591V113.62L116.471 113.22V114.83H117.461V115.57H116.471V118.55ZM120.385 112.86H121.545L124.325 117.37C124.595 117.8 124.855 118.24 125.125 118.67C125.125 118.18 125.105 117.74 125.105 117.25V112.86H126.055V120H124.865L122.095 115.52C121.825 115.1 121.585 114.67 121.315 114.25C121.315 114.75 121.335 115.22 121.335 115.72V120H120.385V112.86ZM129.464 120.12C127.894 120.12 126.874 118.94 126.874 117.42C126.874 115.9 127.894 114.71 129.464 114.71C131.034 114.71 132.054 115.9 132.054 117.42C132.054 118.94 131.034 120.12 129.464 120.12ZM127.774 117.42C127.774 118.48 128.454 119.36 129.464 119.36C130.474 119.36 131.154 118.48 131.154 117.42C131.154 116.35 130.474 115.47 129.464 115.47C128.454 115.47 127.774 116.35 127.774 117.42ZM132.53 118.8H133.63V120H132.53V118.8Z" fill="#DFDFDF"/>
<path d="M237.35 113.63L237.57 113.02L238.61 113.39V112.31H239.26V113.4L240.34 113.01L240.57 113.63L239.49 114.01L240.11 114.89L239.58 115.27L238.93 114.34L238.3 115.27L237.76 114.89L238.38 113.99L237.35 113.63ZM241.056 113.63L241.276 113.02L242.316 113.39V112.31H242.966V113.4L244.046 113.01L244.276 113.63L243.196 114.01L243.816 114.89L243.286 115.27L242.636 114.34L242.006 115.27L241.466 114.89L242.086 113.99L241.056 113.63ZM244.762 113.63L244.982 113.02L246.023 113.39V112.31H246.673V113.4L247.753 113.01L247.983 113.63L246.903 114.01L247.523 114.89L246.993 115.27L246.342 114.34L245.713 115.27L245.172 114.89L245.793 113.99L244.762 113.63ZM248.469 113.63L248.689 113.02L249.729 113.39V112.31H250.379V113.4L251.459 113.01L251.689 113.63L250.609 114.01L251.229 114.89L250.699 115.27L250.049 114.34L249.419 115.27L248.879 114.89L249.499 113.99L248.469 113.63ZM252.175 113.63L252.395 113.02L253.435 113.39V112.31H254.085V113.4L255.165 113.01L255.395 113.63L254.315 114.01L254.935 114.89L254.405 115.27L253.755 114.34L253.125 115.27L252.585 114.89L253.205 113.99L252.175 113.63ZM258.631 119.18C259.711 119.18 260.141 117.76 260.141 116.43C260.141 115.1 259.711 113.76 258.631 113.76C257.551 113.76 257.121 115.1 257.121 116.43C257.121 117.76 257.551 119.18 258.631 119.18ZM255.981 116.43C255.981 114.59 256.641 112.8 258.631 112.8C260.621 112.8 261.281 114.59 261.281 116.43C261.281 118.27 260.621 120.14 258.631 120.14C256.641 120.14 255.981 118.27 255.981 116.43ZM264.632 119.18C265.712 119.18 266.142 117.76 266.142 116.43C266.142 115.1 265.712 113.76 264.632 113.76C263.552 113.76 263.122 115.1 263.122 116.43C263.122 117.76 263.552 119.18 264.632 119.18ZM261.982 116.43C261.982 114.59 262.642 112.8 264.632 112.8C266.622 112.8 267.282 114.59 267.282 116.43C267.282 118.27 266.622 120.14 264.632 120.14C262.642 120.14 261.982 118.27 261.982 116.43ZM267.984 115.29C267.984 113.85 269.064 112.78 270.594 112.78C271.364 112.78 272.044 113.06 272.504 113.56C273.054 114.16 273.244 115.11 273.244 116.32C273.244 118.35 272.494 120.14 270.604 120.14C269.164 120.14 268.334 119.34 268.164 118.32H269.304C269.434 118.73 269.734 119.19 270.574 119.19C271.594 119.19 271.974 118.26 272.064 117C271.814 117.31 271.244 117.71 270.434 117.71C269.004 117.71 267.984 116.68 267.984 115.29ZM269.124 115.23C269.124 116.08 269.744 116.75 270.594 116.75C271.464 116.75 272.054 116.01 272.054 115.23C272.054 114.37 271.414 113.74 270.594 113.74C269.764 113.74 269.124 114.39 269.124 115.23ZM274.127 114.8C274.197 113.61 275.017 112.8 276.387 112.8C277.727 112.8 278.577 113.51 278.577 114.65C278.577 115.44 278.227 115.88 277.697 116.19C278.467 116.49 278.887 117.05 278.887 117.97C278.897 119.13 278.007 120.14 276.437 120.14C274.927 120.14 273.997 119.38 273.857 118.05L273.847 117.94H275.017L275.027 118.02C275.097 118.79 275.647 119.18 276.417 119.18C277.247 119.18 277.767 118.65 277.767 117.9C277.767 117.11 277.117 116.74 276.257 116.74C276.147 116.74 275.977 116.74 275.867 116.75V115.76C276.047 115.76 276.187 115.75 276.357 115.74C277.007 115.7 277.437 115.41 277.437 114.76C277.437 114.12 277.027 113.76 276.367 113.76C275.707 113.76 275.357 114.13 275.277 114.65L275.257 114.8H274.127Z" fill="#DFDFDF"/>
<rect x="108" y="216" width="261" height="122" rx="5" fill="url(#paint3_linear_727_537)"/>
<path d="M108 246L369 246" stroke="#DFDFDF" stroke-width="0.5"/>
<path d="M157 216V246" stroke="#DFDFDF" stroke-width="0.5"/>
<path d="M182.112 228.004H183.932L186.634 236.138H186.676L189.392 228.004H191.212L187.656 237.986L185.64 238L182.112 228.004ZM193.511 229.6H191.817V228.004H193.511V229.6ZM191.803 238V230.762H193.427V238H191.803ZM196.564 230.762V232.106C196.942 231.098 197.698 230.706 198.734 230.692V232.232C198.65 232.232 198.23 232.232 198.006 232.302C197.292 232.442 196.592 232.82 196.592 234.696V238H194.968V230.762H196.564ZM201.857 235.508C201.857 236.292 202.081 236.712 202.781 236.712H203.257V238.014L202.473 238.028C200.807 238.042 200.261 237.048 200.261 235.704V232.022H199.127V230.762H200.261V229.11L201.857 228.396V230.762H203.271V232.022H201.857V235.508ZM204.237 235.284V230.762H205.847V234.948C205.847 236.068 206.211 236.796 207.233 236.796C208.227 236.796 208.983 235.928 208.983 234.122V230.762H210.607V238H209.011V236.726C208.619 237.552 207.961 238.196 206.841 238.196C204.951 238.196 204.237 236.95 204.237 235.284ZM212.01 232.974C212.192 231.826 213.158 230.552 215.048 230.552C217.442 230.552 218.1 231.994 218.1 233.548V236.334C218.1 236.88 218.128 237.58 218.212 238H216.56C216.532 237.72 216.518 237.44 216.518 237.146V236.81H216.504C216.266 237.398 215.65 238.182 214.208 238.182C212.57 238.182 211.66 237.174 211.66 236.026C211.66 234.024 214.11 233.856 215.16 233.688C216.084 233.548 216.504 233.366 216.504 232.75C216.504 232.176 215.958 231.812 215.076 231.812C214.292 231.812 213.718 232.26 213.55 232.974H212.01ZM213.27 235.97C213.27 236.544 213.76 236.964 214.614 236.964C215.58 236.964 216.532 236.362 216.532 234.64V233.884C216.378 234.29 216 234.64 214.768 234.878C213.774 235.06 213.27 235.368 213.27 235.97ZM219.483 228.004H221.107V238H219.483V228.004ZM226.523 238H224.759L228.427 228.004H230.541L234.195 238H232.417L231.451 235.284H227.489L226.523 238ZM227.965 233.926H230.975L229.491 229.544H229.449L227.965 233.926ZM241.495 235.648C241.145 237.286 239.899 238.196 238.163 238.196C235.979 238.196 234.355 236.684 234.355 234.388C234.355 232.064 235.979 230.566 238.163 230.566C239.955 230.566 241.159 231.574 241.439 233.058H239.899C239.633 232.358 239.087 231.854 238.135 231.854C236.805 231.854 235.951 232.974 235.951 234.388C235.951 235.802 236.805 236.894 238.135 236.894C239.017 236.894 239.675 236.488 239.941 235.648H241.495ZM249.268 235.648C248.918 237.286 247.672 238.196 245.936 238.196C243.752 238.196 242.128 236.684 242.128 234.388C242.128 232.064 243.752 230.566 245.936 230.566C247.728 230.566 248.932 231.574 249.212 233.058H247.672C247.406 232.358 246.86 231.854 245.908 231.854C244.578 231.854 243.724 232.974 243.724 234.388C243.724 235.802 244.578 236.894 245.908 236.894C246.79 236.894 247.448 236.488 247.714 235.648H249.268ZM253.639 238.196C251.497 238.196 249.901 236.656 249.901 234.388C249.901 232.12 251.497 230.566 253.639 230.566C255.767 230.566 257.363 232.12 257.363 234.388C257.363 236.656 255.767 238.196 253.639 238.196ZM251.483 234.388C251.483 235.76 252.337 236.88 253.639 236.88C254.927 236.88 255.781 235.76 255.781 234.388C255.781 233.002 254.927 231.882 253.639 231.882C252.337 231.882 251.483 233.002 251.483 234.388ZM258.311 235.284V230.762H259.921V234.948C259.921 236.068 260.285 236.796 261.307 236.796C262.301 236.796 263.057 235.928 263.057 234.122V230.762H264.681V238H263.085V236.726C262.693 237.552 262.035 238.196 260.915 238.196C259.025 238.196 258.311 236.95 258.311 235.284ZM266.126 238V230.762H267.722V232.036C268.1 231.21 268.772 230.566 269.892 230.566C271.768 230.566 272.496 231.812 272.496 233.478V238H270.886V233.814C270.886 232.694 270.508 231.966 269.5 231.966C268.492 231.966 267.75 232.834 267.75 234.64V238H266.126ZM275.845 235.508C275.845 236.292 276.069 236.712 276.769 236.712H277.245V238.014L276.461 238.028C274.795 238.042 274.249 237.048 274.249 235.704V232.022H273.115V230.762H274.249V229.11L275.845 228.396V230.762H277.259V232.022H275.845V235.508Z" fill="#DFDFDF"/>
<path d="M135.76 320V312.86H138.36C139.57 312.86 140.46 313.57 140.46 314.77C140.46 315.52 140.04 316.03 139.33 316.35V316.36C140.15 316.5 140.76 317.05 140.76 317.98C140.76 319.31 139.82 320 138.3 320H135.76ZM136.71 319.2H138.46C139.25 319.2 139.81 318.75 139.81 317.98C139.81 317.22 139.25 316.78 138.46 316.78H136.71V319.2ZM136.71 315.98H138.18C139.01 315.98 139.51 315.57 139.51 314.77C139.51 313.97 139.01 313.66 138.18 313.66H136.71V315.98ZM141.69 316.39C141.8 315.64 142.43 314.7 143.78 314.7C145.68 314.7 145.86 315.93 145.86 316.73V318.95C145.86 319.34 145.9 319.75 145.94 320H144.98C144.96 319.75 144.96 319.54 144.96 319.25V319.05H144.95C144.83 319.45 144.4 320.12 143.25 320.12C142.01 320.12 141.44 319.33 141.44 318.59C141.44 317.13 143.28 317.08 144.06 316.94C144.74 316.82 144.96 316.63 144.96 316.2C144.96 315.77 144.55 315.46 143.81 315.46C143.18 315.46 142.71 315.83 142.59 316.39H141.69ZM142.33 318.59C142.33 319.08 142.78 319.39 143.41 319.39C144.2 319.39 144.98 318.88 144.98 317.6L144.97 316.88C144.87 317.22 144.65 317.52 143.53 317.72C142.78 317.85 142.33 318.07 142.33 318.59ZM146.92 312.86H147.82V320H146.92V312.86ZM148.887 316.39C148.997 315.64 149.627 314.7 150.977 314.7C152.877 314.7 153.057 315.93 153.057 316.73V318.95C153.057 319.34 153.097 319.75 153.137 320H152.177C152.157 319.75 152.157 319.54 152.157 319.25V319.05H152.147C152.027 319.45 151.597 320.12 150.447 320.12C149.207 320.12 148.637 319.33 148.637 318.59C148.637 317.13 150.477 317.08 151.257 316.94C151.937 316.82 152.157 316.63 152.157 316.2C152.157 315.77 151.747 315.46 151.007 315.46C150.377 315.46 149.907 315.83 149.787 316.39H148.887ZM149.527 318.59C149.527 319.08 149.977 319.39 150.607 319.39C151.397 319.39 152.177 318.88 152.177 317.6L152.167 316.88C152.067 317.22 151.847 317.52 150.727 317.72C149.977 317.85 149.527 318.07 149.527 318.59ZM154.117 320V314.83H155.017V315.8C155.287 315.21 155.767 314.71 156.567 314.71C157.927 314.71 158.437 315.6 158.437 316.65V320H157.537V316.74C157.537 315.83 157.147 315.47 156.447 315.47C155.687 315.47 155.017 316.11 155.017 317.46V320H154.117ZM164.094 318.42C163.804 319.5 163.054 320.12 161.804 320.12C160.194 320.12 159.154 318.98 159.154 317.42C159.154 315.86 160.194 314.71 161.804 314.71C163.124 314.71 163.834 315.44 164.054 316.38H163.154C162.964 315.91 162.614 315.45 161.774 315.45C160.724 315.45 160.054 316.31 160.054 317.42C160.054 318.52 160.724 319.37 161.774 319.37C162.524 319.37 162.954 319.03 163.184 318.42H164.094ZM169.449 318.46C169.159 319.56 168.289 320.12 167.139 320.12C165.609 320.12 164.599 319.01 164.599 317.39C164.599 315.83 165.659 314.71 167.119 314.71C168.939 314.71 169.509 316.17 169.529 317.5V317.66H165.469C165.539 318.74 166.199 319.37 167.119 319.37C167.809 319.37 168.389 319.1 168.569 318.46H169.449ZM165.479 316.94H168.619C168.539 316.04 168.039 315.45 167.119 315.45C166.189 315.45 165.599 316.05 165.479 316.94Z" fill="#DFDFDF"/>
<path d="M257.29 317.27C257.29 318.89 256.47 320.17 254.51 320.17C252.54 320.17 251.7 318.93 251.7 317.27V312.86H252.91V317.27C252.91 318.31 253.39 319.14 254.51 319.14C255.61 319.14 256.08 318.31 256.08 317.27V312.86H257.29V317.27ZM259.402 317.73C259.462 318.67 260.112 319.16 261.032 319.16C261.832 319.16 262.412 318.82 262.412 318.07C262.412 317.29 261.752 317.14 260.852 316.86C259.672 316.51 258.482 316.13 258.462 314.72C258.452 313.36 259.672 312.69 260.962 312.69C262.392 312.69 263.402 313.37 263.542 314.91H262.322C262.192 314.09 261.782 313.69 260.942 313.69C260.242 313.69 259.672 313.98 259.672 314.71C259.672 315.36 260.292 315.62 261.212 315.89C262.422 316.25 263.622 316.55 263.622 318.06C263.622 319.52 262.352 320.17 261.032 320.17C259.472 320.17 258.272 319.4 258.172 317.73H259.402ZM266.801 312.86C269.221 312.86 270.561 314.2 270.561 316.33C270.561 318.5 269.221 320 266.841 320H264.611V312.86H266.801ZM265.821 318.98H266.851C268.291 318.98 269.341 318.09 269.341 316.33C269.341 314.66 268.291 313.88 266.831 313.88H265.821V318.98ZM277.944 317.81C277.624 319.14 276.444 320.13 274.644 320.13C272.414 320.13 271.024 318.55 271.024 316.43C271.024 314.33 272.424 312.73 274.664 312.73C276.454 312.73 277.504 313.66 277.954 315.05H276.744C276.374 314.19 275.714 313.75 274.664 313.75C273.144 313.75 272.234 314.94 272.234 316.43C272.234 317.92 273.134 319.11 274.664 319.11C275.784 319.11 276.464 318.59 276.754 317.81H277.944ZM282.923 311.59H284.013V312.73C285.143 312.89 285.923 313.58 286.043 314.91H284.823C284.693 314.09 284.283 313.69 283.443 313.69C282.743 313.69 282.173 313.98 282.173 314.71C282.173 315.36 282.793 315.62 283.713 315.89C284.923 316.25 286.123 316.55 286.123 318.06C286.123 319.34 285.143 320 284.013 320.14V321.29H282.923V320.13C281.673 319.95 280.763 319.17 280.673 317.73H281.903C281.963 318.67 282.613 319.16 283.533 319.16C284.333 319.16 284.913 318.82 284.913 318.07C284.913 317.29 284.253 317.14 283.353 316.86C282.173 316.51 280.983 316.13 280.963 314.72C280.953 313.55 281.853 312.89 282.923 312.73V311.59ZM289.734 320H288.594V314.89H286.854V314.12C287.794 314.12 288.504 313.92 288.774 312.86H289.734V320ZM290.75 318.27V317.21L293.84 312.86H294.98V317.32H295.81V318.27H294.98V320H293.84V318.27H290.75ZM291.81 317.32H293.84V314.47H293.81L291.81 317.32ZM296.393 315.29C296.393 313.85 297.473 312.78 299.003 312.78C299.773 312.78 300.453 313.06 300.913 313.56C301.463 314.16 301.653 315.11 301.653 316.32C301.653 318.35 300.903 320.14 299.013 320.14C297.573 320.14 296.743 319.34 296.573 318.32H297.713C297.843 318.73 298.143 319.19 298.983 319.19C300.003 319.19 300.383 318.26 300.473 317C300.223 317.31 299.653 317.71 298.843 317.71C297.413 317.71 296.393 316.68 296.393 315.29ZM297.533 315.23C297.533 316.08 298.153 316.75 299.003 316.75C299.873 316.75 300.463 316.01 300.463 315.23C300.463 314.37 299.823 313.74 299.003 313.74C298.173 313.74 297.533 314.39 297.533 315.23ZM302.636 318.72H303.896L303.096 321.25H302.076L302.636 318.72ZM309.136 313.81H306.256L305.976 315.67C306.306 315.38 306.786 315.21 307.336 315.21C308.766 315.21 309.726 316.13 309.726 317.66C309.726 319.04 308.676 320.14 307.176 320.14C305.666 320.14 304.766 319.23 304.626 318.1L305.766 318.09C305.876 318.67 306.406 319.17 307.166 319.17C307.926 319.17 308.586 318.59 308.586 317.66C308.586 316.79 308.086 316.17 307.146 316.17C306.516 316.17 306.126 316.5 305.896 316.88L304.766 316.78L305.326 312.85L309.136 312.86V313.81ZM314.854 313.81H311.974L311.694 315.67C312.024 315.38 312.504 315.21 313.054 315.21C314.484 315.21 315.444 316.13 315.444 317.66C315.444 319.04 314.394 320.14 312.894 320.14C311.384 320.14 310.484 319.23 310.344 318.1L311.484 318.09C311.594 318.67 312.124 319.17 312.884 319.17C313.644 319.17 314.304 318.59 314.304 317.66C314.304 316.79 313.804 316.17 312.864 316.17C312.234 316.17 311.844 316.5 311.614 316.88L310.484 316.78L311.044 312.85L314.854 312.86V313.81ZM315.996 315.17C315.996 313.67 316.996 312.8 318.456 312.8C319.816 312.8 320.786 313.63 320.786 314.89C320.786 316.1 320.226 316.61 319.326 317.3C318.526 317.92 317.696 318.32 317.386 319.02H320.866V320H315.896C315.956 318.42 316.836 317.7 317.966 316.95C319.146 316.16 319.646 315.83 319.646 314.95C319.646 314.3 319.216 313.75 318.426 313.75C317.586 313.75 317.136 314.34 317.136 315.17H315.996ZM321.861 318.72H323.111V320H321.861V318.72ZM326.583 319.18C327.663 319.18 328.093 317.76 328.093 316.43C328.093 315.1 327.663 313.76 326.583 313.76C325.503 313.76 325.073 315.1 325.073 316.43C325.073 317.76 325.503 319.18 326.583 319.18ZM323.933 316.43C323.933 314.59 324.593 312.8 326.583 312.8C328.573 312.8 329.233 314.59 329.233 316.43C329.233 318.27 328.573 320.14 326.583 320.14C324.593 320.14 323.933 318.27 323.933 316.43ZM332.584 319.18C333.664 319.18 334.094 317.76 334.094 316.43C334.094 315.1 333.664 313.76 332.584 313.76C331.504 313.76 331.074 315.1 331.074 316.43C331.074 317.76 331.504 319.18 332.584 319.18ZM329.934 316.43C329.934 314.59 330.594 312.8 332.584 312.8C334.574 312.8 335.234 314.59 335.234 316.43C335.234 318.27 334.574 320.14 332.584 320.14C330.594 320.14 329.934 318.27 329.934 316.43Z" fill="#DFDFDF"/>
<path d="M135.76 295V287.86H138.32C139.95 287.86 140.74 288.77 140.74 289.89C140.74 290.91 140.05 291.56 139.25 291.75C139.94 291.93 140.15 292.47 140.42 293.37C140.62 294.03 140.77 294.43 141.04 294.9V295H140.03C139.79 294.51 139.61 293.85 139.4 293.29C139.15 292.62 138.86 292.08 138 292.08H136.71V295H135.76ZM136.71 291.28H138.28C139.29 291.28 139.78 290.73 139.78 289.89C139.78 289.25 139.43 288.66 138.22 288.66H136.71V291.28ZM143.892 295.12C142.322 295.12 141.302 293.94 141.302 292.42C141.302 290.9 142.322 289.71 143.892 289.71C145.462 289.71 146.482 290.9 146.482 292.42C146.482 293.94 145.462 295.12 143.892 295.12ZM142.202 292.42C142.202 293.48 142.882 294.36 143.892 294.36C144.902 294.36 145.582 293.48 145.582 292.42C145.582 291.35 144.902 290.47 143.892 290.47C142.882 290.47 142.202 291.35 142.202 292.42ZM147.202 293.18V289.83H148.102V293.09C148.102 294 148.492 294.36 149.192 294.36C149.952 294.36 150.622 293.72 150.622 292.37V289.83H151.522V295H150.622V294.03C150.352 294.62 149.872 295.12 149.072 295.12C147.712 295.12 147.202 294.23 147.202 293.18ZM153.689 293.55C153.689 294.01 153.949 294.26 154.349 294.26H154.709V295H154.259C153.259 295 152.809 294.41 152.809 293.61V290.57H152.039V289.83H152.809V288.62L153.689 288.22V289.83H154.679V290.57H153.689V293.55ZM156.425 288.86H155.465V287.86H156.425V288.86ZM155.445 295V289.83H156.345V295H155.445ZM157.501 295V289.83H158.401V290.8C158.671 290.21 159.151 289.71 159.951 289.71C161.311 289.71 161.821 290.6 161.821 291.65V295H160.921V291.74C160.921 290.83 160.531 290.47 159.831 290.47C159.071 290.47 158.401 291.11 158.401 292.46V295H157.501ZM166.688 289.83H167.588V294.6C167.588 296.13 166.468 296.98 165.188 296.98C163.908 296.98 162.908 296.34 162.798 295.22H163.698C163.798 295.96 164.368 296.22 165.188 296.22C166.008 296.22 166.688 295.77 166.688 294.6V293.98H166.678C166.458 294.62 165.948 295.12 164.938 295.12C163.458 295.12 162.538 293.95 162.538 292.4C162.538 290.86 163.458 289.71 164.938 289.71C165.948 289.71 166.488 290.28 166.678 290.79H166.688V289.83ZM163.438 292.4C163.438 293.42 163.948 294.35 165.078 294.35C166.348 294.35 166.718 293.22 166.718 292.4C166.718 291.59 166.188 290.47 165.078 290.47C163.978 290.47 163.438 291.39 163.438 292.4ZM170.82 287.86H171.98L174.76 292.37C175.03 292.8 175.29 293.24 175.56 293.67C175.56 293.18 175.54 292.74 175.54 292.25V287.86H176.49V295H175.3L172.53 290.52C172.26 290.1 172.02 289.67 171.75 289.25C171.75 289.75 171.77 290.22 171.77 290.72V295H170.82V287.86ZM179.899 295.12C178.329 295.12 177.309 293.94 177.309 292.42C177.309 290.9 178.329 289.71 179.899 289.71C181.469 289.71 182.489 290.9 182.489 292.42C182.489 293.94 181.469 295.12 179.899 295.12ZM178.209 292.42C178.209 293.48 178.889 294.36 179.899 294.36C180.909 294.36 181.589 293.48 181.589 292.42C181.589 291.35 180.909 290.47 179.899 290.47C178.889 290.47 178.209 291.35 178.209 292.42ZM182.965 293.8H184.065V295H182.965V293.8Z" fill="#DFDFDF"/>
<path d="M289.42 295H288.28V289.89H286.54V289.12C287.48 289.12 288.19 288.92 288.46 287.86H289.42V295ZM290.784 290.17C290.784 288.67 291.784 287.8 293.244 287.8C294.604 287.8 295.574 288.63 295.574 289.89C295.574 291.1 295.014 291.61 294.114 292.3C293.314 292.92 292.484 293.32 292.174 294.02H295.654V295H290.684C290.744 293.42 291.624 292.7 292.754 291.95C293.934 291.16 294.434 290.83 294.434 289.95C294.434 289.3 294.004 288.75 293.214 288.75C292.374 288.75 291.924 289.34 291.924 290.17H290.784ZM299.284 295H298.144V289.89H296.404V289.12C297.344 289.12 298.054 288.92 298.324 287.86H299.284V295ZM303.168 294.18C304.248 294.18 304.678 292.76 304.678 291.43C304.678 290.1 304.248 288.76 303.168 288.76C302.088 288.76 301.658 290.1 301.658 291.43C301.658 292.76 302.088 294.18 303.168 294.18ZM300.518 291.43C300.518 289.59 301.178 287.8 303.168 287.8C305.158 287.8 305.818 289.59 305.818 291.43C305.818 293.27 305.158 295.14 303.168 295.14C301.178 295.14 300.518 293.27 300.518 291.43ZM309.169 294.18C310.249 294.18 310.679 292.76 310.679 291.43C310.679 290.1 310.249 288.76 309.169 288.76C308.089 288.76 307.659 290.1 307.659 291.43C307.659 292.76 308.089 294.18 309.169 294.18ZM306.519 291.43C306.519 289.59 307.179 287.8 309.169 287.8C311.159 287.8 311.819 289.59 311.819 291.43C311.819 293.27 311.159 295.14 309.169 295.14C307.179 295.14 306.519 293.27 306.519 291.43ZM315.17 294.18C316.25 294.18 316.68 292.76 316.68 291.43C316.68 290.1 316.25 288.76 315.17 288.76C314.09 288.76 313.66 290.1 313.66 291.43C313.66 292.76 314.09 294.18 315.17 294.18ZM312.52 291.43C312.52 289.59 313.18 287.8 315.17 287.8C317.16 287.8 317.82 289.59 317.82 291.43C317.82 293.27 317.16 295.14 315.17 295.14C313.18 295.14 312.52 293.27 312.52 291.43ZM318.693 289.8C318.763 288.61 319.583 287.8 320.953 287.8C322.293 287.8 323.143 288.51 323.143 289.65C323.143 290.44 322.793 290.88 322.263 291.19C323.033 291.49 323.453 292.05 323.453 292.97C323.463 294.13 322.573 295.14 321.003 295.14C319.493 295.14 318.563 294.38 318.423 293.05L318.413 292.94H319.583L319.593 293.02C319.663 293.79 320.213 294.18 320.983 294.18C321.813 294.18 322.333 293.65 322.333 292.9C322.333 292.11 321.683 291.74 320.823 291.74C320.713 291.74 320.543 291.74 320.433 291.75V290.76C320.613 290.76 320.753 290.75 320.923 290.74C321.573 290.7 322.003 290.41 322.003 289.76C322.003 289.12 321.593 288.76 320.933 288.76C320.273 288.76 319.923 289.13 319.843 289.65L319.823 289.8H318.693ZM328.642 288.81H325.762L325.482 290.67C325.812 290.38 326.292 290.21 326.842 290.21C328.272 290.21 329.232 291.13 329.232 292.66C329.232 294.04 328.182 295.14 326.682 295.14C325.172 295.14 324.272 294.23 324.132 293.1L325.272 293.09C325.382 293.67 325.912 294.17 326.672 294.17C327.432 294.17 328.092 293.59 328.092 292.66C328.092 291.79 327.592 291.17 326.652 291.17C326.022 291.17 325.632 291.5 325.402 291.88L324.272 291.78L324.832 287.85L328.642 287.86V288.81ZM332.45 287.77C333.85 287.77 334.74 288.55 334.74 289.6C334.74 290.42 334.29 291.01 333.67 291.22C334.32 291.41 335 292.07 335 293.04C335 294.34 333.98 295.14 332.46 295.14C330.88 295.14 329.85 294.34 329.86 293.04C329.87 292.07 330.58 291.39 331.23 291.21C330.56 290.98 330.14 290.43 330.14 289.6C330.14 288.55 331.04 287.77 332.45 287.77ZM330.99 292.97C330.99 293.65 331.48 294.24 332.45 294.24C333.4 294.24 333.88 293.66 333.88 292.97C333.88 292.3 333.4 291.71 332.45 291.71C331.48 291.71 330.99 292.3 330.99 292.97ZM331.26 289.74C331.26 290.31 331.7 290.81 332.45 290.81C333.2 290.81 333.63 290.32 333.63 289.74C333.63 289.17 333.2 288.68 332.45 288.68C331.69 288.68 331.26 289.17 331.26 289.74Z" fill="#DFDFDF"/>
<path d="M136.16 270H135.18L137.84 262.86H139.03L141.69 270H140.71L139.93 267.91H136.95L136.16 270ZM137.23 267.13H139.65L138.45 263.71H138.42L137.23 267.13ZM144.199 264.71C145.139 264.71 145.789 265.34 145.979 265.88H145.989V262.86H146.889V270H145.989V268.97H145.979C145.789 269.5 145.139 270.12 144.199 270.12C142.739 270.12 141.839 269 141.839 267.4C141.839 265.8 142.739 264.71 144.199 264.71ZM142.739 267.4C142.739 268.52 143.289 269.35 144.379 269.35C145.499 269.35 146.019 268.42 146.019 267.4C146.019 266.39 145.499 265.47 144.379 265.47C143.319 265.47 142.739 266.28 142.739 267.4ZM150.005 264.71C150.945 264.71 151.595 265.34 151.785 265.88H151.795V262.86H152.695V270H151.795V268.97H151.785C151.595 269.5 150.945 270.12 150.005 270.12C148.545 270.12 147.645 269 147.645 267.4C147.645 265.8 148.545 264.71 150.005 264.71ZM148.545 267.4C148.545 268.52 149.095 269.35 150.185 269.35C151.305 269.35 151.825 268.42 151.825 267.4C151.825 266.39 151.305 265.47 150.185 265.47C149.125 265.47 148.545 266.28 148.545 267.4ZM154.67 264.83V265.87C154.93 265.11 155.43 264.81 156.21 264.81V265.67C156.17 265.67 156.01 265.68 155.88 265.7C155.28 265.79 154.67 266.06 154.67 267.56V270H153.77V264.83H154.67ZM161.362 268.46C161.072 269.56 160.202 270.12 159.052 270.12C157.522 270.12 156.512 269.01 156.512 267.39C156.512 265.83 157.572 264.71 159.032 264.71C160.852 264.71 161.422 266.17 161.442 267.5V267.66H157.382C157.452 268.74 158.112 269.37 159.032 269.37C159.722 269.37 160.302 269.1 160.482 268.46H161.362ZM157.392 266.94H160.532C160.452 266.04 159.952 265.45 159.032 265.45C158.102 265.45 157.512 266.05 157.392 266.94ZM165.088 266.39C165.028 265.72 164.468 265.47 163.948 265.47C163.458 265.47 162.968 265.75 162.968 266.19C162.968 266.59 163.368 266.82 163.818 266.93L164.498 267.1C165.278 267.29 166.068 267.66 166.068 268.52C166.068 269.62 164.918 270.12 164.018 270.12C163.148 270.12 162.008 269.72 161.918 268.44H162.818C162.938 269.1 163.348 269.36 164.048 269.36C164.558 269.36 165.168 269.18 165.168 268.58C165.168 268.14 164.738 267.99 164.248 267.87L163.528 267.69C162.758 267.5 162.068 267.03 162.068 266.23C162.068 265.26 163.068 264.71 163.978 264.71C164.988 264.71 165.878 265.25 165.978 266.39H165.088ZM169.673 266.39C169.613 265.72 169.053 265.47 168.533 265.47C168.043 265.47 167.553 265.75 167.553 266.19C167.553 266.59 167.953 266.82 168.403 266.93L169.083 267.1C169.863 267.29 170.653 267.66 170.653 268.52C170.653 269.62 169.503 270.12 168.603 270.12C167.733 270.12 166.593 269.72 166.503 268.44H167.403C167.523 269.1 167.933 269.36 168.633 269.36C169.143 269.36 169.753 269.18 169.753 268.58C169.753 268.14 169.323 267.99 168.833 267.87L168.113 267.69C167.343 267.5 166.653 267.03 166.653 266.23C166.653 265.26 167.653 264.71 168.563 264.71C169.573 264.71 170.463 265.25 170.563 266.39H169.673ZM174.258 266.39C174.198 265.72 173.638 265.47 173.118 265.47C172.628 265.47 172.138 265.75 172.138 266.19C172.138 266.59 172.538 266.82 172.988 266.93L173.668 267.1C174.448 267.29 175.238 267.66 175.238 268.52C175.238 269.62 174.088 270.12 173.188 270.12C172.318 270.12 171.178 269.72 171.088 268.44H171.988C172.108 269.1 172.518 269.36 173.218 269.36C173.728 269.36 174.338 269.18 174.338 268.58C174.338 268.14 173.908 267.99 173.418 267.87L172.698 267.69C171.928 267.5 171.238 267.03 171.238 266.23C171.238 265.26 172.238 264.71 173.148 264.71C174.158 264.71 175.048 265.25 175.148 266.39H174.258Z" fill="#DFDFDF"/>
<path d="M305.1 269.18C306.18 269.18 306.61 267.76 306.61 266.43C306.61 265.1 306.18 263.76 305.1 263.76C304.02 263.76 303.59 265.1 303.59 266.43C303.59 267.76 304.02 269.18 305.1 269.18ZM302.45 266.43C302.45 264.59 303.11 262.8 305.1 262.8C307.09 262.8 307.75 264.59 307.75 266.43C307.75 268.27 307.09 270.14 305.1 270.14C303.11 270.14 302.45 268.27 302.45 266.43ZM308.141 270L309.981 267.36L308.211 264.83H309.521L310.641 266.46L311.751 264.83H313.061L311.301 267.35L313.131 270H311.821L310.641 268.25L309.451 270H308.141ZM313.317 263.63L313.537 263.02L314.577 263.39V262.31H315.227V263.4L316.307 263.01L316.537 263.63L315.457 264.01L316.077 264.89L315.547 265.27L314.897 264.34L314.267 265.27L313.727 264.89L314.347 263.99L313.317 263.63ZM317.023 263.63L317.243 263.02L318.283 263.39V262.31H318.933V263.4L320.013 263.01L320.243 263.63L319.163 264.01L319.783 264.89L319.253 265.27L318.603 264.34L317.973 265.27L317.433 264.89L318.053 263.99L317.023 263.63ZM320.73 263.63L320.95 263.02L321.99 263.39V262.31H322.64V263.4L323.72 263.01L323.95 263.63L322.87 264.01L323.49 264.89L322.96 265.27L322.31 264.34L321.68 265.27L321.14 264.89L321.76 263.99L320.73 263.63ZM324.436 263.63L324.656 263.02L325.696 263.39V262.31H326.346V263.4L327.426 263.01L327.656 263.63L326.576 264.01L327.196 264.89L326.666 265.27L326.016 264.34L325.386 265.27L324.846 264.89L325.466 263.99L324.436 263.63ZM328.142 263.63L328.362 263.02L329.402 263.39V262.31H330.052V263.4L331.132 263.01L331.362 263.63L330.282 264.01L330.902 264.89L330.372 265.27L329.722 264.34L329.092 265.27L328.552 264.89L329.172 263.99L328.142 263.63ZM331.848 263.63L332.068 263.02L333.108 263.39V262.31H333.758V263.4L334.838 263.01L335.068 263.63L333.988 264.01L334.608 264.89L334.078 265.27L333.428 264.34L332.798 265.27L332.258 264.89L332.878 263.99L331.848 263.63Z" fill="#DFDFDF"/>
<path d="M1 0V119C1 123.418 4.58172 127 9 127H48" stroke="url(#paint4_linear_727_537)"/>
<path d="M419 401L419 285C419 280.582 415.418 277 411 277H374" stroke="url(#paint5_linear_727_537)"/>
<line x1="202.5" y1="211" x2="202.5" y2="191" stroke="white"/>
<defs>
<linearGradient id="paint0_linear_727_537" x1="183.5" y1="65" x2="183.5" y2="187" gradientUnits="userSpaceOnUse">
<stop stop-color="#5C6E85"/>
<stop offset="1" stop-color="#404B5A"/>
</linearGradient>
<linearGradient id="paint1_linear_727_537" x1="135.5" y1="0" x2="135.5" y2="132" gradientUnits="userSpaceOnUse">
<stop stop-color="white"/>
<stop offset="1" stop-color="#02D0BC"/>
</linearGradient>
<linearGradient id="paint2_linear_727_537" x1="135.5" y1="0" x2="135.5" y2="132" gradientUnits="userSpaceOnUse">
<stop stop-color="#FF8159"/>
<stop offset="1" stop-color="white"/>
</linearGradient>
<linearGradient id="paint3_linear_727_537" x1="238.5" y1="216" x2="238.5" y2="338" gradientUnits="userSpaceOnUse">
<stop stop-color="#005E54"/>
<stop offset="1" stop-color="#00433C"/>
</linearGradient>
<linearGradient id="paint4_linear_727_537" x1="24.5" y1="0" x2="24.5" y2="127" gradientUnits="userSpaceOnUse">
<stop stop-color="#00877A" stop-opacity="0"/>
<stop offset="1" stop-color="#86E9E0"/>
</linearGradient>
<linearGradient id="paint5_linear_727_537" x1="425.5" y1="397.5" x2="389" y2="277" gradientUnits="userSpaceOnUse">
<stop stop-color="#F44336" stop-opacity="0"/>
<stop offset="1" stop-color="#FFC0AC"/>
</linearGradient>
</defs>
</svg>
