<svg width="413" height="372" viewBox="0 0 413 372" fill="none" xmlns="http://www.w3.org/2000/svg">
<rect x="47" y="53" width="261" height="122" rx="5" fill="#D9583B"/>
<path d="M47 83L308 83" stroke="white" stroke-width="0.5"/>
<path d="M96 53V83" stroke="white" stroke-width="0.5"/>
<path d="M116.036 75V65.004H119.606C121.51 65.004 122.84 65.914 122.84 67.65C122.84 68.756 122.28 69.47 121.202 69.89V69.904C122.308 70.114 123.232 70.8 123.232 72.158C123.232 74.16 121.776 75 119.536 75H116.036ZM117.73 73.6H119.536C120.726 73.6 121.538 73.166 121.538 72.088C121.538 71.066 120.782 70.618 119.676 70.618H117.73V73.6ZM117.73 69.246H119.312C120.502 69.246 121.174 68.812 121.174 67.762C121.174 66.712 120.502 66.404 119.382 66.404H117.73V69.246ZM124.378 72.284V67.762H125.988V71.948C125.988 73.068 126.352 73.796 127.374 73.796C128.368 73.796 129.124 72.928 129.124 71.122V67.762H130.748V75H129.152V73.726C128.76 74.552 128.102 75.196 126.982 75.196C125.092 75.196 124.378 73.95 124.378 72.284ZM136.099 69.932C136.015 69.12 135.371 68.798 134.713 68.798C134.069 68.798 133.523 69.162 133.523 69.666C133.523 70.17 133.957 70.464 134.699 70.646C135.021 70.73 135.343 70.8 135.665 70.898C136.841 71.206 137.765 71.78 137.765 72.928C137.765 74.37 136.337 75.196 134.797 75.196C133.341 75.196 131.899 74.524 131.745 72.788H133.341C133.481 73.586 133.971 73.95 134.811 73.95C135.497 73.95 136.169 73.684 136.169 73.012C136.169 72.424 135.609 72.228 135.007 72.074C134.657 71.99 134.307 71.906 133.971 71.808C132.809 71.5 131.955 70.842 131.955 69.722C131.955 68.406 133.257 67.566 134.741 67.566C136.295 67.566 137.485 68.364 137.653 69.932H136.099ZM140.484 66.6H138.79V65.004H140.484V66.6ZM138.776 75V67.762H140.4V75H138.776ZM141.941 75V67.762H143.537V69.036C143.915 68.21 144.587 67.566 145.707 67.566C147.583 67.566 148.311 68.812 148.311 70.478V75H146.701V70.814C146.701 69.694 146.323 68.966 145.315 68.966C144.307 68.966 143.565 69.834 143.565 71.64V75H141.941ZM156.294 72.858C155.874 74.328 154.628 75.196 152.906 75.196C150.736 75.196 149.266 73.642 149.266 71.36C149.266 69.162 150.806 67.566 152.906 67.566C155.384 67.566 156.392 69.47 156.406 71.528C156.406 71.598 156.406 71.71 156.392 71.836H150.82C150.946 73.11 151.758 73.894 152.906 73.894C153.732 73.894 154.432 73.572 154.684 72.858H156.294ZM150.834 70.688H154.81C154.712 69.652 154.11 68.826 152.906 68.826C151.758 68.826 150.988 69.568 150.834 70.688ZM161.379 69.932C161.295 69.12 160.651 68.798 159.993 68.798C159.349 68.798 158.803 69.162 158.803 69.666C158.803 70.17 159.237 70.464 159.979 70.646C160.301 70.73 160.623 70.8 160.945 70.898C162.121 71.206 163.045 71.78 163.045 72.928C163.045 74.37 161.617 75.196 160.077 75.196C158.621 75.196 157.179 74.524 157.025 72.788H158.621C158.761 73.586 159.251 73.95 160.091 73.95C160.777 73.95 161.449 73.684 161.449 73.012C161.449 72.424 160.889 72.228 160.287 72.074C159.937 71.99 159.587 71.906 159.251 71.808C158.089 71.5 157.235 70.842 157.235 69.722C157.235 68.406 158.537 67.566 160.021 67.566C161.575 67.566 162.765 68.364 162.933 69.932H161.379ZM167.962 69.932C167.878 69.12 167.234 68.798 166.576 68.798C165.932 68.798 165.386 69.162 165.386 69.666C165.386 70.17 165.82 70.464 166.562 70.646C166.884 70.73 167.206 70.8 167.528 70.898C168.704 71.206 169.628 71.78 169.628 72.928C169.628 74.37 168.2 75.196 166.66 75.196C165.204 75.196 163.762 74.524 163.608 72.788H165.204C165.344 73.586 165.834 73.95 166.674 73.95C167.36 73.95 168.032 73.684 168.032 73.012C168.032 72.424 167.472 72.228 166.87 72.074C166.52 71.99 166.17 71.906 165.834 71.808C164.672 71.5 163.818 70.842 163.818 69.722C163.818 68.406 165.12 67.566 166.604 67.566C168.158 67.566 169.348 68.364 169.516 69.932H167.962ZM173.686 75V65.004H177.256C179.16 65.004 180.49 65.914 180.49 67.65C180.49 68.756 179.93 69.47 178.852 69.89V69.904C179.958 70.114 180.882 70.8 180.882 72.158C180.882 74.16 179.426 75 177.186 75H173.686ZM175.38 73.6H177.186C178.376 73.6 179.188 73.166 179.188 72.088C179.188 71.066 178.432 70.618 177.326 70.618H175.38V73.6ZM175.38 69.246H176.962C178.152 69.246 178.824 68.812 178.824 67.762C178.824 66.712 178.152 66.404 177.032 66.404H175.38V69.246ZM182.083 69.974C182.265 68.826 183.231 67.552 185.121 67.552C187.515 67.552 188.173 68.994 188.173 70.548V73.334C188.173 73.88 188.201 74.58 188.285 75H186.633C186.605 74.72 186.591 74.44 186.591 74.146V73.81H186.577C186.339 74.398 185.723 75.182 184.281 75.182C182.643 75.182 181.733 74.174 181.733 73.026C181.733 71.024 184.183 70.856 185.233 70.688C186.157 70.548 186.577 70.366 186.577 69.75C186.577 69.176 186.031 68.812 185.149 68.812C184.365 68.812 183.791 69.26 183.623 69.974H182.083ZM183.343 72.97C183.343 73.544 183.833 73.964 184.687 73.964C185.653 73.964 186.605 73.362 186.605 71.64V70.884C186.451 71.29 186.073 71.64 184.841 71.878C183.847 72.06 183.343 72.368 183.343 72.97ZM189.556 75V67.762H191.152V69.036C191.53 68.21 192.202 67.566 193.322 67.566C195.198 67.566 195.926 68.812 195.926 70.478V75H194.316V70.814C194.316 69.694 193.938 68.966 192.93 68.966C191.922 68.966 191.18 69.834 191.18 71.64V75H189.556ZM198.952 75H197.328V65.004H198.952V70.758L201.808 67.762H203.754L200.73 70.856L203.838 75H201.892L199.638 71.948L198.952 72.606V75ZM208.524 75H206.76L210.428 65.004H212.542L216.196 75H214.418L213.452 72.284H209.49L208.524 75ZM209.966 70.926H212.976L211.492 66.544H211.45L209.966 70.926ZM223.497 72.648C223.147 74.286 221.901 75.196 220.165 75.196C217.981 75.196 216.357 73.684 216.357 71.388C216.357 69.064 217.981 67.566 220.165 67.566C221.957 67.566 223.161 68.574 223.441 70.058H221.901C221.635 69.358 221.089 68.854 220.137 68.854C218.807 68.854 217.953 69.974 217.953 71.388C217.953 72.802 218.807 73.894 220.137 73.894C221.019 73.894 221.677 73.488 221.943 72.648H223.497ZM231.269 72.648C230.919 74.286 229.673 75.196 227.937 75.196C225.753 75.196 224.129 73.684 224.129 71.388C224.129 69.064 225.753 67.566 227.937 67.566C229.729 67.566 230.933 68.574 231.213 70.058H229.673C229.407 69.358 228.861 68.854 227.909 68.854C226.579 68.854 225.725 69.974 225.725 71.388C225.725 72.802 226.579 73.894 227.909 73.894C228.791 73.894 229.449 73.488 229.715 72.648H231.269ZM235.64 75.196C233.498 75.196 231.902 73.656 231.902 71.388C231.902 69.12 233.498 67.566 235.64 67.566C237.768 67.566 239.364 69.12 239.364 71.388C239.364 73.656 237.768 75.196 235.64 75.196ZM233.484 71.388C233.484 72.76 234.338 73.88 235.64 73.88C236.928 73.88 237.782 72.76 237.782 71.388C237.782 70.002 236.928 68.882 235.64 68.882C234.338 68.882 233.484 70.002 233.484 71.388ZM240.313 72.284V67.762H241.923V71.948C241.923 73.068 242.287 73.796 243.309 73.796C244.303 73.796 245.059 72.928 245.059 71.122V67.762H246.683V75H245.087V73.726C244.695 74.552 244.037 75.196 242.917 75.196C241.027 75.196 240.313 73.95 240.313 72.284ZM248.128 75V67.762H249.724V69.036C250.102 68.21 250.774 67.566 251.894 67.566C253.77 67.566 254.498 68.812 254.498 70.478V75H252.888V70.814C252.888 69.694 252.51 68.966 251.502 68.966C250.494 68.966 249.752 69.834 249.752 71.64V75H248.128ZM257.847 72.508C257.847 73.292 258.071 73.712 258.771 73.712H259.247V75.014L258.463 75.028C256.797 75.042 256.251 74.048 256.251 72.704V69.022H255.117V67.762H256.251V66.11L257.847 65.396V67.762H259.261V69.022H257.847V72.508Z" fill="white"/>
<rect x="0.5" y="-0.5" width="268" height="129" rx="4.5" transform="matrix(1 0 0 -1 43 178)" stroke="url(#paint0_linear_707_1709)"/>
<rect x="0.5" y="-0.5" width="269" height="129" rx="4.5" transform="matrix(1 0 0 -1 97 329)" stroke="url(#paint1_linear_707_1709)"/>
<path d="M73.76 157V149.86H76.36C77.57 149.86 78.46 150.57 78.46 151.77C78.46 152.52 78.04 153.03 77.33 153.35V153.36C78.15 153.5 78.76 154.05 78.76 154.98C78.76 156.31 77.82 157 76.3 157H73.76ZM74.71 156.2H76.46C77.25 156.2 77.81 155.75 77.81 154.98C77.81 154.22 77.25 153.78 76.46 153.78H74.71V156.2ZM74.71 152.98H76.18C77.01 152.98 77.51 152.57 77.51 151.77C77.51 150.97 77.01 150.66 76.18 150.66H74.71V152.98ZM79.6898 153.39C79.7998 152.64 80.4298 151.7 81.7798 151.7C83.6798 151.7 83.8598 152.93 83.8598 153.73V155.95C83.8598 156.34 83.8998 156.75 83.9398 157H82.9798C82.9598 156.75 82.9598 156.54 82.9598 156.25V156.05H82.9498C82.8298 156.45 82.3998 157.12 81.2498 157.12C80.0098 157.12 79.4398 156.33 79.4398 155.59C79.4398 154.13 81.2798 154.08 82.0598 153.94C82.7398 153.82 82.9598 153.63 82.9598 153.2C82.9598 152.77 82.5498 152.46 81.8098 152.46C81.1798 152.46 80.7098 152.83 80.5898 153.39H79.6898ZM80.3298 155.59C80.3298 156.08 80.7798 156.39 81.4098 156.39C82.1998 156.39 82.9798 155.88 82.9798 154.6L82.9698 153.88C82.8698 154.22 82.6498 154.52 81.5298 154.72C80.7798 154.85 80.3298 155.07 80.3298 155.59ZM84.9197 149.86H85.8197V157H84.9197V149.86ZM86.8874 153.39C86.9974 152.64 87.6274 151.7 88.9774 151.7C90.8774 151.7 91.0574 152.93 91.0574 153.73V155.95C91.0574 156.34 91.0974 156.75 91.1374 157H90.1774C90.1574 156.75 90.1574 156.54 90.1574 156.25V156.05H90.1474C90.0274 156.45 89.5974 157.12 88.4474 157.12C87.2074 157.12 86.6374 156.33 86.6374 155.59C86.6374 154.13 88.4774 154.08 89.2574 153.94C89.9374 153.82 90.1574 153.63 90.1574 153.2C90.1574 152.77 89.7474 152.46 89.0074 152.46C88.3774 152.46 87.9074 152.83 87.7874 153.39H86.8874ZM87.5274 155.59C87.5274 156.08 87.9774 156.39 88.6074 156.39C89.3974 156.39 90.1774 155.88 90.1774 154.6L90.1674 153.88C90.0674 154.22 89.8474 154.52 88.7274 154.72C87.9774 154.85 87.5274 155.07 87.5274 155.59ZM92.1173 157V151.83H93.0173V152.8C93.2873 152.21 93.7673 151.71 94.5673 151.71C95.9273 151.71 96.4373 152.6 96.4373 153.65V157H95.5373V153.74C95.5373 152.83 95.1473 152.47 94.4473 152.47C93.6873 152.47 93.0173 153.11 93.0173 154.46V157H92.1173ZM102.094 155.42C101.804 156.5 101.054 157.12 99.804 157.12C98.194 157.12 97.154 155.98 97.154 154.42C97.154 152.86 98.194 151.71 99.804 151.71C101.124 151.71 101.834 152.44 102.054 153.38H101.154C100.964 152.91 100.614 152.45 99.774 152.45C98.724 152.45 98.054 153.31 98.054 154.42C98.054 155.52 98.724 156.37 99.774 156.37C100.524 156.37 100.954 156.03 101.184 155.42H102.094ZM107.449 155.46C107.159 156.56 106.289 157.12 105.139 157.12C103.609 157.12 102.599 156.01 102.599 154.39C102.599 152.83 103.659 151.71 105.119 151.71C106.939 151.71 107.509 153.17 107.529 154.5V154.66H103.469C103.539 155.74 104.199 156.37 105.119 156.37C105.809 156.37 106.389 156.1 106.569 155.46H107.449ZM103.479 153.94H106.619C106.539 153.04 106.039 152.45 105.119 152.45C104.189 152.45 103.599 153.05 103.479 153.94Z" fill="white"/>
<path d="M226.276 148.59H227.366V149.73C228.496 149.89 229.276 150.58 229.396 151.91H228.176C228.046 151.09 227.636 150.69 226.796 150.69C226.096 150.69 225.526 150.98 225.526 151.71C225.526 152.36 226.146 152.62 227.066 152.89C228.276 153.25 229.476 153.55 229.476 155.06C229.476 156.34 228.496 157 227.366 157.14V158.29H226.276V157.13C225.026 156.95 224.116 156.17 224.026 154.73H225.256C225.316 155.67 225.966 156.16 226.886 156.16C227.686 156.16 228.266 155.82 228.266 155.07C228.266 154.29 227.606 154.14 226.706 153.86C225.526 153.51 224.336 153.13 224.316 151.72C224.306 150.55 225.206 149.89 226.276 149.73V148.59ZM230.065 155.27V154.21L233.155 149.86H234.295V154.32H235.125V155.27H234.295V157H233.155V155.27H230.065ZM231.125 154.32H233.155V151.47H233.125L231.125 154.32ZM235.707 152.29C235.707 150.85 236.787 149.78 238.317 149.78C239.087 149.78 239.767 150.06 240.227 150.56C240.777 151.16 240.967 152.11 240.967 153.32C240.967 155.35 240.217 157.14 238.327 157.14C236.887 157.14 236.057 156.34 235.887 155.32H237.027C237.157 155.73 237.457 156.19 238.297 156.19C239.317 156.19 239.697 155.26 239.787 154C239.537 154.31 238.967 154.71 238.157 154.71C236.727 154.71 235.707 153.68 235.707 152.29ZM236.847 152.23C236.847 153.08 237.467 153.75 238.317 153.75C239.187 153.75 239.777 153.01 239.777 152.23C239.777 151.37 239.137 150.74 238.317 150.74C237.487 150.74 236.847 151.39 236.847 152.23ZM241.95 155.72H243.21L242.41 158.25H241.39L241.95 155.72ZM248.451 150.81H245.571L245.291 152.67C245.621 152.38 246.101 152.21 246.651 152.21C248.081 152.21 249.041 153.13 249.041 154.66C249.041 156.04 247.991 157.14 246.491 157.14C244.981 157.14 244.081 156.23 243.941 155.1L245.081 155.09C245.191 155.67 245.721 156.17 246.481 156.17C247.241 156.17 247.901 155.59 247.901 154.66C247.901 153.79 247.401 153.17 246.461 153.17C245.831 153.17 245.441 153.5 245.211 153.88L244.081 153.78L244.641 149.85L248.451 149.86V150.81ZM254.169 150.81H251.289L251.009 152.67C251.339 152.38 251.819 152.21 252.369 152.21C253.799 152.21 254.759 153.13 254.759 154.66C254.759 156.04 253.709 157.14 252.209 157.14C250.699 157.14 249.799 156.23 249.659 155.1L250.799 155.09C250.909 155.67 251.439 156.17 252.199 156.17C252.959 156.17 253.619 155.59 253.619 154.66C253.619 153.79 253.119 153.17 252.179 153.17C251.549 153.17 251.159 153.5 250.929 153.88L249.799 153.78L250.359 149.85L254.169 149.86V150.81ZM255.311 152.17C255.311 150.67 256.311 149.8 257.771 149.8C259.131 149.8 260.101 150.63 260.101 151.89C260.101 153.1 259.541 153.61 258.641 154.3C257.841 154.92 257.011 155.32 256.701 156.02H260.181V157H255.211C255.271 155.42 256.151 154.7 257.281 153.95C258.461 153.16 258.961 152.83 258.961 151.95C258.961 151.3 258.531 150.75 257.741 150.75C256.901 150.75 256.451 151.34 256.451 152.17H255.311ZM261.175 155.72H262.425V157H261.175V155.72ZM265.898 156.18C266.978 156.18 267.408 154.76 267.408 153.43C267.408 152.1 266.978 150.76 265.898 150.76C264.818 150.76 264.388 152.1 264.388 153.43C264.388 154.76 264.818 156.18 265.898 156.18ZM263.248 153.43C263.248 151.59 263.908 149.8 265.898 149.8C267.888 149.8 268.548 151.59 268.548 153.43C268.548 155.27 267.888 157.14 265.898 157.14C263.908 157.14 263.248 155.27 263.248 153.43ZM271.899 156.18C272.979 156.18 273.409 154.76 273.409 153.43C273.409 152.1 272.979 150.76 271.899 150.76C270.819 150.76 270.389 152.1 270.389 153.43C270.389 154.76 270.819 156.18 271.899 156.18ZM269.249 153.43C269.249 151.59 269.909 149.8 271.899 149.8C273.889 149.8 274.549 151.59 274.549 153.43C274.549 155.27 273.889 157.14 271.899 157.14C269.909 157.14 269.249 155.27 269.249 153.43Z" fill="white"/>
<path d="M73.76 132V124.86H76.32C77.95 124.86 78.74 125.77 78.74 126.89C78.74 127.91 78.05 128.56 77.25 128.75C77.94 128.93 78.15 129.47 78.42 130.37C78.62 131.03 78.77 131.43 79.04 131.9V132H78.03C77.79 131.51 77.61 130.85 77.4 130.29C77.15 129.62 76.86 129.08 76 129.08H74.71V132H73.76ZM74.71 128.28H76.28C77.29 128.28 77.78 127.73 77.78 126.89C77.78 126.25 77.43 125.66 76.22 125.66H74.71V128.28ZM81.8916 132.12C80.3216 132.12 79.3016 130.94 79.3016 129.42C79.3016 127.9 80.3216 126.71 81.8916 126.71C83.4616 126.71 84.4816 127.9 84.4816 129.42C84.4816 130.94 83.4616 132.12 81.8916 132.12ZM80.2016 129.42C80.2016 130.48 80.8816 131.36 81.8916 131.36C82.9016 131.36 83.5816 130.48 83.5816 129.42C83.5816 128.35 82.9016 127.47 81.8916 127.47C80.8816 127.47 80.2016 128.35 80.2016 129.42ZM85.202 130.18V126.83H86.102V130.09C86.102 131 86.492 131.36 87.192 131.36C87.952 131.36 88.622 130.72 88.622 129.37V126.83H89.522V132H88.622V131.03C88.352 131.62 87.872 132.12 87.072 132.12C85.712 132.12 85.202 131.23 85.202 130.18ZM91.6886 130.55C91.6886 131.01 91.9486 131.26 92.3486 131.26H92.7086V132H92.2586C91.2586 132 90.8086 131.41 90.8086 130.61V127.57H90.0386V126.83H90.8086V125.62L91.6886 125.22V126.83H92.6786V127.57H91.6886V130.55ZM94.4255 125.86H93.4655V124.86H94.4255V125.86ZM93.4455 132V126.83H94.3455V132H93.4455ZM95.5013 132V126.83H96.4013V127.8C96.6713 127.21 97.1513 126.71 97.9513 126.71C99.3113 126.71 99.8213 127.6 99.8213 128.65V132H98.9213V128.74C98.9213 127.83 98.5313 127.47 97.8313 127.47C97.0713 127.47 96.4013 128.11 96.4013 129.46V132H95.5013ZM104.688 126.83H105.588V131.6C105.588 133.13 104.468 133.98 103.188 133.98C101.908 133.98 100.908 133.34 100.798 132.22H101.698C101.798 132.96 102.368 133.22 103.188 133.22C104.008 133.22 104.688 132.77 104.688 131.6V130.98H104.678C104.458 131.62 103.948 132.12 102.938 132.12C101.458 132.12 100.538 130.95 100.538 129.4C100.538 127.86 101.458 126.71 102.938 126.71C103.948 126.71 104.488 127.28 104.678 127.79H104.688V126.83ZM101.438 129.4C101.438 130.42 101.948 131.35 103.078 131.35C104.348 131.35 104.718 130.22 104.718 129.4C104.718 128.59 104.188 127.47 103.078 127.47C101.978 127.47 101.438 128.39 101.438 129.4ZM108.82 124.86H109.98L112.76 129.37C113.03 129.8 113.29 130.24 113.56 130.67C113.56 130.18 113.54 129.74 113.54 129.25V124.86H114.49V132H113.3L110.53 127.52C110.26 127.1 110.02 126.67 109.75 126.25C109.75 126.75 109.77 127.22 109.77 127.72V132H108.82V124.86ZM117.899 132.12C116.329 132.12 115.309 130.94 115.309 129.42C115.309 127.9 116.329 126.71 117.899 126.71C119.469 126.71 120.489 127.9 120.489 129.42C120.489 130.94 119.469 132.12 117.899 132.12ZM116.209 129.42C116.209 130.48 116.889 131.36 117.899 131.36C118.909 131.36 119.589 130.48 119.589 129.42C119.589 128.35 118.909 127.47 117.899 127.47C116.889 127.47 116.209 128.35 116.209 129.42ZM120.965 130.8H122.065V132H120.965V130.8Z" fill="white"/>
<path d="M229.42 132H228.28V126.89H226.54V126.12C227.48 126.12 228.19 125.92 228.46 124.86H229.42V132ZM230.784 127.17C230.784 125.67 231.784 124.8 233.244 124.8C234.604 124.8 235.574 125.63 235.574 126.89C235.574 128.1 235.014 128.61 234.114 129.3C233.314 129.92 232.484 130.32 232.174 131.02H235.654V132H230.684C230.744 130.42 231.624 129.7 232.754 128.95C233.934 128.16 234.434 127.83 234.434 126.95C234.434 126.3 234.004 125.75 233.214 125.75C232.374 125.75 231.924 126.34 231.924 127.17H230.784ZM239.284 132H238.144V126.89H236.404V126.12C237.344 126.12 238.054 125.92 238.324 124.86H239.284V132ZM243.168 131.18C244.248 131.18 244.678 129.76 244.678 128.43C244.678 127.1 244.248 125.76 243.168 125.76C242.088 125.76 241.658 127.1 241.658 128.43C241.658 129.76 242.088 131.18 243.168 131.18ZM240.518 128.43C240.518 126.59 241.178 124.8 243.168 124.8C245.158 124.8 245.818 126.59 245.818 128.43C245.818 130.27 245.158 132.14 243.168 132.14C241.178 132.14 240.518 130.27 240.518 128.43ZM249.169 131.18C250.249 131.18 250.679 129.76 250.679 128.43C250.679 127.1 250.249 125.76 249.169 125.76C248.089 125.76 247.659 127.1 247.659 128.43C247.659 129.76 248.089 131.18 249.169 131.18ZM246.519 128.43C246.519 126.59 247.179 124.8 249.169 124.8C251.159 124.8 251.819 126.59 251.819 128.43C251.819 130.27 251.159 132.14 249.169 132.14C247.179 132.14 246.519 130.27 246.519 128.43ZM255.17 131.18C256.25 131.18 256.68 129.76 256.68 128.43C256.68 127.1 256.25 125.76 255.17 125.76C254.09 125.76 253.66 127.1 253.66 128.43C253.66 129.76 254.09 131.18 255.17 131.18ZM252.52 128.43C252.52 126.59 253.18 124.8 255.17 124.8C257.16 124.8 257.82 126.59 257.82 128.43C257.82 130.27 257.16 132.14 255.17 132.14C253.18 132.14 252.52 130.27 252.52 128.43ZM258.693 126.8C258.763 125.61 259.583 124.8 260.953 124.8C262.293 124.8 263.143 125.51 263.143 126.65C263.143 127.44 262.793 127.88 262.263 128.19C263.033 128.49 263.453 129.05 263.453 129.97C263.463 131.13 262.573 132.14 261.003 132.14C259.493 132.14 258.563 131.38 258.423 130.05L258.413 129.94H259.583L259.593 130.02C259.663 130.79 260.213 131.18 260.983 131.18C261.813 131.18 262.333 130.65 262.333 129.9C262.333 129.11 261.683 128.74 260.823 128.74C260.713 128.74 260.543 128.74 260.433 128.75V127.76C260.613 127.76 260.753 127.75 260.923 127.74C261.573 127.7 262.003 127.41 262.003 126.76C262.003 126.12 261.593 125.76 260.933 125.76C260.273 125.76 259.923 126.13 259.843 126.65L259.823 126.8H258.693ZM268.642 125.81H265.762L265.482 127.67C265.812 127.38 266.292 127.21 266.842 127.21C268.272 127.21 269.232 128.13 269.232 129.66C269.232 131.04 268.182 132.14 266.682 132.14C265.172 132.14 264.272 131.23 264.132 130.1L265.272 130.09C265.382 130.67 265.912 131.17 266.672 131.17C267.432 131.17 268.092 130.59 268.092 129.66C268.092 128.79 267.592 128.17 266.652 128.17C266.022 128.17 265.632 128.5 265.402 128.88L264.272 128.78L264.832 124.85L268.642 124.86V125.81ZM272.45 124.77C273.85 124.77 274.74 125.55 274.74 126.6C274.74 127.42 274.29 128.01 273.67 128.22C274.32 128.41 275 129.07 275 130.04C275 131.34 273.98 132.14 272.46 132.14C270.88 132.14 269.85 131.34 269.86 130.04C269.87 129.07 270.58 128.39 271.23 128.21C270.56 127.98 270.14 127.43 270.14 126.6C270.14 125.55 271.04 124.77 272.45 124.77ZM270.99 129.97C270.99 130.65 271.48 131.24 272.45 131.24C273.4 131.24 273.88 130.66 273.88 129.97C273.88 129.3 273.4 128.71 272.45 128.71C271.48 128.71 270.99 129.3 270.99 129.97ZM271.26 126.74C271.26 127.31 271.7 127.81 272.45 127.81C273.2 127.81 273.63 127.32 273.63 126.74C273.63 126.17 273.2 125.68 272.45 125.68C271.69 125.68 271.26 126.17 271.26 126.74Z" fill="white"/>
<path d="M74.16 107H73.18L75.84 99.86H77.03L79.69 107H78.71L77.93 104.91H74.95L74.16 107ZM75.23 104.13H77.65L76.45 100.71H76.42L75.23 104.13ZM84.7788 105.42C84.4888 106.5 83.7388 107.12 82.4888 107.12C80.8788 107.12 79.8388 105.98 79.8388 104.42C79.8388 102.86 80.8788 101.71 82.4888 101.71C83.8088 101.71 84.5188 102.44 84.7388 103.38H83.8388C83.6488 102.91 83.2988 102.45 82.4588 102.45C81.4088 102.45 80.7388 103.31 80.7388 104.42C80.7388 105.52 81.4088 106.37 82.4588 106.37C83.2088 106.37 83.6388 106.03 83.8688 105.42H84.7788ZM90.2233 105.42C89.9333 106.5 89.1833 107.12 87.9333 107.12C86.3233 107.12 85.2833 105.98 85.2833 104.42C85.2833 102.86 86.3233 101.71 87.9333 101.71C89.2533 101.71 89.9633 102.44 90.1833 103.38H89.2833C89.0933 102.91 88.7433 102.45 87.9033 102.45C86.8533 102.45 86.1833 103.31 86.1833 104.42C86.1833 105.52 86.8533 106.37 87.9033 106.37C88.6533 106.37 89.0833 106.03 89.3133 105.42H90.2233ZM93.3178 107.12C91.7478 107.12 90.7278 105.94 90.7278 104.42C90.7278 102.9 91.7478 101.71 93.3178 101.71C94.8878 101.71 95.9078 102.9 95.9078 104.42C95.9078 105.94 94.8878 107.12 93.3178 107.12ZM91.6278 104.42C91.6278 105.48 92.3078 106.36 93.3178 106.36C94.3278 106.36 95.0078 105.48 95.0078 104.42C95.0078 103.35 94.3278 102.47 93.3178 102.47C92.3078 102.47 91.6278 103.35 91.6278 104.42ZM96.6281 105.18V101.83H97.5281V105.09C97.5281 106 97.9181 106.36 98.6181 106.36C99.3781 106.36 100.048 105.72 100.048 104.37V101.83H100.948V107H100.048V106.03C99.7781 106.62 99.2981 107.12 98.4981 107.12C97.1381 107.12 96.6281 106.23 96.6281 105.18ZM102.025 107V101.83H102.925V102.8C103.195 102.21 103.675 101.71 104.475 101.71C105.835 101.71 106.345 102.6 106.345 103.65V107H105.445V103.74C105.445 102.83 105.055 102.47 104.355 102.47C103.595 102.47 102.925 103.11 102.925 104.46V107H102.025ZM108.471 105.55C108.471 106.01 108.731 106.26 109.131 106.26H109.491V107H109.041C108.041 107 107.591 106.41 107.591 105.61V102.57H106.821V101.83H107.591V100.62L108.471 100.22V101.83H109.461V102.57H108.471V105.55ZM112.385 99.86H113.545L116.325 104.37C116.595 104.8 116.855 105.24 117.125 105.67C117.125 105.18 117.105 104.74 117.105 104.25V99.86H118.055V107H116.865L114.095 102.52C113.825 102.1 113.585 101.67 113.315 101.25C113.315 101.75 113.335 102.22 113.335 102.72V107H112.385V99.86ZM121.464 107.12C119.894 107.12 118.874 105.94 118.874 104.42C118.874 102.9 119.894 101.71 121.464 101.71C123.034 101.71 124.054 102.9 124.054 104.42C124.054 105.94 123.034 107.12 121.464 107.12ZM119.774 104.42C119.774 105.48 120.454 106.36 121.464 106.36C122.474 106.36 123.154 105.48 123.154 104.42C123.154 103.35 122.474 102.47 121.464 102.47C120.454 102.47 119.774 103.35 119.774 104.42ZM124.53 105.8H125.63V107H124.53V105.8Z" fill="white"/>
<path d="M233.35 100.63L233.57 100.02L234.61 100.39V99.31H235.26V100.4L236.34 100.01L236.57 100.63L235.49 101.01L236.11 101.89L235.58 102.27L234.93 101.34L234.3 102.27L233.76 101.89L234.38 100.99L233.35 100.63ZM237.056 100.63L237.276 100.02L238.316 100.39V99.31H238.966V100.4L240.046 100.01L240.276 100.63L239.196 101.01L239.816 101.89L239.286 102.27L238.636 101.34L238.006 102.27L237.466 101.89L238.086 100.99L237.056 100.63ZM240.762 100.63L240.982 100.02L242.023 100.39V99.31H242.673V100.4L243.753 100.01L243.983 100.63L242.903 101.01L243.523 101.89L242.993 102.27L242.342 101.34L241.713 102.27L241.172 101.89L241.793 100.99L240.762 100.63ZM244.469 100.63L244.689 100.02L245.729 100.39V99.31H246.379V100.4L247.459 100.01L247.689 100.63L246.609 101.01L247.229 101.89L246.699 102.27L246.049 101.34L245.419 102.27L244.879 101.89L245.499 100.99L244.469 100.63ZM248.175 100.63L248.395 100.02L249.435 100.39V99.31H250.085V100.4L251.165 100.01L251.395 100.63L250.315 101.01L250.935 101.89L250.405 102.27L249.755 101.34L249.125 102.27L248.585 101.89L249.205 100.99L248.175 100.63ZM254.631 106.18C255.711 106.18 256.141 104.76 256.141 103.43C256.141 102.1 255.711 100.76 254.631 100.76C253.551 100.76 253.121 102.1 253.121 103.43C253.121 104.76 253.551 106.18 254.631 106.18ZM251.981 103.43C251.981 101.59 252.641 99.8 254.631 99.8C256.621 99.8 257.281 101.59 257.281 103.43C257.281 105.27 256.621 107.14 254.631 107.14C252.641 107.14 251.981 105.27 251.981 103.43ZM260.632 106.18C261.712 106.18 262.142 104.76 262.142 103.43C262.142 102.1 261.712 100.76 260.632 100.76C259.552 100.76 259.122 102.1 259.122 103.43C259.122 104.76 259.552 106.18 260.632 106.18ZM257.982 103.43C257.982 101.59 258.642 99.8 260.632 99.8C262.622 99.8 263.282 101.59 263.282 103.43C263.282 105.27 262.622 107.14 260.632 107.14C258.642 107.14 257.982 105.27 257.982 103.43ZM263.984 102.29C263.984 100.85 265.064 99.78 266.594 99.78C267.364 99.78 268.044 100.06 268.504 100.56C269.054 101.16 269.244 102.11 269.244 103.32C269.244 105.35 268.494 107.14 266.604 107.14C265.164 107.14 264.334 106.34 264.164 105.32H265.304C265.434 105.73 265.734 106.19 266.574 106.19C267.594 106.19 267.974 105.26 268.064 104C267.814 104.31 267.244 104.71 266.434 104.71C265.004 104.71 263.984 103.68 263.984 102.29ZM265.124 102.23C265.124 103.08 265.744 103.75 266.594 103.75C267.464 103.75 268.054 103.01 268.054 102.23C268.054 101.37 267.414 100.74 266.594 100.74C265.764 100.74 265.124 101.39 265.124 102.23ZM270.127 101.8C270.197 100.61 271.017 99.8 272.387 99.8C273.727 99.8 274.577 100.51 274.577 101.65C274.577 102.44 274.227 102.88 273.697 103.19C274.467 103.49 274.887 104.05 274.887 104.97C274.897 106.13 274.007 107.14 272.437 107.14C270.927 107.14 269.997 106.38 269.857 105.05L269.847 104.94H271.017L271.027 105.02C271.097 105.79 271.647 106.18 272.417 106.18C273.247 106.18 273.767 105.65 273.767 104.9C273.767 104.11 273.117 103.74 272.257 103.74C272.147 103.74 271.977 103.74 271.867 103.75V102.76C272.047 102.76 272.187 102.75 272.357 102.74C273.007 102.7 273.437 102.41 273.437 101.76C273.437 101.12 273.027 100.76 272.367 100.76C271.707 100.76 271.357 101.13 271.277 101.65L271.257 101.8H270.127Z" fill="white"/>
<rect x="102" y="204" width="261" height="122" rx="5" fill="#00877A"/>
<path d="M102 234L363 234" stroke="white" stroke-width="0.5"/>
<path d="M151 204V234" stroke="white" stroke-width="0.5"/>
<path d="M176.112 216.004H177.932L180.634 224.138H180.676L183.392 216.004H185.212L181.656 225.986L179.64 226L176.112 216.004ZM187.511 217.6H185.817V216.004H187.511V217.6ZM185.803 226V218.762H187.427V226H185.803ZM190.564 218.762V220.106C190.942 219.098 191.698 218.706 192.734 218.692V220.232C192.65 220.232 192.23 220.232 192.006 220.302C191.292 220.442 190.592 220.82 190.592 222.696V226H188.968V218.762H190.564ZM195.857 223.508C195.857 224.292 196.081 224.712 196.781 224.712H197.257V226.014L196.473 226.028C194.807 226.042 194.261 225.048 194.261 223.704V220.022H193.127V218.762H194.261V217.11L195.857 216.396V218.762H197.271V220.022H195.857V223.508ZM198.237 223.284V218.762H199.847V222.948C199.847 224.068 200.211 224.796 201.233 224.796C202.227 224.796 202.983 223.928 202.983 222.122V218.762H204.607V226H203.011V224.726C202.619 225.552 201.961 226.196 200.841 226.196C198.951 226.196 198.237 224.95 198.237 223.284ZM206.01 220.974C206.192 219.826 207.158 218.552 209.048 218.552C211.442 218.552 212.1 219.994 212.1 221.548V224.334C212.1 224.88 212.128 225.58 212.212 226H210.56C210.532 225.72 210.518 225.44 210.518 225.146V224.81H210.504C210.266 225.398 209.65 226.182 208.208 226.182C206.57 226.182 205.66 225.174 205.66 224.026C205.66 222.024 208.11 221.856 209.16 221.688C210.084 221.548 210.504 221.366 210.504 220.75C210.504 220.176 209.958 219.812 209.076 219.812C208.292 219.812 207.718 220.26 207.55 220.974H206.01ZM207.27 223.97C207.27 224.544 207.76 224.964 208.614 224.964C209.58 224.964 210.532 224.362 210.532 222.64V221.884C210.378 222.29 210 222.64 208.768 222.878C207.774 223.06 207.27 223.368 207.27 223.97ZM213.483 216.004H215.107V226H213.483V216.004ZM220.523 226H218.759L222.427 216.004H224.541L228.195 226H226.417L225.451 223.284H221.489L220.523 226ZM221.965 221.926H224.975L223.491 217.544H223.449L221.965 221.926ZM235.495 223.648C235.145 225.286 233.899 226.196 232.163 226.196C229.979 226.196 228.355 224.684 228.355 222.388C228.355 220.064 229.979 218.566 232.163 218.566C233.955 218.566 235.159 219.574 235.439 221.058H233.899C233.633 220.358 233.087 219.854 232.135 219.854C230.805 219.854 229.951 220.974 229.951 222.388C229.951 223.802 230.805 224.894 232.135 224.894C233.017 224.894 233.675 224.488 233.941 223.648H235.495ZM243.268 223.648C242.918 225.286 241.672 226.196 239.936 226.196C237.752 226.196 236.128 224.684 236.128 222.388C236.128 220.064 237.752 218.566 239.936 218.566C241.728 218.566 242.932 219.574 243.212 221.058H241.672C241.406 220.358 240.86 219.854 239.908 219.854C238.578 219.854 237.724 220.974 237.724 222.388C237.724 223.802 238.578 224.894 239.908 224.894C240.79 224.894 241.448 224.488 241.714 223.648H243.268ZM247.639 226.196C245.497 226.196 243.901 224.656 243.901 222.388C243.901 220.12 245.497 218.566 247.639 218.566C249.767 218.566 251.363 220.12 251.363 222.388C251.363 224.656 249.767 226.196 247.639 226.196ZM245.483 222.388C245.483 223.76 246.337 224.88 247.639 224.88C248.927 224.88 249.781 223.76 249.781 222.388C249.781 221.002 248.927 219.882 247.639 219.882C246.337 219.882 245.483 221.002 245.483 222.388ZM252.311 223.284V218.762H253.921V222.948C253.921 224.068 254.285 224.796 255.307 224.796C256.301 224.796 257.057 223.928 257.057 222.122V218.762H258.681V226H257.085V224.726C256.693 225.552 256.035 226.196 254.915 226.196C253.025 226.196 252.311 224.95 252.311 223.284ZM260.126 226V218.762H261.722V220.036C262.1 219.21 262.772 218.566 263.892 218.566C265.768 218.566 266.496 219.812 266.496 221.478V226H264.886V221.814C264.886 220.694 264.508 219.966 263.5 219.966C262.492 219.966 261.75 220.834 261.75 222.64V226H260.126ZM269.845 223.508C269.845 224.292 270.069 224.712 270.769 224.712H271.245V226.014L270.461 226.028C268.795 226.042 268.249 225.048 268.249 223.704V220.022H267.115V218.762H268.249V217.11L269.845 216.396V218.762H271.259V220.022H269.845V223.508Z" fill="white"/>
<path d="M128.76 308V300.86H131.36C132.57 300.86 133.46 301.57 133.46 302.77C133.46 303.52 133.04 304.03 132.33 304.35V304.36C133.15 304.5 133.76 305.05 133.76 305.98C133.76 307.31 132.82 308 131.3 308H128.76ZM129.71 307.2H131.46C132.25 307.2 132.81 306.75 132.81 305.98C132.81 305.22 132.25 304.78 131.46 304.78H129.71V307.2ZM129.71 303.98H131.18C132.01 303.98 132.51 303.57 132.51 302.77C132.51 301.97 132.01 301.66 131.18 301.66H129.71V303.98ZM134.69 304.39C134.8 303.64 135.43 302.7 136.78 302.7C138.68 302.7 138.86 303.93 138.86 304.73V306.95C138.86 307.34 138.9 307.75 138.94 308H137.98C137.96 307.75 137.96 307.54 137.96 307.25V307.05H137.95C137.83 307.45 137.4 308.12 136.25 308.12C135.01 308.12 134.44 307.33 134.44 306.59C134.44 305.13 136.28 305.08 137.06 304.94C137.74 304.82 137.96 304.63 137.96 304.2C137.96 303.77 137.55 303.46 136.81 303.46C136.18 303.46 135.71 303.83 135.59 304.39H134.69ZM135.33 306.59C135.33 307.08 135.78 307.39 136.41 307.39C137.2 307.39 137.98 306.88 137.98 305.6L137.97 304.88C137.87 305.22 137.65 305.52 136.53 305.72C135.78 305.85 135.33 306.07 135.33 306.59ZM139.92 300.86H140.82V308H139.92V300.86ZM141.887 304.39C141.997 303.64 142.627 302.7 143.977 302.7C145.877 302.7 146.057 303.93 146.057 304.73V306.95C146.057 307.34 146.097 307.75 146.137 308H145.177C145.157 307.75 145.157 307.54 145.157 307.25V307.05H145.147C145.027 307.45 144.597 308.12 143.447 308.12C142.207 308.12 141.637 307.33 141.637 306.59C141.637 305.13 143.477 305.08 144.257 304.94C144.937 304.82 145.157 304.63 145.157 304.2C145.157 303.77 144.747 303.46 144.007 303.46C143.377 303.46 142.907 303.83 142.787 304.39H141.887ZM142.527 306.59C142.527 307.08 142.977 307.39 143.607 307.39C144.397 307.39 145.177 306.88 145.177 305.6L145.167 304.88C145.067 305.22 144.847 305.52 143.727 305.72C142.977 305.85 142.527 306.07 142.527 306.59ZM147.117 308V302.83H148.017V303.8C148.287 303.21 148.767 302.71 149.567 302.71C150.927 302.71 151.437 303.6 151.437 304.65V308H150.537V304.74C150.537 303.83 150.147 303.47 149.447 303.47C148.687 303.47 148.017 304.11 148.017 305.46V308H147.117ZM157.094 306.42C156.804 307.5 156.054 308.12 154.804 308.12C153.194 308.12 152.154 306.98 152.154 305.42C152.154 303.86 153.194 302.71 154.804 302.71C156.124 302.71 156.834 303.44 157.054 304.38H156.154C155.964 303.91 155.614 303.45 154.774 303.45C153.724 303.45 153.054 304.31 153.054 305.42C153.054 306.52 153.724 307.37 154.774 307.37C155.524 307.37 155.954 307.03 156.184 306.42H157.094ZM162.449 306.46C162.159 307.56 161.289 308.12 160.139 308.12C158.609 308.12 157.599 307.01 157.599 305.39C157.599 303.83 158.659 302.71 160.119 302.71C161.939 302.71 162.509 304.17 162.529 305.5V305.66H158.469C158.539 306.74 159.199 307.37 160.119 307.37C160.809 307.37 161.389 307.1 161.569 306.46H162.449ZM158.479 304.94H161.619C161.539 304.04 161.039 303.45 160.119 303.45C159.189 303.45 158.599 304.05 158.479 304.94Z" fill="white"/>
<path d="M255.29 305.27C255.29 306.89 254.47 308.17 252.51 308.17C250.54 308.17 249.7 306.93 249.7 305.27V300.86H250.91V305.27C250.91 306.31 251.39 307.14 252.51 307.14C253.61 307.14 254.08 306.31 254.08 305.27V300.86H255.29V305.27ZM257.402 305.73C257.462 306.67 258.112 307.16 259.032 307.16C259.832 307.16 260.412 306.82 260.412 306.07C260.412 305.29 259.752 305.14 258.852 304.86C257.672 304.51 256.482 304.13 256.462 302.72C256.452 301.36 257.672 300.69 258.962 300.69C260.392 300.69 261.402 301.37 261.542 302.91H260.322C260.192 302.09 259.782 301.69 258.942 301.69C258.242 301.69 257.672 301.98 257.672 302.71C257.672 303.36 258.292 303.62 259.212 303.89C260.422 304.25 261.622 304.55 261.622 306.06C261.622 307.52 260.352 308.17 259.032 308.17C257.472 308.17 256.272 307.4 256.172 305.73H257.402ZM264.801 300.86C267.221 300.86 268.561 302.2 268.561 304.33C268.561 306.5 267.221 308 264.841 308H262.611V300.86H264.801ZM263.821 306.98H264.851C266.291 306.98 267.341 306.09 267.341 304.33C267.341 302.66 266.291 301.88 264.831 301.88H263.821V306.98ZM275.944 305.81C275.624 307.14 274.444 308.13 272.644 308.13C270.414 308.13 269.024 306.55 269.024 304.43C269.024 302.33 270.424 300.73 272.664 300.73C274.454 300.73 275.504 301.66 275.954 303.05H274.744C274.374 302.19 273.714 301.75 272.664 301.75C271.144 301.75 270.234 302.94 270.234 304.43C270.234 305.92 271.134 307.11 272.664 307.11C273.784 307.11 274.464 306.59 274.754 305.81H275.944ZM280.923 299.59H282.013V300.73C283.143 300.89 283.923 301.58 284.043 302.91H282.823C282.693 302.09 282.283 301.69 281.443 301.69C280.743 301.69 280.173 301.98 280.173 302.71C280.173 303.36 280.793 303.62 281.713 303.89C282.923 304.25 284.123 304.55 284.123 306.06C284.123 307.34 283.143 308 282.013 308.14V309.29H280.923V308.13C279.673 307.95 278.763 307.17 278.673 305.73H279.903C279.963 306.67 280.613 307.16 281.533 307.16C282.333 307.16 282.913 306.82 282.913 306.07C282.913 305.29 282.253 305.14 281.353 304.86C280.173 304.51 278.983 304.13 278.963 302.72C278.953 301.55 279.853 300.89 280.923 300.73V299.59ZM284.712 306.27V305.21L287.802 300.86H288.942V305.32H289.772V306.27H288.942V308H287.802V306.27H284.712ZM285.772 305.32H287.802V302.47H287.772L285.772 305.32ZM290.355 303.29C290.355 301.85 291.435 300.78 292.965 300.78C293.735 300.78 294.415 301.06 294.875 301.56C295.425 302.16 295.615 303.11 295.615 304.32C295.615 306.35 294.865 308.14 292.975 308.14C291.535 308.14 290.705 307.34 290.535 306.32H291.675C291.805 306.73 292.105 307.19 292.945 307.19C293.965 307.19 294.345 306.26 294.435 305C294.185 305.31 293.615 305.71 292.805 305.71C291.375 305.71 290.355 304.68 290.355 303.29ZM291.495 303.23C291.495 304.08 292.115 304.75 292.965 304.75C293.835 304.75 294.425 304.01 294.425 303.23C294.425 302.37 293.785 301.74 292.965 301.74C292.135 301.74 291.495 302.39 291.495 303.23ZM296.598 306.72H297.858L297.058 309.25H296.038L296.598 306.72ZM303.098 301.81H300.218L299.938 303.67C300.268 303.38 300.748 303.21 301.298 303.21C302.728 303.21 303.688 304.13 303.688 305.66C303.688 307.04 302.638 308.14 301.138 308.14C299.628 308.14 298.728 307.23 298.588 306.1L299.728 306.09C299.838 306.67 300.368 307.17 301.128 307.17C301.888 307.17 302.548 306.59 302.548 305.66C302.548 304.79 302.048 304.17 301.108 304.17C300.478 304.17 300.088 304.5 299.858 304.88L298.728 304.78L299.288 300.85L303.098 300.86V301.81ZM308.816 301.81H305.936L305.656 303.67C305.986 303.38 306.466 303.21 307.016 303.21C308.446 303.21 309.406 304.13 309.406 305.66C309.406 307.04 308.356 308.14 306.856 308.14C305.346 308.14 304.446 307.23 304.306 306.1L305.446 306.09C305.556 306.67 306.086 307.17 306.846 307.17C307.606 307.17 308.266 306.59 308.266 305.66C308.266 304.79 307.766 304.17 306.826 304.17C306.196 304.17 305.806 304.5 305.576 304.88L304.446 304.78L305.006 300.85L308.816 300.86V301.81ZM309.958 303.17C309.958 301.67 310.958 300.8 312.418 300.8C313.778 300.8 314.748 301.63 314.748 302.89C314.748 304.1 314.188 304.61 313.288 305.3C312.488 305.92 311.658 306.32 311.348 307.02H314.828V308H309.858C309.918 306.42 310.798 305.7 311.928 304.95C313.108 304.16 313.608 303.83 313.608 302.95C313.608 302.3 313.178 301.75 312.388 301.75C311.548 301.75 311.098 302.34 311.098 303.17H309.958ZM315.823 306.72H317.073V308H315.823V306.72ZM320.545 307.18C321.625 307.18 322.055 305.76 322.055 304.43C322.055 303.1 321.625 301.76 320.545 301.76C319.465 301.76 319.035 303.1 319.035 304.43C319.035 305.76 319.465 307.18 320.545 307.18ZM317.895 304.43C317.895 302.59 318.555 300.8 320.545 300.8C322.535 300.8 323.195 302.59 323.195 304.43C323.195 306.27 322.535 308.14 320.545 308.14C318.555 308.14 317.895 306.27 317.895 304.43ZM326.546 307.18C327.626 307.18 328.056 305.76 328.056 304.43C328.056 303.1 327.626 301.76 326.546 301.76C325.466 301.76 325.036 303.1 325.036 304.43C325.036 305.76 325.466 307.18 326.546 307.18ZM323.896 304.43C323.896 302.59 324.556 300.8 326.546 300.8C328.536 300.8 329.196 302.59 329.196 304.43C329.196 306.27 328.536 308.14 326.546 308.14C324.556 308.14 323.896 306.27 323.896 304.43Z" fill="white"/>
<path d="M128.76 283V275.86H131.32C132.95 275.86 133.74 276.77 133.74 277.89C133.74 278.91 133.05 279.56 132.25 279.75C132.94 279.93 133.15 280.47 133.42 281.37C133.62 282.03 133.77 282.43 134.04 282.9V283H133.03C132.79 282.51 132.61 281.85 132.4 281.29C132.15 280.62 131.86 280.08 131 280.08H129.71V283H128.76ZM129.71 279.28H131.28C132.29 279.28 132.78 278.73 132.78 277.89C132.78 277.25 132.43 276.66 131.22 276.66H129.71V279.28ZM136.892 283.12C135.322 283.12 134.302 281.94 134.302 280.42C134.302 278.9 135.322 277.71 136.892 277.71C138.462 277.71 139.482 278.9 139.482 280.42C139.482 281.94 138.462 283.12 136.892 283.12ZM135.202 280.42C135.202 281.48 135.882 282.36 136.892 282.36C137.902 282.36 138.582 281.48 138.582 280.42C138.582 279.35 137.902 278.47 136.892 278.47C135.882 278.47 135.202 279.35 135.202 280.42ZM140.202 281.18V277.83H141.102V281.09C141.102 282 141.492 282.36 142.192 282.36C142.952 282.36 143.622 281.72 143.622 280.37V277.83H144.522V283H143.622V282.03C143.352 282.62 142.872 283.12 142.072 283.12C140.712 283.12 140.202 282.23 140.202 281.18ZM146.689 281.55C146.689 282.01 146.949 282.26 147.349 282.26H147.709V283H147.259C146.259 283 145.809 282.41 145.809 281.61V278.57H145.039V277.83H145.809V276.62L146.689 276.22V277.83H147.679V278.57H146.689V281.55ZM149.425 276.86H148.465V275.86H149.425V276.86ZM148.445 283V277.83H149.345V283H148.445ZM150.501 283V277.83H151.401V278.8C151.671 278.21 152.151 277.71 152.951 277.71C154.311 277.71 154.821 278.6 154.821 279.65V283H153.921V279.74C153.921 278.83 153.531 278.47 152.831 278.47C152.071 278.47 151.401 279.11 151.401 280.46V283H150.501ZM159.688 277.83H160.588V282.6C160.588 284.13 159.468 284.98 158.188 284.98C156.908 284.98 155.908 284.34 155.798 283.22H156.698C156.798 283.96 157.368 284.22 158.188 284.22C159.008 284.22 159.688 283.77 159.688 282.6V281.98H159.678C159.458 282.62 158.948 283.12 157.938 283.12C156.458 283.12 155.538 281.95 155.538 280.4C155.538 278.86 156.458 277.71 157.938 277.71C158.948 277.71 159.488 278.28 159.678 278.79H159.688V277.83ZM156.438 280.4C156.438 281.42 156.948 282.35 158.078 282.35C159.348 282.35 159.718 281.22 159.718 280.4C159.718 279.59 159.188 278.47 158.078 278.47C156.978 278.47 156.438 279.39 156.438 280.4ZM163.82 275.86H164.98L167.76 280.37C168.03 280.8 168.29 281.24 168.56 281.67C168.56 281.18 168.54 280.74 168.54 280.25V275.86H169.49V283H168.3L165.53 278.52C165.26 278.1 165.02 277.67 164.75 277.25C164.75 277.75 164.77 278.22 164.77 278.72V283H163.82V275.86ZM172.899 283.12C171.329 283.12 170.309 281.94 170.309 280.42C170.309 278.9 171.329 277.71 172.899 277.71C174.469 277.71 175.489 278.9 175.489 280.42C175.489 281.94 174.469 283.12 172.899 283.12ZM171.209 280.42C171.209 281.48 171.889 282.36 172.899 282.36C173.909 282.36 174.589 281.48 174.589 280.42C174.589 279.35 173.909 278.47 172.899 278.47C171.889 278.47 171.209 279.35 171.209 280.42ZM175.965 281.8H177.065V283H175.965V281.8Z" fill="white"/>
<path d="M284.42 283H283.28V277.89H281.54V277.12C282.48 277.12 283.19 276.92 283.46 275.86H284.42V283ZM285.784 278.17C285.784 276.67 286.784 275.8 288.244 275.8C289.604 275.8 290.574 276.63 290.574 277.89C290.574 279.1 290.014 279.61 289.114 280.3C288.314 280.92 287.484 281.32 287.174 282.02H290.654V283H285.684C285.744 281.42 286.624 280.7 287.754 279.95C288.934 279.16 289.434 278.83 289.434 277.95C289.434 277.3 289.004 276.75 288.214 276.75C287.374 276.75 286.924 277.34 286.924 278.17H285.784ZM294.284 283H293.144V277.89H291.404V277.12C292.344 277.12 293.054 276.92 293.324 275.86H294.284V283ZM298.168 282.18C299.248 282.18 299.678 280.76 299.678 279.43C299.678 278.1 299.248 276.76 298.168 276.76C297.088 276.76 296.658 278.1 296.658 279.43C296.658 280.76 297.088 282.18 298.168 282.18ZM295.518 279.43C295.518 277.59 296.178 275.8 298.168 275.8C300.158 275.8 300.818 277.59 300.818 279.43C300.818 281.27 300.158 283.14 298.168 283.14C296.178 283.14 295.518 281.27 295.518 279.43ZM304.169 282.18C305.249 282.18 305.679 280.76 305.679 279.43C305.679 278.1 305.249 276.76 304.169 276.76C303.089 276.76 302.659 278.1 302.659 279.43C302.659 280.76 303.089 282.18 304.169 282.18ZM301.519 279.43C301.519 277.59 302.179 275.8 304.169 275.8C306.159 275.8 306.819 277.59 306.819 279.43C306.819 281.27 306.159 283.14 304.169 283.14C302.179 283.14 301.519 281.27 301.519 279.43ZM310.17 282.18C311.25 282.18 311.68 280.76 311.68 279.43C311.68 278.1 311.25 276.76 310.17 276.76C309.09 276.76 308.66 278.1 308.66 279.43C308.66 280.76 309.09 282.18 310.17 282.18ZM307.52 279.43C307.52 277.59 308.18 275.8 310.17 275.8C312.16 275.8 312.82 277.59 312.82 279.43C312.82 281.27 312.16 283.14 310.17 283.14C308.18 283.14 307.52 281.27 307.52 279.43ZM313.693 277.8C313.763 276.61 314.583 275.8 315.953 275.8C317.293 275.8 318.143 276.51 318.143 277.65C318.143 278.44 317.793 278.88 317.263 279.19C318.033 279.49 318.453 280.05 318.453 280.97C318.463 282.13 317.573 283.14 316.003 283.14C314.493 283.14 313.563 282.38 313.423 281.05L313.413 280.94H314.583L314.593 281.02C314.663 281.79 315.213 282.18 315.983 282.18C316.813 282.18 317.333 281.65 317.333 280.9C317.333 280.11 316.683 279.74 315.823 279.74C315.713 279.74 315.543 279.74 315.433 279.75V278.76C315.613 278.76 315.753 278.75 315.923 278.74C316.573 278.7 317.003 278.41 317.003 277.76C317.003 277.12 316.593 276.76 315.933 276.76C315.273 276.76 314.923 277.13 314.843 277.65L314.823 277.8H313.693ZM323.642 276.81H320.762L320.482 278.67C320.812 278.38 321.292 278.21 321.842 278.21C323.272 278.21 324.232 279.13 324.232 280.66C324.232 282.04 323.182 283.14 321.682 283.14C320.172 283.14 319.272 282.23 319.132 281.1L320.272 281.09C320.382 281.67 320.912 282.17 321.672 282.17C322.432 282.17 323.092 281.59 323.092 280.66C323.092 279.79 322.592 279.17 321.652 279.17C321.022 279.17 320.632 279.5 320.402 279.88L319.272 279.78L319.832 275.85L323.642 275.86V276.81ZM327.45 275.77C328.85 275.77 329.74 276.55 329.74 277.6C329.74 278.42 329.29 279.01 328.67 279.22C329.32 279.41 330 280.07 330 281.04C330 282.34 328.98 283.14 327.46 283.14C325.88 283.14 324.85 282.34 324.86 281.04C324.87 280.07 325.58 279.39 326.23 279.21C325.56 278.98 325.14 278.43 325.14 277.6C325.14 276.55 326.04 275.77 327.45 275.77ZM325.99 280.97C325.99 281.65 326.48 282.24 327.45 282.24C328.4 282.24 328.88 281.66 328.88 280.97C328.88 280.3 328.4 279.71 327.45 279.71C326.48 279.71 325.99 280.3 325.99 280.97ZM326.26 277.74C326.26 278.31 326.7 278.81 327.45 278.81C328.2 278.81 328.63 278.32 328.63 277.74C328.63 277.17 328.2 276.68 327.45 276.68C326.69 276.68 326.26 277.17 326.26 277.74Z" fill="white"/>
<path d="M129.16 258H128.18L130.84 250.86H132.03L134.69 258H133.71L132.93 255.91H129.95L129.16 258ZM130.23 255.13H132.65L131.45 251.71H131.42L130.23 255.13ZM137.199 252.71C138.139 252.71 138.789 253.34 138.979 253.88H138.989V250.86H139.889V258H138.989V256.97H138.979C138.789 257.5 138.139 258.12 137.199 258.12C135.739 258.12 134.839 257 134.839 255.4C134.839 253.8 135.739 252.71 137.199 252.71ZM135.739 255.4C135.739 256.52 136.289 257.35 137.379 257.35C138.499 257.35 139.019 256.42 139.019 255.4C139.019 254.39 138.499 253.47 137.379 253.47C136.319 253.47 135.739 254.28 135.739 255.4ZM143.005 252.71C143.945 252.71 144.595 253.34 144.785 253.88H144.795V250.86H145.695V258H144.795V256.97H144.785C144.595 257.5 143.945 258.12 143.005 258.12C141.545 258.12 140.645 257 140.645 255.4C140.645 253.8 141.545 252.71 143.005 252.71ZM141.545 255.4C141.545 256.52 142.095 257.35 143.185 257.35C144.305 257.35 144.825 256.42 144.825 255.4C144.825 254.39 144.305 253.47 143.185 253.47C142.125 253.47 141.545 254.28 141.545 255.4ZM147.67 252.83V253.87C147.93 253.11 148.43 252.81 149.21 252.81V253.67C149.17 253.67 149.01 253.68 148.88 253.7C148.28 253.79 147.67 254.06 147.67 255.56V258H146.77V252.83H147.67ZM154.362 256.46C154.072 257.56 153.202 258.12 152.052 258.12C150.522 258.12 149.512 257.01 149.512 255.39C149.512 253.83 150.572 252.71 152.032 252.71C153.852 252.71 154.422 254.17 154.442 255.5V255.66H150.382C150.452 256.74 151.112 257.37 152.032 257.37C152.722 257.37 153.302 257.1 153.482 256.46H154.362ZM150.392 254.94H153.532C153.452 254.04 152.952 253.45 152.032 253.45C151.102 253.45 150.512 254.05 150.392 254.94ZM158.088 254.39C158.028 253.72 157.468 253.47 156.948 253.47C156.458 253.47 155.968 253.75 155.968 254.19C155.968 254.59 156.368 254.82 156.818 254.93L157.498 255.1C158.278 255.29 159.068 255.66 159.068 256.52C159.068 257.62 157.918 258.12 157.018 258.12C156.148 258.12 155.008 257.72 154.918 256.44H155.818C155.938 257.1 156.348 257.36 157.048 257.36C157.558 257.36 158.168 257.18 158.168 256.58C158.168 256.14 157.738 255.99 157.248 255.87L156.528 255.69C155.758 255.5 155.068 255.03 155.068 254.23C155.068 253.26 156.068 252.71 156.978 252.71C157.988 252.71 158.878 253.25 158.978 254.39H158.088ZM162.673 254.39C162.613 253.72 162.053 253.47 161.533 253.47C161.043 253.47 160.553 253.75 160.553 254.19C160.553 254.59 160.953 254.82 161.403 254.93L162.083 255.1C162.863 255.29 163.653 255.66 163.653 256.52C163.653 257.62 162.503 258.12 161.603 258.12C160.733 258.12 159.593 257.72 159.503 256.44H160.403C160.523 257.1 160.933 257.36 161.633 257.36C162.143 257.36 162.753 257.18 162.753 256.58C162.753 256.14 162.323 255.99 161.833 255.87L161.113 255.69C160.343 255.5 159.653 255.03 159.653 254.23C159.653 253.26 160.653 252.71 161.563 252.71C162.573 252.71 163.463 253.25 163.563 254.39H162.673Z" fill="white"/>
<path d="M299.1 257.18C300.18 257.18 300.61 255.76 300.61 254.43C300.61 253.1 300.18 251.76 299.1 251.76C298.02 251.76 297.59 253.1 297.59 254.43C297.59 255.76 298.02 257.18 299.1 257.18ZM296.45 254.43C296.45 252.59 297.11 250.8 299.1 250.8C301.09 250.8 301.75 252.59 301.75 254.43C301.75 256.27 301.09 258.14 299.1 258.14C297.11 258.14 296.45 256.27 296.45 254.43ZM302.141 258L303.981 255.36L302.211 252.83H303.521L304.641 254.46L305.751 252.83H307.061L305.301 255.35L307.131 258H305.821L304.641 256.25L303.451 258H302.141ZM307.317 251.63L307.537 251.02L308.577 251.39V250.31H309.227V251.4L310.307 251.01L310.537 251.63L309.457 252.01L310.077 252.89L309.547 253.27L308.897 252.34L308.267 253.27L307.727 252.89L308.347 251.99L307.317 251.63ZM311.023 251.63L311.243 251.02L312.283 251.39V250.31H312.933V251.4L314.013 251.01L314.243 251.63L313.163 252.01L313.783 252.89L313.253 253.27L312.603 252.34L311.973 253.27L311.433 252.89L312.053 251.99L311.023 251.63ZM314.73 251.63L314.95 251.02L315.99 251.39V250.31H316.64V251.4L317.72 251.01L317.95 251.63L316.87 252.01L317.49 252.89L316.96 253.27L316.31 252.34L315.68 253.27L315.14 252.89L315.76 251.99L314.73 251.63ZM318.436 251.63L318.656 251.02L319.696 251.39V250.31H320.346V251.4L321.426 251.01L321.656 251.63L320.576 252.01L321.196 252.89L320.666 253.27L320.016 252.34L319.386 253.27L318.846 252.89L319.466 251.99L318.436 251.63ZM322.142 251.63L322.362 251.02L323.402 251.39V250.31H324.052V251.4L325.132 251.01L325.362 251.63L324.282 252.01L324.902 252.89L324.372 253.27L323.722 252.34L323.092 253.27L322.552 252.89L323.172 251.99L322.142 251.63ZM325.848 251.63L326.068 251.02L327.108 251.39V250.31H327.758V251.4L328.838 251.01L329.068 251.63L327.988 252.01L328.608 252.89L328.078 253.27L327.428 252.34L326.798 253.27L326.258 252.89L326.878 251.99L325.848 251.63Z" fill="white"/>
<path d="M1 0V106C1 110.418 4.58172 114 9 114H43" stroke="url(#paint2_linear_707_1709)"/>
<path d="M412 372V273C412 268.582 408.418 265 404 265H367" stroke="url(#paint3_linear_707_1709)"/>
<line x1="196.5" y1="200" x2="196.5" y2="179" stroke="url(#paint4_linear_707_1709)"/>
<path d="M134.868 223.453L126.319 226.946C126.218 226.982 126.11 227 126 227C125.891 227 125.782 226.982 125.681 226.946L117.132 223.453C116.958 223.381 116.958 223.264 117.132 223.192L119.179 222.357C119.28 222.322 119.389 222.303 119.499 222.303C119.609 222.303 119.718 222.322 119.819 222.357L125.681 224.75C125.782 224.786 125.89 224.804 126 224.804C126.11 224.804 126.219 224.786 126.319 224.75L132.182 222.357C132.283 222.322 132.391 222.303 132.501 222.303C132.611 222.303 132.72 222.322 132.821 222.357L134.868 223.194C135.044 223.264 135.044 223.381 134.868 223.453ZM134.868 218.577L132.821 217.74C132.72 217.704 132.611 217.686 132.501 217.686C132.391 217.686 132.283 217.704 132.182 217.74L126.319 220.135C126.218 220.171 126.11 220.189 126 220.189C125.891 220.189 125.782 220.171 125.681 220.135L119.819 217.74C119.718 217.704 119.609 217.686 119.499 217.686C119.389 217.686 119.28 217.704 119.179 217.74L117.132 218.577C116.958 218.648 116.958 218.765 117.132 218.838L125.681 222.33C125.782 222.366 125.891 222.384 126 222.384C126.11 222.384 126.218 222.366 126.319 222.33L134.868 218.838C135.044 218.765 135.044 218.648 134.868 218.577ZM117.132 214.515L125.681 217.74C125.886 217.806 126.114 217.806 126.319 217.74L134.868 214.515C135.042 214.449 135.042 214.34 134.868 214.274L126.319 211.05C126.114 210.983 125.886 210.983 125.681 211.05L117.132 214.274C116.956 214.34 116.956 214.449 117.132 214.515Z" fill="white"/>
<path d="M61 73.5C61 74.3281 61.6719 75 62.5 75H77.5C78.3281 75 79 74.3281 79 73.5V68H61V73.5ZM67 71.375C67 71.1688 67.1688 71 67.375 71H71.625C71.8312 71 72 71.1688 72 71.375V72.625C72 72.8312 71.8312 73 71.625 73H67.375C67.1688 73 67 72.8312 67 72.625V71.375ZM63 71.375C63 71.1688 63.1688 71 63.375 71H65.625C65.8312 71 66 71.1688 66 71.375V72.625C66 72.8312 65.8312 73 65.625 73H63.375C63.1688 73 63 72.8312 63 72.625V71.375ZM79 62.5V64H61V62.5C61 61.6719 61.6719 61 62.5 61H77.5C78.3281 61 79 61.6719 79 62.5Z" fill="white"/>
<defs>
<linearGradient id="paint0_linear_707_1709" x1="134.5" y1="0" x2="134.5" y2="130" gradientUnits="userSpaceOnUse">
<stop stop-color="#FF8159"/>
<stop offset="1" stop-color="#F44336"/>
</linearGradient>
<linearGradient id="paint1_linear_707_1709" x1="135" y1="0" x2="135" y2="130" gradientUnits="userSpaceOnUse">
<stop stop-color="#00877A"/>
<stop offset="1" stop-color="#2BDCBC"/>
</linearGradient>
<linearGradient id="paint2_linear_707_1709" x1="22" y1="0" x2="22" y2="114" gradientUnits="userSpaceOnUse">
<stop stop-color="white" stop-opacity="0"/>
<stop offset="1" stop-color="#FA6147"/>
</linearGradient>
<linearGradient id="paint3_linear_707_1709" x1="389.5" y1="372" x2="389.5" y2="265" gradientUnits="userSpaceOnUse">
<stop stop-color="white"/>
<stop offset="1" stop-color="#16B39C"/>
</linearGradient>
<linearGradient id="paint4_linear_707_1709" x1="197.5" y1="179" x2="197.5" y2="200" gradientUnits="userSpaceOnUse">
<stop stop-color="#FF8159"/>
<stop offset="1" stop-color="#2BDCBD"/>
</linearGradient>
</defs>
</svg>
