<svg width="1810" height="340" viewBox="0 0 1810 340" fill="none" xmlns="http://www.w3.org/2000/svg">
<path d="M456.209 121.346V118.164H494.245V121.346H477.151V171H473.303V121.346H456.209ZM500.732 171V118.164H504.432V140.068C506.43 135.702 509.908 132.298 516.716 132.298C524.338 132.298 530.554 135.998 530.554 147.024V171H526.854V147.172C526.854 138.218 522.266 135.332 516.494 135.332C510.722 135.332 504.432 138.81 504.432 150.872V171H500.732ZM572.6 159.752C570.38 166.634 564.608 171.444 556.024 171.444C544.406 171.444 537.894 162.416 537.894 151.908C537.894 141.474 544.48 132.298 555.802 132.298C567.272 132.298 572.082 140.512 572.748 150.65C572.822 151.464 572.822 152.278 572.822 153.018H541.52C541.816 161.824 547.588 168.336 556.024 168.336C562.166 168.336 566.828 165.006 568.826 159.752H572.6ZM541.594 150.058H569.196C568.308 140.956 564.312 135.332 555.802 135.332C547.662 135.332 542.112 141.548 541.594 150.058ZM600.17 155.164C600.836 163.97 608.162 168.484 615.34 168.484C622.296 168.484 628.956 165.746 628.956 157.754C628.956 150.354 623.554 148.282 615.932 146.062C604.018 142.51 598.246 139.55 598.172 130.966C598.172 122.16 605.72 117.498 614.526 117.498C623.48 117.498 630.88 122.012 632.064 132.224H628.142C627.18 124.38 621.63 120.68 614.526 120.68C607.644 120.68 602.094 124.306 602.094 130.892C602.094 137.33 606.164 139.772 616.894 142.806C625.034 145.174 632.878 147.838 632.878 157.68C632.878 168.336 624.146 171.666 615.34 171.666C606.164 171.666 597.062 166.856 596.248 155.164H600.17ZM641.86 156.718V132.742H645.56V156.57C645.56 165.524 650.148 168.41 655.92 168.41C661.692 168.41 667.982 164.932 667.982 152.87V132.742H671.682V171H667.982V163.378C665.984 167.818 662.432 171.444 655.698 171.444C648.076 171.444 641.86 167.744 641.86 156.718ZM699.225 132.298C710.769 132.298 716.541 141.4 716.541 151.908C716.541 162.416 710.769 171.444 699.225 171.444C692.121 171.444 687.755 167.818 685.387 162.934H685.313V185.8H681.613V132.742H685.313V140.66H685.387C687.607 136.294 691.899 132.298 699.225 132.298ZM685.017 151.908C685.017 159.53 688.939 168.336 698.929 168.336C707.883 168.336 712.841 161.158 712.841 151.908C712.841 142.51 707.883 135.332 698.929 135.332C689.975 135.332 685.017 142.658 685.017 151.908ZM756.877 159.752C754.657 166.634 748.885 171.444 740.301 171.444C728.683 171.444 722.171 162.416 722.171 151.908C722.171 141.474 728.757 132.298 740.079 132.298C751.549 132.298 756.359 140.512 757.025 150.65C757.099 151.464 757.099 152.278 757.099 153.018H725.797C726.093 161.824 731.865 168.336 740.301 168.336C746.443 168.336 751.105 165.006 753.103 159.752H756.877ZM725.871 150.058H753.473C752.585 140.956 748.589 135.332 740.079 135.332C731.939 135.332 726.389 141.548 725.871 150.058ZM768.708 132.742V140.364C770.558 135.702 774.332 132.446 781.066 132.446V135.776C778.698 135.776 776.552 136.22 774.924 137.256C770.928 139.402 768.708 143.842 768.708 151.02V171H765.008V132.742H768.708ZM804.589 132.298C816.133 132.298 821.905 141.4 821.905 151.908C821.905 162.416 816.133 171.444 804.589 171.444C797.485 171.444 793.119 167.818 790.751 162.934H790.677V185.8H786.977V132.742H790.677V140.66H790.751C792.971 136.294 797.263 132.298 804.589 132.298ZM790.381 151.908C790.381 159.53 794.303 168.336 804.293 168.336C813.247 168.336 818.205 161.158 818.205 151.908C818.205 142.51 813.247 135.332 804.293 135.332C795.339 135.332 790.381 142.658 790.381 151.908ZM829.469 118.164H833.169V171H829.469V118.164ZM843.499 144.064C844.609 138.44 849.419 132.298 858.151 132.298C869.103 132.298 872.433 138.366 872.433 144.286L872.507 163.082C872.507 165.746 872.729 168.484 873.173 171H869.251C868.881 168.854 868.881 167.152 868.881 164.932V162.934H868.807C867.253 166.264 863.701 171.518 854.895 171.518C845.793 171.518 841.131 166.486 841.131 160.64C841.131 153.314 848.679 150.428 857.189 149.096C864.293 147.986 868.881 146.95 868.881 143.324C868.881 137.774 864.293 135.332 858.225 135.332C852.675 135.332 848.679 138.44 847.199 144.064H843.499ZM844.831 160.64C844.831 164.932 848.457 168.558 855.117 168.558C862.665 168.558 869.029 163.082 869.029 153.388V147.246C867.845 149.688 863.405 151.094 856.449 152.204C849.419 153.24 844.831 155.978 844.831 160.64ZM887.547 163.526C887.547 166.338 888.879 168.04 891.765 168.04H894.725V171H891.987C886.067 171 883.847 168.188 883.847 163.23V135.702H878.149V132.742H883.847V123.344L887.547 121.642V132.742H894.947V135.702H887.547V163.526ZM905.427 127.192C905.427 122.382 907.499 118.164 913.271 118.164H917.045V121.198H913.641C910.829 121.198 909.127 122.678 909.127 127.414V132.742H915.713V135.702H909.127V171H905.427V135.702H900.025V132.742H905.427V127.192ZM937.017 171.444C925.251 171.444 918.517 162.342 918.517 151.982C918.517 141.548 925.251 132.298 937.017 132.298C948.635 132.298 955.517 141.548 955.517 151.982C955.517 162.342 948.635 171.444 937.017 171.444ZM922.217 151.982C922.217 161.084 928.137 168.336 937.017 168.336C945.823 168.336 951.817 161.084 951.817 151.982C951.817 142.658 945.823 135.332 937.017 135.332C928.137 135.332 922.217 142.658 922.217 151.982ZM966.788 132.742V140.364C968.638 135.702 972.412 132.446 979.146 132.446V135.776C976.778 135.776 974.632 136.22 973.004 137.256C969.008 139.402 966.788 143.842 966.788 151.02V171H963.088V132.742H966.788ZM985.057 171V132.742H988.757V139.92C990.311 135.628 994.455 132.224 999.487 132.224C1005.11 132.224 1008.88 134.444 1010.81 139.698C1013.92 134.296 1017.39 132.224 1022.65 132.224C1029.53 132.224 1034.78 135.998 1034.78 147.024V171H1031.08V147.172C1031.08 138.218 1027.46 135.258 1022.43 135.258C1016.73 135.258 1011.92 139.994 1011.92 149.392V171H1008.22V147.172C1008.22 138.218 1004.44 135.258 999.265 135.258C992.235 135.258 988.757 142.584 988.757 150.872V171H985.057ZM1065.9 163.526C1065.9 166.338 1067.23 168.04 1070.12 168.04H1073.08V171H1070.34C1064.42 171 1062.2 168.188 1062.2 163.23V135.702H1056.5V132.742H1062.2V123.344L1065.9 121.642V132.742H1073.3V135.702H1065.9V163.526ZM1096.72 171.444C1084.96 171.444 1078.22 162.342 1078.22 151.982C1078.22 141.548 1084.96 132.298 1096.72 132.298C1108.34 132.298 1115.22 141.548 1115.22 151.982C1115.22 162.342 1108.34 171.444 1096.72 171.444ZM1081.92 151.982C1081.92 161.084 1087.84 168.336 1096.72 168.336C1105.53 168.336 1111.52 161.084 1111.52 151.982C1111.52 142.658 1105.53 135.332 1096.72 135.332C1087.84 135.332 1081.92 142.658 1081.92 151.982ZM1140.01 118.164H1143.94V167.818H1170.87V171H1140.01V118.164ZM1178.67 144.064C1179.78 138.44 1184.59 132.298 1193.32 132.298C1204.27 132.298 1207.6 138.366 1207.6 144.286L1207.67 163.082C1207.67 165.746 1207.9 168.484 1208.34 171H1204.42C1204.05 168.854 1204.05 167.152 1204.05 164.932V162.934H1203.97C1202.42 166.264 1198.87 171.518 1190.06 171.518C1180.96 171.518 1176.3 166.486 1176.3 160.64C1176.3 153.314 1183.85 150.428 1192.36 149.096C1199.46 147.986 1204.05 146.95 1204.05 143.324C1204.05 137.774 1199.46 135.332 1193.39 135.332C1187.84 135.332 1183.85 138.44 1182.37 144.064H1178.67ZM1180 160.64C1180 164.932 1183.62 168.558 1190.28 168.558C1197.83 168.558 1204.2 163.082 1204.2 153.388V147.246C1203.01 149.688 1198.57 151.094 1191.62 152.204C1184.59 153.24 1180 155.978 1180 160.64ZM1217.24 156.718V132.742H1220.94V156.57C1220.94 165.524 1225.53 168.41 1231.3 168.41C1237.07 168.41 1243.36 164.932 1243.36 152.87V132.742H1247.06V171H1243.36V163.378C1241.36 167.818 1237.81 171.444 1231.08 171.444C1223.46 171.444 1217.24 167.744 1217.24 156.718ZM1256.99 171V132.742H1260.69V140.068C1262.69 135.702 1266.17 132.298 1272.98 132.298C1280.6 132.298 1286.81 135.998 1286.81 147.024V171H1283.11V147.172C1283.11 138.218 1278.53 135.332 1272.75 135.332C1266.98 135.332 1260.69 138.81 1260.69 150.872V171H1256.99ZM1328.86 160.344C1326.94 167.152 1321.16 171.444 1312.73 171.444C1300.89 171.444 1294.15 162.416 1294.15 151.982C1294.15 141.474 1300.89 132.298 1312.73 132.298C1321.09 132.298 1326.71 136.664 1328.56 143.102H1324.72C1323.09 138.292 1318.72 135.332 1312.65 135.332C1303.77 135.332 1297.85 142.584 1297.85 151.982C1297.85 161.158 1303.77 168.336 1312.65 168.336C1318.72 168.336 1323.24 165.45 1324.94 160.344H1328.86ZM1336.85 171V118.164H1340.55V140.068C1342.54 135.702 1346.02 132.298 1352.83 132.298C1360.45 132.298 1366.67 135.998 1366.67 147.024V171H1362.97V147.172C1362.97 138.218 1358.38 135.332 1352.61 135.332C1346.84 135.332 1340.55 138.81 1340.55 150.872V171H1336.85Z" fill="#222222"/>
<path d="M492.84 224.164H497.206L523.328 263.31C524.956 265.752 526.732 268.786 528.434 271.228C528.434 268.342 528.36 264.938 528.36 262.052V224.164H532.282V277H527.842L502.46 238.816C500.536 236.004 498.612 232.748 496.688 230.01C496.688 233.34 496.762 237.114 496.762 240.444V277H492.84V224.164ZM575.021 265.752C572.801 272.634 567.029 277.444 558.445 277.444C546.827 277.444 540.315 268.416 540.315 257.908C540.315 247.474 546.901 238.298 558.223 238.298C569.693 238.298 574.503 246.512 575.169 256.65C575.243 257.464 575.243 258.278 575.243 259.018H543.941C544.237 267.824 550.009 274.336 558.445 274.336C564.587 274.336 569.249 271.006 571.247 265.752H575.021ZM544.015 256.058H571.617C570.729 246.956 566.733 241.332 558.223 241.332C550.083 241.332 544.533 247.548 544.015 256.058ZM578.299 277L592.433 257.316L579.039 238.742H583.553L594.801 254.578L605.975 238.742H610.489L597.095 257.39L611.229 277H606.715L594.801 260.128L582.813 277H578.299ZM624.175 269.526C624.175 272.338 625.507 274.04 628.393 274.04H631.353V277H628.615C622.695 277 620.475 274.188 620.475 269.23V241.702H614.777V238.742H620.475V229.344L624.175 227.642V238.742H631.575V241.702H624.175V269.526ZM635.926 255.91H658.422V258.944H635.926V255.91ZM694.66 254.356V251.174H716.86L716.12 277H713.308L713.16 265.308C710.274 272.486 704.132 277.814 693.476 277.814C676.826 277.814 667.946 265.456 667.946 250.656C667.946 235.782 677.64 223.424 693.92 223.424C706.426 223.424 713.16 230.454 715.676 238.668H711.754C709.682 232.304 704.65 226.606 693.92 226.606C678.972 226.606 671.868 238.89 671.868 250.656C671.868 262.348 678.232 274.632 693.476 274.632C705.464 274.632 712.864 266.344 712.864 254.356H694.66ZM758.359 265.752C756.139 272.634 750.367 277.444 741.783 277.444C730.165 277.444 723.653 268.416 723.653 257.908C723.653 247.474 730.239 238.298 741.561 238.298C753.031 238.298 757.841 246.512 758.507 256.65C758.581 257.464 758.581 258.278 758.581 259.018H727.279C727.575 267.824 733.347 274.336 741.783 274.336C747.925 274.336 752.587 271.006 754.585 265.752H758.359ZM727.353 256.058H754.955C754.067 246.956 750.071 241.332 741.561 241.332C733.421 241.332 727.871 247.548 727.353 256.058ZM766.489 277V238.742H770.189V246.068C772.187 241.702 775.665 238.298 782.473 238.298C790.095 238.298 796.311 241.998 796.311 253.024V277H792.611V253.172C792.611 244.218 788.023 241.332 782.251 241.332C776.479 241.332 770.189 244.81 770.189 256.872V277H766.489ZM838.357 265.752C836.137 272.634 830.365 277.444 821.781 277.444C810.163 277.444 803.651 268.416 803.651 257.908C803.651 247.474 810.237 238.298 821.559 238.298C833.029 238.298 837.839 246.512 838.505 256.65C838.579 257.464 838.579 258.278 838.579 259.018H807.277C807.573 267.824 813.345 274.336 821.781 274.336C827.923 274.336 832.585 271.006 834.583 265.752H838.357ZM807.351 256.058H834.953C834.065 246.956 830.069 241.332 821.559 241.332C813.419 241.332 807.869 247.548 807.351 256.058ZM850.187 238.742V246.364C852.037 241.702 855.811 238.446 862.545 238.446V241.776C860.177 241.776 858.031 242.22 856.403 243.256C852.407 245.402 850.187 249.842 850.187 257.02V277H846.487V238.742H850.187ZM867.093 250.064C868.203 244.44 873.013 238.298 881.745 238.298C892.697 238.298 896.027 244.366 896.027 250.286L896.101 269.082C896.101 271.746 896.323 274.484 896.767 277H892.845C892.475 274.854 892.475 273.152 892.475 270.932V268.934H892.401C890.847 272.264 887.295 277.518 878.489 277.518C869.387 277.518 864.725 272.486 864.725 266.64C864.725 259.314 872.273 256.428 880.783 255.096C887.887 253.986 892.475 252.95 892.475 249.324C892.475 243.774 887.887 241.332 881.819 241.332C876.269 241.332 872.273 244.44 870.793 250.064H867.093ZM868.425 266.64C868.425 270.932 872.051 274.558 878.711 274.558C886.259 274.558 892.623 269.082 892.623 259.388V253.246C891.439 255.688 886.999 257.094 880.043 258.204C873.013 259.24 868.425 261.978 868.425 266.64ZM911.142 269.526C911.142 272.338 912.474 274.04 915.36 274.04H918.32V277H915.582C909.662 277 907.442 274.188 907.442 269.23V241.702H901.744V238.742H907.442V229.344L911.142 227.642V238.742H918.542V241.702H911.142V269.526ZM929.974 231.564H926.126V224.164H929.974V231.564ZM926.126 277V238.742H929.826V277H926.126ZM956.131 277.444C944.365 277.444 937.631 268.342 937.631 257.982C937.631 247.548 944.365 238.298 956.131 238.298C967.749 238.298 974.631 247.548 974.631 257.982C974.631 268.342 967.749 277.444 956.131 277.444ZM941.331 257.982C941.331 267.084 947.251 274.336 956.131 274.336C964.937 274.336 970.931 267.084 970.931 257.982C970.931 248.658 964.937 241.332 956.131 241.332C947.251 241.332 941.331 248.658 941.331 257.982ZM982.202 277V238.742H985.902V246.068C987.9 241.702 991.378 238.298 998.186 238.298C1005.81 238.298 1012.02 241.998 1012.02 253.024V277H1008.32V253.172C1008.32 244.218 1003.74 241.332 997.964 241.332C992.192 241.332 985.902 244.81 985.902 256.872V277H982.202ZM1053.61 251.1C1062.56 251.1 1067.74 247.104 1067.74 238.816C1067.74 231.86 1063.23 227.346 1054.27 227.346H1042.8V251.1H1053.61ZM1038.88 277V224.164H1055.01C1064.41 224.164 1071.66 229.418 1071.66 238.816C1071.66 248.584 1064.48 254.282 1054.35 254.282H1042.8V277H1038.88ZM1077.17 250.064C1078.28 244.44 1083.09 238.298 1091.82 238.298C1102.77 238.298 1106.1 244.366 1106.1 250.286L1106.18 269.082C1106.18 271.746 1106.4 274.484 1106.84 277H1102.92C1102.55 274.854 1102.55 273.152 1102.55 270.932V268.934H1102.48C1100.92 272.264 1097.37 277.518 1088.57 277.518C1079.46 277.518 1074.8 272.486 1074.8 266.64C1074.8 259.314 1082.35 256.428 1090.86 255.096C1097.96 253.986 1102.55 252.95 1102.55 249.324C1102.55 243.774 1097.96 241.332 1091.9 241.332C1086.35 241.332 1082.35 244.44 1080.87 250.064H1077.17ZM1078.5 266.64C1078.5 270.932 1082.13 274.558 1088.79 274.558C1096.34 274.558 1102.7 269.082 1102.7 259.388V253.246C1101.52 255.688 1097.08 257.094 1090.12 258.204C1083.09 259.24 1078.5 261.978 1078.5 266.64ZM1114.37 238.742C1119.03 250.36 1123.77 262.052 1128.43 273.744H1128.5C1132.79 262.126 1137.01 250.36 1141.3 238.742H1145.08C1139.38 254.134 1133.61 269.378 1127.84 284.77C1126.28 288.988 1124.43 291.8 1119.25 291.8H1116.22V288.766H1119.18C1123.25 288.766 1124.14 284.844 1125.25 282.032L1126.58 278.332L1110.59 238.742H1114.37ZM1150.87 277V238.742H1154.57V245.92C1156.12 241.628 1160.27 238.224 1165.3 238.224C1170.92 238.224 1174.7 240.444 1176.62 245.698C1179.73 240.296 1183.21 238.224 1188.46 238.224C1195.34 238.224 1200.6 241.998 1200.6 253.024V277H1196.9V253.172C1196.9 244.218 1193.27 241.258 1188.24 241.258C1182.54 241.258 1177.73 245.994 1177.73 255.392V277H1174.03V253.172C1174.03 244.218 1170.26 241.258 1165.08 241.258C1158.05 241.258 1154.57 248.584 1154.57 256.872V277H1150.87ZM1242.61 265.752C1240.39 272.634 1234.62 277.444 1226.03 277.444C1214.42 277.444 1207.9 268.416 1207.9 257.908C1207.9 247.474 1214.49 238.298 1225.81 238.298C1237.28 238.298 1242.09 246.512 1242.76 256.65C1242.83 257.464 1242.83 258.278 1242.83 259.018H1211.53C1211.83 267.824 1217.6 274.336 1226.03 274.336C1232.18 274.336 1236.84 271.006 1238.84 265.752H1242.61ZM1211.6 256.058H1239.21C1238.32 246.956 1234.32 241.332 1225.81 241.332C1217.67 241.332 1212.12 247.548 1211.6 256.058ZM1250.74 277V238.742H1254.44V246.068C1256.44 241.702 1259.92 238.298 1266.73 238.298C1274.35 238.298 1280.56 241.998 1280.56 253.024V277H1276.86V253.172C1276.86 244.218 1272.28 241.332 1266.5 241.332C1260.73 241.332 1254.44 244.81 1254.44 256.872V277H1250.74ZM1295.38 269.526C1295.38 272.338 1296.71 274.04 1299.6 274.04H1302.56V277H1299.82C1293.9 277 1291.68 274.188 1291.68 269.23V241.702H1285.98V238.742H1291.68V229.344L1295.38 227.642V238.742H1302.78V241.702H1295.38V269.526ZM1332.19 250.138C1331.53 243.626 1327.01 241.332 1322.28 241.332C1317.76 241.332 1313.1 243.33 1313.1 248.288C1313.1 252.506 1316.5 254.282 1320.72 255.466C1322.35 255.91 1324.35 256.428 1326.05 256.946C1331.6 258.574 1336.41 260.942 1336.41 266.788C1336.41 274.484 1328.64 277.296 1322.5 277.296C1316.21 277.296 1309.62 274.262 1307.92 265.678H1311.62C1312.43 271.08 1316.5 274.262 1322.5 274.262C1328.12 274.262 1332.71 272.116 1332.71 266.862C1332.71 262.792 1329.31 261.164 1325.09 259.98C1322.79 259.388 1321.61 259.018 1319.76 258.574C1314.65 257.168 1309.4 254.578 1309.4 248.362C1309.4 241.554 1316.28 238.298 1322.28 238.298C1329.38 238.298 1334.63 241.924 1335.89 250.138H1332.19Z" fill="url(#paint0_linear_688_490)"/>
<path d="M1332.63 249.246L1413.4 249.746C1416 249.763 1418.44 251.047 1419.92 253.188L1453.81 302.06C1461.28 312.834 1473.56 319.263 1486.67 319.267L1808.55 319.368" stroke="url(#paint1_linear_688_490)" stroke-width="3"/>
<path d="M477.446 171.139L331.18 170.522C326.375 170.501 321.646 169.327 317.389 167.098L1.60689 1.72583" stroke="url(#paint2_linear_688_490)" stroke-width="3"/>
<defs>
<linearGradient id="paint0_linear_688_490" x1="501.5" y1="216" x2="1306.5" y2="216" gradientUnits="userSpaceOnUse">
<stop stop-color="#FF7043"/>
<stop offset="1" stop-color="#23C4AB"/>
</linearGradient>
<linearGradient id="paint1_linear_688_490" x1="1462" y1="286" x2="1808.83" y2="288.591" gradientUnits="userSpaceOnUse">
<stop stop-color="#23C4AB"/>
<stop offset="1" stop-color="white" stop-opacity="0"/>
</linearGradient>
<linearGradient id="paint2_linear_688_490" x1="464.768" y1="170.993" x2="0.534154" y2="171.68" gradientUnits="userSpaceOnUse">
<stop stop-color="#222222"/>
<stop offset="1" stop-color="white" stop-opacity="0"/>
</linearGradient>
</defs>
</svg>
