<svg width="1686" height="418" viewBox="0 0 1686 418" fill="none" xmlns="http://www.w3.org/2000/svg">
<path d="M1091.4 323.67L1193.03 324C1195.71 324.009 1198.2 325.355 1199.68 327.586L1245.71 397.173C1253.14 408.404 1265.73 415.143 1279.19 415.104L1685.14 413.905" stroke="url(#paint0_linear_2052_967)" stroke-width="3"/>
<path d="M496.682 225.832L345.997 225.675C340.088 225.669 334.312 223.918 329.395 220.641L1.23218 1.99999" stroke="url(#paint1_linear_2052_967)" stroke-width="3"/>
<path d="M507.894 201.447C516.848 201.447 522.028 197.451 522.028 189.163C522.028 182.207 517.514 177.693 508.56 177.693H497.09V201.447H507.894ZM493.168 227.347V174.511H509.3C518.698 174.511 525.95 179.765 525.95 189.163C525.95 198.931 518.772 204.629 508.634 204.629H497.09V227.347H493.168ZM531.459 200.411C532.569 194.787 537.379 188.645 546.111 188.645C557.063 188.645 560.393 194.713 560.393 200.633L560.467 219.429C560.467 222.093 560.689 224.831 561.133 227.347H557.211C556.841 225.201 556.841 223.499 556.841 221.279V219.281H556.767C555.213 222.611 551.661 227.865 542.855 227.865C533.753 227.865 529.091 222.833 529.091 216.987C529.091 209.661 536.639 206.775 545.149 205.443C552.253 204.333 556.841 203.297 556.841 199.671C556.841 194.121 552.253 191.679 546.185 191.679C540.635 191.679 536.639 194.787 535.159 200.411H531.459ZM532.791 216.987C532.791 221.279 536.417 224.905 543.077 224.905C550.625 224.905 556.989 219.429 556.989 209.735V203.593C555.805 206.035 551.365 207.441 544.409 208.551C537.379 209.587 532.791 212.325 532.791 216.987ZM568.656 189.089C573.318 200.707 578.054 212.399 582.716 224.091H582.79C587.082 212.473 591.3 200.707 595.592 189.089H599.366C593.668 204.481 587.896 219.725 582.124 235.117C580.57 239.335 578.72 242.147 573.54 242.147H570.506V239.113H573.466C577.536 239.113 578.424 235.191 579.534 232.379L580.866 228.679L564.882 189.089H568.656ZM621.935 200.411C623.045 194.787 627.855 188.645 636.587 188.645C647.539 188.645 650.869 194.713 650.869 200.633L650.943 219.429C650.943 222.093 651.165 224.831 651.609 227.347H647.687C647.317 225.201 647.317 223.499 647.317 221.279V219.281H647.243C645.689 222.611 642.137 227.865 633.331 227.865C624.229 227.865 619.567 222.833 619.567 216.987C619.567 209.661 627.115 206.775 635.625 205.443C642.729 204.333 647.317 203.297 647.317 199.671C647.317 194.121 642.729 191.679 636.661 191.679C631.111 191.679 627.115 194.787 625.635 200.411H621.935ZM623.267 216.987C623.267 221.279 626.893 224.905 633.553 224.905C641.101 224.905 647.465 219.429 647.465 209.735V203.593C646.281 206.035 641.841 207.441 634.885 208.551C627.855 209.587 623.267 212.325 623.267 216.987ZM660.804 227.347V189.089H664.504V196.415C666.502 192.049 669.98 188.645 676.788 188.645C684.41 188.645 690.626 192.345 690.626 203.371V227.347H686.926V203.519C686.926 194.565 682.338 191.679 676.566 191.679C670.794 191.679 664.504 195.157 664.504 207.219V227.347H660.804ZM698.084 189.089C702.746 200.707 707.482 212.399 712.144 224.091H712.218C716.51 212.473 720.728 200.707 725.02 189.089H728.794C723.096 204.481 717.324 219.725 711.552 235.117C709.998 239.335 708.148 242.147 702.968 242.147H699.934V239.113H702.894C706.964 239.113 707.852 235.191 708.962 232.379L710.294 228.679L694.31 189.089H698.084ZM749.852 227.791C738.086 227.791 731.352 218.689 731.352 208.329C731.352 197.895 738.086 188.645 749.852 188.645C761.47 188.645 768.352 197.895 768.352 208.329C768.352 218.689 761.47 227.791 749.852 227.791ZM735.052 208.329C735.052 217.431 740.972 224.683 749.852 224.683C758.658 224.683 764.652 217.431 764.652 208.329C764.652 199.005 758.658 191.679 749.852 191.679C740.972 191.679 735.052 199.005 735.052 208.329ZM775.923 227.347V189.089H779.623V196.415C781.621 192.049 785.099 188.645 791.907 188.645C799.529 188.645 805.745 192.345 805.745 203.371V227.347H802.045V203.519C802.045 194.565 797.457 191.679 791.685 191.679C785.913 191.679 779.623 195.157 779.623 207.219V227.347H775.923ZM847.79 216.099C845.57 222.981 839.798 227.791 831.214 227.791C819.596 227.791 813.084 218.763 813.084 208.255C813.084 197.821 819.67 188.645 830.992 188.645C842.462 188.645 847.272 196.859 847.938 206.997C848.012 207.811 848.012 208.625 848.012 209.365H816.71C817.006 218.171 822.778 224.683 831.214 224.683C837.356 224.683 842.018 221.353 844.016 216.099H847.79ZM816.784 206.405H844.386C843.498 197.303 839.502 191.679 830.992 191.679C822.852 191.679 817.302 197.895 816.784 206.405ZM854.417 218.911H858.635L853.825 235.857H850.865L854.417 218.911ZM883.175 200.411C884.285 194.787 889.095 188.645 897.827 188.645C908.779 188.645 912.109 194.713 912.109 200.633L912.183 219.429C912.183 222.093 912.405 224.831 912.849 227.347H908.927C908.557 225.201 908.557 223.499 908.557 221.279V219.281H908.483C906.929 222.611 903.377 227.865 894.571 227.865C885.469 227.865 880.807 222.833 880.807 216.987C880.807 209.661 888.355 206.775 896.865 205.443C903.969 204.333 908.557 203.297 908.557 199.671C908.557 194.121 903.969 191.679 897.901 191.679C892.351 191.679 888.355 194.787 886.875 200.411H883.175ZM884.507 216.987C884.507 221.279 888.133 224.905 894.793 224.905C902.341 224.905 908.705 219.429 908.705 209.735V203.593C907.521 206.035 903.081 207.441 896.125 208.551C889.095 209.587 884.507 212.325 884.507 216.987ZM922.044 227.347V189.089H925.744V196.415C927.742 192.049 931.22 188.645 938.028 188.645C945.65 188.645 951.866 192.345 951.866 203.371V227.347H948.166V203.519C948.166 194.565 943.578 191.679 937.806 191.679C932.034 191.679 925.744 195.157 925.744 207.219V227.347H922.044ZM959.324 189.089C963.986 200.707 968.722 212.399 973.384 224.091H973.458C977.75 212.473 981.968 200.707 986.26 189.089H990.034C984.336 204.481 978.564 219.725 972.792 235.117C971.238 239.335 969.388 242.147 964.208 242.147H961.174V239.113H964.134C968.204 239.113 969.092 235.191 970.202 232.379L971.534 228.679L955.55 189.089H959.324ZM1003.8 227.347L992.406 189.089H996.18L1003.8 215.433L1005.8 222.537H1005.87C1006.54 220.169 1007.13 217.727 1007.8 215.359L1014.98 189.089H1019.12L1026.22 214.989C1026.89 217.505 1027.63 220.021 1028.22 222.537H1028.3L1030.52 214.915L1037.92 189.089H1041.69L1030.29 227.347H1026.3L1019.05 200.707L1017.12 193.899H1017.05C1016.38 196.193 1015.86 198.413 1015.2 200.707L1007.8 227.347H1003.8ZM1047.5 227.347V174.511H1051.2V196.415C1053.2 192.049 1056.67 188.645 1063.48 188.645C1071.1 188.645 1077.32 192.345 1077.32 203.371V227.347H1073.62V203.519C1073.62 194.565 1069.03 191.679 1063.26 191.679C1057.49 191.679 1051.2 195.157 1051.2 207.219V227.347H1047.5ZM1119.36 216.099C1117.14 222.981 1111.37 227.791 1102.79 227.791C1091.17 227.791 1084.66 218.763 1084.66 208.255C1084.66 197.821 1091.24 188.645 1102.57 188.645C1114.04 188.645 1118.85 196.859 1119.51 206.997C1119.59 207.811 1119.59 208.625 1119.59 209.365H1088.28C1088.58 218.171 1094.35 224.683 1102.79 224.683C1108.93 224.683 1113.59 221.353 1115.59 216.099H1119.36ZM1088.36 206.405H1115.96C1115.07 197.303 1111.08 191.679 1102.57 191.679C1094.43 191.679 1088.88 197.895 1088.36 206.405ZM1131.2 189.089V196.711C1133.05 192.049 1136.82 188.793 1143.55 188.793V192.123C1141.19 192.123 1139.04 192.567 1137.41 193.603C1133.42 195.749 1131.2 200.189 1131.2 207.367V227.347H1127.5V189.089H1131.2ZM1181.44 216.099C1179.22 222.981 1173.45 227.791 1164.86 227.791C1153.25 227.791 1146.73 218.763 1146.73 208.255C1146.73 197.821 1153.32 188.645 1164.64 188.645C1176.11 188.645 1180.92 196.859 1181.59 206.997C1181.66 207.811 1181.66 208.625 1181.66 209.365H1150.36C1150.66 218.171 1156.43 224.683 1164.86 224.683C1171.01 224.683 1175.67 221.353 1177.67 216.099H1181.44ZM1150.43 206.405H1178.04C1177.15 197.303 1173.15 191.679 1164.64 191.679C1156.5 191.679 1150.95 197.895 1150.43 206.405Z" fill="#222222"/>
<path d="M579.335 306.411C580.445 300.787 585.255 294.645 593.987 294.645C604.939 294.645 608.269 300.713 608.269 306.633L608.343 325.429C608.343 328.093 608.565 330.831 609.009 333.347H605.087C604.717 331.201 604.717 329.499 604.717 327.279V325.281H604.643C603.089 328.611 599.537 333.865 590.731 333.865C581.629 333.865 576.967 328.833 576.967 322.987C576.967 315.661 584.515 312.775 593.025 311.443C600.129 310.333 604.717 309.297 604.717 305.671C604.717 300.121 600.129 297.679 594.061 297.679C588.511 297.679 584.515 300.787 583.035 306.411H579.335ZM580.667 322.987C580.667 327.279 584.293 330.905 590.953 330.905C598.501 330.905 604.865 325.429 604.865 315.735V309.593C603.681 312.035 599.241 313.441 592.285 314.551C585.255 315.587 580.667 318.325 580.667 322.987ZM650.541 322.691C648.617 329.499 642.845 333.791 634.409 333.791C622.569 333.791 615.835 324.763 615.835 314.329C615.835 303.821 622.569 294.645 634.409 294.645C642.771 294.645 648.395 299.011 650.245 305.449H646.397C644.769 300.639 640.403 297.679 634.335 297.679C625.455 297.679 619.535 304.931 619.535 314.329C619.535 323.505 625.455 330.683 634.335 330.683C640.403 330.683 644.917 327.797 646.619 322.691H650.541ZM662.227 295.089V302.711C664.077 298.049 667.851 294.793 674.585 294.793V298.123C672.217 298.123 670.071 298.567 668.443 299.603C664.447 301.749 662.227 306.189 662.227 313.367V333.347H658.527V295.089H662.227ZM696.267 333.791C684.501 333.791 677.767 324.689 677.767 314.329C677.767 303.895 684.501 294.645 696.267 294.645C707.885 294.645 714.767 303.895 714.767 314.329C714.767 324.689 707.885 333.791 696.267 333.791ZM681.467 314.329C681.467 323.431 687.387 330.683 696.267 330.683C705.073 330.683 711.067 323.431 711.067 314.329C711.067 305.005 705.073 297.679 696.267 297.679C687.387 297.679 681.467 305.005 681.467 314.329ZM744.242 306.485C743.576 299.973 739.062 297.679 734.326 297.679C729.812 297.679 725.15 299.677 725.15 304.635C725.15 308.853 728.554 310.629 732.772 311.813C734.4 312.257 736.398 312.775 738.1 313.293C743.65 314.921 748.46 317.289 748.46 323.135C748.46 330.831 740.69 333.643 734.548 333.643C728.258 333.643 721.672 330.609 719.97 322.025H723.67C724.484 327.427 728.554 330.609 734.548 330.609C740.172 330.609 744.76 328.463 744.76 323.209C744.76 319.139 741.356 317.511 737.138 316.327C734.844 315.735 733.66 315.365 731.81 314.921C726.704 313.515 721.45 310.925 721.45 304.709C721.45 297.901 728.332 294.645 734.326 294.645C741.43 294.645 746.684 298.271 747.942 306.485H744.242ZM777.918 306.485C777.252 299.973 772.738 297.679 768.002 297.679C763.488 297.679 758.826 299.677 758.826 304.635C758.826 308.853 762.23 310.629 766.448 311.813C768.076 312.257 770.074 312.775 771.776 313.293C777.326 314.921 782.136 317.289 782.136 323.135C782.136 330.831 774.366 333.643 768.224 333.643C761.934 333.643 755.348 330.609 753.646 322.025H757.346C758.16 327.427 762.23 330.609 768.224 330.609C773.848 330.609 778.436 328.463 778.436 323.209C778.436 319.139 775.032 317.511 770.814 316.327C768.52 315.735 767.336 315.365 765.486 314.921C760.38 313.515 755.126 310.925 755.126 304.709C755.126 297.901 762.008 294.645 768.002 294.645C775.106 294.645 780.36 298.271 781.618 306.485H777.918ZM811.201 325.873C811.201 328.685 812.533 330.387 815.419 330.387H818.379V333.347H815.641C809.721 333.347 807.501 330.535 807.501 325.577V298.049H801.803V295.089H807.501V285.691L811.201 283.989V295.089H818.601V298.049H811.201V325.873ZM824.955 333.347V280.511H828.655V302.415C830.653 298.049 834.131 294.645 840.939 294.645C848.561 294.645 854.777 298.345 854.777 309.371V333.347H851.077V309.519C851.077 300.565 846.489 297.679 840.717 297.679C834.945 297.679 828.655 301.157 828.655 313.219V333.347H824.955ZM896.822 322.099C894.602 328.981 888.83 333.791 880.246 333.791C868.628 333.791 862.116 324.763 862.116 314.255C862.116 303.821 868.702 294.645 880.024 294.645C891.494 294.645 896.304 302.859 896.97 312.997C897.044 313.811 897.044 314.625 897.044 315.365H865.742C866.038 324.171 871.81 330.683 880.246 330.683C886.388 330.683 891.05 327.353 893.048 322.099H896.822ZM865.816 312.405H893.418C892.53 303.303 888.534 297.679 880.024 297.679C871.884 297.679 866.334 303.895 865.816 312.405ZM950.145 295.089H953.845V331.793C953.845 340.969 948.443 348.147 937.269 348.147C927.501 348.147 921.877 343.115 920.767 335.419H924.541C925.725 341.561 929.573 345.113 937.269 345.113C945.927 345.113 950.145 339.785 950.145 331.201V325.355H950.071C947.629 330.387 943.485 333.791 936.307 333.791C924.689 333.791 918.917 324.689 918.917 314.255C918.917 303.821 924.689 294.645 936.307 294.645C943.707 294.645 947.777 298.567 950.071 302.859H950.145V295.089ZM922.617 314.255C922.617 323.357 927.501 330.683 936.455 330.683C946.741 330.683 950.367 321.581 950.367 314.255C950.367 305.301 945.483 297.679 936.455 297.679C927.501 297.679 922.617 305.005 922.617 314.255ZM963.777 280.511H967.477V333.347H963.777V280.511ZM993.495 333.791C981.729 333.791 974.995 324.689 974.995 314.329C974.995 303.895 981.729 294.645 993.495 294.645C1005.11 294.645 1012 303.895 1012 314.329C1012 324.689 1005.11 333.791 993.495 333.791ZM978.695 314.329C978.695 323.431 984.615 330.683 993.495 330.683C1002.3 330.683 1008.3 323.431 1008.3 314.329C1008.3 305.005 1002.3 297.679 993.495 297.679C984.615 297.679 978.695 305.005 978.695 314.329ZM1037.18 294.645C1048.72 294.645 1054.49 303.747 1054.49 314.255C1054.49 324.763 1048.72 333.791 1037.18 333.791C1030.07 333.791 1025.71 330.165 1023.34 325.281H1023.27V333.347H1019.57V280.511H1023.27V303.007H1023.34C1025.56 298.641 1029.85 294.645 1037.18 294.645ZM1022.97 314.255C1022.97 321.877 1026.89 330.683 1036.88 330.683C1045.84 330.683 1050.79 323.505 1050.79 314.255C1050.79 304.857 1045.84 297.679 1036.88 297.679C1027.93 297.679 1022.97 305.005 1022.97 314.255ZM1094.83 322.099C1092.61 328.981 1086.84 333.791 1078.25 333.791C1066.64 333.791 1060.12 324.763 1060.12 314.255C1060.12 303.821 1066.71 294.645 1078.03 294.645C1089.5 294.645 1094.31 302.859 1094.98 312.997C1095.05 313.811 1095.05 314.625 1095.05 315.365H1063.75C1064.05 324.171 1069.82 330.683 1078.25 330.683C1084.4 330.683 1089.06 327.353 1091.06 322.099H1094.83ZM1063.82 312.405H1091.43C1090.54 303.303 1086.54 297.679 1078.03 297.679C1069.89 297.679 1064.34 303.895 1063.82 312.405Z" fill="url(#paint2_linear_2052_967)"/>
<defs>
<linearGradient id="paint0_linear_2052_967" x1="1101.61" y1="369.766" x2="1685.4" y2="373.444" gradientUnits="userSpaceOnUse">
<stop offset="0.367462" stop-color="#01DDC7"/>
<stop offset="1" stop-color="#2BDCBC" stop-opacity="0"/>
</linearGradient>
<linearGradient id="paint1_linear_2052_967" x1="485.557" y1="225.868" x2="0.621885" y2="227.371" gradientUnits="userSpaceOnUse">
<stop stop-color="#222222"/>
<stop offset="1" stop-color="#B7B7B7" stop-opacity="0"/>
</linearGradient>
<linearGradient id="paint2_linear_2052_967" x1="661.024" y1="272.347" x2="1007.35" y2="272.347" gradientUnits="userSpaceOnUse">
<stop stop-color="#FF8159"/>
<stop offset="1" stop-color="#00DCC6"/>
</linearGradient>
</defs>
</svg>
