<svg width="691" height="396" viewBox="0 0 691 396" fill="none" xmlns="http://www.w3.org/2000/svg">
<mask id="path-1-inside-1_379_438" fill="white">
<path d="M1 0H341C346.523 0 351 4.47715 351 10V105C351 110.523 346.523 115 341 115H1V0Z"/>
</mask>
<path d="M1 0H341C346.523 0 351 4.47715 351 10V105C351 110.523 346.523 115 341 115H1V0Z" fill="white" fill-opacity="0.6"/>
<path d="M1 -2H341C347.627 -2 353 3.37258 353 10H349C349 5.58172 345.418 2 341 2H1V-2ZM353 105C353 111.627 347.627 117 341 117H1V113H341C345.418 113 349 109.418 349 105H353ZM1 115V0V115ZM341 -2C347.627 -2 353 3.37258 353 10V105C353 111.627 347.627 117 341 117V113C345.418 113 349 109.418 349 105V10C349 5.58172 345.418 2 341 2V-2Z" fill="white" mask="url(#path-1-inside-1_379_438)"/>
<g style="mix-blend-mode:luminosity">
<path d="M443 329.5H690.5V395.5H443C439.962 395.5 437.5 393.038 437.5 390V335C437.5 331.962 439.962 329.5 443 329.5Z" fill="white"/>
<path d="M443 329.5H690.5V395.5H443C439.962 395.5 437.5 393.038 437.5 390V335C437.5 331.962 439.962 329.5 443 329.5Z" stroke="white"/>
</g>
<path d="M467.953 343.43C469.083 343.43 469.723 342.91 469.723 341.93C469.723 341.03 469.153 340.48 468.023 340.48H466.573V343.43H467.953ZM465.843 347V339.86H468.123C469.473 339.86 470.463 340.67 470.463 341.93C470.463 343.21 469.443 344.04 468.053 344.04H466.573V347H465.843ZM471.162 343.37C471.292 342.62 471.932 341.74 473.202 341.74C474.882 341.74 475.202 342.76 475.202 343.56V345.94C475.202 346.32 475.242 346.71 475.292 347H474.542C474.512 346.73 474.512 346.51 474.512 346.21V345.98H474.502C474.332 346.41 473.882 347.1 472.712 347.1C471.472 347.1 470.882 346.36 470.882 345.59C470.882 344.37 472.302 344.15 473.272 343.99C474.092 343.86 474.512 343.69 474.512 343.23C474.512 342.64 473.992 342.32 473.212 342.32C472.522 342.32 472.022 342.71 471.862 343.37H471.162ZM471.572 345.59C471.572 346.13 472.042 346.53 472.812 346.53C473.712 346.53 474.532 345.9 474.532 344.61V343.83C474.402 344.16 473.982 344.41 472.952 344.59C472.102 344.73 471.572 345.02 471.572 345.59ZM476.508 341.83L478.278 346.33H478.288C478.818 344.85 479.358 343.31 479.888 341.83H480.618C479.848 343.9 479.068 345.96 478.288 348.02C478.068 348.62 477.748 349 477.048 349H476.498V348.42H476.978C477.508 348.42 477.608 348.01 477.758 347.63L477.938 347.16L475.778 341.83H476.508ZM481.377 347V341.83H482.077V342.75C482.227 342.23 482.767 341.73 483.447 341.73C484.247 341.73 484.747 342.05 484.997 342.76C485.367 342.04 485.837 341.73 486.537 341.73C487.627 341.73 488.237 342.44 488.237 343.71V347H487.537V343.76C487.537 342.7 487.107 342.32 486.467 342.32C485.747 342.32 485.157 342.96 485.157 344.27V347H484.457V343.76C484.457 342.7 484.077 342.32 483.377 342.32C482.447 342.32 482.077 343.27 482.077 344.37V347H481.377ZM493.962 345.47C493.662 346.48 492.842 347.09 491.682 347.09C490.132 347.09 489.192 345.93 489.192 344.41C489.192 342.92 490.162 341.74 491.652 341.74C493.342 341.74 493.952 343.03 494.002 344.38C494.012 344.45 494.012 344.54 494.012 344.62H489.862C489.932 345.76 490.642 346.51 491.672 346.51C492.432 346.51 493.042 346.14 493.262 345.47H493.962ZM489.872 344.06H493.312C493.212 342.99 492.692 342.31 491.652 342.31C490.642 342.31 489.972 343.04 489.872 344.06ZM495.049 347V341.83H495.749V342.81C496.019 342.22 496.489 341.74 497.349 341.74C498.539 341.74 499.219 342.44 499.219 343.71V347H498.519V343.76C498.519 342.7 498.019 342.33 497.279 342.33C496.499 342.33 495.749 342.88 495.749 344.37V347H495.049ZM501.378 345.77C501.378 346.19 501.598 346.43 501.998 346.43H502.378V347H501.968C501.068 347 500.688 346.51 500.688 345.78V342.4H499.918V341.83H500.688V340.59L501.378 340.28V341.83H502.368V342.4H501.378V345.77ZM505.706 347V339.86H508.186C509.816 339.86 510.556 340.74 510.556 341.83C510.556 342.86 509.896 343.5 509.036 343.71C509.696 343.87 509.936 344.37 510.246 345.4C510.456 346.06 510.596 346.45 510.866 346.93V347H510.076C509.826 346.48 509.646 345.82 509.446 345.26C509.156 344.48 508.886 343.96 507.956 343.96H506.436V347H505.706ZM506.436 343.34H508.186C509.276 343.34 509.806 342.74 509.806 341.83C509.806 341.13 509.426 340.48 508.116 340.48H506.436V343.34ZM516.13 345.47C515.83 346.48 515.01 347.09 513.85 347.09C512.3 347.09 511.36 345.93 511.36 344.41C511.36 342.92 512.33 341.74 513.82 341.74C515.51 341.74 516.12 343.03 516.17 344.38C516.18 344.45 516.18 344.54 516.18 344.62H512.03C512.1 345.76 512.81 346.51 513.84 346.51C514.6 346.51 515.21 346.14 515.43 345.47H516.13ZM512.04 344.06H515.48C515.38 342.99 514.86 342.31 513.82 342.31C512.81 342.31 512.14 343.04 512.04 344.06ZM521.736 345.49C521.456 346.49 520.696 347.09 519.496 347.09C517.896 347.09 516.926 345.91 516.926 344.42C516.926 342.94 517.896 341.74 519.496 341.74C520.726 341.74 521.466 342.4 521.696 343.3H520.986C520.776 342.75 520.306 342.31 519.486 342.31C518.356 342.31 517.626 343.23 517.626 344.42C517.626 345.6 518.356 346.51 519.486 346.51C520.266 346.51 520.786 346.14 521.016 345.49H521.736ZM527.262 345.47C526.962 346.48 526.142 347.09 524.982 347.09C523.432 347.09 522.492 345.93 522.492 344.41C522.492 342.92 523.462 341.74 524.952 341.74C526.642 341.74 527.252 343.03 527.302 344.38C527.312 344.45 527.312 344.54 527.312 344.62H523.162C523.232 345.76 523.942 346.51 524.972 346.51C525.732 346.51 526.342 346.14 526.562 345.47H527.262ZM523.172 344.06H526.612C526.512 342.99 525.992 342.31 524.952 342.31C523.942 342.31 523.272 343.04 523.172 344.06ZM529.099 340.86H528.359V339.86H529.099V340.86ZM528.349 347V341.83H529.049V347H528.349ZM530.6 341.83C531.15 343.3 531.68 344.77 532.22 346.24H532.23L533.84 341.83H534.59C533.92 343.55 533.26 345.28 532.6 347H531.84L529.86 341.83H530.6ZM539.674 345.47C539.374 346.48 538.554 347.09 537.394 347.09C535.844 347.09 534.904 345.93 534.904 344.41C534.904 342.92 535.874 341.74 537.364 341.74C539.054 341.74 539.664 343.03 539.714 344.38C539.724 344.45 539.724 344.54 539.724 344.62H535.574C535.644 345.76 536.354 346.51 537.384 346.51C538.144 346.51 538.754 346.14 538.974 345.47H539.674ZM535.584 344.06H539.024C538.924 342.99 538.404 342.31 537.364 342.31C536.354 342.31 535.684 343.04 535.584 344.06ZM542.811 341.74C543.781 341.74 544.391 342.32 544.641 342.89H544.651V339.86H545.351V347H544.651V345.94H544.641C544.381 346.54 543.771 347.09 542.811 347.09C541.301 347.09 540.471 345.92 540.471 344.41C540.471 342.9 541.301 341.74 542.811 341.74ZM541.171 344.41C541.171 345.6 541.771 346.49 542.921 346.49C544.161 346.49 544.681 345.44 544.681 344.41C544.681 343.28 544.091 342.33 542.921 342.33C541.791 342.33 541.171 343.22 541.171 344.41Z" fill="#111012"/>
<path d="M502.453 372.19C502.453 374.44 501.208 376.195 498.538 376.195C495.853 376.195 494.623 374.44 494.623 372.19V365.29H495.718V372.19C495.718 373.9 496.618 375.28 498.538 375.28C500.443 375.28 501.343 373.9 501.343 372.19V365.29H502.453V372.19ZM505.407 372.745C505.512 374.44 506.787 375.265 508.302 375.265C509.637 375.265 510.852 374.71 510.852 373.24C510.852 371.83 509.757 371.5 508.302 371.08C506.217 370.45 504.717 369.895 504.702 368.02C504.672 366.085 506.292 365.095 508.152 365.095C510.132 365.095 511.587 366.085 511.782 368.2H510.672C510.477 366.73 509.577 366.025 508.152 366.025C506.862 366.025 505.797 366.64 505.797 367.945C505.797 369.16 506.742 369.61 508.527 370.12C510.252 370.615 511.962 371.08 511.962 373.21C511.962 375.385 510.147 376.195 508.302 376.195C506.202 376.195 504.387 375.145 504.297 372.745H505.407ZM516.992 365.29C520.442 365.29 522.422 367.315 522.422 370.45C522.422 373.54 520.442 376 517.112 376H513.887V365.29H516.992ZM514.982 375.07H517.157C519.377 375.07 521.312 373.495 521.312 370.45C521.312 367.51 519.377 366.22 517.067 366.22H514.982V375.07Z" fill="black"/>
<path d="M540.055 355.86H542.815V359.16C546.295 359.61 548.515 361.74 548.815 365.52H545.935C545.545 362.82 544.195 361.47 541.375 361.47C539.005 361.47 537.025 362.46 537.025 365.07C537.025 367.26 539.125 368.1 541.945 368.91C545.515 369.93 549.175 370.71 549.175 375.24C549.175 379.17 546.205 381.09 542.815 381.45V384.78H540.055V381.42C536.185 380.94 533.425 378.69 533.365 374.37H536.215C536.335 377.58 538.525 379.11 541.645 379.11C544.165 379.11 546.325 377.94 546.325 375.33C546.325 372.69 544.105 372.24 541.405 371.43C537.865 370.38 534.265 369.33 534.175 365.28C534.085 361.62 536.755 359.58 540.055 359.16V355.86ZM565.081 361.86H556.351L555.391 368.22C556.411 367.23 558.061 366.69 559.801 366.69C564.091 366.69 566.941 369.39 566.941 374.04C566.941 378.03 564.001 381.36 559.441 381.36C555.721 381.36 552.391 379.05 552.121 375.27H554.821C555.121 377.37 557.011 379.08 559.441 379.08C561.901 379.08 564.241 377.34 564.241 374.04C564.241 371.07 562.741 369.03 559.321 369.03C557.401 369.03 556.051 370.14 555.361 371.4L552.571 371.07L554.221 359.58H565.081V361.86ZM570.712 377.4H573.712L571.552 384.63H569.152L570.712 377.4ZM576.343 370.74C576.343 365.19 578.323 359.4 583.963 359.4C588.283 359.4 590.173 361.74 590.833 364.71H588.133C587.623 363.3 587.023 361.68 584.173 361.68C580.513 361.68 579.373 365.58 579.073 369.21C580.153 367.68 582.043 366.69 584.563 366.69C588.673 366.69 591.553 369.96 591.553 374.07C591.553 378.27 588.193 381.36 583.963 381.36C581.713 381.36 579.673 380.43 578.323 378.93C576.733 377.19 576.343 374.49 576.343 370.74ZM579.283 374.07C579.283 376.8 581.233 379.08 583.963 379.08C586.693 379.08 588.853 376.8 588.853 374.07C588.853 371.34 586.783 369.03 583.963 369.03C581.233 369.03 579.283 371.04 579.283 374.07ZM601.805 359.4C605.675 359.4 608.555 361.47 608.555 364.74C608.555 367.2 607.115 369.09 605.255 369.66C607.235 370.23 609.335 372.21 609.335 375.18C609.335 379.08 606.065 381.36 601.835 381.36C597.455 381.36 594.155 379.08 594.185 375.18C594.215 372.21 596.435 370.2 598.385 369.63C596.285 368.94 595.055 367.23 595.055 364.74C595.055 361.47 597.935 359.4 601.805 359.4ZM596.885 374.97C596.885 377.28 598.625 379.11 601.805 379.11C604.955 379.11 606.635 377.28 606.635 374.94C606.635 372.69 604.955 370.86 601.805 370.86C598.625 370.86 596.885 372.69 596.885 374.97ZM597.785 365.22C597.785 367.08 599.315 368.76 601.805 368.76C604.295 368.76 605.825 367.11 605.825 365.22C605.825 363.33 604.295 361.68 601.805 361.68C599.285 361.68 597.785 363.33 597.785 365.22ZM619.588 379.08C623.098 379.08 624.508 374.31 624.508 370.29C624.508 366.3 623.098 361.74 619.588 361.74C616.078 361.74 614.668 366.3 614.668 370.29C614.668 374.31 616.078 379.08 619.588 379.08ZM611.968 370.29C611.968 364.83 613.948 359.46 619.588 359.46C625.228 359.46 627.208 364.83 627.208 370.29C627.208 375.75 625.228 381.36 619.588 381.36C613.948 381.36 611.968 375.78 611.968 370.29ZM629.72 378.6H631.92V381H629.72V378.6ZM637.599 380.04C639.354 380.04 640.059 377.655 640.059 375.645C640.059 373.65 639.354 371.37 637.599 371.37C635.844 371.37 635.139 373.65 635.139 375.645C635.139 377.655 635.844 380.04 637.599 380.04ZM633.789 375.645C633.789 372.915 634.779 370.23 637.599 370.23C640.419 370.23 641.409 372.915 641.409 375.645C641.409 378.375 640.419 381.18 637.599 381.18C634.779 381.18 633.789 378.39 633.789 375.645ZM646.534 380.04C648.289 380.04 648.994 377.655 648.994 375.645C648.994 373.65 648.289 371.37 646.534 371.37C644.779 371.37 644.074 373.65 644.074 375.645C644.074 377.655 644.779 380.04 646.534 380.04ZM642.724 375.645C642.724 372.915 643.714 370.23 646.534 370.23C649.354 370.23 650.344 372.915 650.344 375.645C650.344 378.375 649.354 381.18 646.534 381.18C643.714 381.18 642.724 378.39 642.724 375.645Z" fill="black"/>
<path d="M453 338C449.691 338 447 340.691 447 344C447 347.309 449.691 350 453 350C456.309 350 459 347.309 459 344C459 340.691 456.309 338 453 338Z" fill="#6DDDBB"/>
<path d="M455.85 342.803L452.531 345.862C452.432 345.954 452.301 346 452.17 346C452.04 346 451.909 345.954 451.809 345.862L450.15 344.333C449.95 344.149 449.95 343.851 450.15 343.667C450.349 343.483 450.672 343.483 450.872 343.667L452.17 344.864L455.128 342.138C455.328 341.954 455.651 341.954 455.85 342.138C456.05 342.322 456.05 342.619 455.85 342.803Z" fill="#FAFAFA"/>
<path d="M26.845 24.29H27.955V35H26.845V30.05H21.265V35H20.17V24.29H21.265V29.12H26.845V24.29ZM29.9774 24.29H31.0724V35H29.9774V24.29ZM33.1052 35V24.29H39.5102V25.22H34.2002V29.075H39.0602V30.005H34.2002V35H33.1052ZM40.7153 24.29H41.8103V35H40.7153V24.29ZM46.8682 35V24.29H50.5282C52.3582 24.29 53.7532 25.265 53.7532 27.125C53.7532 28.31 52.9882 29.105 51.9232 29.48V29.495C53.1832 29.66 54.2032 30.545 54.2032 32.045C54.2032 33.95 52.7782 35 50.6032 35H46.8682ZM47.9632 34.07H50.6932C52.1632 34.07 53.0932 33.275 53.0932 32.045C53.0932 30.74 52.1782 29.99 50.7382 29.99H47.9632V34.07ZM47.9632 29.075H50.2582C51.7582 29.075 52.6432 28.4 52.6432 27.125C52.6432 25.82 51.8032 25.22 50.3182 25.22H47.9632V29.075ZM55.6614 29.555C55.8564 28.43 56.8164 27.11 58.7214 27.11C61.2414 27.11 61.7214 28.64 61.7214 29.84V33.41C61.7214 33.98 61.7814 34.565 61.8564 35H60.7314C60.6864 34.595 60.6864 34.265 60.6864 33.815V33.47H60.6714C60.4164 34.115 59.7414 35.15 57.9864 35.15C56.1264 35.15 55.2414 34.04 55.2414 32.885C55.2414 31.055 57.3714 30.725 58.8264 30.485C60.0564 30.29 60.6864 30.035 60.6864 29.345C60.6864 28.46 59.9064 27.98 58.7364 27.98C57.7014 27.98 56.9514 28.565 56.7114 29.555H55.6614ZM56.2764 32.885C56.2764 33.695 56.9814 34.295 58.1364 34.295C59.4864 34.295 60.7164 33.35 60.7164 31.415V30.245C60.5214 30.74 59.8914 31.115 58.3464 31.385C57.0714 31.595 56.2764 32.03 56.2764 32.885ZM63.3734 24.29H64.4234V35H63.3734V24.29ZM66.121 29.555C66.316 28.43 67.276 27.11 69.181 27.11C71.701 27.11 72.181 28.64 72.181 29.84V33.41C72.181 33.98 72.241 34.565 72.316 35H71.191C71.146 34.595 71.146 34.265 71.146 33.815V33.47H71.131C70.876 34.115 70.201 35.15 68.446 35.15C66.586 35.15 65.701 34.04 65.701 32.885C65.701 31.055 67.831 30.725 69.286 30.485C70.516 30.29 71.146 30.035 71.146 29.345C71.146 28.46 70.366 27.98 69.196 27.98C68.161 27.98 67.411 28.565 67.171 29.555H66.121ZM66.736 32.885C66.736 33.695 67.441 34.295 68.596 34.295C69.946 34.295 71.176 33.35 71.176 31.415V30.245C70.981 30.74 70.351 31.115 68.806 31.385C67.531 31.595 66.736 32.03 66.736 32.885ZM73.833 35V27.245H74.883V28.715C75.288 27.83 75.993 27.11 77.283 27.11C79.068 27.11 80.088 28.16 80.088 30.065V35H79.038V30.14C79.038 28.55 78.288 27.995 77.178 27.995C76.008 27.995 74.883 28.82 74.883 31.055V35H73.833ZM88.4271 32.735C88.0071 34.235 86.8671 35.135 85.0671 35.135C82.6671 35.135 81.2121 33.365 81.2121 31.13C81.2121 28.91 82.6671 27.11 85.0671 27.11C86.9121 27.11 88.0221 28.1 88.3671 29.45H87.3021C86.9871 28.625 86.2821 27.965 85.0521 27.965C83.3571 27.965 82.2621 29.345 82.2621 31.13C82.2621 32.9 83.3571 34.265 85.0521 34.265C86.2221 34.265 87.0021 33.71 87.3471 32.735H88.4271ZM96.4168 32.705C95.9668 34.22 94.7368 35.135 92.9968 35.135C90.6718 35.135 89.2618 33.395 89.2618 31.115C89.2618 28.88 90.7168 27.11 92.9518 27.11C95.4868 27.11 96.4018 29.045 96.4768 31.07C96.4918 31.175 96.4918 31.31 96.4918 31.43H90.2668C90.3718 33.14 91.4368 34.265 92.9818 34.265C94.1218 34.265 95.0368 33.71 95.3668 32.705H96.4168ZM90.2818 30.59H95.4418C95.2918 28.985 94.5118 27.965 92.9518 27.965C91.4368 27.965 90.4318 29.06 90.2818 30.59Z" fill="black"/>
<path d="M27.01 43.86H29.77V47.16C33.25 47.61 35.47 49.74 35.77 53.52H32.89C32.5 50.82 31.15 49.47 28.33 49.47C25.96 49.47 23.98 50.46 23.98 53.07C23.98 55.26 26.08 56.1 28.9 56.91C32.47 57.93 36.13 58.71 36.13 63.24C36.13 67.17 33.16 69.09 29.77 69.45V72.78H27.01V69.42C23.14 68.94 20.38 66.69 20.32 62.37H23.17C23.29 65.58 25.48 67.11 28.6 67.11C31.12 67.11 33.28 65.94 33.28 63.33C33.28 60.69 31.06 60.24 28.36 59.43C24.82 58.38 21.22 57.33 21.13 53.28C21.04 49.62 23.71 47.58 27.01 47.16V43.86ZM46.5227 69H43.8227V53.13H38.7227V51.09C41.6327 51.09 43.6727 50.64 44.3027 47.58H46.5227V69ZM51.5741 65.4H54.5741L52.4141 72.63H50.0141L51.5741 65.4ZM56.4259 63.6V61.38L65.9659 47.58H68.4259V61.32H70.7959V63.6H68.4259V69H65.7259V63.6H56.4259ZM59.2159 61.32H65.7259V51.99H65.6359L59.2159 61.32ZM86.1688 49.86H77.4388L76.4788 56.22C77.4988 55.23 79.1488 54.69 80.8888 54.69C85.1788 54.69 88.0288 57.39 88.0288 62.04C88.0288 66.03 85.0888 69.36 80.5288 69.36C76.8088 69.36 73.4788 67.05 73.2088 63.27H75.9088C76.2088 65.37 78.0988 67.08 80.5288 67.08C82.9888 67.08 85.3288 65.34 85.3288 62.04C85.3288 59.07 83.8288 57.03 80.4088 57.03C78.4888 57.03 77.1388 58.14 76.4488 59.4L73.6588 59.07L75.3088 47.58H86.1688V49.86ZM97.567 67.08C101.077 67.08 102.487 62.31 102.487 58.29C102.487 54.3 101.077 49.74 97.567 49.74C94.057 49.74 92.647 54.3 92.647 58.29C92.647 62.31 94.057 67.08 97.567 67.08ZM89.947 58.29C89.947 52.83 91.927 47.46 97.567 47.46C103.207 47.46 105.187 52.83 105.187 58.29C105.187 63.75 103.207 69.36 97.567 69.36C91.927 69.36 89.947 63.78 89.947 58.29ZM108.178 65.4H111.178L109.018 72.63H106.618L108.178 65.4ZM120.83 67.08C124.34 67.08 125.75 62.31 125.75 58.29C125.75 54.3 124.34 49.74 120.83 49.74C117.32 49.74 115.91 54.3 115.91 58.29C115.91 62.31 117.32 67.08 120.83 67.08ZM113.21 58.29C113.21 52.83 115.19 47.46 120.83 47.46C126.47 47.46 128.45 52.83 128.45 58.29C128.45 63.75 126.47 69.36 120.83 69.36C115.19 69.36 113.21 63.78 113.21 58.29ZM138.101 67.08C141.611 67.08 143.021 62.31 143.021 58.29C143.021 54.3 141.611 49.74 138.101 49.74C134.591 49.74 133.181 54.3 133.181 58.29C133.181 62.31 134.591 67.08 138.101 67.08ZM130.481 58.29C130.481 52.83 132.461 47.46 138.101 47.46C143.741 47.46 145.721 52.83 145.721 58.29C145.721 63.75 143.741 69.36 138.101 69.36C132.461 69.36 130.481 63.78 130.481 58.29ZM155.372 67.08C158.882 67.08 160.292 62.31 160.292 58.29C160.292 54.3 158.882 49.74 155.372 49.74C151.862 49.74 150.452 54.3 150.452 58.29C150.452 62.31 151.862 67.08 155.372 67.08ZM147.752 58.29C147.752 52.83 149.732 47.46 155.372 47.46C161.012 47.46 162.992 52.83 162.992 58.29C162.992 63.75 161.012 69.36 155.372 69.36C149.732 69.36 147.752 63.78 147.752 58.29ZM165.503 65.4H168.803V69H165.503V65.4ZM174.487 68.04C176.242 68.04 176.947 65.655 176.947 63.645C176.947 61.65 176.242 59.37 174.487 59.37C172.732 59.37 172.027 61.65 172.027 63.645C172.027 65.655 172.732 68.04 174.487 68.04ZM170.677 63.645C170.677 60.915 171.667 58.23 174.487 58.23C177.307 58.23 178.297 60.915 178.297 63.645C178.297 66.375 177.307 69.18 174.487 69.18C171.667 69.18 170.677 66.39 170.677 63.645ZM183.123 68.04C184.878 68.04 185.583 65.655 185.583 63.645C185.583 61.65 184.878 59.37 183.123 59.37C181.368 59.37 180.663 61.65 180.663 63.645C180.663 65.655 181.368 68.04 183.123 68.04ZM179.313 63.645C179.313 60.915 180.303 58.23 183.123 58.23C185.943 58.23 186.933 60.915 186.933 63.645C186.933 66.375 185.943 69.18 183.123 69.18C180.303 69.18 179.313 66.39 179.313 63.645Z" fill="black"/>
<mask id="path-12-inside-2_379_438" fill="white">
<path d="M0 91H329V96H0V91Z"/>
</mask>
<path d="M329 91H330V90H329V91ZM329 96V97H330V96H329ZM0 92H329V90H0V92ZM328 91V96H330V91H328ZM329 95H0V97H329V95Z" fill="white" mask="url(#path-12-inside-2_379_438)"/>
<path d="M450.889 360.798L106.252 358.6C100.856 358.566 96.4612 354.258 96.3191 348.864L90.1583 115.077" stroke="white"/>
<path d="M1 92H159V95H1V92Z" fill="black"/>
</svg>
