<svg width="477" height="361" viewBox="0 0 477 361" fill="none" xmlns="http://www.w3.org/2000/svg">
<rect x="257.5" y="289.5" width="137" height="71" rx="4.5" stroke="#465364"/>
<path d="M61 173.653V319.653C61 324.072 64.5817 327.653 69 327.653H89" stroke="#979797" stroke-width="1.5" stroke-dasharray="2 2"/>
<rect x="325" y="109.653" width="148" height="60" rx="4" fill="#8CAA8C"/>
<path d="M373.94 126.833V125.973H377.15L377.06 129.653H376.31L376.25 128.473C375.9 129.263 375.19 129.823 373.88 129.823C371.59 129.823 370.37 128.043 370.37 126.083C370.37 124.123 371.65 122.343 374 122.343C375.81 122.343 376.78 123.423 377.11 124.643H376.03C375.78 123.843 375.2 123.253 374 123.253C372.31 123.253 371.45 124.613 371.45 126.083C371.45 127.553 372.29 128.913 373.92 128.913C375.07 128.913 376.11 128.323 376.17 126.823L373.94 126.833ZM379.165 124.483V125.483C379.435 124.743 379.955 124.453 380.715 124.453V125.423C380.665 125.423 380.435 125.433 380.285 125.473C379.735 125.563 379.175 125.833 379.175 127.253V129.653H378.145V124.483H379.165ZM385.914 128.123C385.624 129.193 384.744 129.783 383.554 129.783C382.014 129.783 380.984 128.673 380.984 127.043C380.984 125.483 382.064 124.353 383.544 124.353C385.334 124.353 385.984 125.763 385.994 127.163V127.353H381.974C382.054 128.343 382.674 128.943 383.544 128.943C384.184 128.943 384.724 128.693 384.904 128.123H385.914ZM381.984 126.583H384.974C384.894 125.763 384.434 125.173 383.544 125.173C382.664 125.173 382.104 125.743 381.984 126.583ZM391.388 128.123C391.098 129.193 390.218 129.783 389.028 129.783C387.488 129.783 386.458 128.673 386.458 127.043C386.458 125.483 387.538 124.353 389.018 124.353C390.808 124.353 391.458 125.763 391.468 127.163V127.353H387.448C387.528 128.343 388.148 128.943 389.018 128.943C389.658 128.943 390.198 128.693 390.378 128.123H391.388ZM387.458 126.583H390.448C390.368 125.763 389.908 125.173 389.018 125.173C388.138 125.173 387.578 125.743 387.458 126.583ZM392.252 129.653V124.483H393.272V125.423C393.542 124.833 394.022 124.353 394.822 124.353C396.172 124.353 396.682 125.243 396.682 126.363V129.653H395.662V126.533C395.662 125.673 395.332 125.233 394.622 125.233C393.882 125.233 393.282 125.863 393.282 127.183V129.653H392.252ZM397.706 122.513H398.736V129.653H397.706V122.513ZM399.771 126.053C399.891 125.263 400.551 124.343 401.901 124.343C403.711 124.343 404.031 125.473 404.031 126.433V128.533C404.031 128.923 404.061 129.373 404.111 129.653H403.041C403.021 129.433 403.021 129.223 403.021 128.973V128.753H403.011C402.861 129.163 402.431 129.783 401.331 129.783C400.131 129.783 399.521 129.023 399.521 128.243C399.521 126.793 401.321 126.713 402.081 126.583C402.751 126.473 403.011 126.313 403.011 125.883C403.011 125.453 402.611 125.173 401.921 125.173C401.331 125.173 400.891 125.513 400.771 126.053H399.771ZM400.541 128.223C400.541 128.673 400.941 128.973 401.561 128.973C402.301 128.973 403.031 128.503 403.031 127.253V126.623C402.921 126.933 402.671 127.223 401.681 127.393C400.951 127.533 400.541 127.743 400.541 128.223ZM405.05 129.653V124.483H406.07V125.423C406.34 124.833 406.82 124.353 407.62 124.353C408.97 124.353 409.48 125.243 409.48 126.363V129.653H408.46V126.533C408.46 125.673 408.13 125.233 407.42 125.233C406.68 125.233 406.08 125.863 406.08 127.183V129.653H405.05ZM412.565 124.353C413.485 124.353 414.105 124.963 414.285 125.473H414.295V122.513H415.335V129.653H414.285V128.693H414.275C414.085 129.183 413.485 129.773 412.565 129.773C411.125 129.773 410.185 128.673 410.185 127.053C410.185 125.433 411.125 124.353 412.565 124.353ZM411.205 127.053C411.205 128.123 411.735 128.923 412.775 128.923C413.845 128.923 414.345 128.033 414.345 127.053C414.345 126.093 413.835 125.203 412.775 125.203C411.765 125.203 411.205 125.993 411.205 127.053ZM418.564 129.653V122.513L420.304 122.523L422.224 128.383H422.234L424.124 122.513H425.864V129.653H424.804V123.713H424.784L422.814 129.653H421.624L419.644 123.713H419.624V129.653H418.564ZM431.595 128.123C431.305 129.193 430.425 129.783 429.235 129.783C427.695 129.783 426.665 128.673 426.665 127.043C426.665 125.483 427.745 124.353 429.225 124.353C431.015 124.353 431.665 125.763 431.675 127.163V127.353H427.655C427.735 128.343 428.355 128.943 429.225 128.943C429.865 128.943 430.405 128.693 430.585 128.123H431.595ZM427.665 126.583H430.655C430.575 125.763 430.115 125.173 429.225 125.173C428.345 125.173 427.785 125.743 427.665 126.583ZM433.718 128.043C433.718 128.543 433.928 128.823 434.378 128.823H434.728V129.663H434.228C433.128 129.663 432.708 129.023 432.708 128.143V125.303H431.918V124.483H432.708V123.283L433.718 122.833V124.483H434.718V125.303H433.718V128.043ZM435.451 126.053C435.571 125.263 436.231 124.343 437.581 124.343C439.391 124.343 439.711 125.473 439.711 126.433V128.533C439.711 128.923 439.741 129.373 439.791 129.653H438.721C438.701 129.433 438.701 129.223 438.701 128.973V128.753H438.691C438.541 129.163 438.111 129.783 437.011 129.783C435.811 129.783 435.201 129.023 435.201 128.243C435.201 126.793 437.001 126.713 437.761 126.583C438.431 126.473 438.691 126.313 438.691 125.883C438.691 125.453 438.291 125.173 437.601 125.173C437.011 125.173 436.571 125.513 436.451 126.053H435.451ZM436.221 128.223C436.221 128.673 436.621 128.973 437.241 128.973C437.981 128.973 438.711 128.503 438.711 127.253V126.623C438.601 126.933 438.351 127.223 437.361 127.393C436.631 127.533 436.221 127.743 436.221 128.223ZM440.73 122.513H441.76V129.653H440.73V122.513ZM445.636 126.033C445.576 125.413 445.066 125.173 444.566 125.173C444.096 125.173 443.656 125.443 443.656 125.843C443.656 126.223 444.016 126.443 444.496 126.563C444.736 126.623 444.956 126.673 445.186 126.733C445.996 126.943 446.716 127.333 446.716 128.173C446.716 129.233 445.636 129.783 444.636 129.783C443.676 129.783 442.596 129.343 442.496 128.083H443.516C443.626 128.693 444.006 128.953 444.656 128.953C445.156 128.953 445.696 128.773 445.696 128.233C445.696 127.803 445.286 127.663 444.826 127.543C444.586 127.483 444.336 127.423 444.096 127.353C443.296 127.153 442.646 126.683 442.646 125.883C442.646 124.923 443.606 124.353 444.596 124.353C445.656 124.353 446.526 124.913 446.636 126.033H445.636ZM449.625 122.513H450.705V128.743H454.115V129.653H449.625V122.513ZM454.855 122.513H455.935V128.743H459.345V129.653H454.855V122.513ZM466.312 127.503C466.012 128.753 464.862 129.783 463.052 129.783C460.762 129.783 459.422 128.153 459.422 126.083C459.422 124.033 460.772 122.383 463.062 122.383C464.852 122.383 465.872 123.323 466.312 124.663H465.232C464.852 123.783 464.192 123.293 463.062 123.293C461.412 123.293 460.502 124.563 460.502 126.083C460.502 127.603 461.402 128.873 463.062 128.873C464.232 128.873 464.952 128.303 465.242 127.503H466.312Z" fill="white"/>
<path d="M351.575 127.094L346.727 124.653L351.575 122.213C351.978 122.011 352.12 121.545 351.89 121.181L351.226 120.126C350.997 119.762 350.486 119.642 350.093 119.86L345.364 122.488L345.482 117.419C345.492 116.999 345.123 116.653 344.664 116.653H343.336C342.877 116.653 342.508 116.999 342.518 117.419L342.636 122.488L337.907 119.86C337.514 119.642 337.003 119.762 336.774 120.126L336.11 121.181C335.88 121.545 336.022 122.011 336.425 122.213L341.273 124.653L336.425 127.094C336.022 127.296 335.88 127.762 336.11 128.126L336.774 129.181C337.003 129.545 337.514 129.665 337.907 129.447L342.636 126.818L342.518 131.887C342.508 132.308 342.877 132.653 343.336 132.653H344.664C345.123 132.653 345.492 132.308 345.482 131.887L345.364 126.818L350.093 129.447C350.486 129.665 350.997 129.545 351.226 129.181L351.89 128.126C352.12 127.762 351.978 127.296 351.575 127.094Z" fill="white"/>
<rect x="321.5" y="106.153" width="155" height="67" rx="4.5" stroke="url(#paint0_linear_706_1365)"/>
<rect x="4" y="109.653" width="148" height="60" rx="4" fill="#D9583B"/>
<path d="M23.1 155.113C23.1 156.613 22.25 157.823 20.41 157.823C18.57 157.823 17.72 156.613 17.72 155.113V150.513H18.67V155.113C18.67 156.143 19.21 157.023 20.41 157.023C21.61 157.023 22.15 156.143 22.15 155.113V150.513H23.1V155.113ZM25.0064 155.443C25.0464 156.513 25.7764 157.023 26.8164 157.023C27.6564 157.023 28.3764 156.633 28.3764 155.763C28.3764 154.883 27.6364 154.733 26.7364 154.463C25.5564 154.113 24.3564 153.763 24.3264 152.413C24.2964 151.033 25.4364 150.343 26.7264 150.343C28.1564 150.343 29.0964 151.063 29.2064 152.493H28.2464C28.1164 151.593 27.6664 151.143 26.7264 151.143C25.9364 151.143 25.2764 151.473 25.2764 152.343C25.2764 153.073 25.9764 153.353 26.9164 153.623C28.1064 153.963 29.3264 154.223 29.3264 155.733C29.3264 157.193 28.0964 157.823 26.8164 157.823C25.2564 157.823 24.0764 157.073 24.0564 155.443H25.0064ZM32.4983 150.513C34.8383 150.513 36.1683 151.873 36.1683 153.963C36.1683 156.053 34.8383 157.653 32.5583 157.653H30.3483V150.513H32.4983ZM31.2983 156.853H32.5883C34.0383 156.853 35.2183 155.873 35.2183 153.963C35.2183 152.133 34.0383 151.313 32.5483 151.313H31.2983V156.853Z" fill="white"/>
<path d="M52.63 149.243H53.72V150.383C54.85 150.543 55.63 151.233 55.75 152.563H54.53C54.4 151.743 53.99 151.343 53.15 151.343C52.45 151.343 51.88 151.633 51.88 152.363C51.88 153.013 52.5 153.273 53.42 153.543C54.63 153.903 55.83 154.203 55.83 155.713C55.83 156.993 54.85 157.653 53.72 157.793V158.943H52.63V157.783C51.38 157.603 50.47 156.823 50.38 155.383H51.61C51.67 156.323 52.32 156.813 53.24 156.813C54.04 156.813 54.62 156.473 54.62 155.723C54.62 154.943 53.96 154.793 53.06 154.513C51.88 154.163 50.69 153.783 50.67 152.373C50.66 151.203 51.56 150.543 52.63 150.383V149.243ZM59.4407 157.653H58.3007V152.543H56.5607V151.773C57.5007 151.773 58.2107 151.573 58.4807 150.513H59.4407V157.653ZM61.0829 156.373H62.3429L61.5429 158.903H60.5229L61.0829 156.373ZM67.5831 151.463H64.7031L64.4231 153.323C64.7531 153.033 65.2331 152.863 65.7831 152.863C67.2131 152.863 68.1731 153.783 68.1731 155.313C68.1731 156.693 67.1231 157.793 65.6231 157.793C64.1131 157.793 63.2131 156.883 63.0731 155.753L64.2131 155.743C64.3231 156.323 64.8531 156.823 65.6131 156.823C66.3731 156.823 67.0331 156.243 67.0331 155.313C67.0331 154.443 66.5331 153.823 65.5931 153.823C64.9631 153.823 64.5731 154.153 64.3431 154.533L63.2131 154.433L63.7731 150.503L67.5831 150.513V151.463ZM71.4602 156.833C72.5402 156.833 72.9702 155.413 72.9702 154.083C72.9702 152.753 72.5402 151.413 71.4602 151.413C70.3802 151.413 69.9502 152.753 69.9502 154.083C69.9502 155.413 70.3802 156.833 71.4602 156.833ZM68.8102 154.083C68.8102 152.243 69.4702 150.453 71.4602 150.453C73.4502 150.453 74.1102 152.243 74.1102 154.083C74.1102 155.923 73.4502 157.793 71.4602 157.793C69.4702 157.793 68.8102 155.923 68.8102 154.083ZM77.4613 156.833C78.5413 156.833 78.9713 155.413 78.9713 154.083C78.9713 152.753 78.5413 151.413 77.4613 151.413C76.3813 151.413 75.9513 152.753 75.9513 154.083C75.9513 155.413 76.3813 156.833 77.4613 156.833ZM74.8113 154.083C74.8113 152.243 75.4713 150.453 77.4613 150.453C79.4513 150.453 80.1113 152.243 80.1113 154.083C80.1113 155.923 79.4513 157.793 77.4613 157.793C75.4713 157.793 74.8113 155.923 74.8113 154.083ZM80.9425 156.373H82.1925V157.653H80.9425V156.373ZM85.6648 156.833C86.7448 156.833 87.1748 155.413 87.1748 154.083C87.1748 152.753 86.7448 151.413 85.6648 151.413C84.5848 151.413 84.1548 152.753 84.1548 154.083C84.1548 155.413 84.5848 156.833 85.6648 156.833ZM83.0148 154.083C83.0148 152.243 83.6748 150.453 85.6648 150.453C87.6548 150.453 88.3148 152.243 88.3148 154.083C88.3148 155.923 87.6548 157.793 85.6648 157.793C83.6748 157.793 83.0148 155.923 83.0148 154.083ZM91.666 156.833C92.746 156.833 93.176 155.413 93.176 154.083C93.176 152.753 92.746 151.413 91.666 151.413C90.586 151.413 90.156 152.753 90.156 154.083C90.156 155.413 90.586 156.833 91.666 156.833ZM89.016 154.083C89.016 152.243 89.676 150.453 91.666 150.453C93.656 150.453 94.316 152.243 94.316 154.083C94.316 155.923 93.656 157.793 91.666 157.793C89.676 157.793 89.016 155.923 89.016 154.083Z" fill="white"/>
<path d="M341.21 150.513V151.313H337.71V153.623H341V154.423H337.71V156.853H341.24V157.653H336.76V150.513H341.21ZM342.24 155.833V152.483H343.14V155.743C343.14 156.653 343.53 157.013 344.23 157.013C344.99 157.013 345.66 156.373 345.66 155.023V152.483H346.56V157.653H345.66V156.683C345.39 157.273 344.91 157.773 344.11 157.773C342.75 157.773 342.24 156.883 342.24 155.833ZM348.536 152.483V153.523C348.796 152.763 349.296 152.463 350.076 152.463V153.323C350.036 153.323 349.876 153.333 349.746 153.353C349.146 153.443 348.536 153.713 348.536 155.213V157.653H347.636V152.483H348.536ZM352.968 157.773C351.398 157.773 350.378 156.593 350.378 155.073C350.378 153.553 351.398 152.363 352.968 152.363C354.538 152.363 355.558 153.553 355.558 155.073C355.558 156.593 354.538 157.773 352.968 157.773ZM351.278 155.073C351.278 156.133 351.958 157.013 352.968 157.013C353.978 157.013 354.658 156.133 354.658 155.073C354.658 154.003 353.978 153.123 352.968 153.123C351.958 153.123 351.278 154.003 351.278 155.073Z" fill="white"/>
<path d="M52.63 149.243H53.72V150.383C54.85 150.543 55.63 151.233 55.75 152.563H54.53C54.4 151.743 53.99 151.343 53.15 151.343C52.45 151.343 51.88 151.633 51.88 152.363C51.88 153.013 52.5 153.273 53.42 153.543C54.63 153.903 55.83 154.203 55.83 155.713C55.83 156.993 54.85 157.653 53.72 157.793V158.943H52.63V157.783C51.38 157.603 50.47 156.823 50.38 155.383H51.61C51.67 156.323 52.32 156.813 53.24 156.813C54.04 156.813 54.62 156.473 54.62 155.723C54.62 154.943 53.96 154.793 53.06 154.513C51.88 154.163 50.69 153.783 50.67 152.373C50.66 151.203 51.56 150.543 52.63 150.383V149.243ZM59.4407 157.653H58.3007V152.543H56.5607V151.773C57.5007 151.773 58.2107 151.573 58.4807 150.513H59.4407V157.653ZM61.0829 156.373H62.3429L61.5429 158.903H60.5229L61.0829 156.373ZM67.5831 151.463H64.7031L64.4231 153.323C64.7531 153.033 65.2331 152.863 65.7831 152.863C67.2131 152.863 68.1731 153.783 68.1731 155.313C68.1731 156.693 67.1231 157.793 65.6231 157.793C64.1131 157.793 63.2131 156.883 63.0731 155.753L64.2131 155.743C64.3231 156.323 64.8531 156.823 65.6131 156.823C66.3731 156.823 67.0331 156.243 67.0331 155.313C67.0331 154.443 66.5331 153.823 65.5931 153.823C64.9631 153.823 64.5731 154.153 64.3431 154.533L63.2131 154.433L63.7731 150.503L67.5831 150.513V151.463ZM71.4602 156.833C72.5402 156.833 72.9702 155.413 72.9702 154.083C72.9702 152.753 72.5402 151.413 71.4602 151.413C70.3802 151.413 69.9502 152.753 69.9502 154.083C69.9502 155.413 70.3802 156.833 71.4602 156.833ZM68.8102 154.083C68.8102 152.243 69.4702 150.453 71.4602 150.453C73.4502 150.453 74.1102 152.243 74.1102 154.083C74.1102 155.923 73.4502 157.793 71.4602 157.793C69.4702 157.793 68.8102 155.923 68.8102 154.083ZM77.4613 156.833C78.5413 156.833 78.9713 155.413 78.9713 154.083C78.9713 152.753 78.5413 151.413 77.4613 151.413C76.3813 151.413 75.9513 152.753 75.9513 154.083C75.9513 155.413 76.3813 156.833 77.4613 156.833ZM74.8113 154.083C74.8113 152.243 75.4713 150.453 77.4613 150.453C79.4513 150.453 80.1113 152.243 80.1113 154.083C80.1113 155.923 79.4513 157.793 77.4613 157.793C75.4713 157.793 74.8113 155.923 74.8113 154.083ZM80.9425 156.373H82.1925V157.653H80.9425V156.373ZM85.6648 156.833C86.7448 156.833 87.1748 155.413 87.1748 154.083C87.1748 152.753 86.7448 151.413 85.6648 151.413C84.5848 151.413 84.1548 152.753 84.1548 154.083C84.1548 155.413 84.5848 156.833 85.6648 156.833ZM83.0148 154.083C83.0148 152.243 83.6748 150.453 85.6648 150.453C87.6548 150.453 88.3148 152.243 88.3148 154.083C88.3148 155.923 87.6548 157.793 85.6648 157.793C83.6748 157.793 83.0148 155.923 83.0148 154.083ZM91.666 156.833C92.746 156.833 93.176 155.413 93.176 154.083C93.176 152.753 92.746 151.413 91.666 151.413C90.586 151.413 90.156 152.753 90.156 154.083C90.156 155.413 90.586 156.833 91.666 156.833ZM89.016 154.083C89.016 152.243 89.676 150.453 91.666 150.453C93.656 150.453 94.316 152.243 94.316 154.083C94.316 155.923 93.656 157.793 91.666 157.793C89.676 157.793 89.016 155.923 89.016 154.083Z" fill="white"/>
<path d="M3.99998 139.653L152 139.653" stroke="white" stroke-width="0.5"/>
<path d="M43 109.653V139.653" stroke="white" stroke-width="0.5"/>
<path d="M325 139.653L473 139.653" stroke="white" stroke-width="0.5"/>
<path d="M364 109.653V139.653" stroke="white" stroke-width="0.5"/>
<path d="M69.28 129.653H68.16L70.8 122.513H72.15L74.79 129.653H73.66L72.93 127.633H70.02L69.28 129.653ZM70.33 126.763H72.62L71.48 123.493H71.46L70.33 126.763ZM79.9464 128.023C79.6764 129.143 78.8564 129.783 77.6064 129.783C76.0264 129.783 74.9264 128.673 74.9264 127.073C74.9264 125.463 76.0264 124.353 77.6064 124.353C78.9064 124.353 79.6964 125.083 79.9064 126.083H78.9064C78.7164 125.593 78.3464 125.183 77.5864 125.183C76.5864 125.183 75.9464 126.013 75.9464 127.073C75.9464 128.123 76.5864 128.943 77.5864 128.943C78.2764 128.943 78.7264 128.623 78.9364 128.023H79.9464ZM80.7495 129.653V124.483H81.7695V125.353C81.8895 124.873 82.3895 124.353 83.0995 124.353C83.8995 124.353 84.3795 124.673 84.6195 125.363C84.9295 124.693 85.3795 124.353 86.0895 124.353C87.3595 124.353 87.8995 125.243 87.8995 126.363V129.653H86.8795V126.533C86.8795 125.673 86.5695 125.233 85.9495 125.233C85.3095 125.233 84.8295 125.873 84.8295 127.133V129.653H83.8195V126.533C83.8195 125.673 83.6095 125.233 82.8995 125.233C82.0195 125.233 81.7795 126.133 81.7795 127.183V129.653H80.7495ZM93.5287 128.123C93.2387 129.193 92.3587 129.783 91.1687 129.783C89.6287 129.783 88.5987 128.673 88.5987 127.043C88.5987 125.483 89.6787 124.353 91.1587 124.353C92.9487 124.353 93.5987 125.763 93.6087 127.163V127.353H89.5887C89.6687 128.343 90.2887 128.943 91.1587 128.943C91.7987 128.943 92.3387 128.693 92.5187 128.123H93.5287ZM89.5987 126.583H92.5887C92.5087 125.763 92.0487 125.173 91.1587 125.173C90.2787 125.173 89.7187 125.743 89.5987 126.583ZM103.069 127.503C102.769 128.753 101.619 129.783 99.8086 129.783C97.5186 129.783 96.1786 128.153 96.1786 126.083C96.1786 124.033 97.5286 122.383 99.8186 122.383C101.609 122.383 102.629 123.323 103.069 124.663H101.989C101.609 123.783 100.949 123.293 99.8186 123.293C98.1686 123.293 97.2586 124.563 97.2586 126.083C97.2586 127.603 98.1586 128.873 99.8186 128.873C100.989 128.873 101.709 128.303 101.999 127.503H103.069ZM106.302 129.783C104.752 129.783 103.672 128.643 103.672 127.073C103.672 125.503 104.752 124.353 106.302 124.353C107.852 124.353 108.922 125.503 108.922 127.073C108.922 128.643 107.852 129.783 106.302 129.783ZM104.692 127.073C104.692 128.093 105.332 128.933 106.302 128.933C107.262 128.933 107.912 128.093 107.912 127.073C107.912 126.043 107.262 125.203 106.302 125.203C105.332 125.203 104.692 126.043 104.692 127.073ZM109.397 128.413H110.567V129.653H109.397V128.413Z" fill="white"/>
<path d="M24.0113 125.397L17.8698 131.345C17.4453 131.756 16.7589 131.756 16.3389 131.345L15.3184 130.357C14.8939 129.945 14.8939 129.281 15.3184 128.874L19.6716 124.658L15.3184 120.442C14.8939 120.03 14.8939 119.366 15.3184 118.959L16.3344 117.962C16.7589 117.551 17.4453 117.551 17.8653 117.962L24.0068 123.91C24.4358 124.321 24.4358 124.986 24.0113 125.397ZM32.6816 123.91L26.5401 117.962C26.1157 117.551 25.4293 117.551 25.0093 117.962L23.9887 118.95C23.5642 119.361 23.5642 120.026 23.9887 120.433L28.3419 124.649L23.9887 128.865C23.5642 129.276 23.5642 129.941 23.9887 130.348L25.0093 131.336C25.4338 131.747 26.1202 131.747 26.5401 131.336L32.6816 125.388C33.1061 124.986 33.1061 124.321 32.6816 123.91Z" fill="white"/>
<path d="M79.1041 106.218L79.0432 50.0668C79.0385 45.642 82.6265 42.0537 87.0513 42.0582L171.434 42.1436" stroke="url(#paint1_linear_706_1365)" stroke-width="1.5"/>
<rect x="0.5" y="106.153" width="155" height="67" rx="4.5" stroke="url(#paint2_linear_706_1365)"/>
<rect x="171.5" y="24.1533" width="135" height="37" rx="4.5" stroke="url(#paint3_linear_706_1365)"/>
<path d="M399.271 105.733L398.694 50.7321C398.648 46.351 395.087 42.8219 390.705 42.8159L306.605 42.7015" stroke="url(#paint4_linear_706_1365)" stroke-width="1.5"/>
<rect x="171.5" y="24.1533" width="135" height="37" rx="4.5" stroke="url(#paint5_linear_706_1365)"/>
<rect x="92" y="293" width="130" height="64" rx="4" fill="#61748B"/>
<rect x="88.5" y="289.5" width="137" height="71" rx="4.5" stroke="#465364"/>
<rect x="175" y="27.6533" width="128" height="30" rx="3" fill="white"/>
<path d="M120.414 306.657H121.744V316.653H120.414V306.657ZM123.425 316.653V309.415H124.685V310.773C125.063 309.947 125.735 309.247 126.855 309.247C128.759 309.247 129.473 310.493 129.473 311.963V316.653H128.213V312.089C128.213 310.815 127.667 310.311 126.687 310.311C125.623 310.311 124.685 311.207 124.685 313.097V316.653H123.425ZM132.45 314.623C132.45 315.267 132.814 315.617 133.374 315.617H133.878V316.653H133.248C131.848 316.653 131.218 315.827 131.218 314.707V310.451H130.14V309.415H131.218V307.721L132.45 307.161V309.415H133.836V310.451H132.45V314.623ZM141.224 314.497C140.818 316.037 139.6 316.821 137.99 316.821C135.848 316.821 134.434 315.267 134.434 312.999C134.434 310.815 135.918 309.247 137.962 309.247C140.51 309.247 141.308 311.291 141.336 313.153V313.377H135.652C135.75 314.889 136.674 315.771 137.962 315.771C138.928 315.771 139.74 315.393 139.992 314.497H141.224ZM135.666 312.369H140.062C139.95 311.109 139.25 310.283 137.962 310.283C136.66 310.283 135.834 311.123 135.666 312.369ZM143.71 309.415V310.871C144.074 309.807 144.774 309.387 145.866 309.387V310.591C145.81 310.591 145.586 310.605 145.404 310.633C144.564 310.759 143.71 311.137 143.71 313.237V316.653H142.45V309.415H143.71ZM146.668 316.653V309.415H147.928V310.647C148.068 309.989 148.782 309.247 149.762 309.247C150.938 309.247 151.61 309.695 151.946 310.689C152.394 309.709 153.052 309.247 154.018 309.247C155.782 309.247 156.468 310.493 156.468 311.963V316.653H155.208V312.089C155.208 310.815 154.69 310.311 153.85 310.311C152.926 310.311 152.184 311.207 152.184 313.097V316.653H150.924V312.089C150.924 310.815 150.574 310.311 149.594 310.311C148.306 310.311 147.928 311.585 147.928 313.097V316.653H146.668ZM164.269 314.497C163.863 316.037 162.645 316.821 161.035 316.821C158.893 316.821 157.479 315.267 157.479 312.999C157.479 310.815 158.963 309.247 161.007 309.247C163.555 309.247 164.353 311.291 164.381 313.153V313.377H158.697C158.795 314.889 159.719 315.771 161.007 315.771C161.973 315.771 162.785 315.393 163.037 314.497H164.269ZM158.711 312.369H163.107C162.995 311.109 162.295 310.283 161.007 310.283C159.705 310.283 158.879 311.123 158.711 312.369ZM168.351 309.247C169.667 309.247 170.577 310.129 170.843 310.885H170.857V306.657H172.117V316.653H170.857V315.211H170.843C170.577 315.953 169.667 316.821 168.351 316.821C166.307 316.821 165.047 315.253 165.047 313.013C165.047 310.773 166.307 309.247 168.351 309.247ZM166.307 313.013C166.307 314.581 167.077 315.743 168.603 315.743C170.171 315.743 170.899 314.441 170.899 313.013C170.899 311.599 170.171 310.311 168.603 310.311C167.119 310.311 166.307 311.445 166.307 313.013ZM174.995 308.057H173.651V306.657H174.995V308.057ZM173.623 316.653V309.415H174.883V316.653H173.623ZM176.337 311.599C176.491 310.549 177.373 309.233 179.263 309.233C181.923 309.233 182.175 310.955 182.175 312.075V315.183C182.175 315.729 182.231 316.303 182.287 316.653H180.943C180.915 316.303 180.915 316.009 180.915 315.603V315.323H180.901C180.733 315.883 180.131 316.821 178.521 316.821C176.785 316.821 175.987 315.715 175.987 314.679C175.987 312.635 178.563 312.565 179.655 312.369C180.607 312.201 180.915 311.935 180.915 311.333C180.915 310.731 180.341 310.297 179.305 310.297C178.423 310.297 177.765 310.815 177.597 311.599H176.337ZM177.233 314.679C177.233 315.365 177.863 315.799 178.745 315.799C179.851 315.799 180.943 315.085 180.943 313.293L180.929 312.285C180.789 312.761 180.481 313.181 178.913 313.461C177.863 313.643 177.233 313.951 177.233 314.679ZM184.918 309.415V310.871C185.282 309.807 185.982 309.387 187.074 309.387V310.591C187.018 310.591 186.794 310.605 186.612 310.633C185.772 310.759 184.918 311.137 184.918 313.237V316.653H183.658V309.415H184.918ZM188.833 309.415L191.129 315.407H191.143L193.201 309.415H194.545L191.269 318.053C190.947 318.921 190.415 319.453 189.435 319.453H188.455V318.389H189.253C189.953 318.389 190.065 317.997 190.275 317.479L190.527 316.849C189.519 314.371 188.497 311.893 187.489 309.415H188.833ZM138.571 341.653V331.657H142.211C143.905 331.657 145.151 332.651 145.151 334.331C145.151 335.381 144.563 336.095 143.569 336.543V336.557C144.717 336.753 145.571 337.523 145.571 338.825C145.571 340.687 144.255 341.653 142.127 341.653H138.571ZM139.901 340.533H142.351C143.457 340.533 144.241 339.903 144.241 338.825C144.241 337.761 143.457 337.145 142.351 337.145H139.901V340.533ZM139.901 336.025H141.959C143.121 336.025 143.821 335.451 143.821 334.331C143.821 333.211 143.121 332.777 141.959 332.777H139.901V336.025ZM146.872 336.599C147.026 335.549 147.908 334.233 149.798 334.233C152.458 334.233 152.71 335.955 152.71 337.075V340.183C152.71 340.729 152.766 341.303 152.822 341.653H151.478C151.45 341.303 151.45 341.009 151.45 340.603V340.323H151.436C151.268 340.883 150.666 341.821 149.056 341.821C147.32 341.821 146.522 340.715 146.522 339.679C146.522 337.635 149.098 337.565 150.19 337.369C151.142 337.201 151.45 336.935 151.45 336.333C151.45 335.731 150.876 335.297 149.84 335.297C148.958 335.297 148.3 335.815 148.132 336.599H146.872ZM147.768 339.679C147.768 340.365 148.398 340.799 149.28 340.799C150.386 340.799 151.478 340.085 151.478 338.293L151.464 337.285C151.324 337.761 151.016 338.181 149.448 338.461C148.398 338.643 147.768 338.951 147.768 339.679ZM154.194 341.653V334.415H155.454V335.773C155.832 334.947 156.504 334.247 157.624 334.247C159.528 334.247 160.242 335.493 160.242 336.963V341.653H158.982V337.089C158.982 335.815 158.436 335.311 157.456 335.311C156.392 335.311 155.454 336.207 155.454 338.097V341.653H154.194ZM162.954 341.653H161.694V331.657H162.954V337.579L166.09 334.415H167.616L164.592 337.467L167.756 341.653H166.174L163.71 338.335L162.954 339.063V341.653ZM175.098 341.653H173.838V334.247H171.458V333.295C172.816 333.295 173.768 333.085 174.062 331.657H175.098V341.653Z" fill="white"/>
<rect x="261" y="293" width="130" height="64" rx="4" fill="#61748B"/>
<path d="M288.414 306.657H289.744V316.653H288.414V306.657ZM291.425 316.653V309.415H292.685V310.773C293.063 309.947 293.735 309.247 294.855 309.247C296.759 309.247 297.473 310.493 297.473 311.963V316.653H296.213V312.089C296.213 310.815 295.667 310.311 294.687 310.311C293.623 310.311 292.685 311.207 292.685 313.097V316.653H291.425ZM300.45 314.623C300.45 315.267 300.814 315.617 301.374 315.617H301.878V316.653H301.248C299.848 316.653 299.218 315.827 299.218 314.707V310.451H298.14V309.415H299.218V307.721L300.45 307.161V309.415H301.836V310.451H300.45V314.623ZM309.224 314.497C308.818 316.037 307.6 316.821 305.99 316.821C303.848 316.821 302.434 315.267 302.434 312.999C302.434 310.815 303.918 309.247 305.962 309.247C308.51 309.247 309.308 311.291 309.336 313.153V313.377H303.652C303.75 314.889 304.674 315.771 305.962 315.771C306.928 315.771 307.74 315.393 307.992 314.497H309.224ZM303.666 312.369H308.062C307.95 311.109 307.25 310.283 305.962 310.283C304.66 310.283 303.834 311.123 303.666 312.369ZM311.71 309.415V310.871C312.074 309.807 312.774 309.387 313.866 309.387V310.591C313.81 310.591 313.586 310.605 313.404 310.633C312.564 310.759 311.71 311.137 311.71 313.237V316.653H310.45V309.415H311.71ZM314.668 316.653V309.415H315.928V310.647C316.068 309.989 316.782 309.247 317.762 309.247C318.938 309.247 319.61 309.695 319.946 310.689C320.394 309.709 321.052 309.247 322.018 309.247C323.782 309.247 324.468 310.493 324.468 311.963V316.653H323.208V312.089C323.208 310.815 322.69 310.311 321.85 310.311C320.926 310.311 320.184 311.207 320.184 313.097V316.653H318.924V312.089C318.924 310.815 318.574 310.311 317.594 310.311C316.306 310.311 315.928 311.585 315.928 313.097V316.653H314.668ZM332.269 314.497C331.863 316.037 330.645 316.821 329.035 316.821C326.893 316.821 325.479 315.267 325.479 312.999C325.479 310.815 326.963 309.247 329.007 309.247C331.555 309.247 332.353 311.291 332.381 313.153V313.377H326.697C326.795 314.889 327.719 315.771 329.007 315.771C329.973 315.771 330.785 315.393 331.037 314.497H332.269ZM326.711 312.369H331.107C330.995 311.109 330.295 310.283 329.007 310.283C327.705 310.283 326.879 311.123 326.711 312.369ZM336.351 309.247C337.667 309.247 338.577 310.129 338.843 310.885H338.857V306.657H340.117V316.653H338.857V315.211H338.843C338.577 315.953 337.667 316.821 336.351 316.821C334.307 316.821 333.047 315.253 333.047 313.013C333.047 310.773 334.307 309.247 336.351 309.247ZM334.307 313.013C334.307 314.581 335.077 315.743 336.603 315.743C338.171 315.743 338.899 314.441 338.899 313.013C338.899 311.599 338.171 310.311 336.603 310.311C335.119 310.311 334.307 311.445 334.307 313.013ZM342.995 308.057H341.651V306.657H342.995V308.057ZM341.623 316.653V309.415H342.883V316.653H341.623ZM344.337 311.599C344.491 310.549 345.373 309.233 347.263 309.233C349.923 309.233 350.175 310.955 350.175 312.075V315.183C350.175 315.729 350.231 316.303 350.287 316.653H348.943C348.915 316.303 348.915 316.009 348.915 315.603V315.323H348.901C348.733 315.883 348.131 316.821 346.521 316.821C344.785 316.821 343.987 315.715 343.987 314.679C343.987 312.635 346.563 312.565 347.655 312.369C348.607 312.201 348.915 311.935 348.915 311.333C348.915 310.731 348.341 310.297 347.305 310.297C346.423 310.297 345.765 310.815 345.597 311.599H344.337ZM345.233 314.679C345.233 315.365 345.863 315.799 346.745 315.799C347.851 315.799 348.943 315.085 348.943 313.293L348.929 312.285C348.789 312.761 348.481 313.181 346.913 313.461C345.863 313.643 345.233 313.951 345.233 314.679ZM352.918 309.415V310.871C353.282 309.807 353.982 309.387 355.074 309.387V310.591C355.018 310.591 354.794 310.605 354.612 310.633C353.772 310.759 352.918 311.137 352.918 313.237V316.653H351.658V309.415H352.918ZM356.833 309.415L359.129 315.407H359.143L361.201 309.415H362.545L359.269 318.053C358.947 318.921 358.415 319.453 357.435 319.453H356.455V318.389H357.253C357.953 318.389 358.065 317.997 358.275 317.479L358.527 316.849C357.519 314.371 356.497 311.893 355.489 309.415H356.833ZM305.511 341.653V331.657H309.151C310.845 331.657 312.091 332.651 312.091 334.331C312.091 335.381 311.503 336.095 310.509 336.543V336.557C311.657 336.753 312.511 337.523 312.511 338.825C312.511 340.687 311.195 341.653 309.067 341.653H305.511ZM306.841 340.533H309.291C310.397 340.533 311.181 339.903 311.181 338.825C311.181 337.761 310.397 337.145 309.291 337.145H306.841V340.533ZM306.841 336.025H308.899C310.061 336.025 310.761 335.451 310.761 334.331C310.761 333.211 310.061 332.777 308.899 332.777H306.841V336.025ZM313.813 336.599C313.967 335.549 314.849 334.233 316.739 334.233C319.399 334.233 319.651 335.955 319.651 337.075V340.183C319.651 340.729 319.707 341.303 319.763 341.653H318.419C318.391 341.303 318.391 341.009 318.391 340.603V340.323H318.377C318.209 340.883 317.607 341.821 315.997 341.821C314.261 341.821 313.463 340.715 313.463 339.679C313.463 337.635 316.039 337.565 317.131 337.369C318.083 337.201 318.391 336.935 318.391 336.333C318.391 335.731 317.817 335.297 316.781 335.297C315.899 335.297 315.241 335.815 315.073 336.599H313.813ZM314.709 339.679C314.709 340.365 315.339 340.799 316.221 340.799C317.327 340.799 318.419 340.085 318.419 338.293L318.405 337.285C318.265 337.761 317.957 338.181 316.389 338.461C315.339 338.643 314.709 338.951 314.709 339.679ZM321.135 341.653V334.415H322.395V335.773C322.773 334.947 323.445 334.247 324.565 334.247C326.469 334.247 327.183 335.493 327.183 336.963V341.653H325.923V337.089C325.923 335.815 325.377 335.311 324.397 335.311C323.333 335.311 322.395 336.207 322.395 338.097V341.653H321.135ZM329.894 341.653H328.634V331.657H329.894V337.579L333.03 334.415H334.556L331.532 337.467L334.696 341.653H333.114L330.65 338.335L329.894 339.063V341.653ZM338.286 334.835C338.286 332.707 339.518 331.601 341.618 331.601C343.48 331.601 344.726 332.693 344.726 334.499C344.726 336.249 343.886 336.851 342.752 337.733C341.576 338.657 340.204 339.385 339.812 340.589H344.824V341.653H338.146C338.286 339.469 339.742 338.321 341.1 337.411C342.668 336.361 343.466 335.759 343.466 334.555C343.466 333.533 342.794 332.665 341.548 332.665C340.162 332.665 339.56 333.673 339.546 334.835H338.286Z" fill="white"/>
<path d="M419.604 174.653L419.975 318.838C419.987 323.28 416.378 326.88 411.937 326.859L395.016 326.778" stroke="#979797" stroke-width="1.5" stroke-dasharray="2 2"/>
<line x1="226" y1="324.25" x2="257" y2="324.25" stroke="#979797" stroke-width="1.5" stroke-dasharray="2 2"/>
<path d="M207 27.6533V57.6533" stroke="black" stroke-width="0.5"/>
<path d="M199 42.6533C199 47.0716 195.418 50.6533 191 50.6533C186.582 50.6533 183 47.0716 183 42.6533C183 38.235 186.582 34.6533 191 34.6533C195.418 34.6533 199 38.235 199 42.6533ZM190.075 46.8893L196.01 40.9538C196.212 40.7522 196.212 40.4254 196.01 40.2239L195.28 39.494C195.079 39.2924 194.752 39.2924 194.55 39.494L189.71 44.3345L187.45 42.0746C187.248 41.873 186.921 41.873 186.72 42.0746L185.99 42.8045C185.788 43.006 185.788 43.3328 185.99 43.5344L189.345 46.8892C189.546 47.0908 189.873 47.0908 190.075 46.8893Z" fill="#2AC2A1"/>
<path d="M375.24 155.243H372.79C373.14 156.143 373.92 156.813 375.12 156.813C375.77 156.813 376.21 156.683 376.59 156.503V157.543C376.16 157.703 375.67 157.803 375.12 157.803C373.23 157.803 371.99 156.703 371.57 155.243H370.36L370.67 154.423H371.41C371.4 154.303 371.4 154.183 371.4 154.063L371.41 153.783H370.33L370.67 152.963H371.54C371.95 151.463 373.2 150.323 375.12 150.323C375.9 150.323 376.5 150.503 377 150.833L376.63 151.753C376.25 151.473 375.77 151.323 375.12 151.323C373.88 151.323 373.09 152.013 372.75 152.963H376.16L375.83 153.783H372.58C372.57 153.873 372.57 153.973 372.57 154.063C372.57 154.183 372.58 154.303 372.59 154.423H375.57L375.24 155.243ZM380.632 157.653H379.492V152.543H377.752V151.773C378.692 151.773 379.402 151.573 379.672 150.513H380.632V157.653ZM382.274 156.373H383.534L382.734 158.903H381.714L382.274 156.373ZM388.775 151.463H385.895L385.615 153.323C385.945 153.033 386.425 152.863 386.975 152.863C388.405 152.863 389.365 153.783 389.365 155.313C389.365 156.693 388.315 157.793 386.815 157.793C385.305 157.793 384.405 156.883 384.265 155.753L385.405 155.743C385.515 156.323 386.045 156.823 386.805 156.823C387.565 156.823 388.225 156.243 388.225 155.313C388.225 154.443 387.725 153.823 386.785 153.823C386.155 153.823 385.765 154.153 385.535 154.533L384.405 154.433L384.965 150.503L388.775 150.513V151.463ZM392.652 156.833C393.732 156.833 394.162 155.413 394.162 154.083C394.162 152.753 393.732 151.413 392.652 151.413C391.572 151.413 391.142 152.753 391.142 154.083C391.142 155.413 391.572 156.833 392.652 156.833ZM390.002 154.083C390.002 152.243 390.662 150.453 392.652 150.453C394.642 150.453 395.302 152.243 395.302 154.083C395.302 155.923 394.642 157.793 392.652 157.793C390.662 157.793 390.002 155.923 390.002 154.083ZM398.653 156.833C399.733 156.833 400.163 155.413 400.163 154.083C400.163 152.753 399.733 151.413 398.653 151.413C397.573 151.413 397.143 152.753 397.143 154.083C397.143 155.413 397.573 156.833 398.653 156.833ZM396.003 154.083C396.003 152.243 396.663 150.453 398.653 150.453C400.643 150.453 401.303 152.243 401.303 154.083C401.303 155.923 400.643 157.793 398.653 157.793C396.663 157.793 396.003 155.923 396.003 154.083ZM402.134 156.373H403.384V157.653H402.134V156.373ZM406.856 156.833C407.936 156.833 408.366 155.413 408.366 154.083C408.366 152.753 407.936 151.413 406.856 151.413C405.776 151.413 405.346 152.753 405.346 154.083C405.346 155.413 405.776 156.833 406.856 156.833ZM404.206 154.083C404.206 152.243 404.866 150.453 406.856 150.453C408.846 150.453 409.506 152.243 409.506 154.083C409.506 155.923 408.846 157.793 406.856 157.793C404.866 157.793 404.206 155.923 404.206 154.083ZM412.857 156.833C413.937 156.833 414.367 155.413 414.367 154.083C414.367 152.753 413.937 151.413 412.857 151.413C411.777 151.413 411.347 152.753 411.347 154.083C411.347 155.413 411.777 156.833 412.857 156.833ZM410.207 154.083C410.207 152.243 410.867 150.453 412.857 150.453C414.847 150.453 415.507 152.243 415.507 154.083C415.507 155.923 414.847 157.793 412.857 157.793C410.867 157.793 410.207 155.923 410.207 154.083Z" fill="white"/>
<g clip-path="url(#clip0_706_1365)">
<path d="M238.144 34.7861C238.03 35.4058 237.998 36.2467 237.998 37.4639V47.9646C237.998 49.1596 238.03 49.7792 238.144 50.6534H234.814C234.928 49.8567 234.959 49.2038 234.959 47.9646V43.8484H228.153V47.9646C228.153 49.1596 228.195 49.8013 228.299 50.6534H225C225.114 49.8677 225.146 49.226 225.146 47.9646V37.486C225.146 36.2356 225.114 35.5939 225 34.7861H228.299C228.185 35.6271 228.153 36.3463 228.153 37.4639V40.9715H234.959V37.486C234.959 36.2578 234.928 35.5164 234.814 34.7972L238.144 34.7861Z" fill="#1D1D1B"/>
<path d="M243.889 34.7861C243.774 35.5717 243.743 36.1693 243.743 37.4749V47.9535C243.743 49.2038 243.785 49.8899 243.889 50.6423H240.506C240.621 49.8788 240.652 49.1596 240.652 47.9535V37.486C240.652 36.1361 240.621 35.6271 240.506 34.7972L243.889 34.7861Z" fill="#1D1D1B"/>
<path d="M249.446 47.7322C249.446 49.1706 249.477 49.9009 249.592 50.6644H246.251C246.365 49.9452 246.417 49.1042 246.417 47.7764V37.4085C246.417 36.2356 246.376 35.6381 246.272 34.7308C247.011 34.764 247.5 34.7861 248.769 34.7861H254.108C255.336 34.7861 255.961 34.7418 256.752 34.6533V37.7958C256.054 37.6962 255.315 37.663 254.129 37.663H249.446V41.3698H253.203C254.41 41.3698 255.076 41.3366 255.825 41.237V44.302C255.128 44.2024 254.358 44.1692 253.203 44.1692H249.446V47.7322Z" fill="#1D1D1B"/>
<path d="M262.507 34.7861C262.392 35.5717 262.361 36.1693 262.361 37.4749V47.9535C262.361 49.2038 262.403 49.8899 262.507 50.6423H259.125C259.239 49.8788 259.27 49.1596 259.27 47.9535V37.486C259.27 36.1361 259.229 35.6271 259.125 34.7972L262.507 34.7861Z" fill="#1D1D1B"/>
<path d="M278.554 39.6327L267.752 50.6424L266.107 48.8167L276.879 37.8513H267.315L269.844 35.251H281V47.1237L278.544 49.6023V39.6327H278.554Z" fill="#1D1D1B"/>
</g>
<defs>
<linearGradient id="paint0_linear_706_1365" x1="399" y1="105.653" x2="399" y2="173.653" gradientUnits="userSpaceOnUse">
<stop stop-color="#2BDCBC"/>
<stop offset="1" stop-color="#177665"/>
</linearGradient>
<linearGradient id="paint1_linear_706_1365" x1="171.977" y1="41.1257" x2="81.9931" y2="112.907" gradientUnits="userSpaceOnUse">
<stop stop-color="white"/>
<stop offset="1" stop-color="#FF8159"/>
</linearGradient>
<linearGradient id="paint2_linear_706_1365" x1="78" y1="105.653" x2="78" y2="173.653" gradientUnits="userSpaceOnUse">
<stop stop-color="#FF8159"/>
<stop offset="1" stop-color="#994D35"/>
</linearGradient>
<linearGradient id="paint3_linear_706_1365" x1="239" y1="23.6533" x2="239" y2="61.6533" gradientUnits="userSpaceOnUse">
<stop stop-color="#FF8159"/>
<stop offset="1" stop-color="#2BDCBC"/>
</linearGradient>
<linearGradient id="paint4_linear_706_1365" x1="306.886" y1="42.2884" x2="399.552" y2="105.32" gradientUnits="userSpaceOnUse">
<stop stop-color="white"/>
<stop offset="1" stop-color="#2DDCBC"/>
</linearGradient>
<linearGradient id="paint5_linear_706_1365" x1="198" y1="14.1533" x2="274" y2="74.6533" gradientUnits="userSpaceOnUse">
<stop stop-color="#FF8159"/>
<stop offset="1" stop-color="#2BDCBC"/>
</linearGradient>
<clipPath id="clip0_706_1365">
<rect width="56" height="16" fill="white" transform="translate(225 34.6533)"/>
</clipPath>
</defs>
</svg>
